0 FILE 40535 Iron Man
0 40535 Iron Man
0 SetNumber: 40535
0 Name: Iron Man
0 Theme: Brick Sketches
0 ReleaseYear: 2022
0 NumOfBricks: 200
0 Labels: Complete
0 _stepReady: true
1 15 20.000000 -151.431900 -85.682250 1.000000 0.000000 0.000000 0.000000 0.000000 -1.000000 0.000000 1.000000 0.000000 3029.dat
1 322 -80.000000 -171.431900 -93.682250 0.000000 0.000000 1.000000 1.000000 0.000000 0.000000 0.000000 1.000000 0.000000 24307.dat
1 322 -20.000000 -171.431900 -93.682250 1.000000 0.000000 0.000000 0.000000 0.000000 -1.000000 0.000000 1.000000 0.000000 87079.dat
0 STEP
1 322 60.000000 -171.431900 -93.682250 1.000000 0.000000 0.000000 0.000000 0.000000 -1.000000 0.000000 1.000000 0.000000 87079.dat
1 322 120.000000 -171.431900 -93.682250 -1.000000 0.000000 0.000000 0.000000 0.000000 1.000000 0.000000 1.000000 0.000000 24307.dat
1 72 20.000000 -131.431900 -93.682250 1.000000 0.000000 0.000000 0.000000 0.000000 -1.000000 0.000000 1.000000 0.000000 3020.dat
0 STEP
1 1 -39.999980 -31.431940 -93.682250 0.000000 0.000000 1.000000 1.000000 0.000000 0.000000 0.000000 1.000000 0.000000 2445.dat
1 1 80.000040 -31.431940 -93.682250 0.000000 0.000000 1.000000 1.000000 0.000000 0.000000 0.000000 1.000000 0.000000 2445.dat
0 STEP
1 15 20.000020 -71.431940 -85.682250 1.000000 0.000000 0.000000 0.000000 0.000000 -1.000000 0.000000 1.000000 0.000000 3029.dat
1 15 20.000050 8.568040 -85.682260 1.000000 0.000000 0.000000 0.000000 0.000000 -1.000000 0.000000 1.000000 0.000000 3029.dat
1 15 20.000070 88.568040 -85.682270 1.000000 0.000000 0.000000 0.000000 0.000000 -1.000000 0.000000 1.000000 0.000000 3029.dat
0 STEP
1 14 10.000040 -31.431950 -93.682250 0.000000 0.000000 1.000000 1.000000 0.000000 0.000000 0.000000 1.000000 0.000000 4162.dat
1 14 30.000030 -31.431950 -93.682250 0.000000 0.000000 1.000000 1.000000 0.000000 0.000000 0.000000 1.000000 0.000000 4162.dat
1 72 20.000070 68.568040 -93.682260 1.000000 0.000000 0.000000 0.000000 0.000000 -1.000000 0.000000 1.000000 0.000000 3020.dat
0 STEP
1 322 -80.000000 -111.431900 -93.682250 0.000000 0.000000 1.000000 1.000000 0.000000 0.000000 0.000000 1.000000 0.000000 87079.dat
1 322 120.000000 -111.431900 -93.682250 0.000000 0.000000 1.000000 1.000000 0.000000 0.000000 0.000000 1.000000 0.000000 87079.dat
1 322 -79.999970 -51.431940 -93.682250 -1.000000 0.000000 0.000000 0.000000 0.000000 1.000000 0.000000 1.000000 0.000000 35787.dat
1 322 120.000000 -51.431940 -93.682250 0.000000 0.000000 1.000000 1.000000 0.000000 0.000000 0.000000 1.000000 0.000000 35787.dat
0 STEP
1 321 -79.999980 -51.431940 -93.682250 1.000000 0.000000 0.000000 0.000000 0.000000 -1.000000 0.000000 1.000000 0.000000 35787.dat
1 321 120.000000 -51.431920 -93.682250 0.000000 0.000000 -1.000000 -1.000000 0.000000 0.000000 0.000000 1.000000 0.000000 35787.dat
1 321 -79.999940 -11.431960 -93.682260 -1.000000 0.000000 0.000000 0.000000 0.000000 1.000000 0.000000 1.000000 0.000000 35787.dat
1 321 120.000100 -11.431960 -93.682260 0.000000 0.000000 1.000000 1.000000 0.000000 0.000000 0.000000 1.000000 0.000000 35787.dat
1 15 -79.999950 -11.431960 -93.682260 1.000000 0.000000 0.000000 0.000000 0.000000 -1.000000 0.000000 1.000000 0.000000 35787.dat
1 15 120.000100 -11.431940 -93.682260 0.000000 0.000000 -1.000000 -1.000000 0.000000 0.000000 0.000000 1.000000 0.000000 35787.dat
1 15 -79.999940 28.568060 -93.682260 -1.000000 0.000000 0.000000 0.000000 0.000000 1.000000 0.000000 1.000000 0.000000 35787.dat
1 15 120.000100 28.568040 -93.682260 0.000000 0.000000 1.000000 1.000000 0.000000 0.000000 0.000000 1.000000 0.000000 35787.dat
0 STEP
1 321 -79.999950 28.568040 -93.682260 1.000000 0.000000 0.000000 0.000000 0.000000 -1.000000 0.000000 1.000000 0.000000 35787.dat
1 321 -79.999920 68.568020 -93.682260 -1.000000 0.000000 0.000000 0.000000 0.000000 1.000000 0.000000 1.000000 0.000000 35787.dat
1 321 120.000100 28.568070 -93.682260 0.000000 0.000000 -1.000000 -1.000000 0.000000 0.000000 0.000000 1.000000 0.000000 35787.dat
1 321 120.000100 68.568040 -93.682260 0.000000 0.000000 1.000000 1.000000 0.000000 0.000000 0.000000 1.000000 0.000000 35787.dat
1 322 -79.999940 68.568040 -93.682260 1.000000 0.000000 0.000000 0.000000 0.000000 -1.000000 0.000000 1.000000 0.000000 35787.dat
1 322 120.000100 68.568060 -93.682260 0.000000 0.000000 -1.000000 -1.000000 0.000000 0.000000 0.000000 1.000000 0.000000 35787.dat
0 STEP
1 322 -59.999940 108.568000 -93.682270 1.000000 0.000000 0.000000 0.000000 0.000000 -1.000000 0.000000 1.000000 0.000000 3020.dat
1 322 20.000070 108.568000 -93.682270 1.000000 0.000000 0.000000 0.000000 0.000000 -1.000000 0.000000 1.000000 0.000000 3020.dat
1 322 100.000100 108.568000 -93.682270 1.000000 0.000000 0.000000 0.000000 0.000000 -1.000000 0.000000 1.000000 0.000000 3020.dat
0 STEP
1 19 -20.000000 -141.431900 -117.682200 -1.000000 0.000000 0.000000 0.000000 0.000000 1.000000 0.000000 1.000000 0.000000 11211.dat
1 19 20.000000 -141.431900 -117.682200 -1.000000 0.000000 0.000000 0.000000 0.000000 1.000000 0.000000 1.000000 0.000000 11211.dat
1 19 60.000000 -141.431900 -117.682200 -1.000000 0.000000 0.000000 0.000000 0.000000 1.000000 0.000000 1.000000 0.000000 11211.dat
0 STEP
1 0 20.000020 -91.431930 -101.682300 1.000000 0.000000 0.000000 0.000000 0.000000 -1.000000 0.000000 1.000000 0.000000 6180.dat
1 0 20.000060 8.568049 -101.682300 -1.000000 0.000000 0.000000 0.000000 0.000000 1.000000 0.000000 1.000000 0.000000 6180.dat
1 72 20.000030 -41.431940 -101.682300 1.000000 0.000000 0.000000 0.000000 0.000000 -1.000000 0.000000 1.000000 0.000000 3666.dat
0 STEP
1 15 20.000070 58.568040 -101.682300 1.000000 0.000000 0.000000 0.000000 0.000000 -1.000000 0.000000 1.000000 0.000000 35480.dat
1 0 20.000070 88.568040 -101.682300 1.000000 0.000000 0.000000 0.000000 0.000000 -1.000000 0.000000 1.000000 0.000000 33909.dat
1 0 20.000070 118.568000 -101.682300 1.000000 0.000000 0.000000 0.000000 0.000000 -1.000000 0.000000 1.000000 0.000000 3069b.dat
0 STEP
1 0 -19.999930 88.568040 -101.682300 0.000000 0.000000 1.000000 1.000000 0.000000 0.000000 0.000000 1.000000 0.000000 3020.dat
1 0 60.000060 88.568040 -101.682300 0.000000 0.000000 1.000000 1.000000 0.000000 0.000000 0.000000 1.000000 0.000000 3020.dat
0 STEP
1 72 20.000020 -121.431900 -109.682300 1.000000 0.000000 0.000000 0.000000 0.000000 -1.000000 0.000000 1.000000 0.000000 3666.dat
0 STEP
1 322 -19.999980 -71.431930 -109.682300 0.000000 0.000000 1.000000 1.000000 0.000000 0.000000 0.000000 1.000000 0.000000 87079.dat
1 322 60.000020 -71.431920 -109.682300 0.000000 0.000000 1.000000 1.000000 0.000000 0.000000 0.000000 1.000000 0.000000 87079.dat
1 14 20.000040 -31.431930 -109.682300 0.000000 0.000000 1.000000 1.000000 0.000000 0.000000 0.000000 1.000000 0.000000 3034.dat
1 72 -19.999950 8.568069 -109.682300 0.000000 0.000000 1.000000 1.000000 0.000000 0.000000 0.000000 1.000000 0.000000 3020.dat
1 72 60.000040 8.568049 -109.682300 0.000000 0.000000 1.000000 1.000000 0.000000 0.000000 0.000000 1.000000 0.000000 3020.dat
0 STEP
1 71 0.000070 58.568040 -109.682300 1.000000 0.000000 0.000000 0.000000 0.000000 -1.000000 0.000000 1.000000 0.000000 99563.dat
1 71 40.000040 58.568040 -109.682300 1.000000 0.000000 0.000000 0.000000 0.000000 -1.000000 0.000000 1.000000 0.000000 99563.dat
1 0 20.000070 78.568040 -109.682300 1.000000 0.000000 0.000000 0.000000 0.000000 -1.000000 0.000000 1.000000 0.000000 99780.dat
0 STEP
1 320 -69.999940 118.568000 -101.682300 1.000000 0.000000 0.000000 0.000000 0.000000 -1.000000 0.000000 1.000000 0.000000 3623.dat
1 320 110.000100 118.568000 -101.682300 1.000000 0.000000 0.000000 0.000000 0.000000 -1.000000 0.000000 1.000000 0.000000 3623.dat
1 320 110.000100 88.568040 -101.682300 0.000000 0.000000 -1.000000 -1.000000 0.000000 0.000000 0.000000 1.000000 0.000000 43723b.dat
1 320 -69.999940 88.568040 -101.682300 0.000000 0.000000 1.000000 1.000000 0.000000 0.000000 0.000000 1.000000 0.000000 43722b.dat
0 STEP
1 72 90.000000 -71.431930 -101.682300 0.000000 0.000000 1.000000 1.000000 0.000000 0.000000 0.000000 1.000000 0.000000 3666.dat
1 72 89.999980 -71.431930 -109.682300 0.000001 0.000000 1.000000 1.000000 0.000000 -0.000001 0.000000 1.000000 0.000000 3666.dat
1 320 89.999980 -111.431900 -117.682200 0.000000 0.000000 -1.000000 -1.000000 0.000000 0.000000 0.000000 1.000000 0.000000 99781.dat
1 320 89.999980 -71.431940 -117.682200 0.000000 0.000000 -1.000000 -1.000000 0.000000 0.000000 0.000000 1.000000 0.000000 99781.dat
1 320 90.000020 -31.431950 -117.682200 0.000000 0.000000 -1.000000 -1.000000 0.000000 0.000000 0.000000 1.000000 0.000000 99781.dat
1 320 95.999980 -131.431900 -107.682300 0.000000 -1.000000 0.000000 0.000000 0.000000 1.000000 -1.000000 0.000000 0.000000 11477.dat
1 72 89.999980 -141.431900 -117.682200 0.000000 0.000000 -1.000000 -1.000000 0.000000 0.000000 0.000000 1.000000 0.000000 4070.dat
1 320 112.000000 -101.431900 -107.682300 0.000000 -1.000000 0.000000 1.000000 0.000000 0.000000 0.000000 0.000000 1.000000 3070b.dat
0 STEP
1 72 -50.000020 -71.431930 -101.682300 0.000000 0.000000 1.000000 1.000000 0.000000 0.000000 0.000000 1.000000 0.000000 3666.dat
1 72 -49.999970 -71.431930 -109.682300 0.000001 0.000000 1.000000 1.000000 0.000000 -0.000001 0.000000 1.000000 0.000000 3666.dat
1 72 -50.000010 -141.431900 -117.682200 0.000000 0.000000 1.000000 1.000000 0.000000 0.000000 0.000000 1.000000 0.000000 4070.dat
1 320 -49.999980 -111.431900 -117.682200 0.000000 0.000000 1.000000 1.000000 0.000000 0.000000 0.000000 1.000000 0.000000 99781.dat
1 320 -49.999970 -71.431930 -117.682200 0.000000 0.000000 1.000000 1.000000 0.000000 0.000000 0.000000 1.000000 0.000000 99781.dat
1 320 -49.999950 -31.431940 -117.682200 0.000000 0.000000 1.000000 1.000000 0.000000 0.000000 0.000000 1.000000 0.000000 99781.dat
1 320 -55.999980 -131.431900 -107.682300 0.000000 1.000000 0.000000 0.000000 0.000000 1.000000 1.000000 0.000000 0.000000 11477.dat
1 320 -71.999980 -101.431900 -107.682300 0.000000 1.000000 0.000000 -1.000000 0.000000 0.000000 0.000000 0.000000 1.000000 3070b.dat
0 STEP
1 320 100.000100 18.568040 -101.682300 1.000000 0.000000 0.000000 0.000000 0.000000 -1.000000 0.000000 1.000000 0.000000 43723b.dat
1 320 -59.999980 18.568070 -101.682300 1.000000 0.000000 0.000000 0.000000 0.000000 -1.000000 0.000000 1.000000 0.000000 43722b.dat
1 320 -49.999980 58.568060 -101.682300 0.000000 0.000000 1.000000 1.000000 0.000000 0.000000 0.000000 1.000000 0.000000 25269.dat
1 320 90.000060 58.568040 -101.682300 1.000000 0.000000 0.000000 0.000000 0.000000 -1.000000 0.000000 1.000000 0.000000 25269.dat
0 STEP
1 320 100.000100 18.568040 -109.682300 1.000000 0.000000 0.000000 0.000000 0.000000 -1.000000 0.000000 1.000000 0.000000 43723b.dat
1 320 -59.999980 18.568070 -109.682300 1.000000 0.000000 0.000000 0.000000 0.000000 -1.000000 0.000000 1.000000 0.000000 43722b.dat
1 320 -59.999940 78.568020 -109.682300 -1.000000 0.000000 0.000000 0.000000 0.000000 1.000000 0.000000 1.000000 0.000000 43723b.dat
1 320 100.000100 78.568020 -109.682300 -1.000000 0.000000 0.000000 0.000000 0.000000 1.000000 0.000000 1.000000 0.000000 43722b.dat
1 320 60.000060 88.568040 -109.682300 1.000000 0.000000 0.000000 0.000000 0.000000 -1.000000 0.000000 1.000000 0.000000 26601.dat
1 320 -19.999930 88.568050 -109.682300 0.000000 0.000000 1.000000 1.000000 0.000000 0.000000 0.000000 1.000000 0.000000 26601.dat
0 STEP
0 STEP
1 320 -69.999940 118.568000 -109.682300 1.000000 0.000000 0.000000 0.000000 0.000000 -1.000000 0.000000 1.000000 0.000000 63864.dat
1 320 110.000100 118.568000 -109.682300 1.000000 0.000000 0.000000 0.000000 0.000000 -1.000000 0.000000 1.000000 0.000000 63864.dat
1 320 -19.999940 108.568000 -109.682300 1.000000 0.000000 0.000000 0.000000 0.000000 -1.000000 0.000000 1.000000 0.000000 35787.dat
1 320 60.000070 108.568100 -109.682300 0.000000 0.000000 -1.000000 -1.000000 0.000000 0.000000 0.000000 1.000000 0.000000 35787.dat
0 STEP
1 320 112.000000 -41.431950 -107.682300 0.000000 -1.000000 0.000000 1.000000 0.000000 0.000000 0.000000 0.000000 1.000000 3623.dat
1 320 -71.999950 -41.431940 -107.682300 0.000000 1.000000 0.000000 -1.000000 0.000000 0.000000 0.000000 0.000000 1.000000 3623.dat
1 320 104.000000 -71.431950 -107.682300 0.000000 -1.000000 0.000000 0.000000 0.000000 1.000000 -1.000000 0.000000 0.000000 11477.dat
1 320 -63.999960 -71.431930 -107.682300 0.000000 1.000000 0.000000 0.000000 0.000000 1.000000 1.000000 0.000000 0.000000 11477.dat
1 320 -79.999950 -31.431940 -107.682300 0.000000 1.000000 0.000000 -1.000000 0.000000 0.000000 0.000000 0.000000 1.000000 3069b.dat
1 320 120.000000 -31.431960 -107.682300 0.000000 -1.000000 0.000000 1.000000 0.000000 0.000000 0.000000 0.000000 1.000000 3069b.dat
0 STEP
1 14 20.000000 -159.431900 -107.682300 1.000000 0.000000 0.000000 0.000000 1.000000 0.000000 0.000000 0.000000 1.000000 3710.dat
1 15 20.000000 -167.431900 -107.682300 1.000000 0.000000 0.000000 0.000000 1.000000 0.000000 0.000000 0.000000 1.000000 35480.dat
1 320 -30.000000 -175.431900 -107.682300 0.000000 0.000000 1.000000 0.000000 1.000000 0.000000 -1.000000 0.000000 0.000000 50950.dat
1 320 69.999980 -175.431900 -107.682200 0.000000 0.000000 -1.000000 0.000000 1.000000 0.000000 1.000000 0.000000 0.000000 50950.dat
0 STEP
1 320 20.000000 -175.431900 -107.682300 1.000000 0.000000 0.000000 0.000000 1.000000 0.000000 0.000000 0.000000 1.000000 3069b.dat
1 0 20.000040 -91.431930 -117.682200 1.000000 0.000000 0.000000 0.000000 0.000000 -1.000000 0.000000 1.000000 0.000000 6180.dat
0 STEP
1 72 20.000050 -11.431920 -117.682200 0.000000 0.000000 1.000000 1.000000 0.000000 0.000000 0.000000 1.000000 0.000000 3020.dat
1 15 -19.999960 -21.431930 -117.682200 1.000000 0.000000 0.000000 0.000000 0.000000 -1.000000 0.000000 1.000000 0.000000 35480.dat
1 15 60.000030 -21.431940 -117.682200 1.000000 0.000000 0.000000 0.000000 0.000000 -1.000000 0.000000 1.000000 0.000000 35480.dat
0 STEP
1 0 -19.999960 8.568069 -117.682300 0.000000 0.000000 1.000000 1.000000 0.000000 0.000000 0.000000 1.000000 0.000000 33909.dat
1 0 60.000040 8.568049 -117.682300 0.000000 0.000000 -1.000000 -1.000000 0.000000 0.000000 0.000000 1.000000 0.000000 33909.dat
1 0 -29.999950 48.568060 -101.682300 1.000000 0.000000 0.000000 0.000000 0.000000 -1.000000 0.000000 1.000000 0.000000 29119.dat
1 0 70.000060 48.568050 -101.682300 1.000000 0.000000 0.000000 0.000000 0.000000 -1.000000 0.000000 1.000000 0.000000 29120.dat
1 320 -59.999970 8.568069 -117.682300 -1.000000 0.000000 0.000000 0.000000 0.000000 1.000000 0.000000 1.000000 0.000000 35787.dat
1 320 100.000100 8.568040 -117.682300 0.000000 0.000000 1.000000 1.000000 0.000000 0.000000 0.000000 1.000000 0.000000 35787.dat
0 STEP
1 320 -9.999940 78.568100 -117.682300 0.000000 0.000000 1.000000 1.000000 0.000000 0.000000 0.000000 1.000000 0.000000 2420.dat
1 320 50.000090 78.568040 -117.682300 -1.000000 0.000000 0.000000 0.000000 0.000000 1.000000 0.000000 1.000000 0.000000 2420.dat
1 320 -39.999920 88.568100 -117.682300 -1.000000 0.000000 0.000000 0.000000 0.000000 1.000000 0.000000 1.000000 0.000000 35787.dat
1 320 80.000110 88.568040 -117.682300 0.000000 0.000000 1.000000 1.000000 0.000000 0.000000 0.000000 1.000000 0.000000 35787.dat
0 STEP
1 15 -89.999950 -31.431930 -77.682260 0.000000 0.000000 1.000000 1.000000 0.000000 0.000000 0.000000 1.000000 0.000000 2465.dat
1 15 130.000000 -31.431940 -77.682260 0.000000 0.000000 1.000000 1.000000 0.000000 0.000000 0.000000 1.000000 0.000000 2465.dat
1 15 20.000000 -181.431900 -77.682260 1.000000 0.000000 0.000000 0.000000 0.000000 -1.000000 0.000000 1.000000 0.000000 4477.dat
0 STEP
1 71 20.000000 -161.431900 -77.682260 1.000000 0.000000 0.000000 0.000000 0.000000 -1.000000 0.000000 1.000000 0.000000 41740.dat
1 15 90.000000 -181.431900 -69.682260 1.000000 0.000000 0.000000 0.000000 0.000000 -1.000000 0.000000 1.000000 0.000000 3623.dat
1 15 -50.000000 -181.431900 -69.682260 1.000000 0.000000 0.000000 0.000000 0.000000 -1.000000 0.000000 1.000000 0.000000 3623.dat
0 STEP
1 15 20.000000 -171.431900 -69.682260 1.000000 0.000000 0.000000 0.000000 0.000000 -1.000000 0.000000 1.000000 0.000000 3176.dat
1 15 50.000000 -171.431900 -69.682260 0.000000 0.000000 1.000000 1.000000 0.000000 0.000000 0.000000 1.000000 0.000000 44302.dat
1 15 -10.000010 -171.431900 -69.682260 0.000000 0.000000 1.000000 1.000000 0.000000 0.000000 0.000000 1.000000 0.000000 44302.dat
0 STEP
1 15 20.000000 -181.431900 -61.682250 1.000000 0.000000 0.000000 0.000000 0.000000 -1.000000 0.000000 1.000000 0.000000 4477.dat
0 STEP
1 71 50.000010 -129.108700 -58.682000 -1.000000 0.000000 0.000000 0.000000 0.000000 1.000000 0.000000 1.000000 0.000000 53923.dat
1 71 -10.000000 -129.108700 -58.682000 -1.000000 0.000000 0.000000 0.000000 0.000000 1.000000 0.000000 1.000000 0.000000 53923.dat
1 71 50.000000 -21.431930 -67.682260 0.000000 0.000000 -1.000000 -1.000000 0.000000 0.000000 0.000000 1.000000 0.000000 23948.dat
1 71 -9.999980 -21.431930 -67.682260 0.000000 0.000000 -1.000000 -1.000000 0.000000 0.000000 0.000000 1.000000 0.000000 23948.dat
0 STEP
1 15 49.999980 98.568050 -67.682270 1.000000 0.000000 0.000000 0.000000 0.000000 -1.000000 0.000000 1.000000 0.000000 25214.dat
1 4 19.999980 98.568050 -67.682270 1.000000 0.000000 0.000000 0.000000 0.000000 -1.000000 0.000000 1.000000 0.000000 32062.dat
1 15 -10.000010 98.568070 -67.682270 0.000000 0.000000 1.000000 1.000000 0.000000 0.000000 0.000000 1.000000 0.000000 25214.dat
0 STEP
1 15 20.000070 118.568000 -77.682270 1.000000 0.000000 0.000000 0.000000 0.000000 -1.000000 0.000000 1.000000 0.000000 6111.dat
1 71 110.000000 -161.431900 -77.682260 1.000000 0.000000 0.000000 0.000000 0.000000 -1.000000 0.000000 1.000000 0.000000 3062b.dat
1 71 110.000100 98.568040 -77.682270 1.000000 0.000000 0.000000 0.000000 0.000000 -1.000000 0.000000 1.000000 0.000000 3062b.dat
1 71 -70.000000 -161.431900 -77.682260 1.000000 0.000000 0.000000 0.000000 0.000000 -1.000000 0.000000 1.000000 0.000000 3062b.dat
1 71 -69.999940 98.568040 -77.682270 1.000000 0.000000 0.000000 0.000000 0.000000 -1.000000 0.000000 1.000000 0.000000 3062b.dat
0 STEP
1 15 120.000000 -171.431900 -53.682250 1.000000 0.000000 0.000000 0.000000 0.000000 -1.000000 0.000000 1.000000 0.000000 2654.dat
1 15 120.000100 108.568000 -53.682270 1.000000 0.000000 0.000000 0.000000 0.000000 -1.000000 0.000000 1.000000 0.000000 2654.dat
1 15 -79.999920 108.568100 -53.682270 1.000000 0.000000 0.000000 0.000000 0.000000 -1.000000 0.000000 1.000000 0.000000 2654.dat
1 15 -79.999980 -171.431900 -53.682250 1.000000 0.000000 0.000000 0.000000 0.000000 -1.000000 0.000000 1.000000 0.000000 2654.dat
0 STEP
1 14 20.000060 78.568100 -125.682300 1.000000 0.000000 0.000000 0.000000 0.000000 -1.000000 0.000000 1.000000 0.000000 3069b.dat
1 14 -19.999930 88.568100 -125.682300 -1.000000 0.000000 0.000000 0.000000 0.000000 1.000000 0.000000 1.000000 0.000000 35787.dat
1 14 60.000100 88.568040 -125.682300 0.000000 0.000000 1.000000 1.000000 0.000000 0.000000 0.000000 1.000000 0.000000 35787.dat
0 STEP
1 0 0.000060 38.568070 -117.682300 1.000000 0.000000 0.000000 0.000000 0.000000 -1.000000 0.000000 1.000000 0.000000 99780.dat
1 0 40.000060 38.568050 -117.682300 1.000000 0.000000 0.000000 0.000000 0.000000 -1.000000 0.000000 1.000000 0.000000 99780.dat
0 STEP
1 14 20.000050 60.568060 -119.682300 1.000000 0.000000 0.000000 0.000000 -1.000000 0.000000 0.000000 0.000000 -1.000000 3710.dat
1 14 20.000060 84.568080 -119.682300 1.000000 0.000000 0.000000 0.000000 -1.000000 0.000000 0.000000 0.000000 -1.000000 15207.dat
0 STEP
1 320 -30.000010 -141.431900 -125.682200 -1.000000 0.000000 0.000000 0.000000 0.000000 1.000000 0.000000 1.000000 0.000000 27925.dat
1 320 70.000000 -141.431900 -125.682200 0.000000 0.000000 -1.000000 -1.000000 0.000000 0.000000 0.000000 1.000000 0.000000 27925.dat
1 320 20.000000 -151.431900 -125.682200 1.000000 0.000000 0.000000 0.000000 0.000000 -1.000000 0.000000 1.000000 0.000000 3020.dat
1 320 -30.000000 -141.431900 -125.682200 -1.000000 0.000000 0.000000 0.000000 0.000000 1.000000 0.000000 1.000000 0.000000 25269.dat
1 320 70.000000 -141.431900 -125.682200 0.000000 0.000000 -1.000000 -1.000000 0.000000 0.000000 0.000000 1.000000 0.000000 25269.dat
0 STEP
1 14 20.000040 -71.431930 -125.682200 1.000000 0.000000 0.000000 0.000000 0.000000 -1.000000 0.000000 1.000000 0.000000 3034.dat
1 320 -19.999990 -111.431900 -125.682200 1.000000 0.000000 0.000000 0.000000 0.000000 -1.000000 0.000000 1.000000 0.000000 3020.dat
1 320 60.000040 -111.431900 -125.682200 1.000000 0.000000 0.000000 0.000000 0.000000 -1.000000 0.000000 1.000000 0.000000 3020.dat
1 14 -49.999940 -31.431940 -125.682200 0.000000 0.000000 1.000000 1.000000 0.000000 0.000000 0.000000 1.000000 0.000000 32028.dat
1 14 90.000030 -31.431940 -125.682200 0.000000 0.000000 -1.000000 -1.000000 0.000000 0.000000 0.000000 1.000000 0.000000 32028.dat
1 15 20.000040 -41.431920 -125.682200 1.000000 0.000000 0.000000 0.000000 0.000000 -1.000000 0.000000 1.000000 0.000000 35480.dat
0 STEP
1 14 -9.999960 -11.431930 -125.682200 1.000000 0.000000 0.000000 0.000000 0.000000 -1.000000 0.000000 1.000000 0.000000 3021.dat
1 14 50.000050 -11.431930 -125.682200 1.000000 0.000000 0.000000 0.000000 0.000000 -1.000000 0.000000 1.000000 0.000000 3021.dat
1 15 20.000060 28.568070 -125.682300 1.000000 0.000000 0.000000 0.000000 0.000000 -1.000000 0.000000 1.000000 0.000000 3022.dat
1 14 60.000060 28.568060 -125.682300 1.000000 0.000000 0.000000 0.000000 0.000000 -1.000000 0.000000 1.000000 0.000000 24299.dat
1 14 -19.999940 28.568070 -125.682300 1.000000 0.000000 0.000000 0.000000 0.000000 -1.000000 0.000000 1.000000 0.000000 24307.dat
0 STEP
1 0 -9.999990 -101.431900 -133.682300 0.000000 0.000000 -1.000000 -1.000000 0.000000 0.000000 0.000000 1.000000 0.000000 2420.dat
1 0 50.000040 -101.431900 -133.682300 1.000000 0.000000 0.000000 0.000000 0.000000 -1.000000 0.000000 1.000000 0.000000 2420.dat
1 14 80.000050 -131.431900 -133.682300 0.000000 0.000000 -1.000000 -1.000000 0.000000 0.000000 0.000000 1.000000 0.000000 24299.dat
1 14 -39.999980 -131.431900 -133.682300 0.000000 0.000000 1.000000 1.000000 0.000000 0.000000 0.000000 1.000000 0.000000 24307.dat
0 STEP
1 14 20.000050 -51.431920 -133.682300 0.000000 0.000000 1.000000 1.000000 0.000000 0.000000 0.000000 1.000000 0.000000 3034.dat
1 0 -19.999970 -71.431930 -133.682300 0.000000 0.000000 -1.000000 -1.000000 0.000000 0.000000 0.000000 1.000000 0.000000 33909.dat
1 0 60.000040 -71.431930 -133.682300 0.000000 0.000000 1.000000 1.000000 0.000000 0.000000 0.000000 1.000000 0.000000 33909.dat
0 STEP
1 1 -19.999960 -21.431940 -133.682300 -1.000000 0.000000 0.000000 0.000000 0.000000 1.000000 0.000000 1.000000 0.000000 99781.dat
1 1 60.000040 -21.431930 -133.682300 -1.000000 0.000000 0.000000 0.000000 0.000000 1.000000 0.000000 1.000000 0.000000 99781.dat
1 15 -19.999960 -43.431930 -123.682300 1.000000 0.000000 0.000000 0.000000 1.000000 0.000000 0.000000 0.000000 1.000000 35480.dat
1 15 60.000040 -43.431930 -123.682300 1.000000 0.000000 0.000000 0.000000 1.000000 0.000000 0.000000 0.000000 1.000000 35480.dat
1 1 -19.999960 -51.431920 -123.682300 1.000000 0.000000 0.000000 0.000000 1.000000 0.000000 0.000000 0.000000 1.000000 3069b.dat
1 1 60.000040 -51.431940 -123.682300 1.000000 0.000000 0.000000 0.000000 1.000000 0.000000 0.000000 0.000000 1.000000 3069b.dat
0 STEP
1 14 60.000040 8.568069 -133.682300 1.000000 0.000000 0.000000 0.000000 0.000000 -1.000000 0.000000 1.000000 0.000000 26601.dat
1 14 -19.999960 8.568080 -133.682300 0.000000 0.000000 1.000000 1.000000 0.000000 0.000000 0.000000 1.000000 0.000000 26601.dat
0 STEP
1 320 80.000060 48.568050 -117.682300 0.000000 0.000000 -1.000000 -1.000000 0.000000 0.000000 0.000000 1.000000 0.000000 35787.dat
1 320 -39.999950 48.568040 -117.682300 1.000000 0.000000 0.000000 0.000000 0.000000 -1.000000 0.000000 1.000000 0.000000 35787.dat
0 STEP
1 320 20.000040 -131.431900 -125.682200 -1.000000 0.000000 0.000000 0.000000 0.000000 1.000000 0.000000 1.000000 0.000000 15068.dat
1 14 -9.999980 -131.431900 -125.682200 -1.000000 0.000000 0.000000 0.000000 0.000000 1.000000 0.000000 1.000000 0.000000 11477.dat
1 14 50.000040 -131.431900 -125.682200 -1.000000 0.000000 0.000000 0.000000 0.000000 1.000000 0.000000 1.000000 0.000000 11477.dat
0 STEP
1 14 -39.999970 -91.431930 -125.682200 0.000000 0.000000 1.000000 1.000000 0.000000 0.000000 0.000000 1.000000 0.000000 15068.dat
1 14 80.000050 -91.431930 -125.682200 0.000000 0.000000 -1.000000 -1.000000 0.000000 0.000000 0.000000 1.000000 0.000000 15068.dat
1 14 20.000040 -91.431930 -141.682300 1.000000 0.000000 0.000000 0.000000 0.000000 -1.000000 0.000000 1.000000 0.000000 87079.dat
0 STEP
1 14 -9.999960 -51.431920 -141.682300 0.000000 0.000000 1.000000 1.000000 0.000000 0.000000 0.000000 1.000000 0.000000 43723b.dat
1 14 50.000040 -51.431920 -141.682300 0.000000 0.000000 -1.000000 -1.000000 0.000000 0.000000 0.000000 1.000000 0.000000 43722b.dat
1 14 -49.999960 -61.431940 -125.682200 0.000000 0.000000 1.000000 1.000000 0.000000 0.000000 0.000000 1.000000 0.000000 54200.dat
1 14 90.000030 -61.431940 -125.682200 0.000000 0.000000 -1.000000 -1.000000 0.000000 0.000000 0.000000 1.000000 0.000000 54200.dat
0 STEP
1 14 20.000040 -11.431870 -141.682300 1.000000 0.000000 0.000000 0.000000 0.000000 -1.000000 0.000000 1.000000 0.000000 87079.dat
1 14 -39.999960 -21.431940 -125.682200 0.000000 0.000000 1.000000 1.000000 0.000000 0.000000 0.000000 1.000000 0.000000 11477.dat
1 14 80.000060 -21.431920 -125.682200 0.000000 0.000000 -1.000000 -1.000000 0.000000 0.000000 0.000000 1.000000 0.000000 11477.dat
1 14 80.000100 -1.431930 -125.682200 0.000000 0.000000 -1.000000 -1.000000 0.000000 0.000000 0.000000 1.000000 0.000000 29119.dat
1 14 -39.999960 -1.431870 -125.682200 0.000000 0.000000 1.000000 1.000000 0.000000 0.000000 0.000000 1.000000 0.000000 29120.dat
0 STEP
1 14 0.000040 28.568130 -125.682300 1.000000 0.000000 0.000000 0.000000 0.000000 -1.000000 0.000000 1.000000 0.000000 15068.dat
1 14 40.000060 28.568070 -125.682300 1.000000 0.000000 0.000000 0.000000 0.000000 -1.000000 0.000000 1.000000 0.000000 15068.dat
0 STEP
1 0 20.000080 116.568000 -111.682300 -1.000000 0.000000 0.000000 0.000000 -1.000000 0.000000 0.000000 0.000000 1.000000 3937.dat
1 0 20.000070 109.784100 -121.151000 1.000000 0.000000 0.000000 0.000000 -0.321604 -0.946874 0.000000 0.946874 -0.321604 6134.dat
1 320 20.000070 102.888200 -131.942000 -1.000000 0.000000 0.000000 0.000000 -0.321604 0.946874 0.000000 0.946874 0.321604 51739.dat
0 STEP
0 NOFILE
