0 FILE 40536 Miles Morales
0 40536 Miles Morales
0 SetNumber: 40536
0 Name: Miles Morales
0 Theme: Brick Sketches
0 ReleaseYear: 2022
0 NumOfBricks: 214
0 _stepReady: true
1 16 -27.000000 -20.067590 71.960160 1.000000 0.000000 0.000000 0.000000 0.000000 -1.000000 0.000000 1.000000 0.000000 layer 1
0 STEP
1 16 -26.909950 -90.507670 45.501170 1.000000 0.000000 0.000000 0.000000 0.086286 -0.996271 0.000000 0.996271 0.086286 segment1
0 STEP
1 16 -26.910020 32.171880 20.068880 1.000000 0.000000 0.000001 0.000001 -0.070628 -0.997501 0.000000 0.997501 -0.070628 segment2
0 STEP
1 0 -26.909930 -85.608870 -12.287060 -0.000001 0.000000 1.000000 0.996270 0.086286 0.000001 -0.086286 0.996270 0.000000 3666.dat
0 STEP
1 4 -126.909900 106.130700 7.960150 1.000000 0.000000 0.000000 0.000000 0.000000 -1.000000 0.000000 1.000000 0.000000 3023b.dat
1 4 73.090140 106.130700 7.960150 1.000000 0.000000 0.000000 0.000000 0.000000 -1.000000 0.000000 1.000000 0.000000 3023b.dat
1 4 -96.909870 106.130800 7.960150 0.000000 0.000000 -1.000000 -1.000000 0.000000 0.000000 0.000000 1.000000 0.000000 24246.dat
1 4 43.090140 106.130700 7.960150 0.000000 0.000000 1.000000 1.000000 0.000000 0.000000 0.000000 1.000000 0.000000 24246.dat
0 STEP
1 4 -46.909950 -203.870000 -0.040020 0.000000 0.000000 1.000000 1.000000 0.000000 0.000000 0.000000 1.000000 0.000000 2429c01.dat copy
1 16 -95.144550 -91.895130 19.249220 0.224951 0.000000 -0.974370 -0.974370 0.000000 -0.224951 0.000000 1.000000 0.000000 left hood
0 STEP
1 4 -6.909940 -203.870000 -0.040020 0.000000 0.000000 -1.000000 -1.000000 0.000000 0.000000 0.000000 1.000000 0.000000 2429c01.dat copy 2
1 16 37.568710 -142.900000 15.959970 0.974370 0.000000 -0.224951 -0.224951 0.000000 -0.974370 0.000000 1.000000 0.000000 right hood
1 0 -26.909950 -173.870000 -24.040020 1.000000 0.000000 0.000000 0.000000 0.000000 -1.000000 0.000000 1.000000 0.000000 3660b.dat
1 4 -26.909940 -193.870000 -8.040020 -1.000000 0.000000 0.000000 0.000000 0.000000 1.000000 0.000000 1.000000 0.000000 32028.dat
1 4 -26.909940 -193.870000 -16.040020 -1.000000 0.000000 0.000000 0.000000 0.000000 1.000000 0.000000 1.000000 0.000000 32028.dat
0 STEP
1 4 -6.909940 -183.870000 -16.040020 -1.000000 0.000000 0.000000 0.000000 0.000000 1.000000 0.000000 1.000000 0.000000 15068.dat
1 4 -46.909960 -183.870000 -16.040020 -1.000000 0.000000 0.000000 0.000000 0.000000 1.000000 0.000000 1.000000 0.000000 15068.dat
1 4 -6.909950 -143.870000 -32.040020 0.000000 0.000000 -1.000000 -1.000000 0.000000 0.000000 0.000000 1.000000 0.000000 24307.dat
1 4 -46.909960 -143.870000 -32.040020 0.000000 0.000000 1.000000 1.000000 0.000000 0.000000 0.000000 1.000000 0.000000 24299.dat
0 STEP
0 NOFILE
0 FILE Layer 1
0 Layer 1
0 Name: Layer 1
0 Author: 
0 CustomBrick
0 FlexibleBrickControlPointUnitLength -1
0 FlexibleBrickLockedControlPoint 
1 16 0.090070 -18.066670 -136.198400 1.000000 0.000000 0.000000 0.000000 0.000000 1.000000 0.000000 -1.000000 0.000000 base
0 STEP
1 3 0.090050 -48.000200 163.802400 1.000000 0.000000 0.000000 0.000000 1.000003 0.000000 0.000000 0.000000 1.000003 3795.dat
1 3 -89.909950 -48.000180 163.802400 0.000000 0.000000 1.000000 0.000000 1.000003 0.000000 -1.000003 0.000000 0.000000 43722b.dat
1 3 100.090000 -48.000190 153.802400 -1.000000 0.000000 0.000000 0.000000 1.000003 0.000000 0.000000 0.000000 -1.000003 43722b.dat
1 3 70.090050 -48.000190 153.802400 0.000000 0.000000 1.000000 0.000000 1.000003 0.000000 -1.000003 0.000000 0.000000 63864.dat
1 3 -89.909950 -48.000190 133.802300 1.000000 0.000000 0.000000 0.000000 1.000003 0.000000 0.000000 0.000000 1.000003 63864.dat
0 STEP
1 0 -39.909860 -48.000140 23.801900 0.000000 0.000000 -1.000000 0.000000 1.000003 0.000000 1.000003 0.000000 0.000000 2445.dat
1 0 40.090140 -48.000140 23.801900 0.000000 0.000000 -1.000000 0.000000 1.000003 0.000000 1.000003 0.000000 0.000000 2445.dat
1 72 0.090050 -48.000190 133.802300 1.000000 0.000000 0.000000 0.000000 1.000003 0.000000 0.000000 0.000000 1.000003 15573.dat
1 72 0.090050 -48.000060 113.801600 1.000000 0.000000 0.000000 0.000000 1.000000 0.000000 0.000000 0.000000 1.000000 15573.dat
1 71 0.090040 -48.000200 73.801600 0.000000 0.000000 1.000000 0.000000 1.000000 0.000000 -1.000000 0.000000 0.000000 26603.dat
1 71 0.090090 -48.000060 -26.198400 0.000000 0.000000 1.000000 0.000000 1.000000 0.000000 -1.000000 0.000000 0.000000 26603.dat
1 1 0.090100 -48.000070 23.801590 1.000000 0.000000 0.000000 0.000000 1.000000 0.000000 0.000000 0.000000 1.000000 87580.dat
1 72 0.090130 -48.000020 -76.198340 -1.000000 0.000000 0.000000 0.000000 1.000000 0.000000 0.000000 0.000000 -1.000000 33909.dat
0 STEP
1 3 -99.909980 -48.000200 83.801600 0.000000 0.000000 1.000000 0.000000 1.000000 0.000000 -1.000000 0.000000 0.000000 87079.dat
1 3 100.090000 -48.000200 83.801600 0.000000 0.000000 1.000000 0.000000 1.000000 0.000000 -1.000000 0.000000 0.000000 87079.dat
1 14 -69.909980 -48.000200 83.801600 0.000000 0.000000 1.000000 0.000000 1.000000 0.000000 -1.000000 0.000000 0.000000 41740.dat
1 14 70.090030 -48.000200 83.801600 0.000000 0.000000 1.000000 0.000000 1.000000 0.000000 -1.000000 0.000000 0.000000 41740.dat
0 STEP
1 3 -99.909890 -48.000020 -16.198340 0.000000 0.000000 1.000000 0.000000 1.000000 0.000000 -1.000000 0.000000 0.000000 3795.dat
1 3 100.090100 -48.000020 -16.198330 0.000000 0.000000 1.000000 0.000000 1.000000 0.000000 -1.000000 0.000000 0.000000 3795.dat
1 14 -69.909890 -48.000020 -36.198340 0.000000 0.000000 1.000000 0.000000 1.000000 0.000000 -1.000000 0.000000 0.000000 41740.dat
1 14 70.090130 -48.000020 -36.198350 0.000000 0.000000 1.000000 0.000000 1.000000 0.000000 -1.000000 0.000000 0.000000 41740.dat
1 4 -69.909920 -48.000070 23.801580 0.000000 0.000000 1.000000 0.000000 1.000000 0.000000 -1.000000 0.000000 0.000000 3069b.dat
1 4 70.090090 -48.000070 23.801590 0.000000 0.000000 1.000000 0.000000 1.000000 0.000000 -1.000000 0.000000 0.000000 3069b.dat
0 STEP
1 3 -109.909900 -48.000010 -106.198300 0.000000 0.000000 1.000000 0.000000 1.000000 0.000000 -1.000000 0.000000 0.000000 63864.dat
1 3 110.090100 -48.000010 -106.198300 0.000000 0.000000 1.000000 0.000000 1.000000 0.000000 -1.000000 0.000000 0.000000 63864.dat
1 3 -79.909880 -48.000010 -106.198300 0.000000 0.000000 1.000000 0.000000 1.000000 0.000000 -1.000000 0.000000 0.000000 3021.dat
1 3 80.090120 -48.000010 -106.198300 0.000000 0.000000 1.000000 0.000000 1.000000 0.000000 -1.000000 0.000000 0.000000 3021.dat
1 3 0.090130 -48.000010 -116.198300 1.000000 0.000000 0.000000 0.000000 1.000000 0.000000 0.000000 0.000000 1.000000 3795.dat
0 STEP
1 320 0.090050 -56.000200 163.802400 1.000000 0.000000 0.000000 0.000000 1.000000 0.000000 0.000000 0.000000 1.000000 3022.dat
1 320 -19.909940 -56.000200 83.802420 -1.000000 0.000000 0.000000 0.000000 1.000000 0.000000 0.000000 0.000000 -1.000000 27507.dat
1 320 20.090060 -56.000200 83.802410 0.000000 0.000000 -1.000000 0.000000 1.000000 0.000000 1.000000 0.000000 0.000000 27507.dat
1 320 -29.909850 -56.000160 93.802120 -1.000000 0.000000 0.000000 0.000000 1.000000 0.000000 0.000000 0.000000 -1.000000 27925.dat
1 320 30.090160 -56.000150 93.802110 0.000000 0.000000 -1.000000 0.000000 1.000000 0.000000 1.000000 0.000000 0.000000 27925.dat
0 STEP
1 320 -49.909850 -56.000150 73.802060 1.000000 0.000000 0.000000 0.000000 1.000000 0.000000 0.000000 0.000000 1.000000 34103.dat
1 320 50.090150 -56.000150 73.802060 1.000000 0.000000 0.000000 0.000000 1.000000 0.000000 0.000000 0.000000 1.000000 34103.dat
1 320 -49.909860 -56.000150 43.801930 1.000000 0.000000 0.000000 0.000000 1.000000 0.000000 0.000000 0.000000 1.000000 26603.dat
1 320 50.090050 -56.000200 43.801600 1.000000 0.000000 0.000000 0.000000 1.000000 0.000000 0.000000 0.000000 1.000000 26603.dat
1 320 -49.909860 -56.000150 13.801860 1.000000 0.000000 0.000000 0.000000 1.000000 0.000000 0.000000 0.000000 1.000000 34103.dat
1 320 50.090140 -56.000150 13.801860 1.000000 0.000000 0.000000 0.000000 1.000000 0.000000 0.000000 0.000000 1.000000 34103.dat
1 14 0.090100 -56.000070 23.801590 1.000000 0.000000 0.000000 0.000000 1.000000 0.000000 0.000000 0.000000 1.000000 98138.dat
1 320 -89.909900 -56.000020 43.801660 0.000000 0.000000 1.000000 0.000000 1.000000 0.000000 -1.000000 0.000000 0.000000 2431.dat
1 320 90.090100 -56.000020 43.801660 0.000000 0.000000 1.000000 0.000000 1.000000 0.000000 -1.000000 0.000000 0.000000 2431.dat
1 320 -109.909900 -56.000020 13.801660 -1.000000 0.000000 0.000000 0.000000 1.000000 0.000000 0.000000 0.000000 -1.000000 25269.dat
1 320 110.090100 -56.000020 13.801660 0.000000 0.000000 -1.000000 0.000000 1.000000 0.000000 1.000000 0.000000 0.000000 25269.dat
0 STEP
1 320 -99.909890 -56.000020 -26.198340 0.000000 0.000000 1.000000 0.000000 1.000000 0.000000 -1.000000 0.000000 0.000000 26603.dat
1 320 100.090100 -56.000020 -26.198340 0.000000 0.000000 1.000000 0.000000 1.000000 0.000000 -1.000000 0.000000 0.000000 26603.dat
1 320 -49.909880 -56.000140 -16.198260 -1.000000 0.000000 0.000000 0.000000 1.000000 0.000000 0.000000 0.000000 -1.000000 26603.dat
1 320 50.090140 -56.000140 -16.198260 -1.000000 0.000000 0.000000 0.000000 1.000000 0.000000 0.000000 0.000000 -1.000000 26603.dat
1 320 -49.909870 -56.000140 -46.198340 1.000000 0.000000 0.000000 0.000000 1.000000 0.000000 0.000000 0.000000 1.000000 34103.dat
1 320 50.090140 -56.000140 -46.198340 1.000000 0.000000 0.000000 0.000000 1.000000 0.000000 0.000000 0.000000 1.000000 34103.dat
0 STEP
1 0 -49.909880 -56.000010 -86.198350 0.000000 0.000000 1.000000 0.000000 1.000000 0.000000 -1.000000 0.000000 0.000000 63864.dat
1 0 50.090120 -56.000010 -86.198340 0.000000 0.000000 1.000000 0.000000 1.000000 0.000000 -1.000000 0.000000 0.000000 63864.dat
1 0 -19.909880 -56.000130 -76.198460 1.000000 0.000000 0.000000 0.000000 1.000000 0.000000 0.000000 0.000000 1.000000 35787.dat
1 0 20.090130 -56.000140 -76.198480 0.000000 0.000000 -1.000000 0.000000 1.000000 0.000000 1.000000 0.000000 0.000000 35787.dat
0 STEP
1 320 -89.909870 -56.000010 -66.198300 0.000000 0.000000 1.000000 0.000000 1.000000 0.000000 -1.000000 0.000000 0.000000 27925.dat
1 320 90.090110 -56.000010 -66.198350 1.000000 0.000000 0.000000 0.000000 1.000000 0.000000 0.000000 0.000000 1.000000 27925.dat
1 320 -89.909890 -56.000020 -66.198340 0.000000 0.000000 1.000000 0.000000 1.000000 0.000000 -1.000000 0.000000 0.000000 25269.dat
1 320 90.090130 -56.000020 -66.198340 1.000000 0.000000 0.000000 0.000000 1.000000 0.000000 0.000000 0.000000 1.000000 25269.dat
1 320 -69.909890 -56.000010 -76.198350 0.000000 0.000000 1.000000 0.000000 1.000000 0.000000 -1.000000 0.000000 0.000000 3069b.dat
1 320 70.090120 -56.000010 -76.198340 0.000000 0.000000 1.000000 0.000000 1.000000 0.000000 -1.000000 0.000000 0.000000 3069b.dat
0 STEP
1 4 -89.909870 -56.000010 -116.198300 0.000000 0.000000 1.000000 0.000000 1.000000 0.000000 -1.000000 0.000000 0.000000 43722b.dat
1 4 90.090140 -56.000010 -116.198300 0.000000 0.000000 -1.000000 0.000000 1.000000 0.000000 1.000000 0.000000 0.000000 43723b.dat
1 4 -49.909880 -56.000010 -126.198300 1.000000 0.000000 0.000000 0.000000 1.000000 0.000000 0.000000 0.000000 1.000000 3070b.dat
1 4 50.090120 -56.000010 -126.198300 1.000000 0.000000 0.000000 0.000000 1.000000 0.000000 0.000000 0.000000 1.000000 3070b.dat
1 0 -19.909880 -56.000010 -116.198300 0.000000 0.000000 1.000000 0.000000 1.000000 0.000000 -1.000000 0.000000 0.000000 33909.dat
1 0 20.090120 -56.000010 -116.198300 0.000000 0.000000 -1.000000 0.000000 1.000000 0.000000 1.000000 0.000000 0.000000 33909.dat
0 STEP
1 84 0.090050 -56.000060 123.801600 0.000000 0.000000 1.000000 0.000000 1.000000 0.000000 -1.000000 0.000000 0.000000 44861.dat
1 4 0.090050 -64.000200 163.802400 1.000000 0.000000 0.000000 0.000000 1.000000 0.000000 0.000000 0.000000 1.000000 3176.dat
0 STEP
1 0 50.090140 -64.000140 -56.198340 1.000000 0.000000 0.000000 0.000000 1.000000 0.000000 0.000000 0.000000 1.000000 24299.dat
1 0 -49.909870 -64.000140 -56.198340 1.000000 0.000000 0.000000 0.000000 1.000000 0.000000 0.000000 0.000000 1.000000 24307.dat
0 STEP
1 72 -49.909850 -64.000160 83.802060 -1.000000 0.000000 0.000000 0.000000 1.000000 0.000000 0.000000 0.000000 -1.000000 30503.dat
1 0 -39.909850 -72.000160 93.802070 -1.000000 0.000000 0.000000 0.000000 1.000000 0.000000 0.000000 0.000000 -1.000000 2450.dat
1 0 -19.909850 -72.000160 43.802060 0.000000 0.000000 1.000000 0.000000 1.000000 0.000000 -1.000000 0.000000 0.000000 3023b.dat
1 1 -49.909850 -64.000160 33.802060 1.000000 0.000000 0.000000 0.000000 1.000000 0.000000 0.000000 0.000000 1.000000 3710.dat
0 STEP
1 0 -49.909850 -72.000160 23.802050 0.000000 0.000000 1.000000 0.000000 1.000000 0.000000 -1.000000 0.000000 0.000000 3020.dat
1 0 -69.909840 -64.000160 -6.197950 1.000000 0.000000 0.000000 0.000000 1.000000 0.000000 0.000000 0.000000 1.000000 43722b.dat
1 0 -29.909850 -64.000160 -6.197950 1.000000 0.000000 0.000000 0.000000 1.000000 0.000000 0.000000 0.000000 1.000000 43723b.dat
0 STEP
1 0 -29.909840 -80.000160 63.802060 -1.000000 0.000000 0.000000 0.000000 1.000000 0.000000 0.000000 0.000000 -1.000000 35787.dat
1 0 -49.909860 -80.000160 103.802100 0.000000 0.000000 -1.000000 0.000000 1.000000 0.000000 1.000000 0.000000 0.000000 35787.dat
1 0 -19.909860 -80.000160 103.802100 0.000000 0.000000 1.000000 0.000000 1.000000 0.000000 -1.000000 0.000000 0.000000 3023b.dat
0 STEP
1 15 -69.909860 -64.000160 73.802060 0.000000 0.000000 1.000000 0.000000 1.000000 0.000000 -1.000000 0.000000 0.000000 29119.dat
1 15 -29.909860 -80.000160 63.802050 1.000000 0.000000 0.000000 0.000000 1.000000 0.000000 0.000000 0.000000 1.000000 35787.dat
1 15 -69.909870 -64.000160 43.802040 0.000000 0.000000 1.000000 0.000000 1.000000 0.000000 -1.000000 0.000000 0.000000 15068.dat
1 15 -29.909850 -80.000160 33.802050 1.000000 0.000000 0.000000 0.000000 1.000000 0.000000 0.000000 0.000000 1.000000 3069b.dat
1 15 -69.909860 -64.000160 -6.197950 0.000000 0.000000 1.000000 0.000000 1.000000 0.000000 -1.000000 0.000000 0.000000 29120.dat
1 15 -29.909860 -80.000160 3.802050 0.000000 0.000000 1.000000 0.000000 1.000000 0.000000 -1.000000 0.000000 0.000000 35787.dat
1 15 -69.909860 -64.000160 13.802040 0.000000 0.000000 1.000000 0.000000 1.000000 0.000000 -1.000000 0.000000 0.000000 11477.dat
0 STEP
1 0 -49.909870 -72.000140 -46.198340 1.000000 0.000000 0.000000 0.000000 1.000000 0.000000 0.000000 0.000000 1.000000 43722b.dat
1 0 -39.909870 -64.000140 -76.198340 1.000000 0.000000 0.000000 0.000000 1.000000 0.000000 0.000000 0.000000 1.000000 29119.dat
1 0 -39.909870 -80.000140 -36.198340 0.000000 0.000000 1.000000 0.000000 1.000000 0.000000 -1.000000 0.000000 0.000000 3023b.dat
0 STEP
1 72 50.090160 -64.000160 83.802050 0.000000 0.000000 -1.000000 0.000000 1.000000 0.000000 1.000000 0.000000 0.000000 30503.dat
1 0 40.090160 -72.000160 93.802050 0.000000 0.000000 -1.000000 0.000000 1.000000 0.000000 1.000000 0.000000 0.000000 2450.dat
1 0 20.090140 -72.000160 43.802060 0.000000 0.000000 1.000000 0.000000 1.000000 0.000000 -1.000000 0.000000 0.000000 3023b.dat
1 1 50.090140 -64.000160 33.802050 1.000000 0.000000 0.000000 0.000000 1.000000 0.000000 0.000000 0.000000 1.000000 3710.dat
1 0 50.090140 -72.000160 23.802050 0.000000 0.000000 1.000000 0.000000 1.000000 0.000000 -1.000000 0.000000 0.000000 3020.dat
0 STEP
1 0 30.090150 -64.000160 -6.197950 1.000000 0.000000 0.000000 0.000000 1.000000 0.000000 0.000000 0.000000 1.000000 43722b.dat
1 0 70.090150 -64.000160 -6.197950 1.000000 0.000000 0.000000 0.000000 1.000000 0.000000 0.000000 0.000000 1.000000 43723b.dat
0 STEP
1 0 20.090160 -80.000160 103.802000 0.000000 0.000000 1.000000 0.000000 1.000000 0.000000 -1.000000 0.000000 0.000000 3023b.dat
1 0 50.090150 -80.000160 103.802000 1.000000 0.000000 0.000000 0.000000 1.000000 0.000000 0.000000 0.000000 1.000000 35787.dat
1 0 30.090150 -80.000160 63.802060 0.000000 0.000000 1.000000 0.000000 1.000000 0.000000 -1.000000 0.000000 0.000000 35787.dat
0 STEP
1 15 70.090150 -64.000160 73.802040 0.000000 0.000000 -1.000000 0.000000 1.000000 0.000000 1.000000 0.000000 0.000000 29120.dat
1 15 70.090150 -64.000160 43.802040 0.000000 0.000000 -1.000000 0.000000 1.000000 0.000000 1.000000 0.000000 0.000000 15068.dat
1 15 30.090140 -80.000160 63.802040 0.000000 0.000000 -1.000000 0.000000 1.000000 0.000000 1.000000 0.000000 0.000000 35787.dat
1 15 30.090140 -80.000160 33.802050 1.000000 0.000000 0.000000 0.000000 1.000000 0.000000 0.000000 0.000000 1.000000 3069b.dat
0 STEP
1 15 30.090160 -80.000160 3.802050 -1.000000 0.000000 0.000000 0.000000 1.000000 0.000000 0.000000 0.000000 -1.000000 35787.dat
1 15 70.090150 -64.000160 -6.197950 0.000000 0.000000 -1.000000 0.000000 1.000000 0.000000 1.000000 0.000000 0.000000 29119.dat
1 15 70.090150 -64.000160 13.802040 0.000000 0.000000 -1.000000 0.000000 1.000000 0.000000 1.000000 0.000000 0.000000 11477.dat
0 STEP
1 0 50.090140 -72.000140 -46.198340 1.000000 0.000000 0.000000 0.000000 1.000000 0.000000 0.000000 0.000000 1.000000 43723b.dat
1 0 40.090140 -80.000140 -36.198350 0.000000 0.000000 1.000000 0.000000 1.000000 0.000000 -1.000000 0.000000 0.000000 3023b.dat
1 0 40.090140 -64.000140 -76.198340 1.000000 0.000000 0.000000 0.000000 1.000000 0.000000 0.000000 0.000000 1.000000 29120.dat
0 STEP
0 NOFILE
0 FILE Segment1
0 Segment1
0 Name: Segment1
0 Author: 
0 CustomBrick
0 FlexibleBrickControlPointUnitLength -1
0 FlexibleBrickLockedControlPoint 
0 NumOfBricks 4
1 71 0.000000 -41.150000 10.133140 0.000000 0.000000 -1.000000 0.000000 1.000000 0.000000 1.000000 0.000000 0.000000 60478.dat
1 1 0.000000 -33.150000 -9.866859 0.000000 0.000000 -1.000000 0.000000 1.000000 0.000000 1.000000 0.000000 0.000000 3710.dat
1 71 0.000000 -41.150000 -29.866860 0.000000 0.000000 1.000000 0.000000 1.000000 0.000000 -1.000000 0.000000 0.000000 60478.dat
1 1 0.000000 -49.150000 -9.866859 0.000000 0.000000 1.000000 0.000000 1.000000 0.000000 -1.000000 0.000000 0.000000 3710.dat
0 NOFILE
0 FILE Segment2
0 Segment2
0 Name: Segment2
0 Author: 
0 CustomBrick
0 FlexibleBrickControlPointUnitLength -1
0 FlexibleBrickLockedControlPoint 
0 NumOfBricks 14
1 0 0.000000 -16.000000 37.571450 0.000000 0.000000 -1.000000 0.000000 1.000000 0.000000 1.000000 0.000000 0.000000 63868.dat
1 1 0.000000 -8.000000 17.571440 0.000000 0.000000 1.000000 0.000000 1.000000 0.000000 -1.000000 0.000000 0.000000 3710.dat
1 71 0.000000 -16.000000 7.571440 1.000000 0.000000 0.000000 0.000000 1.000000 0.000000 0.000000 0.000000 1.000000 6141.dat
1 0 0.000000 -16.000000 -22.428560 1.000000 0.000000 0.000000 0.000000 1.000000 0.000000 0.000000 0.000000 1.000000 3021.dat
1 0 0.000000 -24.000000 -2.428560 1.000000 0.000000 0.000000 0.000000 1.000000 0.000000 0.000000 0.000000 1.000000 3021.dat
1 0 0.000000 -24.000000 37.571450 1.000000 0.000000 0.000000 0.000000 1.000000 0.000000 0.000000 0.000000 1.000000 3021.dat
0 STEP
1 0 -0.000010 -32.000000 17.571440 0.000000 0.000000 1.000000 0.000000 1.000000 0.000000 -1.000000 0.000000 0.000000 3710.dat
1 0 20.000000 -16.000000 57.571450 -1.000000 0.000000 0.000000 0.000000 1.000000 0.000000 0.000000 0.000000 -1.000000 29119.dat
1 0 -20.000010 -16.000000 57.571440 -1.000000 0.000000 0.000000 0.000000 1.000000 0.000000 0.000000 0.000000 -1.000000 29120.dat
1 0 -20.000010 -32.000000 7.571430 0.000000 0.000000 1.000000 0.000000 1.000000 0.000000 -1.000000 0.000000 0.000000 63864.dat
1 0 20.000000 -32.000000 7.571440 0.000000 0.000000 1.000000 0.000000 1.000000 0.000000 -1.000000 0.000000 0.000000 63864.dat
0 STEP
1 0 -20.000000 -16.000000 -32.428560 1.000000 0.000000 0.000000 0.000000 1.000000 0.000000 0.000000 0.000000 1.000000 54200.dat
1 0 0.000000 -16.000000 -32.428560 1.000000 0.000000 0.000000 0.000000 1.000000 0.000000 0.000000 0.000000 1.000000 54200.dat
1 0 20.000000 -16.000000 -32.428560 1.000000 0.000000 0.000000 0.000000 1.000000 0.000000 0.000000 0.000000 1.000000 54200.dat
0 STEP
0 NOFILE
0 FILE 2429c01.dat Copy
0 Hinge Plate 1 x 4 Swivel (2429 / 2430)
0 Name: 2429c01
0 Author: Chris Dee [cwdee]
0 FlexibleBrick: 2429c01.dat
0 FlexibleBrickControlPointUnitLength -1
0 FlexibleBrickLockedControlPoint 
1 16 0.000000 0.000000 0.000000 -0.974370 0.000000 -0.224951 0.000000 1.000000 0.000000 0.224951 0.000000 -0.974370 2429.dat
1 16 0.000000 0.000000 0.000000 1.000000 0.000000 0.000000 0.000000 1.000000 0.000000 0.000000 0.000000 1.000000 2430.dat
0 NOFILE
0 FILE Left Hood
0 Left Hood
0 Name: Left Hood
0 Author: 
0 CustomBrick
0 FlexibleBrickControlPointUnitLength -1
0 FlexibleBrickLockedControlPoint 
0 NumOfBricks 21
1 4 89.955410 -11.289250 8.190440 0.000000 0.000000 -1.000000 0.000000 1.000000 0.000000 1.000000 0.000000 0.000000 2450.dat
1 4 49.955400 -19.289250 8.190440 0.000000 0.000000 1.000000 0.000000 1.000000 0.000000 -1.000000 0.000000 0.000000 2450.dat
1 4 99.954990 -19.289250 18.190320 1.000000 0.000000 0.000000 0.000000 1.000000 0.000000 0.000000 0.000000 1.000000 35787.dat
1 4 -0.044600 -11.289250 28.190440 1.000000 0.000000 0.000000 0.000000 1.000000 0.000000 0.000000 0.000000 1.000000 3666.dat
0 STEP
1 4 -0.044600 -19.289250 28.190440 1.000000 0.000000 0.000000 0.000000 1.000000 0.000000 0.000000 0.000000 1.000000 3023b.dat
1 4 -40.044600 -19.289250 28.190440 1.000000 0.000000 0.000000 0.000000 1.000000 0.000000 0.000000 0.000000 1.000000 3023b.dat
1 4 89.955390 -27.289250 8.190460 0.000000 0.000000 -1.000000 0.000000 1.000000 0.000000 1.000000 0.000000 0.000000 2450.dat
1 71 49.955400 -27.289250 8.190440 1.000000 0.000000 0.000000 0.000000 1.000000 0.000000 0.000000 0.000000 1.000000 6141.dat
1 4 -0.044600 -27.289250 28.190440 1.000000 0.000000 0.000000 0.000000 1.000000 0.000000 0.000000 0.000000 1.000000 3666.dat
0 STEP
1 4 69.955400 -35.289250 8.190480 0.000000 0.000000 1.000000 0.000000 1.000000 0.000000 -1.000000 0.000000 0.000000 3623.dat
1 4 99.955390 -35.289250 18.190460 1.000000 0.000000 0.000000 0.000000 1.000000 0.000000 0.000000 0.000000 1.000000 35787.dat
1 4 99.955390 -35.289250 -11.809540 1.000000 0.000000 0.000000 0.000000 1.000000 0.000000 0.000000 0.000000 1.000000 3069b.dat
0 STEP
1 4 -20.044620 -35.289250 8.190460 0.000000 0.000000 1.000000 0.000000 1.000000 0.000000 -1.000000 0.000000 0.000000 50305.dat
0 STEP
1 4 79.955380 -43.289240 -1.809520 1.000000 0.000000 0.000000 0.000000 1.000000 0.000000 0.000000 0.000000 1.000000 35787.dat
1 4 39.955380 -43.289240 -1.809520 1.000000 0.000000 0.000000 0.000000 1.000000 0.000000 0.000000 0.000000 1.000000 3068b.dat
1 4 -10.044630 -43.289240 -1.809540 0.000000 0.000000 1.000000 0.000000 1.000000 0.000000 -1.000000 0.000000 0.000000 43723b.dat
0 STEP
1 4 -80.044640 -13.289250 38.190460 1.000000 0.000000 0.000000 0.000000 0.000000 1.000000 0.000000 -1.000000 0.000000 99781.dat
1 4 -80.044640 -13.289250 38.190460 0.000000 0.000000 1.000000 -1.000000 0.000000 0.000000 0.000000 -1.000000 0.000000 6060.dat
1 4 -170.044600 -13.289270 -41.809550 -1.000000 0.000000 0.000000 0.000000 0.000000 -1.000000 0.000000 -1.000000 0.000000 78666.dat
1 15 -199.107700 -17.515450 -65.809540 0.906308 0.000000 -0.422619 0.422619 0.000000 0.906308 0.000000 -1.000000 0.000000 35480.dat
1 4 -170.044600 -13.289280 -65.809550 0.000000 0.000000 -1.000000 1.000000 0.000000 0.000000 0.000000 -1.000000 0.000000 24201.dat
0 STEP
0 NOFILE
0 FILE 2429c01.dat Copy 2
0 Hinge Plate 1 x 4 Swivel (2429 / 2430)
0 Name: 2429c01
0 Author: Chris Dee [cwdee]
0 FlexibleBrick: 2429c01.dat
0 FlexibleBrickControlPointUnitLength -1
0 FlexibleBrickLockedControlPoint 
1 16 0.000000 0.000000 0.000000 1.000000 0.000000 0.000000 0.000000 1.000000 0.000000 0.000000 0.000000 1.000000 2429.dat
1 16 0.000000 0.000000 0.000000 -0.974370 0.000000 0.224951 0.000000 1.000000 0.000000 -0.224951 0.000000 -0.974370 2430.dat
0 NOFILE
0 FILE Right Hood
0 Right Hood
0 Name: Right Hood
0 Author: 
0 CustomBrick
0 FlexibleBrickControlPointUnitLength -1
0 FlexibleBrickLockedControlPoint 
0 NumOfBricks 21
1 4 0.376590 -8.000000 39.412830 0.000000 0.000000 -1.000000 0.000000 1.000000 0.000000 1.000000 0.000000 0.000000 2450.dat
1 4 0.376580 -16.000000 -0.587170 0.000000 0.000000 1.000000 0.000000 1.000000 0.000000 -1.000000 0.000000 0.000000 2450.dat
1 4 20.376580 -8.000000 -50.587170 0.000000 0.000000 -1.000000 0.000000 1.000000 0.000000 1.000000 0.000000 0.000000 3666.dat
1 4 20.376580 -16.000000 -50.587180 0.000000 0.000000 1.000000 0.000000 1.000000 0.000000 -1.000000 0.000000 0.000000 3023b.dat
1 4 20.376570 -16.000000 -90.587180 0.000000 0.000000 1.000000 0.000000 1.000000 0.000000 -1.000000 0.000000 0.000000 3023b.dat
0 STEP
1 4 10.376580 -16.000000 49.412830 1.000000 0.000000 0.000000 0.000000 1.000000 0.000000 0.000000 0.000000 1.000000 35787.dat
1 4 0.376590 -24.000000 39.412830 0.000000 0.000000 -1.000000 0.000000 1.000000 0.000000 1.000000 0.000000 0.000000 2450.dat
1 4 20.376560 -24.000000 -50.587190 0.000000 0.000000 1.000000 0.000000 1.000000 0.000000 -1.000000 0.000000 0.000000 3666.dat
1 71 0.376580 -24.000000 -0.587170 1.000000 0.000000 0.000000 0.000000 1.000000 0.000000 0.000000 0.000000 1.000000 6141.dat
0 STEP
1 4 10.376580 -32.000000 49.412830 1.000000 0.000000 0.000000 0.000000 1.000000 0.000000 0.000000 0.000000 1.000000 35787.dat
1 4 -19.623420 -32.000000 49.412840 0.000000 0.000000 1.000000 0.000000 1.000000 0.000000 -1.000000 0.000000 0.000000 3069b.dat
1 4 0.376580 -32.000000 19.412830 1.000000 0.000000 0.000000 0.000000 1.000000 0.000000 0.000000 0.000000 1.000000 3623.dat
1 4 0.377280 -32.000000 -70.587190 1.000000 0.000000 0.000000 0.000000 1.000000 0.000000 0.000000 0.000000 1.000000 50304.dat
0 STEP
1 4 -9.623429 -40.000000 29.412830 1.000000 0.000000 0.000000 0.000000 1.000000 0.000000 0.000000 0.000000 1.000000 35787.dat
1 4 -9.622720 -40.000000 -10.587190 1.000000 0.000000 0.000000 0.000000 1.000000 0.000000 0.000000 0.000000 1.000000 3068b.dat
1 4 -9.622720 -40.000000 -60.587190 1.000000 0.000000 0.000000 0.000000 1.000000 0.000000 0.000000 0.000000 1.000000 43722b.dat
0 STEP
1 4 30.376570 -10.000000 -130.587200 0.000000 -1.000000 0.000000 0.000000 0.000000 1.000000 -1.000000 0.000000 0.000000 99781.dat
1 4 30.376570 -10.000000 -130.587200 0.000000 -1.000000 0.000000 1.000000 0.000000 0.000000 0.000000 0.000000 1.000000 6060.dat
1 4 -49.623440 -9.999990 -220.587200 0.000000 -1.000000 0.000000 0.000000 0.000000 1.000000 -1.000000 0.000000 0.000000 78666.dat
1 4 -73.623430 -9.999990 -220.587200 0.000000 -1.000000 0.000000 -1.000000 0.000000 0.000000 0.000000 0.000000 -1.000000 24201.dat
1 15 -73.623430 -14.226220 -249.650300 0.000000 -1.000000 0.000000 -0.422622 0.000000 0.906306 -0.906306 0.000000 -0.422622 35480.dat
0 STEP
0 NOFILE
0 FILE Base
0 Base
0 Name: Base
0 Author: 
0 CustomBrick
0 FlexibleBrickControlPointUnitLength -1
0 FlexibleBrickLockedControlPoint 
1 15 -110.000000 -160.000000 -13.933340 0.000000 0.000000 1.000000 1.000000 0.000000 0.000000 0.000000 1.000000 0.000000 2465.dat
1 15 110.000000 -160.000000 -13.933340 0.000000 0.000000 1.000000 1.000000 0.000000 0.000000 0.000000 1.000000 0.000000 2465.dat
1 15 0.000050 -10.000100 -13.933330 1.000000 0.000000 0.000000 0.000000 0.000000 -1.000000 0.000000 1.000000 0.000000 6111.dat
1 15 -0.000020 -310.000000 2.066650 1.000000 0.000000 0.000000 0.000000 0.000000 -1.000000 0.000000 1.000000 0.000000 4477.dat
0 STEP
1 15 69.999980 -310.000000 -5.933360 1.000000 0.000000 0.000000 0.000000 0.000000 -1.000000 0.000000 1.000000 0.000000 3623.dat
1 15 -70.000010 -310.000000 -5.933360 1.000000 0.000000 0.000000 0.000000 0.000000 -1.000000 0.000000 1.000000 0.000000 3623.dat
1 15 -0.000020 -300.000000 -5.933360 1.000000 0.000000 0.000000 0.000000 0.000000 -1.000000 0.000000 1.000000 0.000000 3176.dat
1 15 29.999980 -300.000000 -5.933360 0.000000 0.000000 1.000000 1.000000 0.000000 0.000000 0.000000 1.000000 0.000000 44302.dat
1 15 -30.000040 -300.000000 -5.933360 0.000000 0.000000 1.000000 1.000000 0.000000 0.000000 0.000000 1.000000 0.000000 44302.dat
0 STEP
1 15 -0.000010 -310.000000 -13.933360 1.000000 0.000000 0.000000 0.000000 0.000000 -1.000000 0.000000 1.000000 0.000000 4477.dat
1 71 -0.000020 -290.000100 -13.933360 1.000000 0.000000 0.000000 0.000000 0.000000 -1.000000 0.000000 1.000000 0.000000 41740.dat
0 STEP
1 16 -10.000020 -20.000020 1.638170 1.000000 0.000000 0.000000 0.000000 1.000000 0.000000 0.000000 0.000000 1.000000 stand
0 STEP
1 15 0.000050 -40.000060 -21.933340 1.000000 0.000000 0.000000 0.000000 0.000000 -1.000000 0.000000 1.000000 0.000000 3029.dat
1 15 0.000020 -120.000000 -21.933370 1.000000 0.000000 0.000000 0.000000 0.000000 -1.000000 0.000000 1.000000 0.000000 3029.dat
1 15 -0.000020 -200.000000 -21.933500 1.000000 0.000000 0.000000 0.000000 0.000000 -1.000000 0.000000 1.000000 0.000000 3029.dat
1 15 -0.000020 -280.000100 -21.933360 1.000000 0.000000 0.000000 0.000000 0.000000 -1.000000 0.000000 1.000000 0.000000 3029.dat
1 71 89.999980 -290.000000 -13.933360 1.000000 0.000000 0.000000 0.000000 0.000000 -1.000000 0.000000 1.000000 0.000000 3062b.dat
1 71 90.000080 -30.000060 -13.933330 1.000000 0.000000 0.000000 0.000000 0.000000 -1.000000 0.000000 1.000000 0.000000 3062b.dat
1 71 -90.000010 -290.000000 -13.933360 1.000000 0.000000 0.000000 0.000000 0.000000 -1.000000 0.000000 1.000000 0.000000 3062b.dat
1 71 -89.999950 -30.000060 -13.933330 1.000000 0.000000 0.000000 0.000000 0.000000 -1.000000 0.000000 1.000000 0.000000 3062b.dat
1 15 99.999980 -300.000000 10.066650 1.000000 0.000000 0.000000 0.000000 0.000000 -1.000000 0.000000 1.000000 0.000000 2654.dat
1 15 100.000100 -20.000100 10.066670 1.000000 0.000000 0.000000 0.000000 0.000000 -1.000000 0.000000 1.000000 0.000000 2654.dat
1 15 -99.999950 -20.000000 10.066670 1.000000 0.000000 0.000000 0.000000 0.000000 -1.000000 0.000000 1.000000 0.000000 2654.dat
1 15 -100.000000 -300.000000 10.066650 1.000000 0.000000 0.000000 0.000000 0.000000 -1.000000 0.000000 1.000000 0.000000 2654.dat
0 STEP
0 NOFILE
0 FILE Stand
0 Stand
0 Name: Stand
0 Author: 
0 CustomBrick
0 FlexibleBrickControlPointUnitLength -1
0 FlexibleBrickLockedControlPoint 
0 NumOfBricks 7
1 71 40.000020 -237.676800 3.428750 -1.000000 0.000000 0.000000 0.000000 0.000000 1.000000 0.000000 1.000000 0.000000 53923.dat
1 71 -20.000000 -237.676800 3.428750 -1.000000 0.000000 0.000000 0.000000 0.000000 1.000000 0.000000 1.000000 0.000000 53923.dat
1 71 40.000000 -130.000000 -5.571500 0.000000 0.000000 -1.000000 -1.000000 0.000000 0.000000 0.000000 1.000000 0.000000 23948.dat
1 71 -19.999980 -130.000000 -5.571500 0.000000 0.000000 -1.000000 -1.000000 0.000000 0.000000 0.000000 1.000000 0.000000 23948.dat
0 STEP
1 15 39.999980 -10.000030 -5.571500 1.000000 0.000000 0.000000 0.000000 0.000000 -1.000000 0.000000 1.000000 0.000000 25214.dat
1 4 9.999990 -10.000030 -5.571500 1.000000 0.000000 0.000000 0.000000 0.000000 -1.000000 0.000000 1.000000 0.000000 32062.dat
1 15 -20.000010 -10.000000 -5.571500 0.000000 0.000000 1.000000 1.000000 0.000000 0.000000 0.000000 1.000000 0.000000 25214.dat
0 STEP
0 NOFILE
