0 FILE 30706 Quidditch Lesson
0 30706 Quidditch Lesson
0 SetNumber: 30706
0 Name: Quidditch Lesson
0 Theme: Harry Potter
0 ReleaseYear: 2025
0 Notes: Missing printed pieces
0 Labels: incomplete
0 _submodels: Statue, Harry, Chest, Launcher
0 _stepReady: true
1 16 83.5576 0 44.0708 1 0 0 0 1 0 0 0 1 statue
0 STEP
1 16 -90.1992 0 -3.659 1 0 0 0 1 0 0 0 1 harry
0 STEP
1 16 246.2435 0 24.4156 1 0 0 0 1 0 0 0 1 chest
0 STEP
1 16 108.3586 0 -48 1 0 0 0 1 0 0 0 1 launcher
0 STEP
0 NOFILE
0 FILE Statue
0 Statue
0 Name: Statue
0 CustomBrick
0 FlexibleBrickControlPointUnitLength -1
0 FlexibleBrickLockedControlPoint
0 NumOfBricks 12
1 2 -3.5577 -8 15.9292 1 0 0 0 1 0 0 0 1 18980.dat
0 STEP
1 19 -3.5577 -32 25.9292 1 0 0 0 1 0 0 0 1 30136.dat
1 84 -23.5577 -32 5.9292 1 0 0 0 1 0 0 0 1 98283.dat
1 19 16.4424 -32 5.9292 1 0 0 0 1 0 0 0 1 30136.dat
0 STEP
1 19 26.4424 -32 5.9292 0 0 -1 0 1 0 1 0 0 54200.dat
1 19 -33.5577 -32 5.9292 0 0 1 0 1 0 -1 0 0 54200.dat
0 STEP
1 19 -3.5577 -56 15.9292 1 0 0 0 1 0 0 0 1 3003.dat
0 STEP
1 71 -3.5577 -96 5.9292 1 0 0 0 1 0 0 0 1 36036.dat
1 71 16.4424 -96 -4.0708 1 0 0 0 1 0 0 0 1 bl_973pb5107c01.dat copy
0 STEP
1 71 -3.5577 -152 5.9292 1 0 0 0 1 0 0 0 1 3626b.dat
1 179 -24.7193 -125.5872 -26.3202 0.999995 -0.003051 0.000252 0.003051 0.986485 -0.163824 0.000252 0.163824 0.98649 18031.dat
1 179 16.2957 -128.0065 -26.9721 0.995106 0.098811 0.00026 -0.097436 0.981695 -0.163647 -0.016426 0.162821 0.986519 18031.dat
0 STEP
0 NOFILE
0 FILE Harry
0 Harry
0 Name: Harry
0 CustomBrick
0 FlexibleBrickControlPointUnitLength -1
0 FlexibleBrickLockedControlPoint
0 NumOfBricks 10
1 72 10.1992 -24 13.6589 1 0 0 0 1 0 0 0 1 41879b.dat
1 0 10.1992 -56 13.6589 1 0 0 0 1 0 0 0 1 973.dat
1 0 25.6709 -47.1243 13.6589 0.985328 0.170671 0 -0.170671 0.985328 0 0 0 1 3819.dat
1 0 -5.3755 -47.0928 13.6589 0.985495 -0.169703 0 0.169703 0.985495 0 0 0 1 3818.dat
1 78 33.8403 -29.2564 3.6589 0.991469 -0.049255 -0.120682 -0.049255 0.715638 -0.696732 0.120682 0.696732 0.707107 3820.dat
1 78 -13.5273 -29.2169 4.1589 0.991565 0.048984 0.119998 0.048984 0.715542 -0.69685 -0.119998 0.69685 0.707107 3820.dat
1 78 10.1992 -80 13.6589 1 0 0 0 1 0 0 0 1 3626b.dat
1 0 9.6992 -79.5 13.6589 1 0 0 0 1 0 0 0 1 36762.dat
1 308 -14.2569 -19.0423 2.2832 0.996778 -0.077211 -0.021714 -0.021714 -0.52039 0.853653 -0.077211 -0.850431 -0.52039 64644.dat
1 72 -16.6481 -35.1588 -24.0546 0.996778 0.077211 0.021714 -0.021714 0.52039 -0.853653 -0.077211 0.850431 0.52039 58176.dat
0 NOFILE
0 FILE Chest
0 Chest
0 Name: Chest
0 CustomBrick
0 FlexibleBrickControlPointUnitLength -1
0 FlexibleBrickLockedControlPoint
0 NumOfBricks 4
1 70 -6.2435 -32 -4.4157 1 0 0 0 1 0 0 0 1 4738a.dat
1 70 -6.2435 -48.3588 10.0661 1 0 0 0 0.629321 0.777146 0 -0.777146 0.629321 80835.dat
1 320 16.7564 -18 -4.4157 1 0 0 0 1 0 0 0 1 32474.dat
1 297 -16.2695 -8 -9.2348 0.939693 0 0.342021 0 1 0 -0.342021 0 0.939693 37704.dat
0 NOFILE
0 FILE Launcher
0 Launcher
0 Name: Launcher
0 CustomBrick
0 FlexibleBrickControlPointUnitLength -1
0 FlexibleBrickLockedControlPoint
0 NumOfBricks 4
1 2 21.6414 -8 -2 0 0 -1 0 1 0 1 0 0 4740.dat
1 148 21.6424 -12 -2 0 0 1 0 1 0 -1 0 0 69767.dat
1 72 14.0999 -49.9407 -2 0 0 1 0 1 0 -1 0 0 69755.dat
1 308 -13.3837 -51 2 0 0 -1 1 0 0 0 -1 0 98138.dat
0 NOFILE
0 FILE bl_973pb5107c01.dat Copy
0 Torso Statue Robe with Dark Bluish Gray Gather Lines, Wrinkles, and Clasp at Right Shoulder Pattern / Light Bluish Gray Arms / Light Bluish Gray Hands
0 Name: 973pb5107c01
0 FlexibleBrick: bl_973pb5107c01.dat
0 FlexibleBrickControlPointUnitLength -1
0 FlexibleBrickLockedControlPoint
1 16 -20 -32 10 1 0 0 0 1 0 0 0 1 973pmc.dat
1 71 -4.5282 -23.1243 10 0.985328 0.109705 0.130742 -0.170671 0.633356 0.754806 0 -0.766045 0.642788 3819.dat
1 71 -35.5746 -23.0928 10 0.985495 -0.109083 -0.13 0.169703 0.633464 0.754933 0 -0.766044 0.642788 3818.dat
1 71 -41.3397 -19.0774 -10.6613 0.99989 0.000637 -0.014791 0.000637 0.996304 0.085892 0.014791 -0.085892 0.996195 3820.dat
1 71 1.1754 -19.492 -10.9827 0.995056 0.098189 0.014876 -0.099108 0.991364 0.085878 -0.006314 -0.086927 0.996195 3820.dat
0 NOFILE
