0 40289 Diagon Alley
0 SetNumber: 40289
0 Name: Diagon Alley
0 Theme: Harry Potter
0 ReleaseYear: 2018
0 NumOfBricks: 376
0 Notes: Missing printed minifig pieces (heads + torso)
1 72 -20.000000 -8.000000 40.000000 1.000000 0.000000 0.000000 0.000000 1.000000 0.000000 0.000000 0.000000 1.000000 3033.dat
1 70 60.000000 -16.000000 70.000010 0.000000 0.000000 1.000000 0.000000 1.000000 0.000000 -1.000000 0.000000 0.000000 3021.dat
1 70 -0.000010 -16.000000 70.000000 0.000000 0.000000 1.000000 0.000000 1.000000 0.000000 -1.000000 0.000000 0.000000 3021.dat
1 70 30.000000 -16.000000 70.000000 0.000000 0.000000 1.000000 0.000000 1.000000 0.000000 -1.000000 0.000000 0.000000 3623.dat
0 STEP
1 30 -30.000000 -16.000000 60.000000 0.000000 0.000000 1.000000 0.000000 1.000000 0.000000 -1.000000 0.000000 0.000000 3023b.dat
1 30 0.000000 -16.000000 30.000000 1.000000 0.000000 0.000000 0.000000 1.000000 0.000000 0.000000 0.000000 1.000000 3710.dat
1 71 60.000000 -16.000000 30.000000 1.000000 0.000000 0.000000 0.000000 1.000000 0.000000 0.000000 0.000000 1.000000 3023b.dat
1 71 70.000010 -16.000000 0.000000 0.000000 0.000000 1.000000 0.000000 1.000000 0.000000 -1.000000 0.000000 0.000000 3023b.dat
0 STEP
1 71 -60.000000 -16.000000 90.000000 1.000000 0.000000 0.000000 0.000000 1.000000 0.000000 0.000000 0.000000 1.000000 3023b.dat
1 71 -220.000000 -16.000000 80.000000 1.000000 0.000000 0.000000 0.000000 1.000000 0.000000 0.000000 0.000000 1.000000 91988.dat
1 71 -90.000000 -16.000000 -10.000000 1.000000 0.000000 0.000000 0.000000 1.000000 0.000000 0.000000 0.000000 1.000000 2420.dat
1 71 -30.000000 -16.000000 -10.000000 0.000000 0.000000 -1.000000 0.000000 1.000000 0.000000 1.000000 0.000000 0.000000 2420.dat
1 71 -60.000020 -16.000000 40.000000 0.000000 0.000000 1.000000 0.000000 1.000000 0.000000 -1.000000 0.000000 0.000000 87079.dat
1 71 20.000000 -16.000000 0.000010 -1.000000 0.000000 0.000000 0.000000 1.000000 0.000000 0.000000 0.000000 -1.000000 87079.dat
0 STEP
1 72 -180.000000 -8.000000 40.000000 1.000000 0.000000 0.000000 0.000000 1.000000 0.000000 0.000000 0.000000 1.000000 3958.dat
1 72 -340.000000 -8.000000 40.000000 1.000000 0.000000 0.000000 0.000000 1.000000 0.000000 0.000000 0.000000 1.000000 3033.dat
1 71 -120.000000 -16.000000 40.000000 1.000000 0.000000 0.000000 0.000000 1.000000 0.000000 0.000000 0.000000 1.000000 87079.dat
1 71 -140.000000 -16.000000 0.000000 1.000000 0.000000 0.000000 0.000000 1.000000 0.000000 0.000000 0.000000 1.000000 87079.dat
1 71 -190.000000 -16.000000 40.000000 1.000000 0.000000 0.000000 0.000000 1.000000 0.000000 0.000000 0.000000 1.000000 3021.dat
0 STEP
1 71 -230.000000 -16.000000 40.000000 0.000000 0.000000 1.000000 0.000000 1.000000 0.000000 -1.000000 0.000000 0.000000 3023b.dat
1 71 -280.000000 -16.000000 40.000000 1.000000 0.000000 0.000000 0.000000 1.000000 0.000000 0.000000 0.000000 1.000000 87079.dat
1 71 -260.000000 -16.000000 0.000000 1.000000 0.000000 0.000000 0.000000 1.000000 0.000000 0.000000 0.000000 1.000000 87079.dat
1 71 -200.000000 -16.000000 10.000000 1.000000 0.000000 0.000000 0.000000 1.000000 0.000000 0.000000 0.000000 1.000000 3023b.dat
1 71 -200.000000 -16.000000 -10.000000 1.000000 0.000000 0.000000 0.000000 1.000000 0.000000 0.000000 0.000000 1.000000 15573.dat
1 71 -310.000000 -16.000000 0.000000 0.000000 0.000000 1.000000 0.000000 1.000000 0.000000 -1.000000 0.000000 0.000000 15573.dat
0 STEP
1 71 -360.000000 -16.000000 20.000000 1.000000 0.000000 0.000000 0.000000 1.000000 0.000000 0.000000 0.000000 1.000000 61485.dat
1 71 -380.000000 -16.000000 80.000000 1.000000 0.000000 0.000000 0.000000 1.000000 0.000000 0.000000 0.000000 1.000000 3068b.dat
1 71 -420.000000 -16.000000 60.000000 1.000000 0.000000 0.000000 0.000000 1.000000 0.000000 0.000000 0.000000 1.000000 3068b.dat
1 71 -420.000000 -16.000000 90.000000 1.000000 0.000000 0.000000 0.000000 1.000000 0.000000 0.000000 0.000000 1.000000 3023b.dat
1 71 -420.000000 -16.000000 10.000000 0.000000 0.000000 1.000000 0.000000 1.000000 0.000000 -1.000000 0.000000 0.000000 3021.dat
0 STEP
1 85 50.000000 -40.000000 70.000010 0.000000 0.000000 -1.000000 0.000000 1.000000 0.000000 1.000000 0.000000 0.000000 2357.dat
1 27 70.000000 -24.000000 70.000010 1.000000 0.000000 0.000000 0.000000 1.000000 0.000000 0.000000 0.000000 1.000000 3024.dat
1 322 70.000000 -32.000000 70.000010 1.000000 0.000000 0.000000 0.000000 1.000000 0.000000 0.000000 0.000000 1.000000 6141.dat
1 27 70.000000 -40.000000 70.000010 1.000000 0.000000 0.000000 0.000000 1.000000 0.000000 0.000000 0.000000 1.000000 3024.dat
1 29 70.000000 -48.000000 70.000010 1.000000 0.000000 0.000000 0.000000 1.000000 0.000000 0.000000 0.000000 1.000000 6141.dat
1 27 70.000000 -56.000000 70.000010 1.000000 0.000000 0.000000 0.000000 1.000000 0.000000 0.000000 0.000000 1.000000 3024.dat
1 322 70.000000 -64.000000 70.000010 1.000000 0.000000 0.000000 0.000000 1.000000 0.000000 0.000000 0.000000 1.000000 6141.dat
0 STEP
1 25 -10.000010 -24.000000 80.000010 0.000000 0.000000 1.000000 0.000000 1.000000 0.000000 -1.000000 0.000000 0.000000 3023b.dat
1 85 -10.000010 -32.000000 90.000010 1.000000 0.000000 0.000000 0.000000 1.000000 0.000000 0.000000 0.000000 1.000000 6141.dat
1 29 -10.000010 -32.000000 70.000010 1.000000 0.000000 0.000000 0.000000 1.000000 0.000000 0.000000 0.000000 1.000000 6141.dat
1 25 -10.000010 -40.000000 80.000020 0.000000 0.000000 1.000000 0.000000 1.000000 0.000000 -1.000000 0.000000 0.000000 3023b.dat
1 322 -10.000010 -48.000000 90.000020 1.000000 0.000000 0.000000 0.000000 1.000000 0.000000 0.000000 0.000000 1.000000 6141.dat
1 85 -10.000010 -48.000000 70.000020 1.000000 0.000000 0.000000 0.000000 1.000000 0.000000 0.000000 0.000000 1.000000 6141.dat
1 25 -10.000010 -56.000000 80.000020 0.000000 0.000000 1.000000 0.000000 1.000000 0.000000 -1.000000 0.000000 0.000000 3023b.dat
1 85 -10.000010 -64.000000 90.000030 1.000000 0.000000 0.000000 0.000000 1.000000 0.000000 0.000000 0.000000 1.000000 6141.dat
1 29 -10.000010 -64.000000 70.000020 1.000000 0.000000 0.000000 0.000000 1.000000 0.000000 0.000000 0.000000 1.000000 6141.dat
1 25 -10.000010 -72.000000 80.000040 0.000000 0.000000 1.000000 0.000000 1.000000 0.000000 -1.000000 0.000000 0.000000 3023b.dat
1 297 50.000000 -48.000000 90.000010 1.000000 0.000000 0.000000 0.000000 1.000000 0.000000 0.000000 0.000000 1.000000 6141.dat
1 71 30.000000 -40.000000 70.000010 -1.000000 0.000000 0.000000 0.000000 1.000000 0.000000 0.000000 0.000000 -1.000000 54200.dat
0 STEP
1 19 -30.000000 -80.000000 90.000000 1.000000 0.000000 0.000000 0.000000 1.000000 0.000000 0.000000 0.000000 1.000000 14716.dat
1 47 -30.000010 -40.000000 70.000000 1.000000 0.000000 0.000000 0.000000 1.000000 0.000000 0.000000 0.000000 1.000000 3062b.dat
1 25 -30.000010 -64.000000 70.000000 1.000000 0.000000 0.000000 0.000000 1.000000 0.000000 0.000000 0.000000 1.000000 3062b.dat
1 31 -30.000000 -40.000000 50.000000 1.000000 0.000000 0.000000 0.000000 1.000000 0.000000 0.000000 0.000000 1.000000 3005.dat
1 31 -30.000000 -64.000000 50.000000 1.000000 0.000000 0.000000 0.000000 1.000000 0.000000 0.000000 0.000000 1.000000 3005.dat
1 31 -10.000000 -40.000000 30.000000 1.000000 0.000000 0.000000 0.000000 1.000000 0.000000 0.000000 0.000000 1.000000 3005.dat
1 31 -10.000000 -64.000000 30.000000 1.000000 0.000000 0.000000 0.000000 1.000000 0.000000 0.000000 0.000000 1.000000 3005.dat
1 31 30.000000 -40.000000 30.000000 1.000000 0.000000 0.000000 0.000000 1.000000 0.000000 0.000000 0.000000 1.000000 3005.dat
1 31 30.000000 -64.000000 30.000000 1.000000 0.000000 0.000000 0.000000 1.000000 0.000000 0.000000 0.000000 1.000000 3005.dat
1 47 10.000000 -40.000000 30.000000 1.000000 0.000000 0.000000 0.000000 1.000000 0.000000 0.000000 0.000000 1.000000 3062b.dat
1 25 10.000000 -64.000000 30.000000 1.000000 0.000000 0.000000 0.000000 1.000000 0.000000 0.000000 0.000000 1.000000 3062b.dat
0 STEP
1 47 -40.000000 -40.000000 20.000000 1.000000 0.000000 0.000000 0.000000 1.000000 0.000000 0.000000 0.000000 1.000000 3941.dat
1 47 60.000010 -40.000000 20.000000 1.000000 0.000000 0.000000 0.000000 1.000000 0.000000 0.000000 0.000000 1.000000 3941.dat
1 25 -40.000000 -64.000000 20.000000 1.000000 0.000000 0.000000 0.000000 1.000000 0.000000 0.000000 0.000000 1.000000 3941.dat
1 25 60.000010 -64.000000 20.000000 1.000000 0.000000 0.000000 0.000000 1.000000 0.000000 0.000000 0.000000 1.000000 3941.dat
0 STEP
1 30 -30.000000 -72.000000 30.000000 1.000000 0.000000 0.000000 0.000000 1.000000 0.000000 0.000000 0.000000 1.000000 2420.dat
1 30 50.000000 -72.000000 30.000000 1.000000 0.000000 0.000000 0.000000 1.000000 0.000000 0.000000 0.000000 1.000000 3623.dat
1 25 10.000000 -72.000000 30.000000 1.000000 0.000000 0.000000 0.000000 1.000000 0.000000 0.000000 0.000000 1.000000 6141.dat
1 25 70.000010 -72.000000 10.000000 1.000000 0.000000 0.000000 0.000000 1.000000 0.000000 0.000000 0.000000 1.000000 6141.dat
1 25 50.000010 -72.000000 10.000000 1.000000 0.000000 0.000000 0.000000 1.000000 0.000000 0.000000 0.000000 1.000000 6141.dat
1 25 -30.000010 -72.000000 70.000000 1.000000 0.000000 0.000000 0.000000 1.000000 0.000000 0.000000 0.000000 1.000000 6141.dat
1 25 -50.000000 -72.000000 30.000000 1.000000 0.000000 0.000000 0.000000 1.000000 0.000000 0.000000 0.000000 1.000000 6141.dat
1 25 -50.000000 -72.000000 10.000000 1.000000 0.000000 0.000000 0.000000 1.000000 0.000000 0.000000 0.000000 1.000000 6141.dat
1 25 -30.000000 -72.000000 10.000000 1.000000 0.000000 0.000000 0.000000 1.000000 0.000000 0.000000 0.000000 1.000000 6141.dat
0 STEP
1 70 -50.000000 -24.000000 90.000000 1.000000 0.000000 0.000000 0.000000 1.000000 0.000000 0.000000 0.000000 1.000000 6141.dat
1 70 -50.000000 -32.000000 90.000000 1.000000 0.000000 0.000000 0.000000 1.000000 0.000000 0.000000 0.000000 1.000000 6141.dat
1 70 -70.000000 -24.000000 90.000000 1.000000 0.000000 0.000000 0.000000 1.000000 0.000000 0.000000 0.000000 1.000000 6141.dat
1 70 -230.000000 -24.000000 30.000000 1.000000 0.000000 0.000000 0.000000 1.000000 0.000000 0.000000 0.000000 1.000000 6141.dat
1 70 -230.000000 -24.000000 50.000000 1.000000 0.000000 0.000000 0.000000 1.000000 0.000000 0.000000 0.000000 1.000000 6141.dat
1 70 -230.000000 -32.000000 50.000000 1.000000 0.000000 0.000000 0.000000 1.000000 0.000000 0.000000 0.000000 1.000000 6141.dat
1 19 -100.000000 -64.000000 90.000000 1.000000 0.000000 0.000000 0.000000 1.000000 0.000000 0.000000 0.000000 1.000000 3245c.dat
1 15 -130.000000 -24.000000 90.000000 1.000000 0.000000 0.000000 0.000000 1.000000 0.000000 0.000000 0.000000 1.000000 3024.dat
1 71 -130.000000 -24.000000 70.000000 1.000000 0.000000 0.000000 0.000000 1.000000 0.000000 0.000000 0.000000 1.000000 3070b.dat
0 STEP
1 19 -150.000000 -40.000000 80.000010 0.000000 0.000000 1.000000 0.000000 1.000000 0.000000 -1.000000 0.000000 0.000000 3004.dat
1 2 -190.000000 -40.000000 90.000000 1.000000 0.000000 0.000000 0.000000 1.000000 0.000000 0.000000 0.000000 1.000000 3622.dat
1 2 -170.000000 -24.000000 70.000000 1.000000 0.000000 0.000000 0.000000 1.000000 0.000000 0.000000 0.000000 1.000000 3024.dat
1 71 -170.000000 -24.000000 50.000000 1.000000 0.000000 0.000000 0.000000 1.000000 0.000000 0.000000 0.000000 1.000000 3070b.dat
1 15 -270.000000 -24.000000 90.000000 1.000000 0.000000 0.000000 0.000000 1.000000 0.000000 0.000000 0.000000 1.000000 3024.dat
1 71 -270.000000 -24.000000 70.000000 1.000000 0.000000 0.000000 0.000000 1.000000 0.000000 0.000000 0.000000 1.000000 3070b.dat
0 STEP
1 2 -190.000000 -64.000000 90.000000 1.000000 0.000000 0.000000 0.000000 1.000000 0.000000 0.000000 0.000000 1.000000 3622.dat
1 19 -150.000000 -64.000000 90.000010 1.000000 0.000000 0.000000 0.000000 1.000000 0.000000 0.000000 0.000000 1.000000 3005.dat
1 70 -130.000000 -64.000000 90.000000 1.000000 0.000000 0.000000 0.000000 1.000000 0.000000 0.000000 0.000000 1.000000 32952.dat
1 4 -130.000000 -34.000000 72.000000 1.000000 0.000000 0.000000 0.000000 0.000000 -1.000000 0.000000 1.000000 0.000000 3070b.dat
1 47 -130.000000 -54.000000 72.000000 1.000000 0.000000 0.000000 0.000000 0.000000 -1.000000 0.000000 1.000000 0.000000 3024.dat
0 STEP
1 4 -100.000000 -64.000000 70.000000 1.000000 0.000000 0.000000 0.000000 1.000000 0.000000 0.000000 0.000000 1.000000 60592.dat
1 0 -100.000000 -64.000000 70.000000 1.000000 0.000000 0.000000 0.000000 1.000000 0.000000 0.000000 0.000000 1.000000 38320.dat
1 19 -150.000000 -64.000000 70.000010 1.000000 0.000000 0.000000 0.000000 1.000000 0.000000 0.000000 0.000000 1.000000 4070.dat
1 28 -210.000000 -16.000000 30.000000 1.000000 0.000000 0.000000 0.000000 1.000000 0.000000 0.000000 0.000000 1.000000 54200.dat
1 28 -190.000000 -16.000000 30.000000 1.000000 0.000000 0.000000 0.000000 1.000000 0.000000 0.000000 0.000000 1.000000 54200.dat
0 STEP
1 70 -170.000000 -64.000000 70.000000 1.000000 0.000000 0.000000 0.000000 1.000000 0.000000 0.000000 0.000000 1.000000 32952.dat
1 2 -170.000000 -34.000000 52.000000 1.000000 0.000000 0.000000 0.000000 0.000000 -1.000000 0.000000 1.000000 0.000000 3024.dat
1 47 -170.000000 -54.000000 52.000000 1.000000 0.000000 0.000000 0.000000 0.000000 -1.000000 0.000000 1.000000 0.000000 3024.dat
1 70 -270.000000 -64.000000 90.000000 1.000000 0.000000 0.000000 0.000000 1.000000 0.000000 0.000000 0.000000 1.000000 32952.dat
1 47 -270.000000 -54.000000 72.000000 1.000000 0.000000 0.000000 0.000000 0.000000 -1.000000 0.000000 1.000000 0.000000 3024.dat
1 72 -270.000000 -34.000000 72.000000 1.000000 0.000000 0.000000 0.000000 0.000000 -1.000000 0.000000 1.000000 0.000000 3024.dat
1 19 -340.000000 -24.000000 80.000000 1.000000 0.000000 0.000000 0.000000 1.000000 0.000000 0.000000 0.000000 1.000000 3022.dat
1 19 -420.000000 -24.000000 0.000000 1.000000 0.000000 0.000000 0.000000 1.000000 0.000000 0.000000 0.000000 1.000000 3022.dat
0 STEP
1 47 -300.000000 -40.000000 80.000000 1.000000 0.000000 0.000000 0.000000 1.000000 0.000000 0.000000 0.000000 1.000000 3941.dat
1 47 -300.000000 -64.000000 80.000000 1.000000 0.000000 0.000000 0.000000 1.000000 0.000000 0.000000 0.000000 1.000000 3941.dat
1 47 -240.000000 -40.000000 80.000000 1.000000 0.000000 0.000000 0.000000 1.000000 0.000000 0.000000 0.000000 1.000000 3941.dat
1 47 -240.000000 -64.000000 80.000000 1.000000 0.000000 0.000000 0.000000 1.000000 0.000000 0.000000 0.000000 1.000000 3941.dat
1 47 -200.000000 -40.000000 60.000000 1.000000 0.000000 0.000000 0.000000 1.000000 0.000000 0.000000 0.000000 1.000000 3941.dat
1 47 -200.000000 -64.000000 60.000000 1.000000 0.000000 0.000000 0.000000 1.000000 0.000000 0.000000 0.000000 1.000000 3941.dat
1 70 -420.000000 -40.000000 90.000000 1.000000 0.000000 0.000000 0.000000 1.000000 0.000000 0.000000 0.000000 1.000000 30136.dat
1 70 -420.000000 -40.000000 30.000000 1.000000 0.000000 0.000000 0.000000 1.000000 0.000000 0.000000 0.000000 1.000000 30136.dat
1 47 -430.000000 -56.000000 90.000000 1.000000 0.000000 0.000000 0.000000 1.000000 0.000000 0.000000 0.000000 1.000000 6141.dat
1 47 -430.000000 -56.000000 30.000000 1.000000 0.000000 0.000000 0.000000 1.000000 0.000000 0.000000 0.000000 1.000000 6141.dat
1 297 -430.000000 -48.000000 90.000000 1.000000 0.000000 0.000000 0.000000 1.000000 0.000000 0.000000 0.000000 1.000000 6141.dat
1 297 -430.000000 -48.000000 30.000000 1.000000 0.000000 0.000000 0.000000 1.000000 0.000000 0.000000 0.000000 1.000000 6141.dat
0 STEP
1 71 -180.000000 -72.000000 90.000000 1.000000 0.000000 0.000000 0.000000 1.000000 0.000000 0.000000 0.000000 1.000000 3460.dat
1 297 -270.000000 -72.000000 90.000000 1.000000 0.000000 0.000000 0.000000 1.000000 0.000000 0.000000 0.000000 1.000000 6141.dat
1 297 -290.000000 -72.000000 70.000000 1.000000 0.000000 0.000000 0.000000 1.000000 0.000000 0.000000 0.000000 1.000000 6141.dat
1 297 -310.000000 -72.000000 70.000000 1.000000 0.000000 0.000000 0.000000 1.000000 0.000000 0.000000 0.000000 1.000000 6141.dat
1 297 -250.000000 -72.000000 70.000000 1.000000 0.000000 0.000000 0.000000 1.000000 0.000000 0.000000 0.000000 1.000000 6141.dat
1 297 -230.000000 -72.000000 70.000000 1.000000 0.000000 0.000000 0.000000 1.000000 0.000000 0.000000 0.000000 1.000000 6141.dat
1 2 -200.000000 -72.000000 60.000000 1.000000 0.000000 0.000000 0.000000 1.000000 0.000000 0.000000 0.000000 1.000000 4032a.dat
1 4 -120.000000 -72.000000 70.000010 1.000000 0.000000 0.000000 0.000000 1.000000 0.000000 0.000000 0.000000 1.000000 3710.dat
1 19 -90.000000 -72.000000 90.000000 1.000000 0.000000 0.000000 0.000000 1.000000 0.000000 0.000000 0.000000 1.000000 3024.dat
1 2 -170.000000 -72.000000 70.000000 1.000000 0.000000 0.000000 0.000000 1.000000 0.000000 0.000000 0.000000 1.000000 3024.dat
1 71 -300.000000 -72.000000 90.000000 1.000000 0.000000 0.000000 0.000000 1.000000 0.000000 0.000000 0.000000 1.000000 3023b.dat
0 STEP
1 4 -120.000000 -80.000000 80.000010 1.000000 0.000000 0.000000 0.000000 1.000000 0.000000 0.000000 0.000000 1.000000 3020.dat
1 71 -190.000000 -80.000000 80.000000 1.000000 0.000000 0.000000 0.000000 1.000000 0.000000 0.000000 0.000000 1.000000 3021.dat
1 71 -150.000000 -54.000020 48.000010 1.000000 0.000000 0.000000 0.000000 0.000000 -1.000000 0.000000 1.000000 0.000000 48729b.dat
1 70 -150.000000 -70.800010 48.000020 1.000000 0.000000 0.000000 0.000000 -1.000000 0.000000 0.000000 0.000000 -1.000000 93552.dat
0 STEP
1 19 -60.000000 -104.000000 90.000010 1.000000 0.000000 0.000000 0.000000 1.000000 0.000000 0.000000 0.000000 1.000000 3659.dat
1 19 -160.000000 -104.000000 90.000000 1.000000 0.000000 0.000000 0.000000 1.000000 0.000000 0.000000 0.000000 1.000000 3009.dat
1 71 -180.000000 -88.000000 70.000000 1.000000 0.000000 0.000000 0.000000 1.000000 0.000000 0.000000 0.000000 1.000000 3023b.dat
1 28 -150.000000 -80.000000 70.000010 1.000000 0.000000 0.000000 0.000000 1.000000 0.000000 0.000000 0.000000 1.000000 54200.dat
1 28 -90.000000 -80.000000 70.000010 1.000000 0.000000 0.000000 0.000000 1.000000 0.000000 0.000000 0.000000 1.000000 54200.dat
0 STEP
1 2 -210.000000 -104.000000 70.000000 1.000000 0.000000 0.000000 0.000000 1.000000 0.000000 0.000000 0.000000 1.000000 4070.dat
1 2 -190.000000 -112.000000 70.000000 1.000000 0.000000 0.000000 0.000000 1.000000 0.000000 0.000000 0.000000 1.000000 4070.dat
1 2 -170.000000 -112.000000 70.000000 1.000000 0.000000 0.000000 0.000000 1.000000 0.000000 0.000000 0.000000 1.000000 4070.dat
1 47 -210.000000 -94.000010 56.000000 1.000000 0.000000 0.000000 0.000000 0.000000 -1.000000 0.000000 1.000000 0.000000 3024.dat
1 47 -170.000000 -102.000000 56.000000 1.000000 0.000000 0.000000 0.000000 0.000000 -1.000000 0.000000 1.000000 0.000000 3024.dat
0 STEP
1 71 -210.000000 -112.000000 90.000010 0.000000 0.000000 1.000000 0.000000 1.000000 0.000000 -1.000000 0.000000 0.000000 2420.dat
1 15 -170.000000 -112.000000 90.000000 1.000000 0.000000 0.000000 0.000000 1.000000 0.000000 0.000000 0.000000 1.000000 3024.dat
1 19 -130.000000 -104.000000 70.000010 1.000000 0.000000 0.000000 0.000000 1.000000 0.000000 0.000000 0.000000 1.000000 3005.dat
1 19 -110.000000 -104.000000 70.000010 1.000000 0.000000 0.000000 0.000000 1.000000 0.000000 0.000000 0.000000 1.000000 4070.dat
0 STEP
1 72 -270.000000 -96.000000 90.000000 -1.000000 0.000000 0.000000 0.000000 1.000000 0.000000 0.000000 0.000000 -1.000000 4070.dat
1 72 -270.000000 -120.000000 90.000000 1.000000 0.000000 0.000000 0.000000 1.000000 0.000000 0.000000 0.000000 1.000000 4070.dat
1 72 -270.000000 -128.000000 90.000000 1.000000 0.000000 0.000000 0.000000 1.000000 0.000000 0.000000 0.000000 1.000000 3024.dat
0 STEP
1 47 -240.000000 -96.000000 80.000000 1.000000 0.000000 0.000000 0.000000 1.000000 0.000000 0.000000 0.000000 1.000000 3941.dat
1 47 -240.000000 -120.000000 80.000000 1.000000 0.000000 0.000000 0.000000 1.000000 0.000000 0.000000 0.000000 1.000000 3941.dat
1 47 -300.000000 -96.000000 80.000000 1.000000 0.000000 0.000000 0.000000 1.000000 0.000000 0.000000 0.000000 1.000000 3941.dat
1 47 -300.000000 -120.000000 80.000000 1.000000 0.000000 0.000000 0.000000 1.000000 0.000000 0.000000 0.000000 1.000000 3941.dat
1 72 -240.000000 -128.000000 80.000000 1.000000 0.000000 0.000000 0.000000 1.000000 0.000000 0.000000 0.000000 1.000000 4032a.dat
1 72 -300.000000 -128.000000 80.000000 1.000000 0.000000 0.000000 0.000000 1.000000 0.000000 0.000000 0.000000 1.000000 4032a.dat
1 15 -330.000000 -48.000000 80.000000 0.000000 0.000000 -1.000000 0.000000 1.000000 0.000000 1.000000 0.000000 0.000000 2877.dat
1 15 -330.000000 -72.000000 80.000000 0.000000 0.000000 -1.000000 0.000000 1.000000 0.000000 1.000000 0.000000 0.000000 2877.dat
1 71 -330.000100 -80.000000 80.000000 0.000000 0.000000 1.000000 0.000000 1.000000 0.000000 -1.000000 0.000000 0.000000 3023b.dat
1 15 -330.000100 -104.000000 80.000010 0.000000 0.000000 -1.000000 0.000000 1.000000 0.000000 1.000000 0.000000 0.000000 2877.dat
1 15 -330.001300 -128.000000 80.000200 0.000000 0.000000 -1.000004 0.000000 1.000000 0.000000 1.000004 0.000000 0.000000 2877.dat
0 STEP
1 72 -280.001300 -136.000000 90.000240 1.000000 0.000000 0.000000 0.000000 1.000000 0.000000 0.000000 0.000000 1.000000 3666.dat
0 STEP
1 15 -360.000000 -24.000300 20.000000 0.819152 0.000000 -0.573577 0.000000 1.000000 0.000000 0.573577 0.000000 0.819152 60474.dat
1 15 -377.207300 -72.000300 44.574580 0.819152 0.000000 -0.573577 0.000000 1.000000 0.000000 0.573577 0.000000 0.819152 60592.dat
1 15 -354.264300 -72.000300 11.808470 0.819152 0.000000 -0.573577 0.000000 1.000000 0.000000 0.573577 0.000000 0.819152 60592.dat
0 STEP
1 15 -341.161200 -48.000300 45.398820 0.819152 0.000000 -0.573577 0.000000 1.000000 0.000000 0.573577 0.000000 0.819152 3005.dat
1 15 -341.161200 -72.000300 45.398820 0.819152 0.000000 -0.573577 0.000000 1.000000 0.000000 0.573577 0.000000 0.819152 3005.dat
1 15 -329.689700 -32.000300 29.015780 0.819152 0.000000 -0.573577 0.000000 1.000000 0.000000 0.573577 0.000000 0.819152 15712.dat
1 15 -334.601200 -32.000300 1.161200 0.819152 0.000000 -0.573577 0.000000 1.000000 0.000000 0.573577 0.000000 0.819152 15712.dat
1 15 -350.984200 -32.000300 -10.310320 0.819152 0.000000 -0.573577 0.000000 1.000000 0.000000 0.573577 0.000000 0.819152 15712.dat
1 15 -378.838800 -32.000300 -5.398830 0.819152 0.000000 -0.573577 0.000000 1.000000 0.000000 0.573577 0.000000 0.819152 15712.dat
0 STEP
1 71 -378.838800 -38.000300 -5.398840 -0.814665 -0.085625 0.573577 -0.104529 0.994522 0.000000 -0.570434 -0.059956 -0.819152 23443.dat
1 71 -329.689600 -38.000300 29.015780 -0.814665 -0.085625 0.573577 -0.104529 0.994522 0.000000 -0.570434 -0.059955 -0.819152 23443.dat
1 71 -334.601200 -38.000300 1.161210 -0.814665 -0.085625 0.573577 -0.104529 0.994522 0.000000 -0.570434 -0.059955 -0.819152 23443.dat
1 71 -350.984200 -38.000300 -10.310330 -0.814665 -0.085625 0.573577 -0.104529 0.994522 0.000000 -0.570434 -0.059955 -0.819152 23443.dat
0 STEP
1 15 -400.000000 -32.000000 10.000000 1.000000 0.000000 0.000000 0.000000 1.000000 0.000000 0.000000 0.000000 1.000000 35480.dat
0 STEP
1 15 -390.000000 -40.000000 10.000000 0.819152 0.000000 -0.573577 0.000000 1.000000 0.000000 0.573577 0.000000 0.819152 3024.dat
1 15 -390.000000 -64.000000 10.000000 0.819152 0.000000 -0.573577 0.000000 1.000000 0.000000 0.573577 0.000000 0.819152 3005.dat
1 15 -390.000000 -72.000000 10.000000 0.819152 0.000000 -0.573577 0.000000 1.000000 0.000000 0.573577 0.000000 0.819152 3024.dat
0 STEP
1 15 -360.000000 -80.000300 19.999980 0.819152 0.000000 -0.573577 0.000000 1.000000 0.000000 0.573577 0.000000 0.819152 60474.dat
1 15 -377.207300 -128.000300 44.574540 0.819152 0.000000 -0.573577 0.000000 1.000000 0.000000 0.573577 0.000000 0.819152 60592.dat
1 15 -341.161200 -104.000300 45.398800 0.819152 0.000000 -0.573577 0.000000 1.000000 0.000000 0.573577 0.000000 0.819152 3005.dat
1 15 -390.310400 -104.000300 10.984240 0.819152 0.000000 -0.573577 0.000000 1.000000 0.000000 0.573577 0.000000 0.819152 3005.dat
0 STEP
1 15 -354.264300 -128.000300 11.808470 0.819152 0.000000 -0.573577 0.000000 1.000000 0.000000 0.573577 0.000000 0.819152 60592.dat
1 15 -341.161200 -128.000300 45.398810 0.819152 0.000000 -0.573577 0.000000 1.000000 0.000000 0.573577 0.000000 0.819152 3005.dat
1 15 -390.310300 -128.000300 10.984280 0.819152 0.000000 -0.573577 0.000000 1.000000 0.000000 0.573577 0.000000 0.819152 3005.dat
0 STEP
1 15 -378.838800 -88.000300 -5.398840 0.819152 0.000000 -0.573577 0.000000 1.000000 0.000000 0.573577 0.000000 0.819152 15712.dat
1 15 -350.984300 -88.000300 -10.310330 0.819152 0.000000 -0.573577 0.000000 1.000000 0.000000 0.573577 0.000000 0.819152 15712.dat
1 15 -334.601200 -88.000300 1.161180 0.819152 0.000000 -0.573577 0.000000 1.000000 0.000000 0.573577 0.000000 0.819152 15712.dat
1 15 -329.689700 -88.000300 29.015760 0.819152 0.000000 -0.573577 0.000000 1.000000 0.000000 0.573577 0.000000 0.819152 15712.dat
0 STEP
1 71 -378.838800 -94.000300 -5.398830 0.819152 0.000000 -0.573577 0.000000 1.000000 0.000000 0.573577 0.000000 0.819152 23443.dat
1 71 -350.984300 -94.000300 -10.310320 0.819152 0.000000 -0.573577 0.000000 1.000000 0.000000 0.573577 0.000000 0.819152 23443.dat
1 71 -334.601200 -94.000300 1.161180 0.819152 0.000000 -0.573577 0.000000 1.000000 0.000000 0.573577 0.000000 0.819152 23443.dat
1 71 -329.689700 -94.000300 29.015750 0.819152 0.000000 -0.573577 0.000000 1.000000 0.000000 0.573577 0.000000 0.819152 23443.dat
0 STEP
1 15 -360.000000 -136.000300 19.999990 0.819152 0.000000 -0.573577 0.000000 1.000000 0.000000 0.573577 0.000000 0.819152 60474.dat
0 STEP
1 71 -330.001300 -136.000000 70.000140 1.000000 0.000000 0.000000 0.000000 1.000000 0.000000 0.000000 0.000000 1.000000 3024.dat
1 2 -190.000000 -136.000000 90.000010 1.000000 0.000000 0.000000 0.000000 1.000000 0.000000 0.000000 0.000000 1.000000 3622.dat
1 71 -190.000000 -120.000000 70.000010 1.000000 0.000000 0.000000 0.000000 1.000000 0.000000 0.000000 0.000000 1.000000 3623.dat
1 19 -120.000000 -128.000000 90.000000 1.000000 0.000000 0.000000 0.000000 1.000000 0.000000 0.000000 0.000000 1.000000 3010.dat
0 STEP
1 47 60.000010 -96.000000 20.000000 1.000000 0.000000 0.000000 0.000000 1.000000 0.000000 0.000000 0.000000 1.000000 3941.dat
1 47 -40.000000 -96.000000 20.000000 1.000000 0.000000 0.000000 0.000000 1.000000 0.000000 0.000000 0.000000 1.000000 3941.dat
1 47 -30.000010 -96.000000 70.000000 1.000000 0.000000 0.000000 0.000000 1.000000 0.000000 0.000000 0.000000 1.000000 3062b.dat
1 47 10.000000 -96.000000 30.000000 1.000000 0.000000 0.000000 0.000000 1.000000 0.000000 0.000000 0.000000 1.000000 3062b.dat
1 31 -30.000000 -96.000000 50.000000 1.000000 0.000000 0.000000 0.000000 1.000000 0.000000 0.000000 0.000000 1.000000 3005.dat
1 31 -10.000000 -96.000000 30.000000 1.000000 0.000000 0.000000 0.000000 1.000000 0.000000 0.000000 0.000000 1.000000 3005.dat
1 31 30.000000 -96.000000 30.000000 1.000000 0.000000 0.000000 0.000000 1.000000 0.000000 0.000000 0.000000 1.000000 3005.dat
0 STEP
1 25 60.000010 -120.000000 20.000000 1.000000 0.000000 0.000000 0.000000 1.000000 0.000000 0.000000 0.000000 1.000000 3941.dat
1 25 -40.000000 -120.000000 20.000000 1.000000 0.000000 0.000000 0.000000 1.000000 0.000000 0.000000 0.000000 1.000000 3941.dat
1 19 -30.000000 -112.000000 90.000000 1.000000 0.000000 0.000000 0.000000 1.000000 0.000000 0.000000 0.000000 1.000000 3024.dat
1 19 -30.000000 -120.000000 90.000000 1.000000 0.000000 0.000000 0.000000 1.000000 0.000000 0.000000 0.000000 1.000000 3024.dat
1 25 -30.000010 -120.000000 70.000000 1.000000 0.000000 0.000000 0.000000 1.000000 0.000000 0.000000 0.000000 1.000000 3062b.dat
1 25 10.000000 -120.000000 30.000000 1.000000 0.000000 0.000000 0.000000 1.000000 0.000000 0.000000 0.000000 1.000000 3062b.dat
1 31 -30.000000 -120.000000 50.000000 1.000000 0.000000 0.000000 0.000000 1.000000 0.000000 0.000000 0.000000 1.000000 3005.dat
1 31 -10.000000 -120.000000 30.000000 1.000000 0.000000 0.000000 0.000000 1.000000 0.000000 0.000000 0.000000 1.000000 3005.dat
1 31 30.000000 -120.000000 30.000000 1.000000 0.000000 0.000000 0.000000 1.000000 0.000000 0.000000 0.000000 1.000000 3005.dat
0 STEP
1 30 -30.000010 -128.000000 70.000000 0.000000 0.000000 1.000000 0.000000 1.000000 0.000000 -1.000000 0.000000 0.000000 3623.dat
1 30 20.000000 -128.000000 30.000000 1.000000 0.000000 0.000000 0.000000 1.000000 0.000000 0.000000 0.000000 1.000000 3666.dat
1 25 -50.000000 -128.000000 30.000000 1.000000 0.000000 0.000000 0.000000 1.000000 0.000000 0.000000 0.000000 1.000000 6141.dat
1 25 -50.000000 -128.000000 10.000000 1.000000 0.000000 0.000000 0.000000 1.000000 0.000000 0.000000 0.000000 1.000000 6141.dat
1 297 -30.000000 -128.000000 10.000000 0.866025 0.000000 -0.500000 0.000000 1.000000 0.000000 0.500000 0.000000 0.866025 26047.dat
0 STEP
1 31 70.000000 -152.000000 30.000000 1.000000 0.000000 0.000000 0.000000 1.000000 0.000000 0.000000 0.000000 1.000000 3005.dat
1 31 30.000000 -152.000000 30.000000 1.000000 0.000000 0.000000 0.000000 1.000000 0.000000 0.000000 0.000000 1.000000 3005.dat
1 31 -10.000000 -152.000000 30.000000 1.000000 0.000000 0.000000 0.000000 1.000000 0.000000 0.000000 0.000000 1.000000 3005.dat
1 31 -30.000000 -152.000000 50.000000 1.000000 0.000000 0.000000 0.000000 1.000000 0.000000 0.000000 0.000000 1.000000 3005.dat
1 31 -30.000010 -152.000000 90.000000 1.000000 0.000000 0.000000 0.000000 1.000000 0.000000 0.000000 0.000000 1.000000 3005.dat
1 25 -30.000010 -152.000000 70.000000 0.000000 0.000000 -1.000000 0.000000 1.000000 0.000000 1.000000 0.000000 0.000000 4070.dat
1 25 50.000000 -152.000000 30.000000 -1.000000 0.000000 0.000000 0.000000 1.000000 0.000000 0.000000 0.000000 -1.000000 4070.dat
1 25 10.000000 -152.000000 30.000000 -1.000000 0.000000 0.000000 0.000000 1.000000 0.000000 0.000000 0.000000 -1.000000 4070.dat
1 30 -40.000000 -136.000000 20.000000 1.000000 0.000000 0.000000 0.000000 1.000000 0.000000 0.000000 0.000000 1.000000 18674.dat
0 STEP
1 30 -30.000010 -160.000000 70.000000 0.000000 0.000000 1.000000 0.000000 1.000000 0.000000 -1.000000 0.000000 0.000000 3623.dat
1 30 10.000000 -160.000000 30.000000 -1.000000 0.000000 0.000000 0.000000 1.000000 0.000000 0.000000 0.000000 -1.000000 3623.dat
1 30 60.000000 -160.000000 30.000000 1.000000 0.000000 0.000000 0.000000 1.000000 0.000000 0.000000 0.000000 1.000000 3023b.dat
1 78 -40.000000 -160.000000 20.000000 1.000000 0.000000 0.000000 0.000000 1.000000 0.000000 0.000000 0.000000 1.000000 3626b.dat
0 STEP
1 31 -30.000010 -184.000000 90.000000 1.000000 0.000000 0.000000 0.000000 1.000000 0.000000 0.000000 0.000000 1.000000 3005.dat
1 31 -30.000000 -184.000000 50.000000 1.000000 0.000000 0.000000 0.000000 1.000000 0.000000 0.000000 0.000000 1.000000 3005.dat
1 31 -10.000000 -184.000000 30.000000 1.000000 0.000000 0.000000 0.000000 1.000000 0.000000 0.000000 0.000000 1.000000 3005.dat
1 31 70.000000 -184.000000 30.000000 1.000000 0.000000 0.000000 0.000000 1.000000 0.000000 0.000000 0.000000 1.000000 3005.dat
1 31 30.000000 -184.000000 30.000010 1.000000 0.000000 0.000000 0.000000 1.000000 0.000000 0.000000 0.000000 1.000000 3005.dat
1 25 -30.000010 -184.000000 70.000000 0.000000 0.000000 -1.000000 0.000000 1.000000 0.000000 1.000000 0.000000 0.000000 4070.dat
1 25 10.000000 -184.000000 30.000000 -1.000000 0.000000 0.000000 0.000000 1.000000 0.000000 0.000000 0.000000 -1.000000 4070.dat
1 25 50.000000 -184.000000 30.000000 -1.000000 0.000000 0.000000 0.000000 1.000000 0.000000 0.000000 0.000000 -1.000000 4070.dat
1 15 -40.000000 -168.000000 20.000000 1.000000 0.000000 0.000000 0.000000 1.000000 0.000000 0.000000 0.000000 1.000000 85861.dat
0 STEP
1 30 -10.000000 -192.000000 50.000000 -1.000000 0.000000 0.000000 0.000000 1.000000 0.000000 0.000000 0.000000 -1.000000 2420.dat
1 30 -30.000020 -192.000000 80.000010 0.000000 0.000000 1.000000 0.000000 1.000000 0.000000 -1.000000 0.000000 0.000000 3023b.dat
1 30 40.000000 -192.000000 30.000000 1.000000 0.000000 0.000000 0.000000 1.000000 0.000000 0.000000 0.000000 1.000000 3710.dat
1 19 -90.000000 -152.000000 90.000000 1.000000 0.000000 0.000000 0.000000 1.000000 0.000000 0.000000 0.000000 1.000000 2921.dat
1 19 -120.000000 -152.000000 90.000000 1.000000 0.000000 0.000000 0.000000 1.000000 0.000000 0.000000 0.000000 1.000000 3004.dat
1 19 -150.000000 -152.000000 90.000000 1.000000 0.000000 0.000000 0.000000 1.000000 0.000000 0.000000 0.000000 1.000000 4070.dat
1 71 -240.001300 -144.000000 90.000240 1.000000 0.000000 0.000000 0.000000 1.000000 0.000000 0.000000 0.000000 1.000000 3460.dat
1 0 -112.000000 -93.999980 47.350000 0.000000 1.000000 0.000000 0.000000 0.000000 1.000000 1.000000 0.000000 0.000000 32828.dat
1 297 -120.000000 -93.999980 47.350000 0.000000 1.000000 0.000000 0.000000 0.000000 1.000000 1.000000 0.000000 0.000000 6141.dat
0 STEP
1 4 -120.000000 -152.000000 70.000010 1.000000 0.000000 0.000000 0.000000 1.000000 0.000000 0.000000 0.000000 1.000000 60592.dat
1 0 -120.000000 -152.000000 70.000010 1.000000 0.000000 0.000000 0.000000 1.000000 0.000000 0.000000 0.000000 1.000000 38320.dat
1 2 -210.000000 -144.000000 70.000010 1.000000 0.000000 0.000000 0.000000 1.000000 0.000000 0.000000 0.000000 1.000000 4070.dat
1 2 -170.000000 -144.000000 70.000010 1.000000 0.000000 0.000000 0.000000 1.000000 0.000000 0.000000 0.000000 1.000000 4070.dat
1 71 -190.000000 -144.000000 70.000010 1.000000 0.000000 0.000000 0.000000 1.000000 0.000000 0.000000 0.000000 1.000000 3005.dat
1 47 -170.000000 -134.000000 56.000010 1.000000 0.000000 0.000000 0.000000 0.000000 -1.000000 0.000000 1.000000 0.000000 3024.dat
0 STEP
1 4 -130.000000 -160.000000 90.000010 -1.000000 0.000000 0.000000 0.000000 1.000000 0.000000 0.000000 0.000000 -1.000000 2420.dat
1 4 -110.000000 -160.000000 90.000010 0.000000 0.000000 1.000000 0.000000 1.000000 0.000000 -1.000000 0.000000 0.000000 2420.dat
1 71 -190.001300 -152.000000 90.000240 1.000000 0.000000 0.000000 0.000000 1.000000 0.000000 0.000000 0.000000 1.000000 34103.dat
1 71 -190.000000 -152.000000 70.000010 1.000000 0.000000 0.000000 0.000000 1.000000 0.000000 0.000000 0.000000 1.000000 34103.dat
0 STEP
1 0 -90.000000 -152.000000 70.000000 1.000000 0.000000 0.000000 0.000000 -1.000000 0.000000 0.000000 0.000000 -1.000000 85861.dat
1 46 -90.000000 -160.000000 70.000000 1.000000 0.000000 0.000000 0.000000 -1.000000 0.000000 0.000000 0.000000 -1.000000 6141.dat
1 19 -90.000010 -168.000000 90.000010 1.000000 0.000000 0.000000 0.000000 1.000000 0.000000 0.000000 0.000000 1.000000 3024.dat
1 19 -150.000000 -168.000000 90.000000 1.000000 0.000000 0.000000 0.000000 1.000000 0.000000 0.000000 0.000000 1.000000 3024.dat
1 19 -120.000000 -168.000000 80.000010 1.000000 0.000000 0.000000 0.000000 1.000000 0.000000 0.000000 0.000000 1.000000 3022.dat
0 STEP
1 71 -130.000000 -176.000000 90.000020 -1.000000 0.000000 0.000000 0.000000 1.000000 0.000000 0.000000 0.000000 -1.000000 2420.dat
1 71 -110.000000 -176.000000 90.000020 0.000000 0.000000 1.000000 0.000000 1.000000 0.000000 -1.000000 0.000000 0.000000 2420.dat
1 72 -180.001300 -176.000000 90.000240 1.000000 0.000000 0.000000 0.000000 1.000000 0.000000 0.000000 0.000000 1.000000 3062b.dat
1 70 -150.000000 -142.000000 99.500010 1.000000 0.000000 0.000000 0.000000 0.000000 1.000000 0.000000 -1.000000 0.000000 87994.dat
1 4 -152.000000 -112.000000 45.950010 0.000000 1.000000 0.000000 -1.000000 0.000000 0.000000 0.000000 0.000000 1.000000 63868.dat
0 STEP
1 19 50.000000 -216.000000 30.000000 0.707106 0.000000 -0.707107 0.000000 1.000000 0.000000 0.707107 0.000000 0.707106 3005.dat
1 297 50.000000 -224.000000 30.000000 0.707107 0.000000 0.707106 0.000000 1.000000 0.000000 -0.707106 0.000000 0.707107 6141.dat
1 30 -30.000010 -192.000000 50.000000 -0.707107 0.000000 0.707106 0.000000 1.000000 0.000000 -0.707106 0.000000 -0.707107 54200.dat
1 30 -10.000000 -192.000000 29.999990 0.707107 0.000000 -0.707107 0.000000 1.000000 0.000000 0.707107 0.000000 0.707107 54200.dat
1 19 -150.000000 -200.000000 90.000010 1.000000 0.000000 0.000000 0.000000 1.000000 0.000000 0.000000 0.000000 1.000000 3005.dat
1 297 -150.000000 -208.000000 90.000010 1.000000 0.000000 0.000000 0.000000 1.000000 0.000000 0.000000 0.000000 1.000000 6141.dat
1 19 -90.000020 -184.000000 90.000020 1.000000 0.000000 0.000000 0.000000 1.000000 0.000000 0.000000 0.000000 1.000000 3024.dat
1 19 -130.000000 -176.000000 80.000020 0.000000 0.000000 1.000000 0.000000 1.000000 0.000000 -1.000000 0.000000 0.000000 85984.dat
1 19 -110.000000 -176.000000 80.000020 0.000000 0.000000 -1.000000 0.000000 1.000000 0.000000 1.000000 0.000000 0.000000 85984.dat
1 70 -200.000000 -152.000000 80.000020 0.000000 0.000000 1.000000 0.000000 1.000000 0.000000 -1.000000 0.000000 0.000000 85984.dat
1 70 -180.000000 -152.000000 70.000010 0.000000 0.000000 -1.000000 0.000000 1.000000 0.000000 1.000000 0.000000 0.000000 54200.dat
0 STEP
1 47 -310.001300 -168.000000 90.000230 1.000000 0.000000 0.000000 0.000000 1.000000 0.000000 0.000000 0.000000 1.000000 3062b.dat
1 47 -230.001300 -168.000000 90.000230 1.000000 0.000000 0.000000 0.000000 1.000000 0.000000 0.000000 0.000000 1.000000 3062b.dat
1 72 -290.001300 -168.000000 90.000240 1.000000 0.000000 0.000000 0.000000 1.000000 0.000000 0.000000 0.000000 1.000000 3005.dat
1 72 -250.001300 -168.000000 90.000240 1.000000 0.000000 0.000000 0.000000 1.000000 0.000000 0.000000 0.000000 1.000000 3005.dat
1 72 -270.001300 -168.000000 90.000230 -1.000000 0.000000 0.000000 0.000000 1.000000 0.000000 0.000000 0.000000 -1.000000 4070.dat
1 28 -180.001300 -184.000000 90.000240 0.707107 0.000000 0.707107 0.000000 1.000000 0.000000 -0.707107 0.000000 0.707107 3070b.dat
0 STEP
1 71 -240.001300 -176.000000 90.000240 1.000000 0.000000 0.000000 0.000000 1.000000 0.000000 0.000000 0.000000 1.000000 3023b.dat
1 71 -290.001300 -176.000000 90.000230 1.000000 0.000000 0.000000 0.000000 1.000000 0.000000 0.000000 0.000000 1.000000 3623.dat
1 0 -268.000000 -110.000000 65.670000 0.000000 -1.000000 0.000000 0.000000 0.000000 -1.000000 1.000000 0.000000 0.000000 32828.dat
0 STEP
1 15 -330.001300 -160.000000 80.000160 0.000000 0.000000 -1.000000 0.000000 1.000000 0.000000 1.000000 0.000000 0.000000 2877.dat
1 15 -330.001300 -184.000000 80.000160 0.000000 0.000000 -1.000000 0.000000 1.000000 0.000000 1.000000 0.000000 0.000000 2877.dat
1 72 -310.001300 -184.000000 90.000230 1.000000 0.000000 0.000000 0.000000 1.000000 0.000000 0.000000 0.000000 1.000000 3070b.dat
1 72 -230.001300 -184.000000 90.000240 1.000000 0.000000 0.000000 0.000000 1.000000 0.000000 0.000000 0.000000 1.000000 3070b.dat
1 72 -270.001300 -184.000000 90.000230 1.000000 0.000000 0.000000 0.000000 1.000000 0.000000 0.000000 0.000000 1.000000 63864.dat
1 378 -210.000000 -134.000000 56.000000 1.000000 0.000000 0.000000 0.000000 0.000000 -1.000000 0.000000 1.000000 0.000000 15712.dat
1 28 -213.000000 -134.000000 41.000000 0.000000 1.000000 0.000000 0.000000 0.000000 1.000000 1.000000 0.000000 0.000000 3070b.dat
1 378 -190.000000 -102.000000 56.000000 1.000000 0.000000 0.000000 0.000000 0.000000 -1.000000 0.000000 1.000000 0.000000 15712.dat
1 28 -193.000000 -102.000000 41.000000 0.000000 1.000000 0.000000 0.000000 0.000000 1.000000 1.000000 0.000000 0.000000 3070b.dat
0 STEP
1 15 -377.207300 -184.000300 44.574550 0.819152 0.000000 -0.573577 0.000000 1.000000 0.000000 0.573577 0.000000 0.819152 60592.dat
1 15 -354.264300 -184.000300 11.808470 0.819152 0.000000 -0.573577 0.000000 1.000000 0.000000 0.573577 0.000000 0.819152 60592.dat
0 STEP
1 15 -341.161200 -144.000300 45.398810 0.819152 0.000000 -0.573577 0.000000 1.000000 0.000000 0.573577 0.000000 0.819152 3024.dat
1 15 -341.161200 -152.000300 45.398800 0.819152 0.000000 -0.573577 0.000000 1.000000 0.000000 0.573577 0.000000 0.819152 3024.dat
1 15 -390.310400 -144.000300 10.984200 0.819152 0.000000 -0.573577 0.000000 1.000000 0.000000 0.573577 0.000000 0.819152 3024.dat
1 15 -390.310400 -152.000300 10.984190 0.819152 0.000000 -0.573577 0.000000 1.000000 0.000000 0.573577 0.000000 0.819152 3024.dat
0 STEP
1 15 -341.161200 -176.000300 45.398800 -0.819152 0.000000 0.573577 0.000000 1.000000 0.000000 -0.573577 0.000000 -0.819152 3665.dat
1 15 -390.310300 -176.000300 10.984220 -0.819152 0.000000 0.573577 0.000000 1.000000 0.000000 -0.573577 0.000000 -0.819152 3665.dat
1 15 -341.161200 -184.000300 45.398800 0.819152 0.000000 -0.573577 0.000000 1.000000 0.000000 0.573577 0.000000 0.819152 3024.dat
1 15 -390.310300 -184.000300 10.984200 0.819152 0.000000 -0.573577 0.000000 1.000000 0.000000 0.573577 0.000000 0.819152 3024.dat
1 72 -352.632800 -184.000300 61.781840 0.819152 0.000000 -0.573577 0.000000 1.000000 0.000000 0.573577 0.000000 0.819152 3070b.dat
1 72 -401.781800 -184.000300 27.367260 0.819152 0.000000 -0.573577 0.000000 1.000000 0.000000 0.573577 0.000000 0.819152 3070b.dat
0 STEP
1 15 -329.689700 -144.000300 29.015760 -0.819152 0.000000 0.573577 0.000000 1.000000 0.000000 -0.573577 0.000000 -0.819152 15712.dat
1 15 -334.601300 -144.000300 1.161190 -0.819152 0.000000 0.573577 0.000000 1.000000 0.000000 -0.573577 0.000000 -0.819152 15712.dat
1 15 -350.984300 -144.000300 -10.310330 -0.819152 0.000000 0.573577 0.000000 1.000000 0.000000 -0.573577 0.000000 -0.819152 15712.dat
1 15 -378.838900 -144.000300 -5.398820 -0.819152 0.000000 0.573577 0.000000 1.000000 0.000000 -0.573577 0.000000 -0.819152 15712.dat
0 STEP
1 71 -329.689700 -150.000300 29.015770 -0.814665 0.085625 0.573577 0.104529 0.994522 0.000000 -0.570435 0.059955 -0.819152 23443.dat
1 71 -334.601200 -150.000300 1.161200 -0.814665 0.085625 0.573577 0.104529 0.994522 0.000000 -0.570435 0.059955 -0.819152 23443.dat
1 71 -350.984300 -150.000300 -10.310340 -0.814665 0.085625 0.573577 0.104529 0.994522 0.000000 -0.570435 0.059955 -0.819152 23443.dat
1 71 -378.838900 -150.000300 -5.398840 -0.814665 0.085625 0.573577 0.104529 0.994522 0.000000 -0.570435 0.059955 -0.819152 23443.dat
0 STEP
1 15 -359.999900 -192.000300 19.999990 0.819152 0.000000 -0.573577 0.000000 1.000000 0.000000 0.573577 0.000000 0.819152 60474.dat
0 STEP
1 15 -420.000000 -48.000000 -10.000000 1.000000 0.000000 0.000000 0.000000 1.000000 0.000000 0.000000 0.000000 1.000000 2877.dat
1 15 -420.000000 -72.000000 -10.000000 1.000000 0.000000 0.000000 0.000000 1.000000 0.000000 0.000000 0.000000 1.000000 2877.dat
1 71 -420.000000 -80.000000 -10.000000 1.000000 0.000000 0.000000 0.000000 1.000000 0.000000 0.000000 0.000000 1.000000 3023b.dat
0 STEP
1 15 -420.000000 -104.000000 -10.000000 1.000000 0.000000 0.000000 0.000000 1.000000 0.000000 0.000000 0.000000 1.000000 2877.dat
1 15 -420.000000 -128.000000 -10.000050 1.000000 0.000000 0.000001 0.000000 1.000000 0.000000 0.000000 0.000000 1.000001 2877.dat
1 71 -420.000000 -136.000000 -10.000050 1.000000 0.000000 0.000001 0.000000 1.000000 0.000000 0.000000 0.000000 1.000001 3023b.dat
0 STEP
1 15 -420.000000 -160.000000 -10.000050 1.000000 0.000000 0.000000 0.000000 1.000000 0.000000 0.000000 0.000000 1.000000 2877.dat
1 15 -420.000000 -184.000000 -10.000050 1.000000 0.000000 0.000000 0.000000 1.000000 0.000000 0.000000 0.000000 1.000000 2877.dat
0 STEP
1 297 -350.000000 -32.000000 90.000000 1.000000 0.000000 0.000000 0.000000 1.000000 0.000000 0.000000 0.000000 1.000000 6141.dat
1 297 -430.000000 -32.000000 10.000000 1.000000 0.000000 0.000000 0.000000 1.000000 0.000000 0.000000 0.000000 1.000000 6141.dat
1 72 -350.000000 -56.000000 90.000000 1.000000 0.000000 0.000000 0.000000 1.000000 0.000000 0.000000 0.000000 1.000000 3062b.dat
1 72 -350.000000 -80.000000 90.000000 1.000000 0.000000 0.000000 0.000000 1.000000 0.000000 0.000000 0.000000 1.000000 3062b.dat
0 STEP
1 72 -430.000000 -56.000000 10.000000 1.000000 0.000000 0.000000 0.000000 1.000000 0.000000 0.000000 0.000000 1.000000 3062b.dat
1 72 -430.000000 -80.000000 10.000000 1.000000 0.000000 0.000000 0.000000 1.000000 0.000000 0.000000 0.000000 1.000000 3062b.dat
1 72 -430.000000 -104.000000 10.000000 1.000000 0.000000 0.000000 0.000000 1.000000 0.000000 0.000000 0.000000 1.000000 3062b.dat
1 72 -350.000000 -104.000000 90.000000 1.000000 0.000000 0.000000 0.000000 1.000000 0.000000 0.000000 0.000000 1.000000 3062b.dat
1 72 -350.000000 -128.000000 90.000000 1.000000 0.000000 0.000000 0.000000 1.000000 0.000000 0.000000 0.000000 1.000000 3062b.dat
1 72 -430.000000 -128.000000 10.000000 1.000000 0.000000 0.000000 0.000000 1.000000 0.000000 0.000000 0.000000 1.000000 3062b.dat
0 STEP
1 72 -430.000000 -152.000000 10.000000 1.000000 0.000000 0.000000 0.000000 1.000000 0.000000 0.000000 0.000000 1.000000 3062b.dat
1 72 -430.000000 -176.000000 10.000000 1.000000 0.000000 0.000000 0.000000 1.000000 0.000000 0.000000 0.000000 1.000000 3062b.dat
1 72 -350.000000 -152.000000 90.000000 1.000000 0.000000 0.000000 0.000000 1.000000 0.000000 0.000000 0.000000 1.000000 3062b.dat
1 72 -350.000000 -176.000000 90.000000 1.000000 0.000000 0.000000 0.000000 1.000000 0.000000 0.000000 0.000000 1.000000 3062b.dat
1 297 -350.000000 -184.000000 90.000000 1.000000 0.000000 0.000000 0.000000 1.000000 0.000000 0.000000 0.000000 1.000000 6141.dat
1 297 -430.000000 -184.000000 10.000000 1.000000 0.000000 0.000000 0.000000 1.000000 0.000000 0.000000 0.000000 1.000000 6141.dat
0 STEP
1 71 -340.000000 -192.000000 80.000000 1.000000 0.000000 0.000000 0.000000 1.000000 0.000000 0.000000 0.000000 1.000000 3022.dat
1 71 -420.000000 -192.000000 0.000000 1.000000 0.000000 0.000000 0.000000 1.000000 0.000000 0.000000 0.000000 1.000000 3022.dat
1 72 -359.999900 -200.000300 19.999990 0.819152 0.000000 -0.573577 0.000000 1.000000 0.000000 0.573577 0.000000 0.819152 4032a.dat
0 STEP
1 15 -330.000000 -192.000000 80.000010 0.000000 0.000000 -1.000000 0.000000 1.000000 0.000000 1.000000 0.000000 0.000000 85984.dat
1 15 -420.000000 -192.000000 -10.000000 1.000000 0.000000 0.000000 0.000000 1.000000 0.000000 0.000000 0.000000 1.000000 85984.dat
1 15 -399.999900 -200.000000 10.000010 1.000000 0.000000 0.000000 0.000000 1.000000 0.000000 0.000000 0.000000 1.000000 35480.dat
0 STEP
1 71 -362.455800 -200.000300 6.072700 0.573577 0.000000 0.819152 0.000000 1.000000 0.000000 -0.819152 0.000000 0.573577 27925.dat
1 71 -346.072700 -200.000300 17.544220 0.819152 0.000000 -0.573577 0.000000 1.000000 0.000000 0.573577 0.000000 0.819152 27925.dat
1 71 -341.161200 -200.000300 45.398800 0.819152 0.000000 -0.573577 0.000000 1.000000 0.000000 0.573577 0.000000 0.819152 3024.dat
1 71 -377.207300 -200.000300 44.574550 -0.819152 0.000000 0.573577 0.000000 1.000000 0.000000 -0.573577 0.000000 -0.819152 3023b.dat
0 STEP
1 15 -360.000000 -208.000300 19.999970 0.819152 0.000000 -0.573577 0.000000 1.000000 0.000000 0.573577 0.000000 0.819152 60474.dat
1 40 -360.000000 -208.000300 19.999970 0.819152 0.000000 -0.573577 0.000000 1.000000 0.000000 0.573577 0.000000 0.819152 86500.dat
0 STEP
0 STEP
1 0 -40.000000 -186.349300 16.570920 0.000000 1.000000 0.000000 -0.892922 0.000000 -0.450211 -0.450211 0.000000 0.892922 33078.dat
1 30 -40.000240 -200.375000 3.078630 0.573577 0.000001 -0.819152 -0.645523 0.615626 -0.452001 0.504291 0.788038 0.353109 3878.dat
1 0 -39.999990 -200.374800 3.078650 0.573577 0.000000 -0.819152 -0.645523 0.615626 -0.452001 0.504291 0.788038 0.353109 85861.dat
0 STEP
1 297 -20.000000 -126.000000 -7.320510 -0.469846 0.171010 0.866025 -0.342020 -0.939693 0.000000 0.813798 -0.296198 0.500000 11090.dat
1 19 -11.021970 -175.333900 -22.870900 0.984923 -0.171010 0.026114 0.171010 0.939693 -0.296198 0.026114 0.296198 0.954770 11610.dat
1 19 -9.653890 -182.851400 -25.240490 -0.821780 -0.171010 0.543538 0.029809 0.939693 0.340719 -0.569025 0.296198 -0.767123 61252.dat
0 STEP
1 0 -200.000000 -56.000000 -10.000000 1.000000 0.000000 0.000000 0.000000 1.000000 0.000000 0.000000 0.000000 1.000000 64644.dat
1 15 -310.000000 -56.000000 0.000000 1.000000 0.000000 0.000000 0.000000 1.000000 0.000000 0.000000 0.000000 1.000000 64644.dat
1 297 -310.000000 -56.000000 0.000000 0.707107 0.000000 -0.707106 0.000000 1.000000 0.000000 0.707106 0.000000 0.707107 90398.dat
1 46 -200.000000 -64.000000 -10.000000 1.000000 0.000000 0.000000 0.000000 1.000000 0.000000 0.000000 0.000000 1.000000 6141.dat
0 STEP
1 72 -140.000000 -40.000000 -88.750000 1.000000 0.000000 0.000000 0.000000 1.000000 0.000000 0.000000 0.000000 1.000000 73200b-f1.dat
1 70 -140.000000 -72.000000 -88.750000 1.000000 0.000000 0.000000 0.000000 1.000000 0.000000 0.000000 0.000000 1.000000 973.dat
1 70 -124.434700 -63.090660 -88.750000 0.985328 0.170671 0.000000 -0.170671 0.985328 0.000000 0.000000 0.000000 1.000000 3819.dat
1 70 -155.574600 -63.092840 -88.750000 0.985495 -0.169703 0.000000 0.169703 0.985495 0.000000 0.000000 0.000000 1.000000 3818.dat
1 78 -140.000000 -96.000000 -88.750000 1.000000 0.000000 0.000000 0.000000 1.000000 0.000000 0.000000 0.000000 1.000000 3626b.dat
1 71 -140.000000 -96.000000 -88.750000 1.000000 0.000000 0.000000 0.000000 1.000000 0.000000 0.000000 0.000000 1.000000 21269.dat
1 78 -163.726500 -45.216940 -98.250000 0.991565 0.048984 0.119998 0.048984 0.715542 -0.696850 -0.119998 0.696850 0.707107 3820.dat
1 78 -116.265300 -45.222780 -98.750000 -0.991394 -0.050733 -0.120682 0.120996 -0.707053 -0.696732 -0.049981 -0.705338 0.707107 3820.dat
1 308 -114.563000 -32.895720 -102.673700 0.996634 0.079075 -0.021621 -0.079075 0.857743 -0.507962 -0.021621 0.507962 0.861108 36752a.dat
0 STEP
0 NOFILE
