0 FILE 
0 75954 Hogwarts Great Hall
0 Name: 
0 Author: 
0 SetNumber: 75954
0 Name: Hogwarts Great Hall
0 _submodels: Dumbledore, Hermoine, Draco, Harry, Boat, Fawkes, Mirror of Erised, Basilisk, Hagrid, Ginny, McGonagall, Quirrell, Ron, Nearly Headless Nick
1 16 -15.5037 -20.75 -39.562 1 0 0 0 1 0 0 0 1 dumbledore
0 STEP
1 16 80.4507 -24 -165.7616 0 0 1 -0.170671 0.985328 0 -0.985328 -0.170671 0 hermoine
0 STEP
1 16 -38.1133 -24 -365.7705 0 0 1 0 1 0 -1 0 0 draco
0 STEP
1 16 82.0736 -24 -245.7142 0 0 1 0 1 0 -1 0 0 harry
0 STEP
1 16 -59.0007 -16 -850.7015 0.707102 0 0.707112 0 1 0 -0.707112 0 0.707102 boat
0 STEP
1 16 205.4389 -496 -575.4389 0.707107 0 0.707107 0 1 0 -0.707107 0 0.707107 fawkes
0 STEP
1 16 250.3236 -472 -570.0001 0 0 -1 0 1 0 1 0 0 mirror of erised
0 STEP
1 16 -460.0722 24.3846 -296.4025 0.422617 0 -0.906308 0 1 0 0.906308 0 0.422617 basilisk
0 STEP
1 72 -40 -8 20 1 0 0 0 1 0 0 0 1 4282.dat
1 71 110 -32 30 0 0 1 0 1 0 -1 0 0 6541.dat
0 STEP
1 19 90 -32 30 1 0 0 0 1 0 0 0 1 3005.dat
1 72 70 -32 30 -1 0 0 0 1 0 0 0 -1 3046.dat
1 288 40 -8 50 1 0 0 0 1 0 0 0 1 3710.dat
0 STEP
1 84 30 -56 30 1 0 0 0 1 0 0 0 1 88292.dat
1 71 10 -32 30 -1 0 0 0 1 0 0 0 -1 3040b.dat
1 10 70 -40 50 -0.707107 0 -0.707106 0 1 0 0.707106 0 -0.707107 32607.dat
0 STEP
1 84 -10 -56 30 1 0 0 0 1 0 0 0 1 88292.dat
1 84 -70 -56 30 1 0 0 0 1 0 0 0 1 88292.dat
1 84 -110 -56 30 1 0 0 0 1 0 0 0 1 88292.dat
0 STEP
1 19 -90 -32 30 1 0 0 0 1 0 0 0 1 3005.dat
1 19 -40 -32 30 1 0 0 0 1 0 0 0 1 3004.dat
1 71 -160 -32 30 -1 0 0 0 1 0 0 0 -1 3037.dat
1 288 -160 -8 50 1 0 0 0 1 0 0 0 1 3710.dat
0 STEP
1 72 -170 -32 10 0 0 1 0 1 0 -1 0 0 3046.dat
1 71 -150 -16 -40 0 0 1 0 1 0 -1 0 0 3666.dat
1 71 110 -16 -40 0 0 1 0 1 0 -1 0 0 3666.dat
0 STEP
1 72 -40 -8 -160 1 0 0 0 1 0 0 0 1 91405.dat
0 STEP
1 10 -190 -40 10 0 0 1 0 1 0 -1 0 0 32607.dat
1 72 110 -16 -180 0 0 1 0 1 0 -1 0 0 4162.dat
1 72 -150 -16 -140 0 0 1 0 1 0 -1 0 0 2431.dat
1 71 -20 -16 -100 1 0 0 0 1 0 0 0 1 2445.dat
0 STEP
1 19 -170 -32 -100 0 0 1 0 1 0 -1 0 0 3008.dat
1 19 -170 -32 -260 0 0 1 0 1 0 -1 0 0 3008.dat
1 1 -20 -16 -40 0 0 1 0 1 0 -1 0 0 87079.dat
0 STEP
1 84 -190 -32 -30 1 0 0 0 1 0 0 0 1 3005.dat
1 84 -190 -32 -90 1 0 0 0 1 0 0 0 1 3005.dat
1 71 -190 -8 -110 1 0 0 0 1 0 0 0 1 54200.dat
1 19 -190 -32 -150 1 0 0 0 1 0 0 0 1 3005.dat
0 STEP
1 71 -190 -32 -250 0 0 1 0 1 0 -1 0 0 3040b.dat
1 288 -210 -8 -280 0 0 1 0 1 0 -1 0 0 3710.dat
0 STEP
1 72 -190 -32 -270 0 0 1 0 1 0 -1 0 0 3046.dat
1 19 -190 -32 -210 1 0 0 0 1 0 0 0 1 3005.dat
0 STEP
1 72 -40 -8 -480 1 0 0 0 1 0 0 0 1 91405.dat
0 STEP
1 72 110 -16 -340 0 0 1 0 1 0 -1 0 0 4162.dat
1 72 110 -16 -440 0 0 1 0 1 0 -1 0 0 3069b.dat
0 STEP
1 71 -190 -32 -340 0 0 1 0 1 0 -1 0 0 3037.dat
1 288 -210 -8 -360.0001 0 0 1 0 1 0 -1 0 0 3710.dat
1 10 -210 -16 -390.0001 0 0 1 0 1 0 -1 0 0 32607.dat
0 STEP
1 19 -170 -32 -380 0 0 1 0 1 0 -1 0 0 3010.dat
1 19 -190 -32 -390 1 0 0 0 1 0 0 0 1 3005.dat
0 STEP
1 71 -190 -32 -250 0 0 1 0 1 0 -1 0 0 54200.dat
1 71 -210 -32 -270 -1 0 0 0 1 0 0 0 -1 54200.dat
1 71 -190 -32 -350 1 0 0 0 1 0 0 0 1 54200.dat
0 STEP
1 71 -20 -24 -40 1 0 0 0 1 0 0 0 1 3456.dat
0 STEP
1 70 -100 -32 -40 1 0 0 0 1 0 0 0 1 4079.dat
1 70 60 -32 -40 1 0 0 0 1 0 0 0 1 4079.dat
1 0 -30 -32 -20 0 0 -1 0 1 0 1 0 0 92280.dat
1 0 -10 -32 -20 0 0 -1 0 1 0 1 0 0 92280.dat
1 297 -30 -32 -50 1 0 0 0 1 0 0 0 1 6141.dat
1 297 -10 -32 -50 1 0 0 0 1 0 0 0 1 6141.dat
0 STEP
1 320 -20 -40 -40 1 0 0 0 1 0 0 0 1 3022.dat
1 70 -29.99 -66.8748 -1.6188 0 0 1 0.939693 0.34202 0 -0.34202 0.939693 0 60478.dat
1 70 -9.99 -66.8748 -1.6188 0 0 1 0.939693 0.34202 0 -0.34202 0.939693 0 60478.dat
0 STEP
1 70 -19.99 -79.0079 -5.7161 -1 0 0 0 0.34202 0.939693 0 0.939693 -0.34202 22385.dat
1 484 -130 -48 -80 0 0 1 0 1 0 -1 0 0 30136.dat
1 484 90 -48 -80 0 0 1 0 1 0 -1 0 0 30136.dat
1 484 -20 -48 -90 -1 0 0 0 1 0 0 0 -1 30136.dat
0 STEP
1 308 -80 -56 -80 1 0 0 0 1 0 0 0 1 3795.dat
1 308 40 -56 -80 1 0 0 0 1 0 0 0 1 3795.dat
0 STEP
1 308 -140 -16 -240 0 0 1 0 1 0 -1 0 0 3795.dat
1 297 -130 -24 -190 1 0 0 0 1 0 0 0 1 6141.dat
1 297 -130 -24 -290 1 0 0 0 1 0 0 0 1 6141.dat
1 0 -140 -16 -270 -1 0 0 0 1 0 0 0 -1 85984.dat
1 0 -140 -16 -210 1 0 0 0 1 0 0 0 1 85984.dat
0 STEP
1 0 -130 -24 -250 1 0 0 0 1 0 0 0 1 85861.dat
1 0 -130 -24 -230 1 0 0 0 1 0 0 0 1 85861.dat
1 0 -150 -64 -240 0 0 -1 0 1 0 1 0 0 87552.dat
0 STEP
1 70 -130 -24 -290 0 0 -1 0 1 0 1 0 0 54200.dat
1 70 -130 -24 -190 0 0 -1 0 1 0 1 0 0 54200.dat
1 70 -150 -88 -190 -1 0 0 0 1 0 0 0 -1 13965.dat
1 70 -150 -88 -290 1 0 0 0 1 0 0 0 1 13965.dat
1 70 -150 -88 -190 0 0 -1 0 1 0 1 0 0 20310.dat
1 70 -150 -88 -290 0 0 -1 0 1 0 1 0 0 20310.dat
0 STEP
1 484 40 -32 -130 1 0 0 0 1 0 0 0 1 30136.dat
1 484 40 -32 -310 1 0 0 0 1 0 0 0 1 30136.dat
1 484 40 -32 -270 1 0 0 0 1 0 0 0 1 30136.dat
1 484 40 -32 -450 1 0 0 0 1 0 0 0 1 30136.dat
1 297 90.0001 -16 -450 1 0 0 0 1 0 0 0 1 6141.dat
1 297 90 -16 -310 1 0 0 0 1 0 0 0 1 6141.dat
1 297 90 -16 -270 1 0 0 0 1 0 0 0 1 6141.dat
1 297 90 -16 -130 1 0 0 0 1 0 0 0 1 6141.dat
1 484 -80 -32 -130 1 0 0 0 1 0 0 0 1 30136.dat
1 484 -80 -32 -270 1 0 0 0 1 0 0 0 1 30136.dat
1 484 -80 -32 -310 1 0 0 0 1 0 0 0 1 30136.dat
1 484 -79.9999 -32 -450 1 0 0 0 1 0 0 0 1 30136.dat
1 297 -30 -16 -450 1 0 0 0 1 0 0 0 1 6141.dat
1 297 -30 -16 -310 1 0 0 0 1 0 0 0 1 6141.dat
1 297 -30 -16 -270 1 0 0 0 1 0 0 0 1 6141.dat
1 297 -30 -16 -130 1 0 0 0 1 0 0 0 1 6141.dat
0 STEP
1 70 -90 -40 -200 0 0 1 0 1 0 -1 0 0 3460.dat
1 70 -90 -40 -380 0 0 1 0 1 0 -1 0 0 3460.dat
1 70 30 -40 -200 0 0 1 0 1 0 -1 0 0 3460.dat
1 70 30 -40 -380.0001 0 0 1 0 1 0 -1 0 0 3460.dat
1 70 -70 -40 -380 0 0 1 0 1 0 -1 0 0 4162.dat
1 70 -70 -40 -200 0 0 1 0 1 0 -1 0 0 4162.dat
1 70 50 -40 -200 0 0 1 0 1 0 -1 0 0 4162.dat
1 70 50 -40 -380 0 0 1 0 1 0 -1 0 0 4162.dat
1 308 -30 -24 -380 0 0 1 0 1 0 -1 0 0 3460.dat
1 308 -30 -24 -200 0 0 1 0 1 0 -1 0 0 3460.dat
1 308 90 -24 -200 0 0 1 0 1 0 -1 0 0 3460.dat
1 308 90 -24 -380 0 0 1 0 1 0 -1 0 0 3460.dat
0 STEP
1 19 70.0001 -32 -470 -1 0 0 0 1 0 0 0 -1 2357.dat
1 84 70.0001 -32 -510 1 0 0 0 1 0 0 0 1 3005.dat
1 19 90.0001 -32 -470 0 0 -1 0 1 0 1 0 0 4286.dat
1 19 100 -32 -530 1 0 0 0 1 0 0 0 1 3010.dat
1 19 100 -32 -630 1 0 0 0 1 0 0 0 1 3010.dat
1 71 50 -32 -630 1 0 0 0 1 0 0 0 1 3040b.dat
1 272 40 -8 -660.0001 0 0 -1 0 1 0 1 0 0 41769b.dat
0 STEP
1 71 -70 -32 -630 1 0 0 0 1 0 0 0 1 3040b.dat
1 70 -80 -8 -660 -1 0 0 0 1 0 0 0 -1 15706.dat
1 10 -79.9984 -16 -674.143 -0.707111 0 0.707103 0 1 0 -0.707103 0 -0.707111 32607.dat
0 STEP
1 72 -9.9999 -32 -630.0001 1 0 0 0 1 0 0 0 1 3046.dat
1 19 30 -32 -630 1 0 0 0 1 0 0 0 1 3005.dat
0 STEP
1 71 -9.9999 -32 -650.0001 0 0 1 0 1 0 -1 0 0 54200.dat
1 71 -65.8566 -8 -688.2849 0.707102 0 0.707112 0 1 0 -0.707112 0 0.707102 54200.dat
0 STEP
1 308 -65.8571 -16 -730.7111 0.707112 0 -0.707102 0 1 0 0.707102 0 0.707112 3795.dat
1 84 -101.2127 -8 -766.0662 0.707102 0 0.707112 0 1 0 -0.707112 0 0.707102 3023b.dat
0 STEP
1 19 -170 -32 -450 0 0 -1 0 1 0 1 0 0 2357.dat
1 72 -170 -32 -470 0 0 1 0 1 0 -1 0 0 3046.dat
1 19 -140 -32 -470 -1 0 0 0 1 0 0 0 -1 3004.dat
1 71 -170 -32 -510 1 0 0 0 1 0 0 0 1 3040b.dat
1 71 -170 -32 -490 0 0 1 0 1 0 -1 0 0 54200.dat
0 STEP
1 10 -170 -16 -610.0001 -0.707107 0 0.707107 0 1 0 -0.707107 0 -0.707107 32607.dat
1 71 -190 -8 -570 0.707107 0 0.707107 0 1 0 -0.707107 0 0.707107 54200.dat
0 STEP
1 19 -150 -32 -520 0 0 1 0 1 0 -1 0 0 3010.dat
1 19 -150 -32 -590 1 0 0 0 1 0 0 0 1 3005.dat
1 19 -150 -32 -630 1 0 0 0 1 0 0 0 1 3005.dat
1 84 -110 -32 -630 1 0 0 0 1 0 0 0 1 3005.dat
0 STEP
1 72 180.0001 -8 -580.0001 0 0 1 0 1 0 -1 0 0 3028.dat
0 STEP
1 71 230.0001 -32 -690.0001 0 0 1 0 1 0 -1 0 0 6541.dat
1 72 210.0001 -32 -690.0001 0 0 1 0 1 0 -1 0 0 3046.dat
1 272 200.0001 -8 -720.0002 0 0 1 0 1 0 -1 0 0 41770b.dat
1 71 230.0001 -32 -710.0002 1 0 0 0 1 0 0 0 1 3040b.dat
0 STEP
1 72 230.0001 -16 -640.0001 0 0 1 0 1 0 -1 0 0 2431.dat
1 72 220.0001 -16 -580.0001 1 0 0 0 1 0 0 0 1 2460.dat
1 71 230.0001 -56 -710.0001 0 0 1 0 1 0 -1 0 0 3040b.dat
1 71 230.0003 -56 -710.0011 1.000002 0 0 0 1 0 0 0 1.000002 54200.dat
1 297 230 -16 -490.0001 1 0 0 0 1 0 0 0 1 6141.dat
1 19 230 -152 -470.0001 1 0 0 0 1 0 0 0 1 43888.dat
1 71 130.0001 -8 -690.0001 -0.707107 0 -0.707107 0 1 0 0.707107 0 -0.707107 54200.dat
0 STEP
1 72 120 -56 -500.0001 1 0 0 0 1 0 0 0 1 3940.dat
1 72 120 -64 -500.0001 1 0 0 0 1 0 0 0 1 18674.dat
1 14 121 -64 -500.0001 0 0 -1 0 1 0 1 0 0 33320.dat
0 STEP
1 19 130 -152 -580.0001 0 0 1 0 1 0 -1 0 0 60596.dat
1 19 150.0001 -152 -670.0001 0 0 1 0 1 0 -1 0 0 87421.dat
0 STEP
0 STEP
1 15 -80 -48 -260 1 0 0 0 1 0 0 0 1 18674.dat
1 484 -80 -48 -260 1 0 0 0 1 0 0 0 1 33057.dat
1 15 30 -48 -170 1 0 0 0 1 0 0 0 1 6141.dat
1 29 30 -48 -170 1 0 0 0 1 0 0 0 1 15470.dat
1 15 -80 -48 -400 1 0 0 0 1 0 0 0 1 18674.dat
1 29 -80 -56 -400 1 0 0 0 1 0 0 0 1 6141.dat
1 70 -80 -64 -400 1 0 0 0 1 0 0 0 1 6141.dat
1 15 -80 -72 -400 1 0 0 0 1 0 0 0 1 6254.dat
1 15 30 -40 -410.0001 0 0 1 0 1 0 -1 0 0 23986.dat
1 4 30 -64 -370.0001 1 0 0 0 1 0 0 0 1 3899.dat
0 STEP
1 19 210.0001 -56 -690.0001 1 0 0 0 1 0 0 0 1 3622.dat
1 70 200.0001 -104 -690.0001 1 0 0 0 1 0 0 0 1 60592.dat
1 0 200.0001 -104 -690.0001 1 0 0 0 1 0 0 0 1 38320.dat
0 STEP
1 72 230.0001 -80 -690.0001 -1 0 0 0 1 0 0 0 -1 60475b.dat
1 84 230.0001 -104 -690.0001 1 0 0 0 1 0 0 0 1 3005.dat
1 19 210.0001 -128 -690.0001 1 0 0 0 1 0 0 0 1 3622.dat
0 STEP
1 19 180.0001 -152 -690.0001 -1 0 0 0 1 0 0 0 -1 3660b.dat
1 84 210.0001 -152 -690.0001 1 0 0 0 1 0 0 0 1 3005.dat
1 71 230.0001 -152 -690.0001 0 0 -1 0 1 0 1 0 0 6541.dat
0 STEP
1 84 130 -56 -630 1 0 0 0 1 0 0 0 1 3005.dat
1 84 100 -56 -630 1 0 0 0 1 0 0 0 1 98283.dat
1 19 110 -80 -630 1 0 0 0 1 0 0 0 1 3622.dat
1 19 130 -104 -630 1 0 0 0 1 0 0 0 1 3005.dat
1 19 130 -128 -630 1 0 0 0 1 0 0 0 1 3005.dat
0 STEP
1 19 120 -56 -530 1 0 0 0 1 0 0 0 1 3004.dat
1 19 70.0001 -56 -530 1 0 0 0 1 0 0 0 1 2357.dat
1 19 70.0001 -56 -470 0 0 1 0 1 0 -1 0 0 2357.dat
1 19 50 -56 -470 1 0 0 0 1 0 0 0 1 3005.dat
0 STEP
1 19 110 -80 -530 1 0 0 0 1 0 0 0 1 3622.dat
1 19 70.0001 -80 -510 0 0 1 0 1 0 -1 0 0 3622.dat
1 19 70.0001 -80 -470 -1 0 0 0 1 0 0 0 -1 3622.dat
0 STEP
1 19 130.0001 -152 -640.0001 0 0 -1 0 1 0 1 0 0 3660b.dat
1 84 130 -104 -530 1 0 0 0 1 0 0 0 1 3005.dat
1 19 130 -128 -530 1 0 0 0 1 0 0 0 1 3005.dat
0 STEP
1 19 90.0001 -152 -470 0 0 1 0 1 0 -1 0 0 13965.dat
1 19 110 -152 -530 -1 0 0 0 1 0 0 0 -1 13965.dat
1 19 110 -152 -630 1 0 0 0 1 0 0 0 1 13965.dat
1 19 90.0001 -152 -529.9999 -1 0 0 0 1 0 0 0 -1 13965.dat
1 19 90.0001 -152 -630 1 0 0 0 1 0 0 0 1 13965.dat
0 STEP
1 19 70.0001 -104 -500 0 0 1 0 1 0 -1 0 0 3010.dat
1 19 70.0001 -128 -530 1 0 0 0 1 0 0 0 1 3005.dat
1 72 70.0001 -128 -470 -1 0 0 0 1 0 0 0 -1 60475b.dat
1 19 70.0001 -112 -500.0001 0 0 1 0 1 0 -1 0 0 15573.dat
0 STEP
1 19 50 -152 -470 1 0 0 0 1 0 0 0 1 60583b.dat
1 19 80.0001 -152 -470 1 0 0 0 1 0 0 0 1 3004.dat
0 STEP
1 19 80 -176 -470 -1 0 0 0 1 0 0 0 -1 3010.dat
1 19 100.0001 -152 -530 -1 0 0 0 1 0 0 0 -1 3010.dat
0 STEP
1 19 -140 -56 -470 1 0 0 0 1 0 0 0 1 3004.dat
1 19 -150 -56 -510 0 0 1 0 1 0 -1 0 0 3622.dat
0 STEP
1 19 -150 -80 -470 0 0 1 0 1 0 -1 0 0 2357.dat
1 84 -150 -80 -519.9999 0 0 1 0 1 0 -1 0 0 98283.dat
0 STEP
1 19 -130 -152 -470 1 0 0 0 1 0 0 0 1 60583b.dat
1 19 -150 -104 -499.9999 0 0 1 0 1 0 -1 0 0 3010.dat
0 STEP
1 72 -150 -128 -469.9999 -1 0 0 0 1 0 0 0 -1 60475b.dat
1 19 -150 -112 -500 0 0 1 0 1 0 -1 0 0 15573.dat
0 STEP
1 19 -180 -56 -460 1 0 0 0 1 0 0 0 1 3003.dat
1 19 -180 -80 -460 1 0 0 0 1 0 0 0 1 3003.dat
1 19 -180 -104 -460 1 0 0 0 1 0 0 0 1 3003.dat
1 19 -180 -128 -460 1 0 0 0 1 0 0 0 1 3003.dat
0 STEP
1 19 -170 -152 -470 1 0 0 0 1 0 0 0 1 3622.dat
1 19 -180 -152 -450 1 0 0 0 1 0 0 0 1 3004.dat
0 STEP
1 19 40 -56 30 1 0 0 0 1 0 0 0 1 3008.dat
1 19 -120 -56 30 1 0 0 0 1 0 0 0 1 3008.dat
1 70 -40 -64 40 1 0 0 0 1 0 0 0 1 3034.dat
1 308 -40 -64 70 1 0 0 0 1 0 0 0 1 3460.dat
0 STEP
1 19 -40 -72 30 1 0 0 0 1 0 0 0 1 15573.dat
1 297 -40 -72 30 1 0 0 0 1 0 0 0 1 10172.dat
1 84 80 -80 30 -1 0 0 0 1 0 0 0 -1 15533.dat
1 19 100 -104 30 1 0 0 0 1 0 0 0 1 3004.dat
0 STEP
1 84 60 -104 30 -1 0 0 0 1 0 0 0 -1 98283.dat
1 19 80 -128 30 1 0 0 0 1 0 0 0 1 3010.dat
1 71 110 -152 30 0 0 1 0 1 0 -1 0 0 6541.dat
1 19 70 -152 30 1 0 0 0 1 0 0 0 1 3622.dat
0 STEP
1 19 100 -176 30 1 0 0 0 1 0 0 0 1 3004.dat
1 19 70 -160 30 -1 0 0 0 1 0 0 0 -1 15070.dat
1 19 50 -176 30 1 0 0 0 1 0 0 0 1 3005.dat
0 STEP
1 84 110 -200 30 1 0 0 0 1 0 0 0 1 3005.dat
1 19 70 -200 30 1 0 0 0 1 0 0 0 1 4490.dat
0 STEP
1 70 -40 -72 60 1 0 0 0 1 0 0 0 1 3034.dat
0 STEP
1 70 30 -120 60 0 0 -1 0 1 0 1 0 0 60592.dat
1 70 30 -168 60 0 0 -1 0 1 0 1 0 0 60592.dat
1 70 30 -216 60 0 0 -1 0 1 0 1 0 0 60592.dat
1 70 -110 -120 60 0 0 1 0 1 0 -1 0 0 60592.dat
1 70 -110.0003 -168 60.0001 0 0 1.000004 0 1 0 -1.000004 0 0 60592.dat
1 70 -110.0003 -216 60.0001 0 0 1.000004 0 1 0 -1.000004 0 0 60592.dat
0 STEP
1 70 0 -120 70 -1 0 0 0 1 0 0 0 -1 60592.dat
1 70 0 -168 70 -1 0 0 0 1 0 0 0 -1 60592.dat
1 70 0 -216 70 -1 0 0 0 1 0 0 0 -1 60592.dat
1 70 -40 -120 70 -1 0 0 0 1 0 0 0 -1 60592.dat
1 70 -40 -168 70 -1 0 0 0 1 0 0 0 -1 60592.dat
1 70 -40 -216 70 -1 0 0 0 1 0 0 0 -1 60592.dat
1 70 -80 -120 70 -1 0 0 0 1 0 0 0 -1 60592.dat
1 70 -80 -168 70 -1 0 0 0 1 0 0 0 -1 60592.dat
1 70 -80 -216 70 -1 0 0 0 1 0 0 0 -1 60592.dat
0 STEP
1 0 40 -216 60 0 0 1 0 1 0 -1 0 0 38320.dat
1 0 40 -168 60 0 0 1 0 1 0 -1 0 0 38320.dat
1 0 40 -120 60 0 0 1 0 1 0 -1 0 0 38320.dat
1 0 -110 -120 60 0 0 1 0 1 0 -1 0 0 38320.dat
1 0 -110.0003 -168 60.0001 0 0 1 0 1 0 -1 0 0 38320.dat
1 0 -110.0003 -216 60.0001 0 0 1 0 1 0 -1 0 0 38320.dat
1 0 0 -120 80 1 0 0 0 1 0 0 0 1 38320.dat
1 0 0 -168 80 1 0 0 0 1 0 0 0 1 38320.dat
1 0 0 -216 80 1 0 0 0 1 0 0 0 1 38320.dat
1 0 -40 -216 80 1 0 0 0 1 0 0 0 1 38320.dat
1 0 -40 -168 80 1 0 0 0 1 0 0 0 1 38320.dat
1 0 -40 -120 80 1 0 0 0 1 0 0 0 1 38320.dat
1 0 -80 -120 80 1 0 0 0 1 0 0 0 1 38320.dat
1 0 -80 -168 80 1 0 0 0 1 0 0 0 1 38320.dat
1 0 -80 -216 80 1 0 0 0 1 0 0 0 1 38320.dat
0 STEP
1 70 -40.0003 -224 60.0001 1 0 0 0 1 0 0 0 1 3034.dat
0 STEP
1 19 -160 -80 30 1 0 0 0 1 0 0 0 1 3010.dat
1 84 -160 -104 30 -1 0 0 0 1 0 0 0 -1 15533.dat
0 STEP
1 19 -160 -128 30 1 0 0 0 1 0 0 0 1 3010.dat
1 19 -160 -152 30 1 0 0 0 1 0 0 0 1 3010.dat
1 19 -130 -176 30 1 0 0 0 1 0 0 0 1 3005.dat
1 19 -170 -176 30 1 0 0 0 1 0 0 0 1 3005.dat
0 STEP
1 19 -150 -200 30 1 0 0 0 1 0 0 0 1 4490.dat
1 19 -150 -160 30 -1 0 0 0 1 0 0 0 -1 15070.dat
0 STEP
1 70 -170 -80 0 0 0 1 0 1 0 -1 0 0 60592.dat
1 70 -170 -128 0 0 0 1 0 1 0 -1 0 0 60592.dat
1 70 -170 -176 0 0 0 1 0 1 0 -1 0 0 60592.dat
0 STEP
1 70 -170 -80 -60 0 0 1 0 1 0 -1 0 0 60592.dat
1 70 -170 -128 -60 0 0 1 0 1 0 -1 0 0 60592.dat
1 70 -170.0001 -176 -60 0 0 1 0 1 0 -1 0 0 60592.dat
0 STEP
1 70 -170 -80 -120 0 0 1 0 1 0 -1 0 0 60592.dat
1 70 -170.0002 -128 -120.0001 0 0 1.000001 0 1 0 -1.000001 0 0 60592.dat
1 70 -170.0002 -176 -120.0001 0 0 1.000001 0 1 0 -1.000001 0 0 60592.dat
0 STEP
1 70 -170 -80 -180 0 0 1 0 1 0 -1 0 0 60592.dat
1 70 -170.001 -128 -180.0012 0 0 1.000008 0 1 0 -1.000008 0 0 60592.dat
1 70 -170.001 -176 -180.0012 0 0 1.000008 0 1 0 -1.000008 0 0 60592.dat
0 STEP
1 70 -170 -80 -240 0 0 1 0 1 0 -1 0 0 60592.dat
1 70 -170.0003 -128 -240.0002 0 0 1.000003 0 1 0 -1.000003 0 0 60592.dat
1 70 -170.0004 -176 -240.0002 0 0 1.000003 0 1 0 -1.000003 0 0 60592.dat
0 STEP
1 70 -170 -80 -300 0 0 1 0 1 0 -1 0 0 60592.dat
1 70 -170.0001 -128 -300.0004 0 0 1.000002 0 1 0 -1.000002 0 0 60592.dat
1 70 -170.0002 -176 -300.0004 0 0 1.000002 0 1 0 -1.000002 0 0 60592.dat
0 STEP
1 70 -170 -80 -360.0001 0 0 1 0 1 0 -1 0 0 60592.dat
1 70 -170.0022 -128 -360.0037 0 0 1.000018 0 1 0 -1.000018 0 0 60592.dat
1 70 -170.0022 -176 -360.0037 0 0 1.000018 0 1 0 -1.000018 0 0 60592.dat
0 STEP
1 70 -170 -80 -420 0 0 1 0 1 0 -1 0 0 60592.dat
1 70 -170 -128 -420.0001 0 0 1 0 1 0 -1 0 0 60592.dat
1 70 -170.0001 -176 -420.0001 0 0 1 0 1 0 -1 0 0 60592.dat
0 STEP
1 0 -170 -80 0 0 0 1 0 1 0 -1 0 0 38320.dat
1 0 -170 -128 0 0 0 1 0 1 0 -1 0 0 38320.dat
1 0 -170 -176 0 0 0 1 0 1 0 -1 0 0 38320.dat
1 0 -170 -80 -60 0 0 1 0 1 0 -1 0 0 38320.dat
1 0 -170 -128 -60 0 0 1 0 1 0 -1 0 0 38320.dat
1 0 -170.0001 -176 -60 0 0 1 0 1 0 -1 0 0 38320.dat
0 STEP
1 0 -170 -80 -120 0 0 1 0 1 0 -1 0 0 38320.dat
1 0 -170.0002 -128 -120.0001 0 0 1 0 1 0 -1 0 0 38320.dat
1 0 -170.0002 -176 -120 0 0 1 0 1 0 -1 0 0 38320.dat
1 0 -170.0011 -176 -180.0011 0 0 1 0 1 0 -1 0 0 38320.dat
1 0 -170.0011 -128 -180.0011 0 0 1 0 1 0 -1 0 0 38320.dat
1 0 -170 -80 -180 0 0 1 0 1 0 -1 0 0 38320.dat
0 STEP
1 0 -170 -80 -240 0 0 1 0 1 0 -1 0 0 38320.dat
1 0 -170.0004 -128 -240.0002 0 0 1 0 1 0 -1 0 0 38320.dat
1 0 -170.0004 -176 -240.0002 0 0 1 0 1 0 -1 0 0 38320.dat
1 0 -170 -80 -300 0 0 1 0 1 0 -1 0 0 38320.dat
1 0 -170.0002 -128 -300.0004 0 0 1 0 1 0 -1 0 0 38320.dat
1 0 -170.0002 -176 -300.0004 0 0 1 0 1 0 -1 0 0 38320.dat
0 STEP
1 0 -170.0023 -176 -360.0034 0 0 1 0 1 0 -1 0 0 38320.dat
1 0 -170.0023 -128 -360.0034 0 0 1 0 1 0 -1 0 0 38320.dat
1 0 -170 -80 -360.0001 0 0 1 0 1 0 -1 0 0 38320.dat
1 0 -170 -80 -420 0 0 1 0 1 0 -1 0 0 38320.dat
1 0 -170 -128 -420.0001 0 0 1 0 1 0 -1 0 0 38320.dat
1 0 -170.0001 -176 -420.0001 0 0 1 0 1 0 -1 0 0 38320.dat
0 STEP
1 19 -180 -152 -30 1 0 0 0 1 0 0 0 1 2454.dat
1 19 -180 -152 -90 1 0 0 0 1 0 0 0 1 2454.dat
1 19 -180 -152 -150 1 0 0 0 1 0 0 0 1 2454.dat
1 19 -180 -152 -210 1 0 0 0 1 0 0 0 1 2454.dat
1 19 -180 -152 -270 1 0 0 0 1 0 0 0 1 2454.dat
1 19 -180 -152 -330 1 0 0 0 1 0 0 0 1 2454.dat
1 19 -180 -152 -390 1 0 0 0 1 0 0 0 1 2454.dat
0 STEP
1 19 -160 -176 -470 1 0 0 0 1 0 0 0 1 3010.dat
1 19 -190 -176 -450 -1 0 0 0 1 0 0 0 -1 3665.dat
0 STEP
1 19 -170 -224 -390 0 0 1 0 1 0 -1 0 0 13965.dat
1 19 -170 -224 -330 0 0 1 0 1 0 -1 0 0 13965.dat
1 19 -170 -224 -270 0 0 1 0 1 0 -1 0 0 13965.dat
1 19 -170 -224 -210 0 0 1 0 1 0 -1 0 0 13965.dat
1 19 -170 -224 -150 0 0 1 0 1 0 -1 0 0 13965.dat
1 19 -170 -224 -90 0 0 1 0 1 0 -1 0 0 13965.dat
1 19 -170 -224 -30 0 0 1 0 1 0 -1 0 0 13965.dat
1 19 -170 -224 -450 0 0 1 0 1 0 -1 0 0 13965.dat
0 STEP
1 19 -190 -176 30 1 0 0 0 1 0 0 0 1 3665.dat
1 19 -190 -176 -30 1 0 0 0 1 0 0 0 1 2341.dat
1 19 -190 -176 -90 1 0 0 0 1 0 0 0 1 2341.dat
1 19 -190 -176 -150 1 0 0 0 1 0 0 0 1 2341.dat
1 19 -190 -176 -210 1 0 0 0 1 0 0 0 1 2341.dat
1 19 -190 -176 -270 1 0 0 0 1 0 0 0 1 2341.dat
1 19 -190 -176 -330 1 0 0 0 1 0 0 0 1 2341.dat
1 19 -190 -176 -390 1 0 0 0 1 0 0 0 1 2341.dat
0 STEP
1 19 -170 -200 0 0 0 1 0 1 0 -1 0 0 3039.dat
1 19 -170 -200 -60 0 0 1 0 1 0 -1 0 0 3039.dat
1 19 -170 -200 -420 0 0 1 0 1 0 -1 0 0 3039.dat
1 19 -170 -200 -360.0001 0 0 1 0 1 0 -1 0 0 3039.dat
1 19 -170 -200 -300 0 0 1 0 1 0 -1 0 0 3039.dat
1 19 -170 -200 -240 0 0 1 0 1 0 -1 0 0 3039.dat
1 19 -170 -200 -180 0 0 1 0 1 0 -1 0 0 3039.dat
1 19 -170 -200 -120 0 0 1 0 1 0 -1 0 0 3039.dat
0 STEP
1 16 -28.2517 -8 -592.4789 0 0 -1 0 1 0 1 0 0 hagrid
1 16 -38.1215 -24 -165.7755 1 0 0 0 1 0 0 0 1 ginny
1 16 65.78 -12.75 -39.5905 0 0 -1 0 1 0 1 0 0 mcgonagall
0 STEP
1 19 -190 -200 30 0 0 1 0 1 0 -1 0 0 4070.dat
1 19 -190 -200 -30 0 0 1 0 1 0 -1 0 0 4070.dat
1 19 -190 -200 -90 0 0 1 0 1 0 -1 0 0 4070.dat
1 19 -190 -200 -150 0 0 1 0 1 0 -1 0 0 4070.dat
1 19 -190 -200 -210 0 0 1 0 1 0 -1 0 0 4070.dat
1 19 -190 -200 -270 0 0 1 0 1 0 -1 0 0 4070.dat
1 19 -190 -200 -330 0 0 1 0 1 0 -1 0 0 4070.dat
1 19 -190 -200 -390 0 0 1 0 1 0 -1 0 0 4070.dat
1 19 -190 -200 -450 0 0 1 0 1 0 -1 0 0 4070.dat
1 19 -196 -190 30 0 1 0 -1 0 0 0 0 1 22388.dat
1 19 -196 -190 -30 0 1 0 -1 0 0 0 0 1 22388.dat
1 19 -196 -190 -90 0 1 0 -1 0 0 0 0 1 22388.dat
1 19 -196 -190 -150 0 1 0 -1 0 0 0 0 1 22388.dat
1 19 -196 -190 -210 0 1 0 -1 0 0 0 0 1 22388.dat
1 19 -196 -190 -270 0 1 0 -1 0 0 0 0 1 22388.dat
1 19 -196 -190 -330 0 1 0 -1 0 0 0 0 1 22388.dat
1 19 -196 -190 -390 0 1 0 -1 0 0 0 0 1 22388.dat
1 19 -196 -190 -450 0 1 0 -1 0 0 0 0 1 22388.dat
0 STEP
1 72 -150 -120 -500 1 0 0 0 1 0 0 0 1 6141.dat
1 72 70.0001 -120 -500.0001 1 0 0 0 1 0 0 0 1 6141.dat
1 297 -150 -128 -500 1 0 0 0 1 0 0 0 1 6141.dat
1 297 70.0001 -128 -500.0001 1 0 0 0 1 0 0 0 1 6141.dat
1 72 -150 -128 -500 0 0 -1 0 1 0 1 0 0 90398.dat
1 72 70.0001 -128 -500.0001 0 0 1 0 1 0 -1 0 0 90398.dat
0 STEP
1 19 -150 -128 -529.9999 1 0 0 0 1 0 0 0 1 3005.dat
1 84 -150 -152 -529.9999 1 0 0 0 1 0 0 0 1 3005.dat
1 84 -150 -176 -529.9999 1 0 0 0 1 0 0 0 1 3005.dat
1 84 70.0001 -176 -530 1 0 0 0 1 0 0 0 1 3005.dat
0 STEP
1 19 -150 -200 -500 0 0 1 0 1 0 -1 0 0 3659.dat
1 19 70.0001 -200 -500 0 0 1 0 1 0 -1 0 0 3659.dat
1 19 100 -200 -470 1 0 0 0 1 0 0 0 1 3004.dat
1 19 -180 -200 -470 1 0 0 0 1 0 0 0 1 3004.dat
1 19 -130 -200 -470 0 0 -1 0 1 0 1 0 0 3665.dat
1 19 50 -200 -470 0 0 1 0 1 0 -1 0 0 3665.dat
0 STEP
1 19 -180 -224 -460 1 0 0 0 1 0 0 0 1 3003.dat
1 19 100 -224 -470 1 0 0 0 1 0 0 0 1 3004.dat
1 19 -40 -224 -470 1 0 0 0 1 0 0 0 1 6112.dat
1 84 -150 -224 -500 0 0 1 0 1 0 -1 0 0 3937.dat
1 84 70.0001 -224 -500 0 0 -1 0 1 0 1 0 0 3937.dat
0 STEP
1 19 -60 -248 -470 1 0 0 0 1 0 0 0 1 6112.dat
1 19 80 -248 -470 1 0 0 0 1 0 0 0 1 3004.dat
0 STEP
1 70 50 -116 -490 1 0 0 0 1 0 0 0 1 87601.dat
1 70 -130 -116 -490 -1 0 0 0 -1 0 0 0 1 87601.dat
0 STEP
1 19 -40 -272 -470 1 0 0 0 1 0 0 0 1 6112.dat
1 19 -120 -296 -470 1 0 0 0 1 0 0 0 1 3004.dat
1 19 40 -296 -470 1 0 0 0 1 0 0 0 1 3004.dat
1 84 -70 -296 -470 1 0 0 0 1 0 0 0 1 3005.dat
1 84 -10 -296 -470 1 0 0 0 1 0 0 0 1 3005.dat
0 STEP
1 70 -40 -296 -470 1 0 0 0 1 0 0 0 1 3747b.dat
1 19 -90 -320 -470 1 0 0 0 1 0 0 0 1 4490.dat
1 19 10 -320 -470 1 0 0 0 1 0 0 0 1 4490.dat
1 19 -40 -272 -530 1 0 0 0 1 0 0 0 1 18838.dat
1 19 -150 -248 -530 1 0 0 0 1 0 0 0 1 3062b.dat
1 19 70 -248 -530 1 0 0 0 1 0 0 0 1 3062b.dat
1 84 -80 -296 -530 1 0 0 0 1 0 0 0 1 98283.dat
1 19 -20 -296 -530 1 0 0 0 1 0 0 0 1 3010.dat
0 STEP
1 19 -30 -304 -530 1 0 0 0 1 0 0 0 1 2420.dat
1 19 -50 -304 -530.0001 0 0 -1 0 1 0 1 0 0 2420.dat
0 STEP
1 71 -156.4279 -221.6605 -500 0 0.642787 0.766045 0 0.766045 -0.642787 -1 0 0 6134.dat
1 71 76.4279 -221.6604 -500 0 -0.642787 -0.766045 0 0.766044 -0.642787 1 0 0 6134.dat
1 72 27.9471 -272.7839 -500.0001 0.766044 -0.642787 0 0.642787 0.766045 0 0 0.000001 1 3034.dat
1 72 -107.9471 -272.784 -500 -0.766045 0.642787 0 0.642787 0.766045 0 0 0 -1 3034.dat
0 STEP
1 19 -40 -312 -530.0001 1 0 0 0 1 0 0 0 1 44728.dat
1 15 -40 -292 -552.0001 1 0 0 0 0 -1 0 1 0 14769.dat
0 STEP
1 19 -70 -312 -530.0001 1 0 0 0 1 0 0 0 1 3024.dat
1 19 -10 -312 -530 1 0 0 0 1 0 0 0 1 3024.dat
0 STEP
1 19 -40 -320 -530.0001 1 0 0 0 1 0 0 0 1 3710.dat
1 19 -40 -344 -530.0001 1 0 0 0 1 0 0 0 1 3004.dat
1 72 -40 -352 -530.0001 1 0 0 0 1 0 0 0 1 15573.dat
1 72 -40 -376 -530.0001 1 0 0 0 1 0 0 0 1 59900.dat
1 378 -40 -366.1926 -530.0001 1 0 0 0 -1 0 0 0 -1 90540.dat
0 STEP
1 84 -170 -224 -430 1 0 0 0 1 0 0 0 1 3005.dat
1 19 -170 -224 -390 -1 0 0 0 1 0 0 0 -1 2357.dat
1 19 -170 -224 -270 -1 0 0 0 1 0 0 0 -1 2357.dat
1 19 -170.0001 -224 -330.0001 0 0 -1 0 1 0 1 0 0 2357.dat
1 84 -170 -224 -360.0001 0 0 1 0 1 0 -1 0 0 98283.dat
1 84 -170 -224 -240 0 0 1 0 1 0 -1 0 0 98283.dat
1 84 -180 -224 -210 1 0 0 0 1 0 0 0 1 98283.dat
0 STEP
1 84 -170 -224 -180 0 0 1 0 1 0 -1 0 0 98283.dat
1 19 -170 -224 -150 0 0 -1 0 1 0 1 0 0 2357.dat
1 19 -170 -224 -90 -1 0 0 0 1 0 0 0 -1 2357.dat
1 84 -170 -224 -60 0 0 1 0 1 0 -1 0 0 98283.dat
1 19 -170 -224 -30 0 0 -1 0 1 0 1 0 0 2357.dat
0 STEP
1 19 100 -224 30 1 0 0 0 1 0 0 0 1 3004.dat
1 19 -170 -224 30 -1 0 0 0 1 0 0 0 -1 2357.dat
1 19 -40 -224 30 1 0 0 0 1 0 0 0 1 6112.dat
0 STEP
1 72 -150 -248 -400.0001 0 0 1 0 1 0 -1 0 0 23949.dat
1 72 -150 -248 -280 0 0 1 0 1 0 -1 0 0 23949.dat
1 72 -150 -248 -160 0 0 1 0 1 0 -1 0 0 23949.dat
1 72 -150 -248 -40 0 0 1 0 1 0 -1 0 0 23949.dat
0 STEP
1 19 80 -248 30 1 0 0 0 1 0 0 0 1 3004.dat
1 19 -60 -248 30 1 0 0 0 1 0 0 0 1 6112.dat
1 19 -190 -248 -450 1 0 0 0 1 0 0 0 1 3062b.dat
1 19 -190 -248 -390 1 0 0 0 1 0 0 0 1 3062b.dat
1 19 -190 -252 -330 1 0 0 0 1 0 0 0 1 3062b.dat
1 19 -190 -248 -270 1 0 0 0 1 0 0 0 1 3062b.dat
1 19 -190 -248 -210 1 0 0 0 1 0 0 0 1 3062b.dat
1 19 -190 -248 -150 1 0 0 0 1 0 0 0 1 3062b.dat
1 19 -190 -248 -90 1 0 0 0 1 0 0 0 1 3062b.dat
1 19 -190 -248 -30 1 0 0 0 1 0 0 0 1 3062b.dat
1 19 -190 -248 30 1 0 0 0 1 0 0 0 1 3062b.dat
0 STEP
1 72 -0.0003 -248 50.0001 -1 0 0 0 1 0 0 0 -1 3037.dat
1 72 -80.0003 -248 50.0001 -1 0 0 0 1 0 0 0 -1 3037.dat
0 STEP
1 72 -0.0003 -272 30.0001 -1 0 0 0 1 0 0 0 -1 3037.dat
1 72 -80.0003 -272 30.0001 -1 0 0 0 1 0 0 0 -1 3037.dat
1 19 60 -272 30 1 0 0 0 1 0 0 0 1 3004.dat
1 19 -140 -272 30 1 0 0 0 1 0 0 0 1 3004.dat
0 STEP
1 19 39.9997 -296 30.0001 1 0 0 0 1 0 0 0 1 3004.dat
1 19 -40.0003 -296 30.0001 1 0 0 0 1 0 0 0 1 3010.dat
1 84 -120 -296 30 -1 0 0 0 1 0 0 0 -1 98283.dat
0 STEP
1 19 9.9997 -320 30.0001 1 0 0 0 1 0 0 0 1 4490.dat
1 19 -90 -320 30 1 0 0 0 1 0 0 0 1 4490.dat
0 STEP
1 320 -150 -160 -270 1 0 0 0 1 0 0 0 1 3685.dat
1 320 -150 -160 -240 0 0 -1 0 1 0 1 0 0 3684c.dat
1 320 -150.0001 -160 -210 0 0 -1 0 1 0 1 0 0 3685.dat
0 STEP
1 0 -150 -159.39 -449.9999 -1 0 0 0 1 0 0 0 -1 4332.dat
1 70 70 -161 -450 -1 0 0 0 1 0 0 0 -1 4332.dat
1 70 230.0001 -27.29 -670.0001 -1 0 0 0 -1 0 0 0 1 3836.dat
0 STEP
1 16 -100 -12.75 -32 0 0 -1 0 1 0 1 0 0 quirrell
1 16 88.2665 -24 -361.7345 0 0 1 0 1 0 -1 0 0 ron
0 STEP
1 308 220.0001 -80 -580.0001 1 0 0 0 1 0 0 0 1 40244.dat
0 STEP
1 84 220.0001 -32 -580.0001 0.23243 0 -0.972613 0 1 0 0.972613 0 0.23243 40243.dat
0 STEP
1 84 220.0001 -48 -580.0002 0.621561 0 -0.783366 0 1 0 0.783366 0 0.621561 40243.dat
0 STEP
1 84 220 -64 -580.0001 0.894391 0 -0.447288 0 1 0 0.447288 0 0.894391 40243.dat
0 STEP
1 84 220 -80 -580.0001 0.999625 0 -0.027394 0 1 0 0.027395 0 0.999625 40243.dat
0 STEP
1 84 220 -96 -580.0001 0.917545 0 0.397633 0 1 0 -0.397633 0 0.917545 40243.dat
0 STEP
1 84 220 -112 -580 0.663531 0 0.748149 0 1 0 -0.748149 0 0.663531 40243.dat
0 STEP
1 84 220 -128 -580 0.447287 0 0.894392 0 1 0 -0.894392 0 0.447287 40243.dat
0 STEP
1 84 220 -144 -580 0.027393 0 0.999626 0 1 0 -0.999626 0 0.027393 40243.dat
0 STEP
1 28 220.0001 -152 -580.0001 1 0 0 0 1 0 0 0 1 2476a.dat
1 28 100 -160 -580.0001 0 0 1 0 1 0 -1 0 0 3020.dat
0 STEP
1 28 180.0001 -160 -520.0001 1 0 0 0 1 0 0 0 1 3958.dat
1 28 180.0001 -160 -640.0002 0 0 1 0 1 0 -1 0 0 6003.dat
0 STEP
1 19 -150 -56 -550 1 0 0 0 1 0 0 0 1 3005.dat
1 19 -150 -56 -590 1 0 0 0 1 0 0 0 1 3005.dat
1 19 -150 -56 -630 1 0 0 0 1 0 0 0 1 3005.dat
1 19 -110 -56 -630 1 0 0 0 1 0 0 0 1 3005.dat
1 19 -70 -56 -630 1 0 0 0 1 0 0 0 1 3005.dat
1 19 -9.9999 -56 -630.0001 1 0 0 0 1 0 0 0 1 3005.dat
1 19 30 -56 -630 1 0 0 0 1 0 0 0 1 3005.dat
1 19 70.0001 -56 -630 1 0 0 0 1 0 0 0 1 3005.dat
0 STEP
1 72 -150 -64 -550 1 0 0 0 1 0 0 0 1 3070b.dat
1 72 70.0001 -64 -630 1 0 0 0 1 0 0 0 1 3070b.dat
1 72 -150 -64 -600.0001 0 0 1 0 1 0 -1 0 0 2431.dat
1 72 -99.9999 -64 -630 -1 0 0 0 1 0 0 0 -1 2431.dat
1 72 20 -64 -630.0001 -1 0 0 0 1 0 0 0 -1 2431.dat
0 STEP
1 72 110.0001 -200 -630.0001 0 0 1 0 1 0 -1 0 0 4460b.dat
1 72 110.0001 -200 -630.0001 0 0 1 0 1 0 -1 0 0 54200.dat
1 19 70 -244 -530 1 0 0 0 1 0 0 0 1 24482.dat
1 19 -150 -244 -530 1 0 0 0 1 0 0 0 1 24482.dat
0 STEP
1 0 -50 -320 -320 0 0 1 0 1 0 -1 0 0 3703.dat
1 0 -40.0001 -310 -180 1 0 0 0 1 0 0 0 1 2780.dat
1 0 -40 -310 -260 1 0 0 0 1 0 0 0 1 2780.dat
1 0 -30.0002 -320 -119.9999 0 0 1 0 1 0 -1 0 0 3703.dat
0 STEP
1 0 -40 -310 -300 1 0 0 0 1 0 0 0 1 2780.dat
1 0 -40 -310 -460 1 0 0 0 1 0 0 0 1 2780.dat
1 0 -40.0002 -310 -139.9999 1 0 0 0 1 0 0 0 1 2780.dat
1 0 -40.0003 -310 0.0001 1 0 0 0 1 0 0 0 1 2780.dat
1 0 -30 -320 -380 0 0 1 0 1 0 -1 0 0 2730.dat
1 0 -50.0003 -320 -59.9999 0 0 1 0 1 0 -1 0 0 2730.dat
0 STEP
1 70 -50.0003 -328 -19.9999 0 0 -1 0 1 0 1 0 0 3710.dat
1 70 -50 -328 -420.0001 0 0 -1 0 1 0 1 0 0 3710.dat
1 72 -40 -328 -220 0 0 1 0 1 0 -1 0 0 4282.dat
0 STEP
1 308 -30.0007 -344 10.0013 1.000012 0 0 0 1 0 0 0 1.000012 3040b.dat
1 308 -30 -344 -450 -1 0 0 0 1 0 0 0 -1 3040b.dat
1 84 -50.0008 -352 0.0012 0 0 1.000012 0 1 0 -1.000012 0 0 3937.dat
1 84 -50.0008 -352 -39.9993 0 0 1.000012 0 1 0 -1.000012 0 0 3937.dat
1 84 -49.9996 -352 -440.001 0 0 1.000008 0 1 0 -1.000008 0 0 3937.dat
1 84 -49.9994 -352 -400.0001 0 0 1.000004 0 1 0 -1.000004 0 0 3937.dat
0 STEP
1 71 -30 -352 -220 0 0 1 0 1 0 -1 0 0 3037.dat
1 19 -30 -368 -450 1 0 0 0 1 0 0 0 1 3005.dat
1 19 -30.0007 -368 10.0013 1.00001 0 0 0 1 0 0 0 1.00001 3005.dat
0 STEP
1 84 -40 -344 30 1 0 0 0 1 0 0 0 1 3009.dat
1 84 -40 -344 -470 1 0 0 0 1 0 0 0 1 3009.dat
1 19 -40 -368 30 1 0 0 0 1 0 0 0 1 3010.dat
1 19 -40 -368 -470 1 0 0 0 1 0 0 0 1 3010.dat
0 STEP
1 71 -57.0719 -349.071 0.0012 0 0.707109 -0.707105 0 0.707105 0.707109 1 0 0 6134.dat
1 71 -57.0719 -349.071 -39.9993 0 0.707109 -0.707105 0 0.707105 0.707109 1 0 0 6134.dat
1 71 -57.0709 -349.0721 -400.0001 0 0.707109 -0.707105 0 0.707105 0.707109 1 0 0 6134.dat
1 71 -57.071 -349.0718 -440.001 0 0.707109 -0.707105 0 0.707105 0.707109 1 0 0 6134.dat
0 STEP
1 72 -112.2261 -305.2303 -59.9988 0.707105 0.707109 0 -0.707109 0.707105 0 0 0 1 41539.dat
1 72 -112.2255 -305.2309 -300 0 0.707109 0.707105 0 0.707105 -0.707109 -1 0 0 92438.dat
0 STEP
1 19 -91.0129 -326.4436 -9.9988 0 0.707109 0.707105 0 0.707105 -0.707109 -1 0 0 35464.dat
1 19 -133.4392 -284.017 -9.9988 0 0.707109 0.707105 0 0.707105 -0.707109 -1 0 0 35464.dat
1 19 -91.0129 -326.4436 -89.9988 0 0.707109 0.707105 0 0.707105 -0.707109 -1 0 0 35464.dat
1 19 -133.4392 -284.017 -89.9988 0 0.707109 0.707105 0 0.707105 -0.707109 -1 0 0 35464.dat
1 19 -91.0124 -326.4442 -170 0 0.707109 0.707105 0 0.707105 -0.707109 -1 0 0 35464.dat
1 19 -133.4387 -284.0176 -170.0001 0 0.707109 0.707105 0 0.707105 -0.707109 -1 0 0 35464.dat
1 19 -91.0123 -326.4442 -270 0 0.707109 0.707105 0 0.707105 -0.707109 -1 0 0 35464.dat
1 19 -133.4386 -284.0176 -270 0 0.707109 0.707105 0 0.707105 -0.707109 -1 0 0 35464.dat
1 19 -91.0123 -326.4442 -350 0 0.707109 0.707105 0 0.707105 -0.707109 -1 0 0 35464.dat
1 19 -133.4386 -284.0177 -350 0 0.707109 0.707105 0 0.707105 -0.707109 -1 0 0 35464.dat
1 19 -91.0123 -326.4442 -430 0 0.707109 0.707105 0 0.707105 -0.707109 -1 0 0 35464.dat
1 19 -133.4386 -284.0177 -430 0 0.707109 0.707105 0 0.707105 -0.707109 -1 0 0 35464.dat
0 STEP
1 19 -40 -392 20 1 0 0 0 1 0 0 0 1 3003.dat
1 19 -40 -392 -460 1 0 0 0 1 0 0 0 1 3003.dat
0 STEP
1 72 -40 -440 -460 1 0 0 0 1 0 0 0 1 3942c.dat
1 72 -40 -440 20 1 0 0 0 1 0 0 0 1 3942c.dat
1 72 -40 -436.5 20 1 0 0 0 1 0 0 0 1 24482.dat
1 72 -40 -437.325 -460 1 0 0 0 1 0 0 0 1 24482.dat
0 STEP
1 19 -30 -376 -200 0 0 1 0 1 0 -1 0 0 3660b.dat
1 19 -30 -376 -240 0 0 1 0 1 0 -1 0 0 3660b.dat
0 STEP
1 19 -40 -400 -240.0001 0 0 1 0 1 0 -1 0 0 87620.dat
1 19 -40 -400 -200 -1 0 0 0 1 0 0 0 -1 87620.dat
1 0 -30 -400 -220 0 0 1 0 1 0 -1 0 0 3700.dat
0 STEP
1 72 -20 -496 -220.0001 0 0 1 0 1 0 -1 0 0 35563.dat
1 72 -30 -520.005 -220.0001 1 0 0 0 1 0 0 0 1 59900.dat
1 179 -30 -524.1977 -220.0001 0 -1 0 1 0 0 0 0 1 89522.dat
0 STEP
1 19 -190 -244 30 1 0 0 0 1 0 0 0 1 24482.dat
1 19 -190 -244 -30 1 0 0 0 1 0 0 0 1 24482.dat
1 19 -190 -244 -90 1 0 0 0 1 0 0 0 1 24482.dat
1 19 -190 -244 -150 1 0 0 0 1 0 0 0 1 24482.dat
1 19 -190 -244 -210 1 0 0 0 1 0 0 0 1 24482.dat
1 19 -190 -244 -270 1 0 0 0 1 0 0 0 1 24482.dat
1 19 -190 -248 -330 1 0 0 0 1 0 0 0 1 24482.dat
1 19 -190 -244 -450 1 0 0 0 1 0 0 0 1 24482.dat
1 19 -190 -244 -390 1 0 0 0 1 0 0 0 1 24482.dat
0 STEP
1 71 -20 -310 -400 1 0 0 0 1 0 0 0 1 4274.dat
1 71 -20.0003 -310 -39.9999 1 0 0 0 1 0 0 0 1 4274.dat
0 STEP
1 72 -8.21 -310 -400 0 -1 0 1 0 0 0 0 1 48729b.dat
1 72 -10.0003 -310 -39.9999 0 -1 0 1 0 0 0 0 1 48729b.dat
1 0 -8.21 -310 -397.73 1 0 0 0 0 1 0 -1 0 30292.dat
1 0 -10.0003 -310 -39.9999 1 0 0 0 0 1 0 -1 0 30292.dat
0 STEP
1 16 -13.6667 -261 -220 1 0 0 0 1 0 0 0 1 141
1 0 -47.5 -245.63 -354.7401 0 1 0 0 0 -1 -1 0 0 59230.dat
1 0 -12.5 -256.79 -81.78 0 1 0 0 0 -1 -1 0 0 59230.dat
1 0 -12.5 -256.79 -155.07 0 1 0 0 0 -1 -1 0 0 59230.dat
1 0 -47.5 -245.63 -291.5701 0 1 0 0 0 -1 -1 0 0 59230.dat
0 STEP
1 15 -7.5 -249.63 -354.7401 1 0 0 0 1 0 0 0 1 37762.dat
1 15 -7.5 -249.63 -291.5701 1 0 0 0 1 0 0 0 1 37762.dat
1 15 27.5 -260.79 -155.07 1 0 0 0 1 0 0 0 1 37762.dat
1 15 27.5 -260.79 -81.78 1 0 0 0 1 0 0 0 1 37762.dat
1 57 -7.5 -276.63 -354.7401 1 0 0 0 1 0 0 0 1 37775.dat
1 57 -7.5 -276.63 -291.5701 1 0 0 0 1 0 0 0 1 37775.dat
1 57 27.5 -286.94 -155.07 1 0 0 0 1 0 0 0 1 37775.dat
1 57 27.5 -287.79 -81.78 1 0 0 0 1 0 0 0 1 37775.dat
0 STEP
1 16 233.1876 -160 -580.0001 1 0 0 0 1 0 0 0 1 nearly headless nick
0 STEP
1 19 110.0001 -184 -610.0002 -1 0 0 0 1 0 0 0 -1 3622.dat
1 19 110 -184 -550.0001 -1 0 0 0 1 0 0 0 -1 3622.dat
1 70 90 -224 -580.0001 0 0 1 0 1 0 -1 0 0 30044.dat
1 0 86 -200 -580.0001 0 0 1 0 1 0 -1 0 0 30046.dat
0 STEP
1 19 100 -208 -550.0001 -1 0 0 0 1 0 0 0 -1 3004.dat
1 84 100.0001 -208 -610.0002 1 0 0 0 1 0 0 0 1 98283.dat
0 STEP
1 19 90.0001 -232 -580.0002 0 0 1 0 1 0 -1 0 0 3659.dat
1 84 110.0001 -232 -610.0002 1 0 0 0 1 0 0 0 1 3005.dat
1 19 110 -232 -550.0001 1 0 0 0 1 0 0 0 1 3005.dat
0 STEP
1 72 120.0001 -328 -580.0002 0 0 1 0 1 0 -1 0 0 35563.dat
1 72 110.0001 -352.005 -580.0002 1 0 0 0 1 0 0 0 1 59900.dat
1 72 110.0001 -352.005 -580.0002 1 0 0 0 1 0 0 0 1 24482.dat
0 STEP
1 19 130 -304 -550.0001 1 0 0 0 1 0 0 0 1 2453b.dat
1 19 130.0001 -304 -610.0002 1 0 0 0 1 0 0 0 1 2453b.dat
0 STEP
1 148 170.0001 -164 -570.0001 0 0 1 0 1 0 -1 0 0 98374.dat
1 297 170.0001 -187.5 -570.0001 0 1 0 0 0 -1 -1 0 0 95344.dat
1 36 170.0001 -184 -570.0001 1 0 0 0 1 0 0 0 1 30385.dat
1 308 210.0001 -184 -530.0001 1 0 0 0 1 0 0 0 1 3062b.dat
1 308 170.0001 -184 -530.0001 1 0 0 0 1 0 0 0 1 3062b.dat
1 308 210.0001 -184 -490.0001 1 0 0 0 1 0 0 0 1 3062b.dat
0 STEP
1 70 210.0001 -192 -530.0001 0 0 -1 0 1 0 1 0 0 30357.dat
1 43 210.0001 -216 -510.0001 1 0 0 0 1 0 0 0 1 3062b.dat
1 34 190.0001 -216 -530.0001 1 0 0 0 1 0 0 0 1 3062b.dat
1 34 190.0001 -222 -530.0001 1 0 0 0 1 0 0 0 1 30153.dat
1 33 210.0001 -222 -510.0001 1 0 0 0 1 0 0 0 1 30153.dat
1 297 190.0001 -232 -490.0001 1 0 0 0 1 0 0 0 1 2343.dat
0 STEP
1 19 200.0001 -304 -620.0002 0 0 1 0 1 0 -1 0 0 30562.dat
1 19 200.0001 -304 -540.0001 -1 0 0 0 1 0 0 0 -1 30562.dat
0 STEP
1 0 180.0001 -202 -640.0002 0 0 1 0 1 0 -1 0 0 4341.dat
1 35 171.2287 -172 -650.9886 0.83962 0 0.543174 0 1 0 -0.543174 0 0.83962 30385.dat
1 35 190.0001 -184 -625.6689 1 0 0 0 1 0 0 0 1 30385.dat
1 19 220.0001 -280 -690.0002 1 0 0 0 1 0 0 0 1 2454.dat
1 19 220.0001 -280 -470.0001 1 0 0 0 1 0 0 0 1 2454.dat
0 STEP
1 19 210.0001 -304 -580.0002 0 0 1 0 1 0 -1 0 0 6112.dat
1 19 230.0001 -304 -690.0002 -1 0 0 0 1 0 0 0 -1 20310.dat
1 19 230.0001 -304 -470.0001 1 0 0 0 1 0 0 0 1 20310.dat
0 STEP
1 28 180.0001 -312 -640.0002 0 0 1 0 1 0 -1 0 0 6003.dat
1 28 180.0001 -312 -520.0001 -1 0 0 0 1 0 0 0 -1 6003.dat
0 STEP
1 19 130.0001 -336 -580.0001 0 0 1 0 1 0 -1 0 0 3010.dat
1 19 130 -360 -580.0001 0 0 1 0 1 0 -1 0 0 3010.dat
1 19 130 -384 -580.0001 0 0 1 0 1 0 -1 0 0 3010.dat
0 STEP
1 70 130.0001 -448 -580.0002 0 0 1 0 1 0 -1 0 0 30044.dat
1 0 126.0001 -424 -580.0002 0 0 1 0 1 0 -1 0 0 30046.dat
1 19 130.0001 -408 -610.0001 1 0 0 0 1 0 0 0 1 3005.dat
1 19 130 -408 -550.0001 1 0 0 0 1 0 0 0 1 3005.dat
0 STEP
1 19 130.0001 -432 -610.0001 1 0 0 0 1 0 0 0 1 3005.dat
1 84 130 -432 -550.0001 1 0 0 0 1 0 0 0 1 3005.dat
1 19 130.0001 -456 -580.0002 0 0 1 0 1 0 -1 0 0 3659.dat
0 STEP
1 320 160.0001 -320 -580.0002 1 0 0 0 1 0 0 0 1 87580.dat
1 320 200.0001 -320 -520.0001 1 0 0 0 1 0 0 0 1 87580.dat
1 320 170.0001 -320 -620.0003 0 0 1 0 1 0 -1 0 0 3069b.dat
0 STEP
1 70 159.9577 -352 -599.4662 0 0 -1 0 1 0 1 0 0 4738a.dat
1 47 164.9574 -330 -573.3401 -1.000003 0 0 0 1 0 0 0 -1.000003 30153.dat
1 36 149.9574 -330 -587.4652 -1.000003 0 0 0 1 0 0 0 -1.000003 30153.dat
1 52 165.1073 -330 -600.4652 -1.000003 0 0 0 1 0 0 0 -1.000003 30153.dat
1 35 164.9574 -330 -624.4652 -1.000003 0 0 0 1 0 0 0 -1.000003 30153.dat
1 46 149.9574 -330 -613.4652 -1.000003 0 0 0 1 0 0 0 -1.000003 30153.dat
1 70 159.9577 -368.0079 -599.4661 -0.000001 0 -1 0 1 0 1 0 -0.000001 4739a.dat
1 297 200.0001 -360 -520.0001 1 0 0 0 1 0 0 0 1 64644.dat
1 0 210.0001 -312 -630.0002 1 0 0 0 1 0 0 0 1 29111.dat
0 STEP
1 19 200.0001 -456 -620.0003 0 0 1 0 1 0 -1 0 0 30562.dat
1 19 200.0001 -456 -540.0001 -1 0 0 0 1 0 0 0 -1 30562.dat
1 19 220.0001 -432 -690.0002 1 0 0 0 1 0 0 0 1 2454.dat
1 19 220 -432 -470 1 0 0 0 1 0 0 0 1 2454.dat
0 STEP
1 19 210.0001 -456 -580.0003 0 0 1 0 1 0 -1 0 0 6112.dat
1 19 230.0001 -456 -690.0003 -1 0 0 0 1 0 0 0 -1 20310.dat
1 19 230 -456 -470 1 0 0 0 1 0 0 0 1 20310.dat
0 STEP
1 28 180.0001 -464 -640.0004 0 0 1 0 1 0 -1 0 0 6003.dat
1 28 180.0001 -464 -520 -1 0 0 0 1 0 0 0 -1 6003.dat
0 STEP
1 72 240.0001 -472 -580 1 0 0 0 1 0 0 0 1 3031.dat
1 70 210.0001 -480 -580.0001 0 0 1 0 1 0 -1 0 0 15573.dat
1 0 250.0001 -480 -580.0001 0 0 1 0 1 0 -1 0 0 2431.dat
0 STEP
1 70 230.0001 -496 -580.0001 0 0 1 0 1 0 -1 0 0 3010.dat
1 70 270.0001 -496 -580.0001 0 0 1 0 1 0 -1 0 0 3010.dat
0 STEP
1 297 210.0001 -504 -580.0001 1 0 0 0 1 0 0 0 1 59900.dat
1 19 270.0001 -496 -610.0001 0 0 1 0 1 0 -1 0 0 54200.dat
1 19 270.0001 -496 -550.0001 0 0 1 0 1 0 -1 0 0 54200.dat
0 STEP
1 72 220.0001 -488 -520.0001 0 0 1 0 1 0 -1 0 0 30165.dat
1 72 220.0001 -488 -640.0004 0 0 1 0 1 0 -1 0 0 30165.dat
1 297 210.0001 -544 -580.0001 1 0 0 0 1 0 0 0 1 64644.dat
1 70 180.0001 -472 -630.0004 1 0 0 0 1 0 0 0 1 15573.dat
1 70 180.0001 -472 -530 1 0 0 0 1 0 0 0 1 15573.dat
0 STEP
1 297 180.0001 -480 -630.0005 0.694659 0 0.719339 0 1 0 -0.719339 0 0.694659 48336.dat
1 297 180.0001 -480 -530 -0.694658 0 0.71934 0 1 0 -0.71934 0 -0.694658 48336.dat
1 70 180.0001 -488 -530.0001 -0.694658 0 0.71934 0 1 0 -0.71934 0 -0.694658 15573.dat
1 70 180.0001 -488 -630.0005 0.694659 0 0.719339 0 1 0 -0.719339 0 0.694659 15573.dat
0 STEP
1 71 220.0001 -496 -520.0001 0 0 1 0 1 0 -1 0 0 60470b.dat
1 71 220.0001 -496 -640.0004 0 0 1 0 1 0 -1 0 0 60470b.dat
1 19 220.0001 -504 -520.0002 0 0 1 0 1 0 -1 0 0 35480.dat
1 19 220.0001 -504 -640.0004 0 0 1 0 1 0 -1 0 0 35480.dat
1 70 180.0001 -496 -630.0005 0 0 -1 0 1 0 1 0 0 26047.dat
1 70 180.0001 -496 -530.0002 0 0 -1 0 1 0 1 0 0 26047.dat
0 STEP
1 70 170.0001 -488 -580.0004 0 0 -1 0 1 0 1 0 0 3039.dat
0 STEP
1 72 220.0001 -536 -490 -1 0 0 0 1 0 0 0 -1 3684c.dat
1 72 220.0001 -536 -670.0004 1 0 0 0 1 0 0 0 1 3684c.dat
0 STEP
1 84 220.0001 -512 -510.0002 1 0 0 0 1 0 0 0 1 3023b.dat
1 84 220.0001 -512 -650.0004 1 0 0 0 1 0 0 0 1 3023b.dat
1 19 230.0001 -536 -510.0002 0 0 -1 0 1 0 1 0 0 20310.dat
1 19 230.0001 -536 -650.0004 0 0 -1 0 1 0 1 0 0 20310.dat
1 19 210.0001 -536 -510.0002 1 0 0 0 1 0 0 0 1 3005.dat
1 19 210.0001 -536 -650.0004 1 0 0 0 1 0 0 0 1 3005.dat
0 STEP
1 72 170.0001 -536 -580.0005 0 0 1 0 1 0 -1 0 0 3245c.dat
1 72 150.0001 -536 -580.0004 0 0 1 0 1 0 -1 0 0 3684c.dat
0 STEP
1 72 220.0001 -608 -510.0002 -1 0 0 0 1 0 0 0 -1 3684c.dat
1 72 220.0001 -608 -650.0004 1 0 0 0 1 0 0 0 1 3684c.dat
1 72 170.0001 -608 -580.0005 0 0 1 0 1 0 -1 0 0 3684c.dat
0 STEP
1 72 240.0001 -752 -580.0005 0 0 1 0 1 0 -1 0 0 48310.dat
1 19 230.0002 -776 -580.0005 0 0 -1 0 1 0 1 0 0 3660b.dat
1 72 250.0002 -824 -580.0005 0 0 1 0 1 0 -1 0 0 3245c.dat
0 STEP
1 72 240.0001 -824 -580.0005 0 0 1 0 1 0 -1 0 0 38317.dat
0 STEP
1 72 240.0001 -872 -580.0005 1 0 0 0 1 0 0 0 1 3942c.dat
1 72 240.0001 -896 -580.0005 1 0 0 0 1 0 0 0 1 59900.dat
1 378 240.0001 -886.1926 -580.0005 -1 0 0 0 -1 0 0 0 1 90540.dat
0 STEP
1 16 181.6116 -554.9138 -628.4443 0.133558 0.706832 -0.694659 -0.982613 0.185667 0 0.128975 0.682581 0.719339 roof piece
1 16 181.6118 -554.9136 -531.5561 0.133559 0.706834 0.694656 -0.982613 0.185667 0.000001 -0.128974 -0.682579 0.719341 roof piece
0 STEP
1 57 -130 -26.27 -230 0.866026 0 -0.5 0 1 0 0.5 0 0.866026 64647.dat
1 57 -130 -24.89 -250 0.866026 0 -0.5 0 1 0 0.5 0 0.866026 64647.dat
1 15 -30.0001 -328 -110 1 0 0 0 1 0 0 0 1 bl_92084pb03.dat
1 28 110 -24 -89.7 1 0 0 0 1 0 0 0 1 36756pb01.dat
0 STEP
0 NOFILE
0 FILE Dumbledore
0 Dumbledore
0 Name: Dumbledore
0 Author: 
0 CustomBrick
0 FlexibleBrickControlPointUnitLength -1
0 FlexibleBrickLockedControlPoint 
0 NumOfBricks 10
1 320 -4.4963 -40 7.562 1 0 0 0 1 0 0 0 1 73200b-f1.dat copy
1 320 -4.4963 -72 7.562 1 0 0 0 1 0 0 0 1 973.dat
1 320 11.069 -63.0907 7.562 0.985328 0.170671 0 -0.170671 0.985328 0 0 0 1 3819.dat
1 320 -20.0709 -63.0928 7.562 0.985495 -0.169703 0 0.169703 0.985495 0 0 0 1 3818.dat
1 78 -28.2228 -45.2169 -1.938 0.991565 0.048984 0.119998 0.048984 0.715542 -0.69685 -0.119998 0.69685 0.707107 3820.dat
1 78 19.2384 -45.2228 -2.438 0.991482 0.04898 -0.120682 -0.119745 0.707266 -0.696732 0.051229 0.705249 0.707107 3820.dat
1 78 -4.4963 -96 7.562 1 0 0 0 1 0 0 0 1 3626b.dat
1 71 -4.4963 -72 7.562 1 0 0 0 1 0 0 0 1 10052.dat
1 71 -4.4963 -96 7.562 1 0 0 0 1 0 0 0 1 36806.dat
1 28 20.4678 -37.6612 -8.5582 0.999835 0.017524 0.004831 -0.004831 0.512402 -0.858732 -0.017524 0.858567 0.512402 36752a.dat
0 NOFILE
0 FILE Hermoine
0 Hermoine
0 Name: Hermoine
0 Author: 
0 CustomBrick
0 FlexibleBrickControlPointUnitLength -1
0 FlexibleBrickLockedControlPoint 
0 NumOfBricks 9
1 72 17.6969 -44.7265 9.5492 1 0 0 0 1 0 0 0 1 3819.dat
1 72 3.8805 -56.1617 9.5492 0.985328 -0.170671 0 0.170671 0.985328 0 0 0 1 973.dat
1 72 -12.9858 -50.0434 9.5492 0.942073 -0.335409 0 0.335409 0.942073 0 0 0 1 3818.dat
1 0 -1.581 -24.6312 9.5492 0.985328 -0.170671 0 0.170671 0.985328 0 0 0 1 41879b.dat
1 78 -24.0689 -33.821 0.0492 0.968657 -0.073857 0.23717 0.217496 0.713404 -0.666146 -0.119998 0.69685 0.707107 3820.dat
1 78 22.6969 -25.7265 -0.4507 0.997372 -0.072448 0 0.051229 0.705249 -0.707107 0.051229 0.705249 0.707107 3820.dat
1 78 7.9766 -79.8096 9.5492 0.985328 -0.170671 0 0.170671 0.985328 0 0 0 1 3626cp7s.dat
1 70 7.9766 -79.8096 9.5492 0.985328 -0.170671 0 0.170671 0.985328 0 0 0 1 37697.dat
1 28 23.0529 -21.2149 -11.894 0.98599 -0.070185 0.151321 0.165882 0.507875 -0.845308 -0.017524 0.858567 0.512402 36752a.dat
0 NOFILE
0 FILE Draco
0 Draco
0 Name: Draco
0 Author: 
0 CustomBrick
0 FlexibleBrickControlPointUnitLength -1
0 FlexibleBrickLockedControlPoint 
0 NumOfBricks 9
1 0 -5.7705 -24 8.1133 1 0 0 0 1 0 0 0 1 41879b.dat
1 72 -5.7705 -56 8.1133 1 0 0 0 1 0 0 0 1 973.dat
1 72 9.7948 -47.0907 8.1133 0.985328 0.170671 0 -0.170671 0.985328 0 0 0 1 3819.dat
1 72 -21.3451 -47.0928 8.1133 0.985495 -0.169703 0 0.169703 0.985495 0 0 0 1 3818.dat
1 78 -29.497 -29.2169 -1.3867 0.991565 0.048984 0.119998 0.048984 0.715542 -0.696851 -0.119998 0.696851 0.707107 3820.dat
1 78 17.9642 -29.2228 -1.8867 0.991482 0.04898 -0.120682 -0.119745 0.707266 -0.696732 0.051229 0.705249 0.707107 3820.dat
1 78 -5.7705 -80 8.1133 1 0 0 0 1 0 0 0 1 3626b.dat
1 226 -5.7705 -80 8.1133 1 0 0 0 1 0 0 0 1 92081.dat
1 308 19.1651 -22.4965 -9.4064 0.999835 0.017524 0.004831 -0.004831 0.512402 -0.858732 -0.017524 0.858567 0.512402 36752a.dat
0 NOFILE
0 FILE Harry
0 Harry
0 Name: Harry
0 Author: 
0 CustomBrick
0 FlexibleBrickControlPointUnitLength -1
0 FlexibleBrickLockedControlPoint 
0 NumOfBricks 9
1 0 -5.7143 -24 7.9264 1 0 0 0 1 0 0 0 1 41879b.dat
1 72 -5.7143 -56 7.9264 1 0 0 0 1 0 0 0 1 973.dat
1 72 9.8511 -47.0907 7.9264 0.985328 0.170671 0 -0.170671 0.985328 0 0 0 1 3819.dat
1 72 -21.2889 -47.0928 7.9264 0.985495 -0.169703 0 0.169703 0.985495 0 0 0 1 3818.dat
1 78 -29.4407 -29.2169 -1.5736 0.991565 0.048984 0.119998 0.048984 0.715542 -0.696851 -0.119998 0.696851 0.707107 3820.dat
1 78 18.0205 -29.2228 -2.0736 0.991482 0.04898 -0.120682 -0.119745 0.707266 -0.696732 0.051229 0.705249 0.707107 3820.dat
1 78 -5.7143 -80 7.9264 1 0 0 0 1 0 0 0 1 3626b.dat
1 0 -6.2143 -80.5 5.9264 1 0 0 0 1 0 0 0 1 36762.dat
1 308 19.2149 -22.686 -9.9109 0.999835 0.017524 0.004831 -0.004831 0.512402 -0.858732 -0.017524 0.858567 0.512402 36752a.dat
0 NOFILE
0 FILE Boat
0 Boat
0 Name: Boat
0 Author: 
0 CustomBrick
0 FlexibleBrickControlPointUnitLength -1
0 FlexibleBrickLockedControlPoint 
0 NumOfBricks 5
1 70 -49.696 -16 0 0 0 -1 0 1 0 1 0 0 21301.dat
0 STEP
1 0 30.304 -64 -0 1 0 0 0 1 0 0 0 1 3942c.dat
1 0 30.304 -116.68 0 0 0 1 0 -1 0 1 0 0 87618.dat
0 STEP
1 297 7.044 -110.68 0 0 0 1 0 1 0 -1 0 0 15712.dat
1 42 7.044 -102.68 0 1 0 0 0 1 0 0 0 1 3626b.dat
0 STEP
0 NOFILE
0 FILE Fawkes
0 Fawkes
0 Name: Fawkes
0 Author: 
0 CustomBrick
0 FlexibleBrickControlPointUnitLength -1
0 FlexibleBrickLockedControlPoint 
0 NumOfBricks 11
1 0 6.4505 -56 -0 0 0 -1 0 1 0 1 0 0 61252.dat
1 0 6.4505 -80 -0 0 0 -1 0 1 0 1 0 0 4733.dat
0 STEP
1 57 6.4505 -88 -0 0 0 -1 0 1 0 1 0 0 3024.dat
1 4 6.4505 -70 -18 -1 0 0 0 0 1 0 1 0 3024.dat
1 4 6.4505 -70 18 1 0 0 0 0 1 0 -1 0 3024.dat
0 STEP
1 0 6.4505 -96 -0 0 0 -1 0 1 0 1 0 0 49668.dat
1 4 6.4505 -104 -0 0 0 -1 0 1 0 1 0 0 15712.dat
1 4 2.4948 -110 -0 0 0 -1 0 -1 0 -1 0 0 53451.dat
0 STEP
1 25 6.4505 -60 10 -1 0 0 0 0 -1 0 -1 0 29119.dat
1 25 6.4505 -60 -10 1 0 0 0 0 -1 0 1 0 29120.dat
0 STEP
1 4 -27.5495 -40 -0 0 1 0 0 0 1 1 0 0 61678.dat
0 STEP
0 NOFILE
0 FILE Mirror of Erised
0 Mirror of Erised
0 Name: Mirror of Erised
0 Author: 
0 CustomBrick
0 FlexibleBrickControlPointUnitLength -1
0 FlexibleBrickLockedControlPoint 
0 NumOfBricks 17
1 191 -10 -8 0.3235 1 0 0 0 1 0 0 0 1 3666.dat
1 28 -10 -152 0.3235 -1 0 0 0 1 0 0 0 -1 60596.dat
0 STEP
1 297 -60 -16 0.3235 1 0 0 0 1 0 0 0 1 3024.dat
1 297 -60 -24 0.3235 1 0 0 0 1 0 0 0 1 3024.dat
1 297 40 -16 0.3235 1 0 0 0 1 0 0 0 1 3024.dat
1 297 40 -24 0.3235 1 0 0 0 1 0 0 0 1 3024.dat
0 STEP
1 191 -60 -144 0.3235 1 0 0 0 1 0 0 0 1 2453b.dat
1 191 40 -144 0.3235 1 0 0 0 1 0 0 0 1 2453b.dat
1 297 -60 -152 0.3235 1 0 0 0 1 0 0 0 1 3024.dat
1 297 40 -152 0.3235 1 0 0 0 1 0 0 0 1 3024.dat
0 STEP
1 191 -10 -160 0.3235 1 0 0 0 1 0 0 0 1 3666.dat
0 STEP
1 191 -20 -184 0.3235 0 0 1 0 1 0 -1 0 0 3040b.dat
1 191 0 -184 0.3235 0 0 -1 0 1 0 1 0 0 3040b.dat
0 STEP
1 297 -10 -208 0.3235 -1 0 0 0 1 0 0 0 -1 15571.dat
1 297 40 -184 0.3235 1 0 0 0 1 0 0 0 1 59900.dat
1 297 -60 -184 0.3235 1 0 0 0 1 0 0 0 1 59900.dat
0 STEP
1 0 -10 -147.74 -5.1765 1 0 0 0 1 0 0 0 1 57895.dat
0 STEP
0 NOFILE
0 FILE Basilisk
0 Basilisk
0 Name: Basilisk
0 Author: 
0 CustomBrick
0 FlexibleBrickControlPointUnitLength -1
0 FlexibleBrickLockedControlPoint 
0 NumOfBricks 45
1 0 -74.5138 -33.3965 -15.7504 -0.984821 -0.173567 0 -0.173567 0.984822 0 0 0 -1 63868.dat
1 0 -74.5138 -33.3965 -35.7504 -0.984821 -0.173567 0 -0.173567 0.984822 0 0 0 -1 63868.dat
0 STEP
1 0 -73.1253 -41.2751 -25.7504 0 -0.173567 -0.984821 0 0.984822 -0.173567 1 0 0 3176.dat
0 STEP
1 72 -61.8885 -47.418 -25.7504 0.984821 -0.173567 0 0.173567 0.984822 0 0 0 1 3021.dat
0 STEP
1 0 -70.3482 -57.0323 -15.7504 -0.984821 -0.173567 0 -0.173567 0.984822 0 0 0 -1 63868.dat
1 0 -70.3482 -57.0323 -35.7504 -0.984821 -0.173567 0 -0.173567 0.984822 0 0 0 -1 63868.dat
1 72 -40.8036 -51.8252 -25.7505 0 -0.173567 -0.984821 0 0.984822 -0.173567 1 0 0 14417.dat
0 STEP
1 0 -80.1964 -58.7679 -25.7504 0 -0.173567 0.984821 0 0.984822 0.173567 -1 0 0 85984.dat
1 0 -49.2633 -61.4395 -25.7504 0.984821 -0.173567 0 0.173567 0.984822 0 0 0 1 3022.dat
0 STEP
1 16 7.1763 -32.4046 -17.9859 0.965925 0 -0.258819 0 1 0 0.258819 0 0.965926 segment
0 STEP
1 16 65.6982 -32.3946 -5.012 0.984808 0 -0.173647 0 1 0 0.173647 0 0.984808 segment
1 16 122.4317 -32.3846 12.8759 0.906307 0 -0.422617 0 1 0 0.422617 0 0.906308 segment
0 STEP
1 16 177.8116 -32.3746 35.815 0.939692 0 -0.342019 0 1 0 0.342019 0 0.939693 segment
0 STEP
1 16 245.8503 -32.3746 49.5617 0.996193 0 -0.087155 0 1 0 0.087155 0 0.996194 tail
0 STEP
1 16 -144.4045 -22.6866 -25.7504 0.999999 0.000079 0 -0.00008 1 0 0 0 1 lower jaw
0 STEP
1 16 -138.5825 -62.6985 -25.7504 0.906342 -0.422543 0 0.422544 0.906343 0 0 0 1 upper jaw
0 STEP
0 NOFILE
0 FILE Hagrid
0 Hagrid
0 Name: Hagrid
0 Author: 
0 CustomBrick
0 FlexibleBrickControlPointUnitLength -1
0 FlexibleBrickLockedControlPoint 
0 NumOfBricks 9
1 308 22.4788 -24 11.7483 0 0 1 0 1 0 -1 0 0 41879b.dat
1 84 22.4788 -88 11.7483 0 0 1 0 1 0 -1 0 0 37777p01.dat
1 84 5.5392 -85.8925 -19.2517 0 -1 0.000001 0 0.000001 1 -1 0 0 37779c01.dat copy
1 84 28.8428 -56.5797 41.7483 0 -0.707107 0.707107 0 0.707107 0.707107 -1 0 0 37783c01.dat
1 78 22.4788 -112 11.7483 1 0 0 0 1 0 0 0 1 3626b.dat
1 308 22.4788 -112 11.7483 0 0 1 0 1 0 -1 0 0 37784.dat
1 148 -9.6977 -78.4065 -31.3232 0.182238 0.000827 0.983254 -0.008997 0.999959 0.000827 -0.983213 -0.008997 0.182238 37776.dat
1 29 -5.9201 -71.5812 47.3556 -0.044591 -0.325 0.944663 -0.261882 -0.908732 -0.325 0.96407 -0.261882 -0.044591 27150.dat
1 46 -9.6794 -56.3074 -31.5221 0.983254 0.000827 -0.182238 0.000827 0.999959 0.008997 0.182238 -0.008997 0.983213 3062b.dat
0 NOFILE
0 FILE Ginny
0 Ginny
0 Name: Ginny
0 Author: 
0 CustomBrick
0 FlexibleBrickControlPointUnitLength -1
0 FlexibleBrickLockedControlPoint 
0 NumOfBricks 9
1 0 8.1215 -24 5.7755 0 0 1 0 1 0 -1 0 0 41879b.dat
1 72 8.1215 -56 5.7755 0 0 1 0 1 0 -1 0 0 973.dat
1 72 8.1215 -47.0907 -9.7898 0 0 1 -0.170671 0.985328 0 -0.985328 -0.170671 0 3819.dat
1 72 8.1215 -47.0928 21.3501 0 0 1 0.169703 0.985495 0 -0.985495 0.169703 0 3818.dat
1 78 8.1215 -80 5.7755 1 0 0 0 1 0 0 0 1 3626b.dat
1 78 -1.3785 -29.217 29.502 -0.062658 0.704325 0.707107 0.107286 0.709147 -0.69685 -0.992252 0.0322 -0.119998 3820.dat
1 78 -1.8785 -29.2228 -17.9592 0.108683 0.698705 0.707107 -0.061555 0.714685 -0.696732 -0.992169 0.032197 0.120682 3820.dat
1 0 -9.4717 -22.5468 -19.2051 0.51959 0.852227 -0.061118 -0.854244 0.51959 -0.017145 0.017145 0.061118 0.997983 36752a.dat
1 484 8.1215 -80 5.7755 0 0 1 0 1 0 -1 0 0 17346.dat
0 NOFILE
0 FILE McGonagall
0 McGonagall
0 Name: McGonagall
0 Author: 
0 CustomBrick
0 FlexibleBrickControlPointUnitLength -1
0 FlexibleBrickLockedControlPoint 
0 NumOfBricks 9
1 288 7.5905 -40 5.78 0 0 1 0 1 0 -1 0 0 73200b-f1.dat copy 2
1 288 7.5905 -72 5.78 0 0 -1 0 1 0 1 0 0 973.dat
1 288 7.5905 -63.0928 -9.7946 0 0 1 -0.169703 0.985495 0 -0.985495 -0.169703 0 3819.dat
1 288 7.5905 -63.0907 21.3453 0 0 1 0.170671 0.985328 0 -0.985328 0.170671 0 3818.dat
1 78 -1.9095 -45.2228 29.5147 -0.120683 0.696732 0.707107 0.049255 0.715638 -0.696732 -0.991469 -0.049255 -0.120683 3820.dat
1 78 -2.4096 -45.217 -17.9465 0.050536 0.705299 0.707107 -0.119466 0.707197 -0.69685 -0.991552 -0.049259 0.119998 3820.dat
1 0 -5.224 -35.682 -19.2387 0.512306 0.858616 0.017964 -0.858789 0.512306 0.004951 -0.004951 -0.017964 0.999826 36752a.dat
1 78 7.5905 -96.5375 5.78 1 0 0 0 1 0 0 0 1 3626b.dat
1 0 7.5905 -96.5375 5.78 0 0 1 0 1 0 -1 0 0 6131.dat
0 NOFILE
0 FILE Quirrell
0 Quirrell
0 Name: Quirrell
0 Author: 
0 CustomBrick
0 FlexibleBrickControlPointUnitLength -1
0 FlexibleBrickLockedControlPoint 
0 NumOfBricks 9
1 0 -0 -40 0 0 0 1 0 1 0 -1 0 0 73200b-f1.dat copy 3
1 0 0 -72 0 0 0 -1 0 1 0 1 0 0 973.dat
1 0 0 -63.0928 -15.5746 0 0 1 -0.169703 0.985495 0 -0.985495 -0.169703 0 3819.dat
1 0 0 -63.0907 15.5653 0 0 1 0.170671 0.985328 0 -0.985328 0.170671 0 3818.dat
1 78 -9.5 -45.2228 23.7347 -0.120683 0.696732 0.707107 0.049255 0.715638 -0.696732 -0.991468 -0.049255 -0.120683 3820.dat
1 78 -10 -45.2169 -23.7264 0.050536 0.705299 0.707107 -0.119466 0.707197 -0.69685 -0.991551 -0.049259 0.119998 3820.dat
1 78 0 -96 0 1 0 0 0 1 0 0 0 1 3626b.dat
1 30 0 -96 0 0 0 1 0 1 0 -1 0 0 18822.dat
1 70 -16.1201 -37.6543 -24.9496 0.512306 0.858615 0.017964 -0.858789 0.512306 0.004952 -0.004952 -0.017964 0.999826 36752a.dat
0 NOFILE
0 FILE Ron
0 Ron
0 Name: Ron
0 Author: 
0 CustomBrick
0 FlexibleBrickControlPointUnitLength -1
0 FlexibleBrickLockedControlPoint 
0 NumOfBricks 9
1 0 -1.7344 -24 1.7335 1 0 0 0 1 0 0 0 1 41879b.dat
1 72 -1.7344 -56 1.7335 -1 0 0 0 1 0 0 0 -1 973.dat
1 72 13.8402 -47.0928 1.7335 0.985495 0.169703 0 -0.169703 0.985495 0 0 0 1 3819.dat
1 72 -17.2998 -47.0907 1.7336 0.985328 -0.170671 0.000001 0.170671 0.985328 0 -0.000001 0 1 3818.dat
1 78 -25.4692 -29.2228 -7.7664 0.991468 0.049255 0.120683 0.049255 0.715638 -0.696732 -0.120683 0.696732 0.707107 3820.dat
1 78 21.992 -29.2169 -8.2664 0.991551 0.049259 -0.119998 -0.119466 0.707197 -0.696851 0.050536 0.705299 0.707107 3820.dat
1 78 -1.7344 -80 1.7335 1 0 0 0 1 0 0 0 1 3626b.dat
1 484 -1.7344 -80 1.7335 1 0 0 0 1 0 0 0 1 92746.dat
1 70 23.3768 -17.0436 -6.659 0.999826 0.017964 0.004952 -0.004952 0.512306 -0.858789 -0.017964 0.858615 0.512306 36752a.dat
0 NOFILE
0 FILE 141
0 141
0 Name: 141
0 Author: 
0 CustomBrick
0 FlexibleBrickControlPointUnitLength -1
0 FlexibleBrickLockedControlPoint 
0 NumOfBricks 12
1 0 -6.3333 -129 -0.0001 1 0 0 0 1 0 0 0 1 2780.dat
1 0 -6.3335 -49 0.0001 1 0 0 0 1 0 0 0 1 2780.dat
1 0 3.6667 -69 -0.0001 0 -1 0 0 0 1 -1 0 0 32524.dat
0 STEP
1 71 -6.3333 -29 -0.0001 -1 0 0 0 1 0 0 0 -1 4274.dat
1 71 -6.3333 -9 -0.0001 -1 0 0 0 1 0 0 0 -1 4274.dat
1 72 -16.3333 -29 -0.0001 0 1 0 0 0 -1 -1 0 0 48729b.dat
1 72 -16.3333 -9 -0.0001 0 1 0 0 0 -1 -1 0 0 48729b.dat
0 STEP
1 0 -16.3333 -35.39 -0.0001 1 0 0 0 1 0 0 0 1 87994.dat
1 0 -16.3333 4.21 0.0012 0 1 0 0 0 1 1 0 0 76116.dat
1 0 -16.3333 15.37 -0.0013 0 -1 0 0 0 1 -1 0 0 76116.dat
0 STEP
1 0 1.1668 4.21 130.4999 0 0 1 1 0 0 0 1 0 63965.dat
1 0 -33.8333 15.37 -128.2301 0 0 -1 1 0 0 0 -1 0 63965.dat
0 STEP
0 NOFILE
0 FILE Nearly Headless Nick
0 Nearly Headless Nick
0 Name: Nearly Headless Nick
0 Author: 
0 CustomBrick
0 FlexibleBrickControlPointUnitLength -1
0 FlexibleBrickLockedControlPoint 
0 NumOfBricks 8
1 71 -4.4375 -72 -0.0001 0 0 1 0 1 0 -1 0 0 973.dat
1 71 -4.4375 -63.0928 15.5745 0 0 -1 -0.169703 0.985495 0 0.985495 0.169703 0 3819.dat
1 71 -4.4375 -63.0907 -15.5654 0 0 -1 0.170671 0.985328 0 0.985328 -0.170671 0 3818.dat
1 15 5.0625 -45.2228 -23.7348 0.120682 -0.696732 -0.707107 0.049255 0.715638 -0.696732 0.991469 0.049255 0.120682 3820.dat
1 15 5.5625 -45.2169 23.7264 -0.050536 -0.705299 -0.707107 -0.119466 0.707197 -0.69685 0.991551 0.049259 -0.119998 3820.dat
1 15 -4.4375 -96 -0.0001 1 0 0 0 1 0 0 0 1 3626b.dat
1 71 -4.4375 -96 -0.0001 0 0 -1 0 1 0 1 0 0 21269.dat
1 71 -4.4375 -40 -0.0001 0 0 -1 0 1 0 1 0 0 73200b-f1.dat
0 NOFILE
0 FILE Roof Piece
0 Roof Piece
0 Name: Roof Piece
0 Author: 
0 CustomBrick
0 FlexibleBrickControlPointUnitLength -1
0 FlexibleBrickLockedControlPoint 
0 NumOfBricks 17
1 71 -49.7059 -9.5733 10 -1 0 0 0 1 0 0 0 -1 63868.dat
1 71 -49.7058 -9.5733 -10 -1 0 0 0 1 0 0 0 -1 63868.dat
1 72 -29.7059 -17.5734 0 1 0 0 0 1 0 0 0 1 3020.dat
0 STEP
1 72 30.294 -25.5733 30 0 0 -1 0 1 0 1 0 0 47397.dat
1 72 30.294 -25.5733 -30 0 0 -1 0 1 0 1 0 0 47398.dat
0 STEP
1 72 -9.7059 -33.5734 0 1 0 0 0 1 0 0 0 1 3034.dat
1 72 -49.7059 -33.5733 30 1 0 0 0 1 0 0 0 1 3710.dat
1 72 -49.7059 -33.5733 -30 1 0 0 0 1 0 0 0 1 3710.dat
1 72 90.294 -33.5733 0 1 0 0 0 1 0 0 0 1 87580.dat
0 STEP
1 71 20.2941 -17.5733 0 0 0 -1 0 1 0 1 0 0 32803.dat
0 STEP
1 72 -69.7059 -41.5733 0 1 0 0 0 1 0 0 0 1 87580.dat
1 72 -79.7059 -25.5733 -40 1 0 0 0 1 0 0 0 1 29120.dat
1 72 -79.7059 -25.5733 40 -1 0 0 0 1 0 0 0 -1 29119.dat
1 72 10.2941 -41.5734 0 1 0 0 0 1 0 0 0 1 87580.dat
0 STEP
1 19 90.294 -33.5733 -0.0001 0 0 1 0 1 0 -1 0 0 54200.dat
1 19 10.2941 -41.5734 0 0 0 1 0 1 0 -1 0 0 54200.dat
1 19 -69.7059 -41.5733 0 0 0 1 0 1 0 -1 0 0 54200.dat
0 STEP
0 NOFILE
0 FILE 73200b-f1.dat Copy
0 Hips  and Legs Plain
0 Name: 970c00
0 Author: Max Martin Richter [MMR1988]
0 FlexibleBrick: 73200b-f1.dat
0 FlexibleBrickControlPointUnitLength -1
0 FlexibleBrickLockedControlPoint 
1 16 0 0 0 1 0 0 0 1 0 0 0 1 3815b.dat
1 16 0 12 0 1 0 0 0 0 1 0 -1 0 3816c.dat
1 16 0 12 0 1 0 0 0 0 1 0 -1 0 3817c.dat
0 NOFILE
0 FILE Segment
0 Segment
0 Name: Segment
0 Author: 
0 CustomBrick
0 FlexibleBrickControlPointUnitLength -1
0 FlexibleBrickLockedControlPoint 
0 NumOfBricks 4
1 0 0 -8 0 1 0 0 0 1 0 0 0 1 2654.dat
0 STEP
1 72 10 -16 0 0 0 -1 0 1 0 1 0 0 14417.dat
1 71 -10 -16 0 0 0 1 0 1 0 -1 0 0 14704.dat
0 STEP
1 0 0 -24 0 1 0 0 0 1 0 0 0 1 3022.dat
0 STEP
0 NOFILE
0 FILE Tail
0 Tail
0 Name: Tail
0 Author: 
0 CustomBrick
0 FlexibleBrickControlPointUnitLength -1
0 FlexibleBrickLockedControlPoint 
0 NumOfBricks 4
1 71 -10 -16 0 -1 0 0 0 1 0 0 0 -1 14418.dat
0 STEP
1 0 0 -8 0 1 0 0 0 1 0 0 0 1 3623.dat
1 72 -20 -16 0 0 0 1 0 1 0 -1 0 0 54200.dat
0 STEP
1 0 10 -8 0 0 0 -1 0 1 0 1 0 0 11477.dat
0 STEP
0 NOFILE
0 FILE Lower Jaw
0 Lower Jaw
0 Name: Lower Jaw
0 Author: 
0 CustomBrick
0 FlexibleBrickControlPointUnitLength -1
0 FlexibleBrickLockedControlPoint 
0 NumOfBricks 3
1 0 20 -15.9441 0 0 0 -1 0 1 0 1 0 0 48336.dat
0 STEP
1 71 0 -15.9441 0 0 0 1 0 1 0 -1 0 0 32803.dat
1 320 10 -23.9441 0 1 0 0 0 1 0 0 0 1 3068b.dat
0 STEP
0 NOFILE
0 FILE Upper Jaw
0 Upper Jaw
0 Name: Upper Jaw
0 Author: 
0 CustomBrick
0 FlexibleBrickControlPointUnitLength -1
0 FlexibleBrickLockedControlPoint 
0 NumOfBricks 13
1 0 15.7778 -16 0 0 0 -1 0 1 0 1 0 0 48336.dat
1 320 5.7778 -8 0 1 0 0 0 1 0 0 0 1 3022.dat
1 0 -14.2222 -16 0 0 0 1 0 1 0 -1 0 0 43719.dat
0 STEP
1 0 15.7778 -24 -10 1 0 0 0 1 0 0 0 1 49668.dat
1 0 15.7778 -24 10 -1 0 0 0 1 0 0 0 -1 49668.dat
1 46 -4.2222 -24 10 -1 0 0 0 1 0 0 0 -1 6141.dat
1 46 -4.2222 -24 -10 -1 0 0 0 1 0 0 0 -1 6141.dat
0 STEP
1 0 -14.2222 -16 0 0 0 1 0 1 0 -1 0 0 15068.dat
0 STEP
1 0 -24.2222 -8 -10 1 0 0 0 1 0 0 0 1 85861.dat
1 0 -24.2222 -8 10 1 0 0 0 1 0 0 0 1 85861.dat
1 15 -24.2222 -0.4643 10 0 -1 0 0 0 1 -1 0 0 53451.dat
1 15 -24.2222 -0.4643 -10 0 -1 0 0 0 1 -1 0 0 53451.dat
1 0 15.7778 -24 -0 0 0 1 0 1 0 -1 0 0 85984.dat
0 STEP
0 NOFILE
0 FILE 37779c01.dat Copy
0 Arm Large with Pin, Left with Light Nougat Hand
0 Name: 37779c01
0 Author: 
0 FlexibleBrick: 37779c01.dat
0 FlexibleBrickControlPointUnitLength -1
0 FlexibleBrickLockedControlPoint 
1 16 -11.0755 -16.566 7.6265 1 0 0 0 1 0 0 0 1 37779.dat
1 78 5.0215 7.0154 10.0908 0.056549 -0.909475 -0.411904 0.257195 0.411884 -0.874199 0.964726 -0.056547 0.257196 3820.dat
0 NOFILE
0 FILE 73200b-f1.dat Copy 2
0 Hips  and Legs Plain
0 Name: 970c00
0 Author: Max Martin Richter [MMR1988]
0 FlexibleBrick: 73200b-f1.dat
0 FlexibleBrickControlPointUnitLength -1
0 FlexibleBrickLockedControlPoint 
1 16 0 0 0 1 0 0 0 1 0 0 0 1 3815b.dat
1 16 0 12 -0 1 0 0 0 0 1 0 -1 0 3816c.dat
1 16 0 12 0 1 0 0 0 0 1 0 -1 0 3817c.dat
0 NOFILE
0 FILE 73200b-f1.dat Copy 3
0 Hips  and Legs Plain
0 Name: 970c00
0 Author: Max Martin Richter [MMR1988]
0 FlexibleBrick: 73200b-f1.dat
0 FlexibleBrickControlPointUnitLength -1
0 FlexibleBrickLockedControlPoint 
1 16 0 0 0 1 0 0 0 1 0 0 0 1 3815b.dat
1 16 0 12 0 1 0 0 0 0 1 0 -1 0 3816c.dat
1 16 0 12 0 1 0 0 0 0 1 0 -1 0 3817c.dat
0 NOFILE
