0 FILE 76424 Hogwarts Castle Boathouse
0 76424 Hogwarts Castle Boathouse
0 Name: 76424 Hogwarts Castle Boathouse
0 SetNumber: 76424
0 Name: Hogwarts Castle Boathouse
0 Theme: Harry Potter
0 ReleaseYear: 2024
0 NumOfBricks: 370
0 Labels: incomplete
0 Notes: Missing two hair pieces, an owl, and McGonnagal's hat
0 _stepReady: true
1 16 -0 0 -14.2569 -1 0 0 0 1 0 0 0 -1 boat
1 16 -220 0 5.7431 -1 0 0 0 1 0 0 0 -1 boat
0 STEP
1 16 -10 0 267.75 1 0 0 0 1 0 0 0 1 boathouse
0 STEP
1 16 -70.3934 -40 298.2856 1 0 0 0 1 0 0 0 1 mcgonnagal
0 STEP
1 16 5.8848 -16 -21.581 0 0 -1 0 1 0 1 0 0 harry
0 STEP
1 16 -214.2792 -16 -63.6363 0 0 -1 0 1 0 1 0 0 dean
0 STEP
1 16 -215.5208 -20 -3.7827 0 0 -1 0 1 0 1 0 0 hermoine
0 STEP
1 16 -0.0001 -16 -85.5625 0 0 -1 0 1 0 1 0 0 neville
0 STEP
0 NOFILE
0 FILE Boat
0 Boat
0 Name: Boat
0 Author: 
0 CustomBrick
0 FlexibleBrickControlPointUnitLength -1
0 FlexibleBrickLockedControlPoint 
0 NumOfBricks 16
1 70 -0 -24 85.7431 0 0 1 0 1 0 -1 0 0 4871.dat
1 70 -0 -32 95.7431 1 0 0 0 1 0 0 0 1 30136.dat
0 STEP
1 70 -0 -24 95.7431 0 0 1 0 1 0 -1 0 0 93273.dat
1 484 -10 -16 45.7431 0 0 1 0 1 0 -1 0 0 41740.dat
1 484 10 -16 45.7431 0 0 1 0 1 0 -1 0 0 41740.dat
0 STEP
1 70 0 -24 45.7431 0 0 1 0 1 0 -1 0 0 4871.dat
1 70 0 -24 15.7431 1 0 0 0 1 0 0 0 1 13349.dat
0 STEP
1 70 -30 -32 45.7431 0 0 1 0 1 0 -1 0 0 2431.dat
1 70 30 -32 45.7431 0 0 1 0 1 0 -1 0 0 2431.dat
1 70 0 -32 -34.2569 1 0 0 0 1 0 0 0 1 48183.dat
0 STEP
1 70 0 -40 -34.2569 1 0 0 0 1 0 0 0 1 87580.dat
0 STEP
1 0 0 -64 -34.2569 1 0 0 0 1 0 0 0 1 59900.dat
1 0 0 -77.9969 -37.0034 0 -1 0 0.90449 0 -0.426495 0.426495 0 0.90449 33078.dat
0 STEP
1 0 0 -87.2673 -53.0461 1 0 0 0 0.788038 0.615626 0 -0.615626 0.788038 15712.dat
1 0 0 -80.9629 -57.9711 1 0 0 0 0.788038 0.615626 0 -0.615626 0.788038 4740.dat
1 46 0 -74.6586 -62.8961 1 0 0 0 0.788038 0.615626 0 -0.615626 0.788038 6141.dat
0 STEP
0 NOFILE
0 FILE Boathouse
0 Boathouse
0 Name: Boathouse
0 Author: 
0 CustomBrick
0 FlexibleBrickControlPointUnitLength -1
0 FlexibleBrickLockedControlPoint 
0 NumOfBricks 292
1 16 -30 0 84.65 1 0 0 0 1 0 0 0 1 1
0 STEP
1 16 -207.5715 0 106.3928 0 0 -1 0 1 0 1 0 0 2
0 STEP
1 70 -170.0001 -40 242.25 1 0 0 0 1 0 0 0 1 3023b.dat
1 28 -170.0001 -40 172.25 0 0 1 0 1 0 -1 0 0 3795.dat
1 28 -170.0001 -40 52.25 0 0 1 0 1 0 -1 0 0 3795.dat
0 STEP
1 330 -210.0001 -40 232.25 -1 0 0 0 1 0 0 0 -1 26601.dat
1 330 -220.0001 -40 182.25 1 0 0 0 1 0 0 0 1 11212.dat
1 71 -200.0001 -56 62.25 1 0 0 0 1 0 0 0 1 4286.dat
1 70 -200.0001 -40 82.25 1 0 0 0 1 0 0 0 1 98138.dat
1 330 -200.0001 -40 122.2499 0 0 1 0 1 0 -1 0 0 3623.dat
0 STEP
1 378 -230.0001 -32 102.25 0 0 1 0 1 0 -1 0 0 11477.dat
1 330 -230.0001 -40 132.25 0 0 1 0 1 0 -1 0 0 26601.dat
1 71 -220.0001 -40 72.25 -1 0 0 0 1 0 0 0 -1 92946.dat
0 STEP
1 72 -200.0001 -64 62.25 0 0 1 0 1 0 -1 0 0 28192.dat
1 70 -220.0002 -48 222.25 0 0 1 0 1 0 -1 0 0 60897.dat
1 378 -220.0002 -40 212.25 1 0 0 0 1 0 0 0 1 11477.dat
0 STEP
1 19 -180.0001 -64 232.25 0 0 1 0 1 0 -1 0 0 98283.dat
1 84 -180.0002 -88 242.25 1.000002 0 0 0 1 0 0 0 1.000002 3005.dat
0 STEP
1 19 -180.0002 -88 222.25 0 0 -1.000002 0 1 0 1.000002 0 0 87087.dat
1 19 -166.0002 -78 222.25 -1.000002 0 0 0 1 0 0 0 -1.000002 64847.dat
0 STEP
1 19 -180.0002 -160 222.25 -1.000002 0 0 0 1 0 0 0 -1.000002 13965.dat
1 19 -180.0002 -112 242.25 0 0 1.000002 0 1 0 -1.000002 0 0 87087.dat
0 STEP
1 19 -180.0002 -136 242.25 0 0 -1.000002 0 1 0 1.000002 0 0 20310.dat
0 STEP
1 19 -180.0002 -160 232.25 0.000001 0 1.000002 0 1 0 -1.000002 0 0.000001 98283.dat
1 84 -160.0002 -144 242.25 1.000002 0 0 0 1 0 0 0 1.000002 3024.dat
0 STEP
1 19 -180.0001 -64 112.2499 0 0 1 0 1 0 -1 0 0 98283.dat
1 84 -180.0004 -88 102.2501 1.000002 0 0 0 1 0 0 0 1.000002 3005.dat
0 STEP
1 19 -180.0005 -88 122.2501 0 0 -1.000002 0 1 0 1.000002 0 0 87087.dat
1 19 -166.0004 -78 122.25 -1.000002 0 0 0 1 0 0 0 -1.000002 64847.dat
0 STEP
1 19 -180.0005 -160 122.2501 1.000002 0 0 0 1 0 0 0 1.000002 13965.dat
0 STEP
1 19 -170.0001 -88 82.25 1 0 0 0 1 0 0 0 1 90195.dat
0 STEP
1 19 -180.0001 -112 82.25 1 0 0 0 1 0 0 0 1 2357.dat
1 19 -180.0001 -136 102.25 0 0 1 0 1 0 -1 0 0 87087.dat
1 19 -170.0001 -120 82.25 1 0 0 0 1 0 0 0 1 11476.dat
0 STEP
1 19 -180.0001 -160 112.25 0 0 1 0 1 0 -1 0 0 98283.dat
1 84 -160.0001 -144 82.25 1 0 0 0 1 0 0 0 1 3005.dat
1 19 -180.0001 -160 82.25 0 0 1 0 1 0 -1 0 0 32952.dat
1 84 -180.0002 -168 242.25 1 0 0 0 1 0 0 0 1 3024.dat
1 19 -180.0001 -168 152.25 0 0 1 0 1 0 -1 0 0 3460.dat
0 STEP
1 19 -180.0001 -168 192.25 0 0 -1 0 1 0 1 0 0 85984.dat
1 19 -180.0001 -168 152.25 0 0 -1 0 1 0 1 0 0 85984.dat
1 19 -198.0001 -100 82.25 0 1 0 -1 0 0 0 0 1 6636.dat
1 288 -198.0001 -126 102.25 0 1 0 0.707107 0 0.707107 0.707107 0 -0.707107 32607.dat
0 STEP
1 15 -240.0001 -48 202.25 1 0 0 0 1 0 0 0 1 6141.dat
1 15 -220.0001 -48 122.25 1 0 0 0 1 0 0 0 1 6141.dat
1 4 -240.0001 -56 202.25 1 0 0 0 1 0 0 0 1 98138.dat
1 4 -220.0001 -64 122.25 1 0 0 0 1 0 0 0 1 20952.dat
0 STEP
1 47 -280.0001 -32 162.2499 1 0 0 0 1 0 0 0 1 3062b.dat
1 33 -280.0001 -8 182.2499 1 0 0 0 1 0 0 0 1 54200.dat
1 15 -280.0001 -44.92 162.2499 1 0 0 0 1 0 0 0 1 48729b.dat
0 STEP
1 19 -40.0001 -64 232.25 0 0 -1 0 1 0 1 0 0 98283.dat
1 19 -40.0001 -88 222.25 0 0 1 0 1 0 -1 0 0 87087.dat
1 84 -40.0001 -88 242.25 1 0 0 0 1 0 0 0 1 3005.dat
1 19 -54.0001 -78 222.25 1 0 0 0 1 0 0 0 1 64847.dat
0 STEP
1 19 -40.0001 -112 242.25 0 0 -1 0 1 0 1 0 0 87087.dat
1 19 -40.0001 -160 222.25 -1 0 0 0 1 0 0 0 -1 13965.dat
1 19 -40.0001 -136 242.25 0 0 1 0 1 0 -1 0 0 20310.dat
0 STEP
1 19 -40.0001 -160 232.25 0 0 -1 0 1 0 1 0 0 98283.dat
1 84 -60.0001 -144 242.25 1 0 0 0 1 0 0 0 1 3024.dat
0 STEP
1 19 -40.0001 -64 112.25 0 0 -1 0 1 0 1 0 0 98283.dat
1 19 -40.0001 -88 122.25 0 0 1 0 1 0 -1 0 0 87087.dat
1 84 -40.0001 -88 102.25 1 0 0 0 1 0 0 0 1 3005.dat
1 19 -54.0001 -78 122.25 1 0 0 0 1 0 0 0 1 64847.dat
0 STEP
1 19 -40.0001 -160 122.25 1 0 0 0 1 0 0 0 1 13965.dat
1 19 -50 -88 82.25 1 0 0 0 1 0 0 0 1 90195.dat
0 STEP
1 19 -40 -112 82.25 0 0 -1 0 1 0 1 0 0 2357.dat
0 STEP
1 84 -40 -136 102.25 1 0 0 0 1 0 0 0 1 3005.dat
1 19 -50 -120 82.25 1 0 0 0 1 0 0 0 1 11476.dat
0 STEP
1 84 -60 -144 82.25 1 0 0 0 1 0 0 0 1 3005.dat
1 19 -40 -160 82.25 0 0 -1 0 1 0 1 0 0 32952.dat
1 19 -40 -160 112.25 0 0 -1 0 1 0 1 0 0 98283.dat
0 STEP
1 84 -40.0001 -168 242.25 1 0 0 0 1 0 0 0 1 3024.dat
1 19 -40 -168 152.25 0 0 1 0 1 0 -1 0 0 3460.dat
0 STEP
1 19 -40 -168 192.25 0 0 1 0 1 0 -1 0 0 85984.dat
1 19 -40 -168 152.25 0 0 1 0 1 0 -1 0 0 85984.dat
0 STEP
1 19 -22 -100 82.25 0 -1 0 1 0 0 0 0 1 6636.dat
1 288 -22.0001 -102 242.25 0 -1 0 0.707107 0 0.707107 -0.707107 0 0.707107 32607.dat
0 STEP
1 0 -170.0001 -118 62.25 0 0 -1 -0.258819 0.965926 0 0.965926 0.258819 0 23443.dat
1 0 -50 -118 62.25 0 0 -1 -0.258819 0.965926 0 0.965926 0.258819 0 23443.dat
1 57 -170.0001 -142.1482 55.7795 0 0 1 0.258819 0.965926 0 -0.965926 0.258819 0 37775.dat
1 57 -50 -144.6595 55.1066 0 0 1 0.258819 0.965926 0 -0.965926 0.258819 0 37775.dat
0 STEP
1 16 38.3308 0 70.5808 1 0 0 0 1 0 0 0 1 frog chamber
0 STEP
1 308 40 -72 102.25 1 0 0 0 1 0 0 0 1 3062b.dat
1 308 40 -72 62.25 1 0 0 0 1 0 0 0 1 3062b.dat
1 70 40 -80 82.25 0 0 1 0 1 0 -1 0 0 34103.dat
0 STEP
1 19 -160.0002 -216 242.2501 0 0 1 0 1 0 -1 0 0 13965.dat
1 19 -60.0001 -216 242.2501 0 0 -1 0 1 0 1 0 0 13965.dat
1 19 -159.9992 -216 82.2495 0 0 0.999996 0 1 0 -0.999996 0 0 13965.dat
1 19 -59.9997 -216 82.25 0 0 -1 0 1 0 1 0 0 13965.dat
0 STEP
1 19 -180.0002 -192 232.25 0 0 1 0 1 0 -1 0 0 3937.dat
1 19 -40 -192 232.25 0 0 -1 0 1 0 1 0 0 3937.dat
1 19 -180.0002 -192 112.2497 0 0 1 0 1 0 -1 0 0 3937.dat
1 19 -40 -192 112.25 0 0 -1.000004 0 1 0 1.000004 0 0 3937.dat
0 STEP
1 19 -180.0001 -192 82.25 0 0 1 0 1 0 -1 0 0 87087.dat
1 19 -40 -192 82.25 0 0 -1 0 1 0 1 0 0 87087.dat
0 STEP
1 19 -60.0001 -192 242.2501 0 0 -1 0 1 0 1 0 0 54200.dat
1 19 -160.0002 -192 242.2501 0 0 1 0 1 0 -1 0 0 54200.dat
1 19 -159.9993 -216 82.2495 0 0 1 0 1 0 -1 0 0 3040b.dat
1 19 -60 -216 82.25 0 0 -1 0 1 0 1 0 0 3040b.dat
0 STEP
1 19 -139.9993 -240 82.2495 0 0 1 0 1 0 -1 0 0 3040b.dat
1 19 -80 -240 82.25 0 0 -1 0 1 0 1 0 0 3040b.dat
1 19 -30 -182 82.25 0 -1 0 0 0 -1 1 0 0 61409b.dat
1 19 -190.0001 -180 82.25 0 1 0 0 0 -1 -1 0 0 61409b.dat
0 STEP
1 19 -109.9997 -224 132.25 0 0 1 0 1 0 -1 0 0 3795.dat
1 84 -109.9997 -232 102.25 0 0 1 0 1 0 -1 0 0 3021.dat
0 STEP
1 19 -109.9997 -232 192.25 0 0 1 0 1 0 -1 0 0 3795.dat
1 84 -110.0001 -224 222.25 0 0 1 0 1 0 -1 0 0 3021.dat
0 STEP
1 84 -109.9997 -240 222.25 0 0 1 0 1 0 -1 0 0 3021.dat
1 19 -109.9997 -240 132.25 0 0 1 0 1 0 -1 0 0 3795.dat
1 19 -109.9997 -248 242.25 1 0 0 0 1 0 0 0 1 15573.dat
1 70 -109.9997 -248 222.25 1 0 0 0 1 0 0 0 1 3023b.dat
1 19 -109.9997 -248 152.25 0 0 1 0 1 0 -1 0 0 3795.dat
0 STEP
1 84 -109.9997 -248 242.25 0 0 -1 0 1 0 1 0 0 35464.dat
1 71 -109.9997 -256 122.25 0 0 1 0 1 0 -1 0 0 3021.dat
0 STEP
1 0 -119.9997 -264 102.25 0 0 1 0 1 0 -1 0 0 36841.dat
1 0 -99.9997 -264 102.25 0 0 -1 0 1 0 1 0 0 36841.dat
1 0 -119.9997 -264 132.25 0 0 1 0 1 0 -1 0 0 99781.dat
1 0 -99.9997 -264 132.25 0 0 -1 0 1 0 1 0 0 99781.dat
0 STEP
1 70 -77.9997 -254 122.25 0 -1 0 0 0 -1 1 0 0 3623.dat
1 70 -141.9997 -254 122.25 0 1 0 0 0 -1 -1 0 0 3623.dat
0 STEP
1 19 -140.0002 -216 242.2501 0 0 1 0 1 0 -1 0 0 54200.dat
1 19 -80.0001 -216 242.2501 0 0 -1 0 1 0 1 0 0 54200.dat
0 STEP
1 19 -119.9997 -264 82.25 0 0 1 0 1 0 -1 0 0 3040b.dat
1 84 -100 -264 82.25 0 0 -1 0 1 0 1 0 0 3040b.dat
0 STEP
1 16 -73.8769 -207.3915 154.1591 0 -0.707107 -0.707107 0 0.707107 -0.707107 1 0 0 roof left
0 STEP
0 NOTE missing owl fig below
0 15 40 -80 72.25 1 0 0 0 1 0 0 0 1 92084pb03.dat
1 4 59.9999 -24 182.25 0 0 -1 0 1 0 1 0 0 33121.dat
0 STEP
1 16 -144.4273 -209.0876 150.4808 0.707107 0.707107 0 -0.707107 0.707107 0 0 0 1 roof right
0 STEP
1 0 -190.0002 -102 242.25 0 1 0 0 0 1 1 0 0 29111.dat
0 STEP
1 16 -239.9674 -14.5 222.2171 1 0 0 0 1 0 0 0 1 tree
0 STEP
1 212 -280.0001 -44.92 123.2499 1 0 0 0 1 0 0 0 1 64648.dat
0 STEP
1 16 -109.9997 -264 106.4375 -1 0 0 0 1 0 0 0 -1 steeple
0 STEP
1 378 -109.9998 -496 112.25 1 0 0 0 1 0 0 0 1 59900.dat
1 297 -109.9988 -510.1926 112.251 0 0 -1 0 1 0 1 0 0 48729b.dat
1 297 -117.9988 -510.1926 112.251 0 0 -1 0 -1 0 -1 0 0 4697b.dat
1 297 -97.9988 -510.1926 112.251 0 1 0 0 0 -1 -1 0 0 59900.dat
1 297 -117.9988 -525.1326 112.251 1 0 0 0 1 0 0 0 1 85861.dat
0 STEP
1 70 -55 -96 100 0 0 -1 -1 0 0 0 1 0 87585.dat
1 70 -165 -96 100 0 0 -1 -1 0 0 0 1 0 87585.dat
0 STEP
1 16 -110 -284 110.3 1 0 0 0 1 0 0 0 1 thing
0 STEP
0 NOFILE
0 FILE McGonnagal
0 McGonnagal
0 Name: McGonnagal
0 Author: 
0 CustomBrick
0 FlexibleBrickControlPointUnitLength -1
0 FlexibleBrickLockedControlPoint 
0 NumOfBricks 9
1 288 20.3934 -40 1.7145 0 0 1 0 1 0 -1 0 0 36036.dat
1 288 20.3934 -72 1.7145 0 0 1 0 1 0 -1 0 0 973.dat
1 288 20.3934 -63.0928 17.2891 0 -0.573576 0.819152 0.169703 0.807271 0.565257 -0.985495 0.139013 0.097338 3818.dat
1 288 20.3934 -63.0907 -13.8508 0 0 1 -0.170671 0.985328 0 -0.985328 -0.170671 0 3819.dat
1 78 1.7135 -53.9731 23.9331 -0.029469 0.17113 0.984808 0.002541 0.985245 -0.17113 -0.999563 -0.002541 -0.029469 3820.dat
1 78 10.3934 -45.2228 -22.0202 0.120682 0.696732 0.707107 -0.049255 0.715638 -0.696732 -0.991468 0.049255 0.120682 3820.dat
1 78 20.3934 -98 1.7145 1 0 0 0 1 0 0 0 1 3626b.dat
1 0 3.5326 -38.0997 -23.2092 0.520513 0.850317 -0.077643 -0.853575 0.520513 -0.021842 0.021842 0.077643 0.996742 36752a.dat
1 19 -27.6066 -54 21.7145 0 0 -1 -1 0 0 0 1 0 26603.dat
0 NOFILE
0 FILE Harry
0 Harry
0 Name: Harry
0 Author: 
0 CustomBrick
0 FlexibleBrickControlPointUnitLength -1
0 FlexibleBrickLockedControlPoint 
0 NumOfBricks 9
1 0 -8.419 -24 5.8848 0 0 -1 0 1 0 1 0 0 41879b.dat
1 0 -8.419 -56 5.8848 0 0 -1 0 1 0 1 0 0 973.dat
1 0 -8.419 -47.0897 21.4503 0 0 -1 -0.169703 0.985495 0 0.985495 0.169703 0 3819.dat
1 0 -8.419 -47.0928 -9.6898 0 0 -1 0.169703 0.985495 0 0.985495 -0.169703 0 3818.dat
1 78 1.081 -29.2169 -17.8416 0.119998 -0.69685 -0.707107 0.048984 0.715542 -0.69685 0.991565 0.048984 0.119998 3820.dat
1 78 1.581 -29.2138 29.6022 -0.050732 -0.705285 -0.707107 -0.11927 0.70723 -0.69685 0.991565 0.048984 -0.119999 3820.dat
1 78 -8.419 -80 5.8848 1 0 0 0 1 0 0 0 1 3626b.dat
1 0 -7.4191 -77.5 5.3848 0 0 -1 0 1 0 1 0 0 36762.dat
1 308 13.8522 -25.7094 -19.5605 0.52039 -0.850431 0.077211 0.853653 0.52039 -0.021714 -0.021714 0.077211 0.996778 36752a.dat
0 NOFILE
0 FILE Dean
0 Dean
0 Name: Dean
0 Author: 
0 CustomBrick
0 FlexibleBrickControlPointUnitLength -1
0 FlexibleBrickLockedControlPoint 
0 NumOfBricks 9
1 0 -6.3637 -24 5.7208 0 0 -1 0 1 0 1 0 0 41879b.dat
1 0 -6.3637 -56 5.7208 0 0 1 0 1 0 -1 0 0 973.dat
1 0 -6.3637 -47.0928 21.2955 0 0 -1 -0.169703 0.985495 0 0.985495 0.169703 0 3819.dat
1 0 -6.3637 -47.0897 -9.8446 0 0 -1 0.169703 0.985495 0 0.985495 -0.169703 0 3818.dat
1 370 3.1363 -29.2138 -17.9965 0.119998 -0.69685 -0.707107 0.048984 0.715542 -0.69685 0.991565 0.048984 0.119998 3820.dat
1 370 3.6363 -29.2169 29.4473 -0.050732 -0.705285 -0.707107 -0.11927 0.70723 -0.69685 0.991565 0.048984 -0.119999 3820.dat
1 370 -6.3637 -80 5.7208 1 0 0 0 1 0 0 0 1 3626b.dat
0 NOTE Missing hair piece below
0 0 -7.6137 -60 5.7209 0 0 -1 0 1 0 1 0 0 79688.dat
1 308 5.6598 -19.4356 -18.7849 0.52039 -0.850431 0.077211 0.853653 0.52039 -0.021714 -0.021714 0.077211 0.996778 36752a.dat
0 NOFILE
0 FILE Hermoine
0 Hermoine
0 Name: Hermoine
0 Author: 
0 CustomBrick
0 FlexibleBrickControlPointUnitLength -1
0 FlexibleBrickLockedControlPoint 
0 NumOfBricks 10
1 0 -6.2173 -20 4.4792 0 0 -1 0 1 0 1 0 0 16709p0d.dat
1 0 -6.2173 -20 4.4792 0 0 1 0 1 0 -1 0 0 65753.dat
1 0 -6.2174 -56 4.4792 0 0 -1 0 1 0 1 0 0 973.dat
1 0 -6.2198 -47.0928 -11.0955 0 0 -1.000007 0.169703 0.985495 0 0.985502 -0.169704 0 3818.dat
1 0 -6.2174 -47.0907 20.0446 0 0 -1 -0.170671 0.985328 0 0.985328 0.170671 0 3819.dat
1 78 3.2803 -29.217 -19.2474 -0.119999 0.696848 -0.70711 -0.048984 -0.715545 -0.696848 -0.991565 -0.048984 0.119999 3820.dat
1 78 3.7826 -29.2228 28.2139 0.051229 0.705249 -0.707107 0.119745 -0.707266 -0.696732 -0.991482 -0.04898 -0.120682 3820.dat
1 78 -6.2174 -80 4.4792 1 0 0 0 1 0 0 0 1 3626b.dat
0 NOTE missing hair piece below
0 70 -6.2174 -80 4.4792 0 0 -1 0 1 0 1 0 0 37697.dat
1 28 6.4607 -15.4604 -20.3118 0.866165 -0.499736 0.004739 0.499736 0.865997 -0.017697 0.004739 0.017697 0.999832 36752a.dat
0 NOFILE
0 FILE Neville
0 Neville
0 Name: Neville
0 Author: 
0 CustomBrick
0 FlexibleBrickControlPointUnitLength -1
0 FlexibleBrickLockedControlPoint 
0 NumOfBricks 9
1 0 -4.4375 -24 -0.0001 0 0 -1 0 1 0 1 0 0 41879b.dat
1 0 -4.4375 -56 -0.0001 0 0 1 0 1 0 -1 0 0 973.dat
1 0 -4.4376 -47.0928 15.5745 0 0 -1 -0.169703 0.985495 0 0.985495 0.169703 0 3819.dat
1 0 -4.4376 -47.0907 -15.5655 0 0 -1 0.170671 0.985328 0 0.985328 -0.170671 0 3818.dat
1 78 -4.4375 -80 -0.0001 1 0 0 0 1 0 0 0 1 3626b.dat
1 78 5.0624 -29.2228 -23.7348 0.063019 -0.704293 -0.707107 0.107897 0.70917 -0.696732 0.992163 -0.032387 0.120683 3820.dat
1 78 5.5624 -29.2169 23.7263 -0.108324 -0.69876 -0.707107 -0.060947 0.714622 -0.69685 0.992246 -0.03239 -0.119998 3820.dat
1 308 -4.4376 -80 -0.0001 0 0 -1 0 1 0 1 0 0 62810.dat
1 308 12.1356 -22.23 -24.9446 0.514247 -0.857641 -0.001449 0.857642 0.514247 0.000401 0.000401 -0.001449 0.999999 36752a.dat
0 NOFILE
0 FILE 1
0 1
0 Name: 1
0 Author: 
0 CustomBrick
0 FlexibleBrickControlPointUnitLength -1
0 FlexibleBrickLockedControlPoint 
0 NumOfBricks 50
1 272 60 -8 -92.4 1 0 0 0 1 0 0 0 1 30565.dat
1 72 70 -32 -62.4 0 0 -1 0 1 0 1 0 0 3040b.dat
0 STEP
1 308 50 -32 -62.4 1 0 0 0 1 0 0 0 1 3062b.dat
1 72 10 -32 -72.4 -1 0 0 0 1 0 0 0 -1 3002.dat
0 STEP
1 71 50 -32 -82.4 1 0 0 0 1 0 0 0 1 13548.dat
0 STEP
1 272 10 -8 -82.4 -1 0 0 0 1 0 0 0 -1 30357.dat
0 STEP
1 72 30 -32 -102.4 0 0 1 0 1 0 -1 0 0 3040b.dat
1 33 -10 -8 -102.3999 1 0 0 0 1 0 0 0 1 54200.dat
0 STEP
1 272 -20 -8 47.6 0 0 1 0 1 0 -1 0 0 2445.dat
0 STEP
1 71 -30 -32 -72.4 0 0 1 0 1 0 -1 0 0 30136.dat
1 72 0 -32 -42.4 1 0 0 0 1 0 0 0 1 3004.dat
0 STEP
1 0 -10 -16 -12.4 0 0 -1 0 1 0 1 0 0 60471.dat
1 70 -10 -24 -12.4 0 0 1 0 1 0 -1 0 0 3023b.dat
1 70 -10 -32 -12.4 0 0 1 0 1 0 -1 0 0 3023b.dat
0 STEP
1 72 0 -32 17.6 1 0 0 0 1 0 0 0 1 3004.dat
1 71 20 -32 47.6 -1 0 0 0 1 0 0 0 -1 3001.dat
1 71 -0 -32 107.6 0 0 -1 0 1 0 1 0 0 3001.dat
1 71 -0 -32 157.6 -1 0 0 0 1 0 0 0 -1 95820.dat
0 STEP
1 308 -30 -32 -22.4 1 0 0 0 1 0 0 0 1 3062b.dat
1 308 -30 -32 17.6 1 0 0 0 1 0 0 0 1 3062b.dat
1 308 -30 -32 57.6 1 0 0 0 1 0 0 0 1 3062b.dat
1 308 -30 -32 97.6 1 0 0 0 1 0 0 0 1 3062b.dat
0 STEP
1 71 10 -8 -52.4 0 0 1 0 1 0 -1 0 0 3023b.dat
1 272 60 -8 107.6 0 0 -1 0 1 0 1 0 0 6106.dat
1 272 80 -8 37.6 1 0 0 0 1 0 0 0 1 3710.dat
1 71 10 -8 37.6 0 0 1 0 1 0 -1 0 0 2420.dat
0 STEP
1 378 70 -32 37.6 -1 0 0 0 1 0 0 0 -1 3040b.dat
1 71 90 -32 37.6 0 0 -1 0 1 0 1 0 0 13548.dat
1 72 40 -32 97.6 0 0 1 0 1 0 -1 0 0 3002.dat
1 378 30 -8 137.6 -1 0 0 0 1 0 0 0 -1 54200.dat
1 33 30 -8 157.6 0 0 -1 0 1 0 1 0 0 54200.dat
0 STEP
1 72 -80 -32 137.6 1 0 0 0 1 0 0 0 1 92950.dat
1 72 -80.0001 -32 157.6 1 0 0 0 1 0 0 0 1 92950.dat
1 28 -80.0001 -40 147.6 1 0 0 0 1 0 0 0 1 3020.dat
0 STEP
1 70 -20 -40 157.6 1 0 0 0 1 0 0 0 1 3023b.dat
1 28 -20 -40 87.6 0 0 1 0 1 0 -1 0 0 3795.dat
1 28 -20 -40 -32.4 0 0 1 0 1 0 -1 0 0 3795.dat
0 STEP
1 71 30 -40 -92.4 1 0 0 0 1 0 0 0 1 92946.dat
1 28 30 -40 137.6 0 0 -1 0 1 0 1 0 0 2450.dat
1 28 20 -40 77.6 0 0 1 0 1 0 -1 0 0 3021.dat
1 28 10 -40 -12.4 0 0 1 0 1 0 -1 0 0 6636.dat
1 28 30 -40 -12.4 0 0 1 0 1 0 -1 0 0 6636.dat
0 STEP
1 378 20 -32 -82.4 0 0 1 0 1 0 -1 0 0 11477.dat
1 71 50 -40 -62.4 0 0 1 0 1 0 -1 0 0 2420.dat
1 71 60 -40 37.6 1 0 0 0 1 0 0 0 1 3023b.dat
1 330 50 -40 77.6 0 0 1 0 1 0 -1 0 0 3623.dat
0 STEP
1 71 60 -48 -12.4 0 0 1 0 1 0 -1 0 0 3795.dat
1 72 60 -56 -52.4 0 0 -1 0 1 0 1 0 0 26601.dat
1 72 50 -64 -62.4 1 0 0 0 1 0 0 0 1 28192.dat
0 STEP
1 72 70 -56 37.6 0 0 -1 0 1 0 1 0 0 28192.dat
0 STEP
0 NOFILE
0 FILE 2
0 2
0 Name: 2
0 Author: 
0 CustomBrick
0 FlexibleBrickControlPointUnitLength -1
0 FlexibleBrickLockedControlPoint 
0 NumOfBricks 28
1 272 105.8571 -8 -7.5714 1 0 0 0 1 0 0 0 1 3710.dat
1 71 135.8571 -32 -17.5714 0 0 -1 0 1 0 1 0 0 95820.dat
1 272 25.8571 -8 -37.5714 1 0 0 0 1 0 0 0 1 2445.dat
0 STEP
1 72 105.8571 -32 -7.5714 0 0 1 0 1 0 -1 0 0 3002.dat
1 272 105.8571 -8 42.4286 0 0 -1 0 1 0 1 0 0 30565.dat
0 STEP
1 70 95.8571 -32 32.4286 -1 0 0 0 1 0 0 0 -1 3040b.dat
1 308 75.8571 -32 -47.5714 1 0 0 0 1 0 0 0 1 3062b.dat
1 308 35.8572 -32 -47.5714 1 0 0 0 1 0 0 0 1 3062b.dat
1 308 -4.1428 -32 -47.5714 1 0 0 0 1 0 0 0 1 3062b.dat
1 308 -44.1429 -32 -47.5714 1 0 0 0 1 0 0 0 1 3062b.dat
0 STEP
1 72 55.8571 -32 -17.5714 1 0 0 0 1 0 0 0 1 3002.dat
1 72 55.8572 -32 22.4286 1 0 0 0 1 0 0 0 1 3002.dat
0 STEP
1 272 55.8572 -8 42.4286 0 0 1 0 1 0 -1 0 0 3710.dat
1 297 55.8571 -8 -7.5714 1 0 0 0 1 0 0 0 1 85861.dat
0 STEP
1 272 -14.1428 -8 52.4286 0 0 1 0 1 0 -1 0 0 54383.dat
1 272 -14.1428 -8 2.4286 1 0 0 0 1 0 0 0 1 3795.dat
0 STEP
1 72 -4.1428 -32 -17.5714 1 0 0 0 1 0 0 0 1 3002.dat
1 71 -44.1428 -32 -7.5714 0 0 1 0 1 0 -1 0 0 3622.dat
1 71 -94.1429 -32 -47.5714 1 0 0 0 1 0 0 0 1 30136.dat
0 STEP
1 71 15.8572 -32 12.4286 -1 0 0 0 1 0 0 0 -1 4286.dat
1 72 -4.1428 -32 12.4286 -1 0 0 0 1 0 0 0 -1 3046.dat
0 STEP
1 72 -84.1429 -32 -17.5714 1 0 0 0 1 0 0 0 1 3002.dat
1 71 -64.1429 -32 12.4286 -1 0 0 0 1 0 0 0 -1 13548.dat
0 STEP
1 272 -114.1428 -8 -37.5714 0 0 1 0 1 0 -1 0 0 26601.dat
1 272 -84.1428 -8 -7.5714 0 0 -1 0 1 0 1 0 0 30357.dat
0 STEP
1 33 -44.1429 -8 32.4286 -1 0 0 0 1 0 0 0 -1 54200.dat
1 33 35.8572 -8 52.4286 -1 0 0 0 1 0 0 0 -1 54200.dat
1 33 -124.1428 -8 -7.5714 0 0 1 0 1 0 -1 0 0 54200.dat
0 STEP
0 NOFILE
0 FILE Frog Chamber
0 Frog Chamber
0 Name: Frog Chamber
0 Author: 
0 CustomBrick
0 FlexibleBrickControlPointUnitLength -1
0 FlexibleBrickLockedControlPoint 
0 NumOfBricks 16
1 71 -28.3308 -8 1.6692 0 0 1 0 1 0 -1 0 0 3020.dat
1 71 -38.3308 -16 1.6692 0 0 1 0 1 0 -1 0 0 11476.dat
0 STEP
1 378 -38.3308 -8 21.6692 -1 0 0 0 1 0 0 0 -1 11477.dat
1 72 -38.3308 -24 -8.3308 0 0 1 0 1 0 -1 0 0 25269.dat
1 288 -8.3308 -16 1.6692 1 0 0 0 1 0 0 0 1 87580.dat
0 STEP
1 71 1.6692 -8 21.6692 0 0 -1 0 1 0 1 0 0 99207.dat
1 71 1.6692 -8 -18.3308 0 0 -1 0 1 0 1 0 0 99207.dat
0 STEP
1 72 39.6692 -10 -28.3308 0 -1 0 0 0 1 -1 0 0 3040b.dat
1 71 39.6692 -10 11.6692 0 -1 0 0 0 1 -1 0 0 3038.dat
0 STEP
1 378 47.6692 -10 1.6692 0 -1 0 0 0 1 -1 0 0 32028.dat
1 72 39.6692 -10 1.6692 0 -1 0 1 0 0 0 0 1 93273.dat
0 STEP
1 71 1.6692 -32 -28.3308 0 0 1 0 1 0 -1 0 0 4286.dat
1 72 1.6692 -32 31.6692 0 0 1 0 1 0 -1 0 0 3040b.dat
0 STEP
1 72 1.6692 -40 -28.3308 0 0 1 0 1 0 -1 0 0 25269.dat
1 72 1.6692 -40 31.6692 -1 0 0 0 1 0 0 0 -1 25269.dat
1 330 -9.0379 -16 0.9621 0.707107 0 0.707107 0 1 0 -0.707107 0 0.707107 33320.dat
0 STEP
0 NOFILE
0 FILE Roof Left
0 Roof Left
0 Name: Roof Left
0 Author: 
0 CustomBrick
0 FlexibleBrickControlPointUnitLength -1
0 FlexibleBrickLockedControlPoint 
0 NumOfBricks 11
1 72 -21.9091 -24 -11.9091 0 0 1 0 1 0 -1 0 0 3020.dat
1 72 -21.9091 -32 18.0909 1 0 0 0 1 0 0 0 1 2431.dat
1 288 -51.9091 -24 -11.9091 0 0 1 0 1 0 -1 0 0 3710.dat
1 72 18.0909 -32 -41.9091 1 0 0 0 1 0 0 0 1 4162.dat
0 STEP
1 72 38.0909 -24 8.0909 0 0 1 0 1 0 -1 0 0 3032.dat
1 72 8.091 -32 48.0909 0 0 1 0 1 0 -1 0 0 3069b.dat
1 72 58.0909 -32 58.0909 1 0 0 0 1 0 0 0 1 2431.dat
1 72 88.0909 -24 8.0909 0 0 1 0 1 0 -1 0 0 3666.dat
1 70 -41.9091 -16 -41.9091 1 0 0 0 1 0 0 0 1 6134.dat
1 70 78.0909 -16 -41.9091 1 0 0 0 1 0 0 0 1 6134.dat
1 330 -51.9091 -32 -1.9091 0.707107 0 0.707107 0 1 0 -0.707107 0 0.707107 32607.dat
0 STEP
0 NOFILE
0 FILE Roof Right
0 Roof Right
0 Name: Roof Right
0 Author: 
0 CustomBrick
0 FlexibleBrickControlPointUnitLength -1
0 FlexibleBrickLockedControlPoint 
0 NumOfBricks 13
1 72 -14.3077 -24 -18.2308 1 0 0 0 1 0 0 0 1 3020.dat
1 288 15.6923 -32 -18.2308 0 0 1 0 1 0 -1 0 0 3710.dat
1 288 -14.3077 -24 -48.2308 -1 0 0 0 1 0 0 0 -1 3710.dat
1 72 -44.3077 -32 21.7692 0 0 1 0 1 0 -1 0 0 4162.dat
1 72 5.6923 -24 41.7692 1 0 0 0 1 0 0 0 1 3032.dat
0 STEP
1 72 45.6923 -32 11.7692 1 0 0 0 1 0 0 0 1 3069b.dat
1 72 55.6923 -32 61.7692 0 0 1 0 1 0 -1 0 0 2431.dat
1 72 5.6923 -24 91.7692 1 0 0 0 1 0 0 0 1 3666.dat
1 70 -44.3077 -16 -38.2308 0 0 1 0 1 0 -1 0 0 6134.dat
1 70 -44.3077 -16 81.7692 0 0 1 0 1 0 -1 0 0 6134.dat
1 330 -4.3077 -32 -48.2308 -0.707107 0 0.707107 0 1 0 -0.707107 0 -0.707107 32607.dat
1 288 -4.3077 -32 11.7692 -0.707107 0 0.707107 0 1 0 -0.707107 0 -0.707107 32607.dat
1 330 15.6923 -40 -8.2308 -0.707107 0 0.707107 0 1 0 -0.707107 0 -0.707107 32607.dat
0 STEP
0 NOFILE
0 FILE Tree
0 Tree
0 Name: Tree
0 Author: 
0 CustomBrick
0 FlexibleBrickControlPointUnitLength -1
0 FlexibleBrickLockedControlPoint 
0 NumOfBricks 7
1 70 -0.0328 -18 0.0329 1 0 0 0 1 0 0 0 1 63965.dat
0 STEP
1 2 -0.0328 -110.11 0.0329 0 0 -1 0 -1 0 -1 0 0 2682a.dat
1 288 -0.0328 -102.11 0.0329 -1 0 0 0 -1 0 0 0 1 85861.dat
1 288 -0.0329 -94.11 0.0329 1 0 0 0 -1 0 0 0 -1 2682a.dat
1 288 -0.0328 -86.11 0.0329 0 0 -1 0 -1 0 -1 0 0 85861.dat
1 288 0.1972 -82.11 -0.1971 -1 0 0 0 -1 0 0 0 1 2682a.dat
1 10 -0.0328 -118.11 0.0329 0 0 -1 0 -1 0 -1 0 0 11610.dat
0 STEP
0 NOFILE
0 FILE Steeple
0 Steeple
0 Name: Steeple
0 Author: 
0 CustomBrick
0 FlexibleBrickControlPointUnitLength -1
0 FlexibleBrickLockedControlPoint 
0 NumOfBricks 32
1 70 0 -8 -5.8125 0 0 1 0 1 0 -1 0 0 3020.dat
1 70 0 -16 24.1875 1 0 0 0 1 0 0 0 1 3023b.dat
1 70 0 -16 -35.8125 1 0 0 0 1 0 0 0 1 2412b.dat
0 STEP
1 70 0 -16 4.1875 1 0 0 0 1 0 0 0 1 41740.dat
1 70 0 -16 -15.8125 1 0 0 0 1 0 0 0 1 41740.dat
0 STEP
1 70 -30 -8 4.1875 -1 0 0 0 1 0 0 0 -1 73825.dat
1 70 30 -8 4.1875 -1 0 0 0 1 0 0 0 -1 73825.dat
1 70 30 -8 -15.8125 1 0 0 0 1 0 0 0 1 73825.dat
1 70 -30 -8 -15.8125 1 0 0 0 1 0 0 0 1 73825.dat
0 STEP
1 70 30 -20 -29.8125 0 0 -1 -1 0 0 0 1 0 85984.dat
1 70 -30 -20 -29.8125 0 0 1 1 0 0 0 1 0 85984.dat
1 70 -30 -20 18.1875 0 0 1 -1 0 0 0 -1 0 85984.dat
1 70 30 -20 18.1875 0 0 -1 1 0 0 0 -1 0 85984.dat
0 STEP
1 70 0 -24 24.1875 1 0 0 0 1 0 0 0 1 3023b.dat
1 70 0 -72 24.1875 -1 0 0 0 1 0 0 0 -1 90195.dat
1 70 30 -24 -5.8125 0 0 1 0 1 0 -1 0 0 3023b.dat
1 70 -30 -24 -5.8125 0 0 1 0 1 0 -1 0 0 3023b.dat
1 70 -30 -72 -5.8125 0 0 1 0 1 0 -1 0 0 90195.dat
1 70 30.0001 -72 -5.8125 0 0 -1 0 1 0 1 0 0 90195.dat
1 70 0 -80 24.1875 1 0 0 0 1 0 0 0 1 3023b.dat
0 STEP
1 70 -30 -80 4.1875 -1 0 0 0 1 0 0 0 -1 79389.dat
1 70 30.0001 -80 4.1875 -1 0 0 0 1 0 0 0 -1 79389.dat
1 70 30.0001 -80 -15.8125 1 0 0 0 1 0 0 0 1 79389.dat
1 70 -30 -80 -15.8125 1 0 0 0 1 0 0 0 1 79389.dat
0 STEP
1 70 30.0001 -60 -29.8125 0 0 -1 -1 0 0 0 1 0 85984.dat
1 70 -30 -60 -29.8125 0 0 1 1 0 0 0 1 0 85984.dat
1 70 -29.9998 -60 18.1875 0 0 1 -1 0 0 0 -1 0 85984.dat
1 70 30.0001 -60 18.1875 0 0 -1 1 0 0 0 -1 0 85984.dat
0 STEP
1 72 0.0001 -88 -5.8125 1 0 0 0 1 0 0 0 1 60474.dat
1 72 0.0001 -160 -5.8125 -1 0 0 0 1 0 0 0 -1 38317.dat
1 72 0.0001 -160 -5.8125 1 0 0 0 1 0 0 0 1 38317.dat
0 STEP
1 72 0.0001 -208 -5.8125 1 0 0 0 1 0 0 0 1 3942c.dat
0 STEP
0 NOFILE
0 FILE Thing
0 Thing
0 Name: Thing
0 Author: 
0 CustomBrick
0 FlexibleBrickControlPointUnitLength -1
0 FlexibleBrickLockedControlPoint 
0 NumOfBricks 3
1 19 0 -16 12 1 0 0 0 1 0 0 0 1 4304.dat
1 84 0 -16 12 -1 0 0 0 1 0 0 0 -1 85984.dat
1 297 0 -30 -6 -1 0 0 0 0 1 0 1 0 22385.dat
0 NOFILE
