0 40896 The X-Files - Scully's Lab
0 SetNumber: 40896
0 Name: The X-Files - Scully's Lab
1 0 134.654500 -8.000000 -50.750820 0.000000 0.000000 1.000000 0.000000 1.000000 0.000000 -1.000000 0.000000 0.000000 91988.dat
1 71 94.654510 -16.000000 29.249180 0.000000 0.000000 1.000000 0.000000 1.000000 0.000000 -1.000000 0.000000 0.000000 3958.dat
0 STEP
1 0 34.654500 -8.000000 79.249180 -1.000000 0.000000 0.000000 0.000000 1.000000 0.000000 0.000000 0.000000 -1.000000 3460.dat
0 STEP
1 71 -25.345480 -16.000000 29.249170 0.000000 0.000000 1.000000 0.000000 1.000000 0.000000 -1.000000 0.000000 0.000000 3958.dat
1 0 -65.345480 -8.000000 -50.750840 0.000000 0.000000 1.000000 0.000000 1.000000 0.000000 -1.000000 0.000000 0.000000 91988.dat
0 STEP
1 1 34.654520 -8.000000 -50.750820 0.000000 0.000000 1.000000 0.000000 1.000000 0.000000 -1.000000 0.000000 0.000000 60474.dat
0 STEP
1 71 34.654500 -16.000000 -50.750810 -1.000000 0.000000 0.000000 0.000000 1.000000 0.000000 0.000000 0.000000 -1.000000 2445.dat
0 STEP
1 71 94.654530 -16.000000 -130.750800 0.000000 0.000000 1.000000 0.000000 1.000000 0.000000 -1.000000 0.000000 0.000000 3958.dat
1 71 -25.345480 -16.000000 -130.750800 0.000000 0.000000 1.000000 0.000000 1.000000 0.000000 -1.000000 0.000000 0.000000 3958.dat
1 0 34.654520 -8.000000 -180.750800 -1.000000 0.000000 0.000000 0.000000 1.000000 0.000000 0.000000 0.000000 -1.000000 3460.dat
0 STEP
1 0 -5.345500 -24.000000 79.249180 -1.000000 0.000000 0.000000 0.000000 1.000000 0.000000 0.000000 0.000000 -1.000000 3460.dat
1 0 144.654500 -24.000000 -70.750810 0.000000 0.000000 -1.000000 0.000000 1.000000 0.000000 1.000000 0.000000 0.000000 3460.dat
1 0 84.654510 -24.000000 69.249180 0.000000 0.000000 1.000000 0.000000 1.000000 0.000000 -1.000000 0.000000 0.000000 3023b.dat
1 0 144.654500 -24.000000 -170.750800 0.000000 0.000000 1.000000 0.000000 1.000000 0.000000 -1.000000 0.000000 0.000000 3023b.dat
1 0 84.654510 -24.000000 -0.750820 1.000000 0.000000 0.000000 0.000000 1.000000 0.000000 0.000000 0.000000 1.000000 77844.dat
0 STEP
1 72 -75.345480 -48.000000 79.249160 0.000000 0.000000 1.000000 0.000000 1.000000 0.000000 -1.000000 0.000000 0.000000 3005.dat
1 72 -25.345480 -48.000000 79.249200 -1.000000 0.000000 0.000000 0.000000 1.000000 0.000000 0.000000 0.000000 -1.000000 3010.dat
1 72 54.654500 -48.000000 79.249200 -1.000000 0.000000 0.000000 0.000000 1.000000 0.000000 0.000000 0.000000 -1.000000 3010.dat
1 72 84.654510 -48.000000 29.249180 0.000000 0.000000 -1.000000 0.000000 1.000000 0.000000 1.000000 0.000000 0.000000 3010.dat
1 72 114.654500 -48.000000 -0.750820 -1.000000 0.000000 0.000000 0.000000 1.000000 0.000000 0.000000 0.000000 -1.000000 3004.dat
1 72 144.654500 -48.000000 -90.750810 0.000000 0.000000 1.000000 0.000000 1.000000 0.000000 -1.000000 0.000000 0.000000 6111.dat
0 STEP
1 0 54.654520 -24.000000 49.249170 -1.000000 0.000000 0.000000 0.000000 1.000000 0.000000 0.000000 0.000000 -1.000000 33909.dat
1 0 14.654520 -24.000000 49.249170 -1.000000 0.000000 0.000000 0.000000 1.000000 0.000000 0.000000 0.000000 -1.000000 33909.dat
1 0 -25.345480 -24.000000 49.249170 0.000000 0.000000 -1.000000 0.000000 1.000000 0.000000 1.000000 0.000000 0.000000 33909.dat
1 0 -65.345480 -24.000000 49.249160 0.000000 0.000000 1.000000 0.000000 1.000000 0.000000 -1.000000 0.000000 0.000000 33909.dat
1 0 34.654510 -24.000000 9.249180 -1.000000 0.000000 0.000000 0.000000 1.000000 0.000000 0.000000 0.000000 -1.000000 87079.dat
1 0 -45.345480 -24.000000 9.249180 -1.000000 0.000000 0.000000 0.000000 1.000000 0.000000 0.000000 0.000000 -1.000000 87079.dat
0 STEP
1 72 84.654520 -24.000000 -90.750810 0.000000 0.000000 1.000000 0.000000 1.000000 0.000000 -1.000000 0.000000 0.000000 4162.dat
1 0 54.654520 -24.000000 -50.750820 0.000000 0.000000 1.000000 0.000000 1.000000 0.000000 -1.000000 0.000000 0.000000 65509.dat
1 0 54.654520 -24.000000 -130.750800 0.000000 0.000000 1.000000 0.000000 1.000000 0.000000 -1.000000 0.000000 0.000000 65509.dat
1 0 -25.345500 -24.000000 -30.750830 -1.000000 0.000000 0.000000 0.000000 1.000000 0.000000 0.000000 0.000000 -1.000000 65509.dat
1 0 -25.345480 -24.000000 -150.750800 -1.000000 0.000000 0.000000 0.000000 1.000000 0.000000 0.000000 0.000000 -1.000000 65509.dat
1 0 24.654520 -24.000000 -50.750820 0.000000 0.000000 1.000000 0.000000 1.000000 0.000000 -1.000000 0.000000 0.000000 2431.dat
1 0 24.654530 -24.000000 -130.750800 0.000000 0.000000 1.000000 0.000000 1.000000 0.000000 -1.000000 0.000000 0.000000 2431.dat
1 0 34.654520 -24.000000 -180.750800 -1.000000 0.000000 0.000000 0.000000 1.000000 0.000000 0.000000 0.000000 -1.000000 2431.dat
1 0 -45.345470 -24.000000 -180.750800 -1.000000 0.000000 0.000000 0.000000 1.000000 0.000000 0.000000 0.000000 -1.000000 2431.dat
1 0 -75.345480 -24.000000 -130.750800 0.000000 0.000000 -1.000000 0.000000 1.000000 0.000000 1.000000 0.000000 0.000000 2431.dat
1 0 -75.345470 -24.000000 -50.750820 0.000000 0.000000 -1.000000 0.000000 1.000000 0.000000 1.000000 0.000000 0.000000 2431.dat
1 0 -25.345500 -24.000000 -60.750830 1.000000 0.000000 0.000000 0.000000 1.000000 0.000000 0.000000 0.000000 1.000000 2431.dat
1 0 -25.345480 -24.000000 -120.750800 1.000000 0.000000 0.000000 0.000000 1.000000 0.000000 0.000000 0.000000 1.000000 2431.dat
0 STEP
1 72 84.654510 -72.000000 49.249180 0.000000 0.000000 1.000000 0.000000 1.000000 0.000000 -1.000000 0.000000 0.000000 3010.dat
1 72 114.654500 -72.000000 -0.750800 -1.000000 0.000000 0.000000 0.000000 1.000000 0.000000 0.000000 0.000000 -1.000000 3010.dat
1 72 144.654500 -72.000000 -50.750820 0.000000 0.000000 1.000000 0.000000 1.000000 0.000000 -1.000000 0.000000 0.000000 3010.dat
1 72 144.654500 -72.000000 -130.750800 0.000000 0.000000 1.000000 0.000000 1.000000 0.000000 -1.000000 0.000000 0.000000 3010.dat
1 72 144.654500 -72.000000 -180.750800 0.000000 0.000000 1.000000 0.000000 1.000000 0.000000 -1.000000 0.000000 0.000000 3005.dat
0 STEP
1 72 64.654520 -48.000000 39.249180 -1.000000 0.000000 0.000000 0.000000 1.000000 0.000000 0.000000 0.000000 -1.000000 2310.dat
1 72 4.654510 -48.000000 39.249170 -1.000000 0.000000 0.000000 0.000000 1.000000 0.000000 0.000000 0.000000 -1.000000 2310.dat
1 0 34.654500 -56.000000 59.249180 -1.000000 0.000000 0.000000 0.000000 1.000000 0.000000 0.000000 0.000000 -1.000000 2431.dat
1 0 34.654520 -40.000000 39.249180 -1.000000 0.000000 0.000000 0.000000 1.000000 0.000000 0.000000 0.000000 -1.000000 2431.dat
0 STEP
1 0 104.654500 -24.000000 -180.750800 -1.000000 0.000000 0.000000 0.000000 1.000000 0.000000 0.000000 0.000000 -1.000000 63864.dat
1 0 114.654500 -64.000000 -20.750820 -1.000000 0.000000 0.000000 0.000000 1.000000 0.000000 0.000000 0.000000 -1.000000 3245c.dat
1 0 114.654500 -64.000000 -160.750800 -1.000000 0.000000 0.000000 0.000000 1.000000 0.000000 0.000000 0.000000 -1.000000 3245c.dat
1 71 124.654500 -64.000000 -90.750810 0.000000 0.000000 1.000000 0.000000 1.000000 0.000000 -1.000000 0.000000 0.000000 15254.dat
0 STEP
1 1 104.654500 -24.000000 -90.750810 0.000000 0.000000 1.000000 0.000000 1.000000 0.000000 -1.000000 0.000000 0.000000 3666.dat
1 71 104.654500 -64.000000 -50.750820 0.000000 0.000000 1.000000 0.000000 1.000000 0.000000 -1.000000 0.000000 0.000000 22885.dat
1 71 104.654500 -64.000000 -130.750800 0.000000 0.000000 1.000000 0.000000 1.000000 0.000000 -1.000000 0.000000 0.000000 22885.dat
0 STEP
1 15 104.654500 -32.000000 -90.750810 0.000000 0.000000 1.000000 0.000000 1.000000 0.000000 -1.000000 0.000000 0.000000 35480.dat
1 15 104.654500 -40.000000 -90.750810 0.000000 0.000000 1.000000 0.000000 1.000000 0.000000 -1.000000 0.000000 0.000000 35480.dat
0 STEP
1 71 104.654500 -48.000000 -90.750810 0.000000 0.000000 1.000000 0.000000 1.000000 0.000000 -1.000000 0.000000 0.000000 15573.dat
1 43 104.654500 -56.000000 -90.750810 0.000000 0.000000 1.000000 0.000000 1.000000 0.000000 -1.000000 0.000000 0.000000 3069b.dat
0 STEP
1 0 86.654520 -44.000000 -90.750810 0.000000 1.000000 0.000000 0.000000 0.000000 -1.000000 -1.000000 0.000000 0.000000 3034.dat
0 STEP
1 0 78.654510 -54.000000 -30.750820 0.000000 1.000000 0.000000 0.000000 0.000000 -1.000000 -1.000000 0.000000 0.000000 15573.dat
1 0 78.654510 -34.000000 -30.750820 0.000000 1.000000 0.000000 0.000000 0.000000 -1.000000 -1.000000 0.000000 0.000000 15573.dat
1 0 78.654530 -54.000000 -150.750800 0.000000 1.000000 0.000000 0.000000 0.000000 -1.000000 -1.000000 0.000000 0.000000 15573.dat
1 0 78.654480 -34.000000 -150.750800 0.000000 1.000001 0.000001 0.000000 0.000001 -1.000001 -1.000000 0.000000 0.000000 15573.dat
1 0 78.654520 -44.000010 -70.750820 0.000000 1.000000 0.000000 0.000000 0.000000 -1.000000 -1.000000 0.000000 0.000000 3068b.dat
1 0 78.654520 -44.000000 -110.750800 0.000000 1.000000 0.000000 0.000000 0.000000 -1.000000 -1.000000 0.000000 0.000000 3068b.dat
0 STEP
1 71 124.654500 -72.000000 -40.750810 0.000000 0.000000 1.000000 0.000000 1.000000 0.000000 -1.000000 0.000000 0.000000 3623.dat
1 71 124.654500 -72.000000 -140.750800 0.000000 0.000000 1.000000 0.000000 1.000000 0.000000 -1.000000 0.000000 0.000000 3623.dat
1 71 94.654510 -72.000000 -30.750820 0.000000 0.000000 1.000000 0.000000 1.000000 0.000000 -1.000000 0.000000 0.000000 87580.dat
1 71 94.654530 -72.000000 -150.750800 0.000000 0.000000 1.000000 0.000000 1.000000 0.000000 -1.000000 0.000000 0.000000 87580.dat
1 71 124.654500 -72.000000 -90.750810 0.000000 0.000000 1.000000 0.000000 1.000000 0.000000 -1.000000 0.000000 0.000000 15573.dat
1 71 84.654520 -72.000000 -60.750820 0.000000 0.000000 1.000000 0.000000 1.000000 0.000000 -1.000000 0.000000 0.000000 14719.dat
1 71 84.654520 -72.000000 -120.750800 1.000000 0.000000 0.000000 0.000000 1.000000 0.000000 0.000000 0.000000 1.000000 14719.dat
0 STEP
1 72 84.654510 -96.000000 79.249180 0.000000 0.000000 1.000000 0.000000 1.000000 0.000000 -1.000000 0.000000 0.000000 3005.dat
1 72 84.654510 -96.000000 29.249180 0.000000 0.000000 1.000000 0.000000 1.000000 0.000000 -1.000000 0.000000 0.000000 3010.dat
1 72 114.654500 -96.000000 -0.750810 -1.000000 0.000000 0.000000 0.000000 1.000000 0.000000 0.000000 0.000000 -1.000000 3004.dat
1 72 144.654500 -96.000000 -90.750810 0.000000 0.000000 1.000000 0.000000 1.000000 0.000000 -1.000000 0.000000 0.000000 6111.dat
0 STEP
1 72 84.654510 -104.000000 49.249180 0.000000 0.000000 1.000000 0.000000 1.000000 0.000000 -1.000000 0.000000 0.000000 3710.dat
1 72 114.654500 -104.000000 -0.750800 -1.000000 0.000000 0.000000 0.000000 1.000000 0.000000 0.000000 0.000000 -1.000000 3710.dat
1 72 144.654500 -104.000000 -50.750820 0.000000 0.000000 -1.000000 0.000000 1.000000 0.000000 1.000000 0.000000 0.000000 3710.dat
1 72 144.654500 -104.000000 -130.750800 0.000000 0.000000 -1.000000 0.000000 1.000000 0.000000 1.000000 0.000000 0.000000 3710.dat
1 72 144.654500 -104.000000 -180.750800 0.000000 0.000000 1.000000 0.000000 1.000000 0.000000 -1.000000 0.000000 0.000000 3024.dat
0 STEP
1 34 124.654500 -96.000000 -20.750820 0.000000 0.000000 1.000000 0.000000 1.000000 0.000000 -1.000000 0.000000 0.000000 3062b.dat
1 34 124.654500 -96.000000 -40.750810 0.000000 0.000000 1.000000 0.000000 1.000000 0.000000 -1.000000 0.000000 0.000000 3062b.dat
1 71 124.654500 -104.000000 -20.750820 0.000000 0.000000 1.000000 0.000000 1.000000 0.000000 -1.000000 0.000000 0.000000 98138.dat
1 71 124.654500 -104.000000 -40.750810 0.000000 0.000000 1.000000 0.000000 1.000000 0.000000 -1.000000 0.000000 0.000000 98138.dat
1 15 124.654500 -80.000000 -60.750820 0.000000 0.000000 1.000000 0.000000 1.000000 0.000000 -1.000000 0.000000 0.000000 98138.dat
1 0 124.654500 -96.000000 -90.750810 0.000000 0.000000 -1.000000 0.000000 1.000000 0.000000 1.000000 0.000000 0.000000 4599b.dat
1 84 94.654530 -80.000000 -150.750800 0.000000 0.000000 1.000000 0.000000 1.000000 0.000000 -1.000000 0.000000 0.000000 98138p2w.dat
0 STEP
1 47 124.654500 -96.000000 -120.750800 0.000000 0.000000 1.000000 0.000000 1.000000 0.000000 -1.000000 0.000000 0.000000 3062b.dat
1 47 124.654500 -96.000000 -140.750800 0.000000 0.000000 1.000000 0.000000 1.000000 0.000000 -1.000000 0.000000 0.000000 3062b.dat
1 378 124.654500 -104.000000 -120.750800 0.000000 0.000000 1.000000 0.000000 1.000000 0.000000 -1.000000 0.000000 0.000000 6141.dat
1 378 124.654500 -104.000000 -140.750800 0.000000 0.000000 1.000000 0.000000 1.000000 0.000000 -1.000000 0.000000 0.000000 6141.dat
1 84 124.654500 -88.000000 -160.750800 0.000000 0.000000 1.000000 0.000000 1.000000 0.000000 -1.000000 0.000000 0.000000 86996.dat
1 71 124.654500 -96.000000 -160.750800 0.000000 0.000000 1.000000 0.000000 1.000000 0.000000 -1.000000 0.000000 0.000000 98138.dat
1 0 94.654510 -80.000000 -30.750820 0.000000 0.000000 1.000000 0.000000 1.000000 0.000000 -1.000000 0.000000 0.000000 38799.dat
1 15 94.654510 -80.000000 -30.750820 0.000000 0.000000 1.000000 0.000000 1.000000 0.000000 -1.000000 0.000000 0.000000 34172.dat
0 STEP
1 72 84.654510 -112.000000 49.249180 0.000000 0.000000 1.000000 0.000000 1.000000 0.000000 -1.000000 0.000000 0.000000 3710.dat
1 72 114.654500 -112.000000 -0.750810 -1.000000 0.000000 0.000000 0.000000 1.000000 0.000000 0.000000 0.000000 -1.000000 3710.dat
1 0 124.654500 -112.000000 -20.750820 -1.000000 0.000000 0.000000 0.000000 1.000000 0.000000 0.000000 0.000000 -1.000000 63864.dat
1 0 124.654500 -112.000000 -50.750820 -1.000000 0.000000 0.000000 0.000000 1.000000 0.000000 0.000000 0.000000 -1.000000 26603.dat
1 0 124.654500 -112.000000 -120.750800 -1.000000 0.000000 0.000000 0.000000 1.000000 0.000000 0.000000 0.000000 -1.000000 63864.dat
1 0 124.654500 -112.000000 -150.750800 -1.000000 0.000000 0.000000 0.000000 1.000000 0.000000 0.000000 0.000000 -1.000000 26603.dat
1 72 144.654500 -112.000000 -90.750810 0.000000 0.000000 1.000000 0.000000 1.000000 0.000000 -1.000000 0.000000 0.000000 3023b.dat
1 72 144.654500 -112.000000 -180.750800 0.000000 0.000000 1.000000 0.000000 1.000000 0.000000 -1.000000 0.000000 0.000000 3024.dat
1 72 84.654510 -136.000000 79.249180 0.000000 0.000000 1.000000 0.000000 1.000000 0.000000 -1.000000 0.000000 0.000000 3005.dat
1 72 84.654510 -136.000000 29.249180 0.000000 0.000000 1.000000 0.000000 1.000000 0.000000 -1.000000 0.000000 0.000000 3010.dat
1 72 114.654500 -136.000000 -0.750810 -1.000000 0.000000 0.000000 0.000000 1.000000 0.000000 0.000000 0.000000 -1.000000 3004.dat
1 72 144.654500 -136.000000 -90.750810 0.000000 0.000000 1.000000 0.000000 1.000000 0.000000 -1.000000 0.000000 0.000000 6111.dat
0 STEP
1 72 84.654510 -160.000000 69.249180 0.000000 0.000000 1.000000 0.000000 1.000000 0.000000 -1.000000 0.000000 0.000000 3004.dat
1 72 74.654510 -154.000000 39.249180 0.000000 1.000000 0.000000 0.000000 0.000000 1.000000 1.000000 0.000000 0.000000 4070.dat
1 4 66.654520 -154.000000 39.249180 0.000000 1.000000 0.000000 0.000000 0.000000 -1.000001 -1.000000 0.000000 0.000000 98138.dat
1 72 84.654530 -160.000000 -0.750810 1.000000 0.000000 0.000000 0.000000 1.000000 0.000000 0.000000 0.000000 1.000000 2357.dat
1 72 84.654510 -144.000000 39.249180 0.000000 0.000000 1.000000 0.000000 1.000000 0.000000 -1.000000 0.000000 0.000000 3024.dat
0 STEP
1 72 144.654500 -160.000000 -0.750800 -1.000000 0.000000 0.000000 0.000000 1.000000 0.000000 0.000000 0.000000 -1.000000 2357.dat
1 72 144.654500 -160.000000 -40.750810 0.000000 0.000000 -1.000000 0.000000 1.000000 0.000000 1.000000 0.000000 0.000000 4070.dat
1 72 144.654500 -160.000000 -140.750800 0.000000 0.000000 -1.000000 0.000000 1.000000 0.000000 1.000000 0.000000 0.000000 4070.dat
1 72 144.654500 -160.000000 -170.750800 0.000000 0.000000 1.000000 0.000000 1.000000 0.000000 -1.000000 0.000000 0.000000 3004.dat
1 72 144.654500 -160.000000 -90.750810 0.000000 0.000000 1.000000 0.000000 1.000000 0.000000 -1.000000 0.000000 0.000000 3010.dat
1 15 158.654500 -150.000000 -40.750810 0.000000 -1.000000 0.000000 1.000000 0.000000 0.000000 0.000000 0.000000 1.000000 98138.dat
1 15 158.654500 -150.000000 -140.750800 0.000000 -1.000000 0.000000 1.000000 0.000000 0.000000 0.000000 0.000000 1.000000 98138.dat
0 STEP
1 72 84.654510 -184.000000 79.249180 0.000000 0.000000 1.000000 0.000000 1.000000 0.000000 -1.000000 0.000000 0.000000 3005.dat
1 72 84.654530 -184.000000 29.249190 0.000000 0.000000 1.000000 0.000000 1.000000 0.000000 -1.000000 0.000000 0.000000 3010.dat
1 72 114.654500 -184.000000 -0.750820 -1.000000 0.000000 0.000000 0.000000 1.000000 0.000000 0.000000 0.000000 -1.000000 3004.dat
1 72 144.654500 -184.000000 -90.750810 0.000000 0.000000 1.000000 0.000000 1.000000 0.000000 -1.000000 0.000000 0.000000 6111.dat
0 STEP
1 71 134.654500 -150.000000 -40.750810 0.000000 -1.000000 0.000000 0.000000 0.000000 1.000000 -1.000000 0.000000 0.000000 87580.dat
1 0 112.654500 -146.000000 -50.750800 0.000000 0.000000 -1.000000 0.000000 1.000000 0.000000 1.000000 0.000000 0.000000 bl_7674.dat
1 71 134.654500 -150.000000 -140.750800 0.000000 -1.000000 0.000000 0.000000 0.000000 1.000000 -1.000000 0.000000 0.000000 87580.dat
1 0 112.654500 -146.000000 -150.750800 0.000000 0.000000 -1.000000 0.000000 1.000000 0.000000 1.000000 0.000000 0.000000 bl_7674.dat
0 STEP
1 84 112.654500 -170.000000 -30.750800 0.000000 0.000000 1.000000 0.000000 1.000000 0.000000 -1.000000 0.000000 0.000000 86996.dat
1 19 112.654500 -170.000000 -50.750800 0.000000 0.000000 1.000000 0.000000 1.000000 0.000000 -1.000000 0.000000 0.000000 86996.dat
1 47 112.654500 -146.000000 -30.750800 0.000000 0.000000 1.000000 0.000000 1.000000 0.000000 -1.000000 0.000000 0.000000 3062b.dat
1 47 112.654500 -146.000000 -50.750800 0.000000 0.000000 1.000000 0.000000 1.000000 0.000000 -1.000000 0.000000 0.000000 3062b.dat
1 72 112.654500 -162.000000 -130.750800 0.000000 0.000000 1.000000 0.000000 1.000000 0.000000 -1.000000 0.000000 0.000000 85861.dat
1 72 112.654500 -162.000000 -150.750800 0.000000 0.000000 1.000000 0.000000 1.000000 0.000000 -1.000000 0.000000 0.000000 85861.dat
0 STEP
1 71 112.654500 -178.000000 -30.750800 0.000000 0.000000 1.000000 0.000000 1.000000 0.000000 -1.000000 0.000000 0.000000 98138.dat
1 71 112.654500 -178.000000 -50.750800 0.000000 0.000000 1.000000 0.000000 1.000000 0.000000 -1.000000 0.000000 0.000000 98138.dat
1 35 112.654500 -146.000000 -130.750800 0.000000 0.000000 1.000000 0.000000 1.000000 0.000000 -1.000000 0.000000 0.000000 59900.dat
1 35 112.654500 -146.000000 -150.750800 0.000000 0.000000 1.000000 0.000000 1.000000 0.000000 -1.000000 0.000000 0.000000 59900.dat
1 47 112.654500 -162.000000 -130.750800 0.000000 0.000000 1.000000 0.000000 1.000000 0.000000 -1.000000 0.000000 0.000000 6908.dat
1 47 112.654500 -162.000000 -150.750800 0.000000 0.000000 1.000000 0.000000 1.000000 0.000000 -1.000000 0.000000 0.000000 6908.dat
0 STEP
1 0 114.654500 -192.000000 -90.750810 0.000000 0.000000 1.000000 0.000000 1.000000 0.000000 -1.000000 0.000000 0.000000 69729.dat
1 0 124.654500 -184.000000 -40.750810 0.000000 0.000000 -1.000000 0.000000 1.000000 0.000000 1.000000 0.000000 0.000000 51239.dat
1 0 124.654500 -184.000000 -140.750800 0.000000 0.000000 -1.000000 0.000000 1.000000 0.000000 1.000000 0.000000 0.000000 51239.dat
1 0 104.654500 -184.000000 -40.750820 0.000000 0.000000 -1.000000 0.000000 1.000000 0.000000 1.000000 0.000000 0.000000 51239.dat
1 0 104.654500 -184.000000 -140.750800 0.000000 0.000000 -1.000000 0.000000 1.000000 0.000000 1.000000 0.000000 0.000000 51239.dat
1 47 99.654520 -179.740000 -140.750800 0.000000 0.000000 1.000000 0.000000 1.000000 0.000000 -1.000000 0.000000 0.000000 51266.dat
1 47 99.654510 -179.740000 -40.750820 0.000000 0.000000 1.000000 0.000000 1.000000 0.000000 -1.000000 0.000000 0.000000 51266.dat
0 STEP
1 0 144.654500 -192.000000 -20.750810 -1.000000 0.000000 0.000000 0.000000 1.000000 0.000000 0.000000 0.000000 -1.000000 77844.dat
1 0 144.654500 -192.000000 -160.750800 0.000000 0.000000 -1.000000 0.000000 1.000000 0.000000 1.000000 0.000000 0.000000 77844.dat
1 72 144.654500 -192.000000 -180.750800 0.000000 0.000000 1.000000 0.000000 1.000000 0.000000 -1.000000 0.000000 0.000000 3024.dat
1 72 144.654500 -192.000000 -90.750810 0.000000 0.000000 1.000000 0.000000 1.000000 0.000000 -1.000000 0.000000 0.000000 3023b.dat
1 72 114.654500 -192.000000 -0.750810 -1.000000 0.000000 0.000000 0.000000 1.000000 0.000000 0.000000 0.000000 -1.000000 3710.dat
1 72 84.654510 -192.000000 49.249180 0.000000 0.000000 -1.000000 0.000000 1.000000 0.000000 1.000000 0.000000 0.000000 3710.dat
1 15 124.654500 -200.000000 -150.750800 0.000000 0.000000 1.000000 0.000000 1.000000 0.000000 -1.000000 0.000000 0.000000 99563.dat
1 15 104.654500 -200.000000 -150.750800 0.000000 0.000000 1.000000 0.000000 1.000000 0.000000 -1.000000 0.000000 0.000000 99563.dat
0 STEP
1 0 34.654500 -192.000000 79.249200 1.000000 0.000000 0.000000 0.000000 1.000000 0.000000 0.000000 0.000000 1.000000 60596.dat
1 47 66.854500 -192.000000 84.749190 -1.000000 0.000000 0.000000 0.000000 1.000000 0.000000 0.000000 0.000000 -1.000000 60616a.dat
1 0 9.854500 -122.000000 72.749200 -0.707107 0.000000 0.707107 0.707107 0.000000 0.707107 0.000000 1.000000 0.000000 25269.dat
1 0 9.854509 -122.000000 96.749190 -0.707107 0.000000 0.707107 -0.707107 0.000000 -0.707107 0.000001 -1.000000 0.000000 25269.dat
0 STEP
1 0 -45.345500 -192.000000 79.249180 1.000000 0.000000 0.000000 0.000000 1.000000 0.000000 0.000000 0.000000 1.000000 60596.dat
1 47 -45.345500 -187.740000 84.748980 1.000000 0.000000 0.000000 0.000000 1.000000 0.000000 0.000000 0.000000 1.000000 57895.dat
0 STEP
1 72 -75.345500 -200.000000 79.249160 0.000000 0.000000 1.000000 0.000000 1.000000 0.000000 -1.000000 0.000000 0.000000 3070b.dat
1 72 14.654490 -200.000000 79.249200 -1.000000 0.000000 0.000000 0.000000 1.000000 0.000000 0.000000 0.000000 -1.000000 4162.dat
1 72 84.654520 -200.000000 49.249180 0.000000 0.000000 1.000000 0.000000 1.000000 0.000000 -1.000000 0.000000 0.000000 3069b.dat
1 72 84.654530 -200.000000 -0.750810 1.000000 0.000000 0.000000 0.000000 1.000000 0.000000 0.000000 0.000000 1.000000 14719.dat
1 72 144.654500 -200.000000 -0.750800 -1.000000 0.000000 0.000000 0.000000 1.000000 0.000000 0.000000 0.000000 -1.000000 14719.dat
1 72 144.654500 -200.000000 -110.750800 0.000000 0.000000 1.000000 0.000000 1.000000 0.000000 -1.000000 0.000000 0.000000 4162.dat
0 STEP
1 71 -55.345480 -32.000000 49.249170 0.000000 0.000000 1.000000 0.000000 1.000000 0.000000 -1.000000 0.000000 0.000000 99207.dat
1 71 -35.345480 -32.000000 49.249160 0.000000 0.000000 -1.000000 0.000000 1.000000 0.000000 1.000000 0.000000 0.000000 99207.dat
1 71 -77.345470 -44.000000 49.249170 0.000000 1.000000 0.000000 0.000000 0.000000 -1.000000 -1.000000 0.000000 0.000000 33909.dat
1 71 -13.345500 -44.000000 49.249170 0.000000 -1.000000 0.000000 0.000000 0.000000 -1.000000 1.000000 0.000000 0.000000 33909.dat
0 STEP
1 71 -45.345500 -56.000000 59.249170 -1.000000 0.000000 0.000000 0.000000 1.000000 0.000000 0.000000 0.000000 -1.000000 30136.dat
1 43 -35.345480 -56.000000 39.249170 0.000000 0.000000 1.000000 0.000000 1.000000 0.000000 -1.000000 0.000000 0.000000 3062b.dat
1 43 -55.345480 -56.000000 39.249170 0.000000 0.000000 1.000000 0.000000 1.000000 0.000000 -1.000000 0.000000 0.000000 3062b.dat
0 STEP
1 71 -45.345500 -64.000000 49.249180 1.000000 0.000000 0.000000 0.000000 1.000000 0.000000 0.000000 0.000000 1.000000 33909.dat
0 STEP
1 57 -35.345500 -88.000000 59.249180 0.000000 0.000000 1.000000 0.000000 1.000000 0.000000 -1.000000 0.000000 0.000000 59900.dat
1 71 -35.345500 -96.000000 59.249180 0.000000 0.000000 1.000000 0.000000 1.000000 0.000000 -1.000000 0.000000 0.000000 98138.dat
1 15 -55.345500 -72.000000 59.249170 1.000000 0.000000 0.000000 0.000000 1.000000 0.000000 0.000000 0.000000 1.000000 26047.dat
1 47 -55.345560 -80.000000 59.249180 0.000000 0.000000 1.000000 0.000000 1.000000 0.000000 -1.000000 0.000000 0.000000 98138p2v.dat
1 15 -55.345500 -70.000000 39.249170 1.000000 0.000000 0.000000 0.000000 -1.000000 0.000000 0.000000 0.000000 -1.000000 93061.dat
1 15 -55.345520 -107.067500 48.506030 0.000000 0.000000 1.000000 0.603594 0.797292 0.000000 -0.797292 0.603594 0.000000 78258.dat
0 STEP
1 71 -45.345500 -32.000000 -30.750840 0.000000 0.000000 1.000000 0.000000 1.000000 0.000000 -1.000000 0.000000 0.000000 18674.dat
1 71 -45.345500 -108.000000 -30.750840 0.000000 0.000000 1.000000 0.000000 1.000000 0.000000 -1.000000 0.000000 0.000000 30374.dat
1 71 -45.345500 -128.000000 -30.750840 0.707107 0.000000 0.707107 0.000000 1.000000 0.000000 -0.707107 0.000000 0.707107 11090.dat
1 71 -57.564320 -128.000000 -42.969640 0.405579 0.707107 0.579228 0.819152 0.000000 -0.573576 -0.405580 0.707107 -0.579228 48729b.dat
0 STEP
1 0 -25.345490 -24.000000 -90.750810 -1.000000 0.000000 0.000000 0.000000 1.000000 0.000000 0.000000 0.000000 -1.000000 3020.dat
0 STEP
1 71 -25.345490 -48.000000 -90.750810 0.000000 0.000000 1.000000 0.000000 1.000000 0.000000 -1.000000 0.000000 0.000000 3003.dat
1 71 4.654510 -48.000000 -90.750800 0.000000 0.000000 1.000000 0.000000 1.000000 0.000000 -1.000000 0.000000 0.000000 30136.dat
1 71 -55.345490 -48.000000 -90.750820 0.000000 0.000000 1.000000 0.000000 1.000000 0.000000 -1.000000 0.000000 0.000000 30136.dat
0 STEP
1 72 -25.345500 -56.000000 -90.750810 -1.000000 0.000000 0.000000 0.000000 1.000000 0.000000 0.000000 0.000000 -1.000000 3032.dat
0 STEP
1 71 14.654480 -56.000000 -60.750810 1.000000 0.000000 0.000000 0.000000 1.000000 0.000000 0.000000 0.000000 1.000000 85984.dat
1 71 -25.345500 -56.000000 -60.750820 1.000000 0.000000 0.000000 0.000000 1.000000 0.000000 0.000000 0.000000 1.000000 85984.dat
1 71 -65.345500 -56.000000 -60.750820 1.000000 0.000000 0.000000 0.000000 1.000000 0.000000 0.000000 0.000000 1.000000 85984.dat
1 71 14.654500 -56.000000 -120.750800 -1.000000 0.000000 0.000000 0.000000 1.000000 0.000000 0.000000 0.000000 -1.000000 85984.dat
1 71 -25.345520 -56.000000 -120.750800 -1.000000 0.000000 0.000000 0.000000 1.000000 0.000000 0.000000 0.000000 -1.000000 85984.dat
1 71 -65.345520 -56.000000 -120.750800 -1.000000 0.000000 0.000000 0.000000 1.000000 0.000000 0.000000 0.000000 -1.000000 85984.dat
1 71 -65.345500 -64.000000 -80.750820 -1.000000 0.000000 0.000000 0.000000 1.000000 0.000000 0.000000 0.000000 -1.000000 15573.dat
1 71 -65.345520 -64.000000 -100.750800 -1.000000 0.000000 0.000000 0.000000 1.000000 0.000000 0.000000 0.000000 -1.000000 15573.dat
1 71 -5.345510 -64.000000 -90.750810 -1.000000 0.000000 0.000000 0.000000 1.000000 0.000000 0.000000 0.000000 -1.000000 87079.dat
0 STEP
1 71 -14.411820 -170.731500 -86.122120 -0.707107 0.579228 -0.405580 0.000000 -0.573577 -0.819152 -0.707107 -0.579228 0.405580 87618.dat
1 72 -70.596920 -115.094500 -29.937010 -0.786788 0.579228 0.213212 -0.579228 -0.573576 -0.579228 -0.213212 -0.579228 0.786788 85861.dat
1 71 -75.230760 -110.505900 -25.303190 0.786788 0.579228 -0.213212 0.579228 -0.573576 0.579228 0.213212 -0.579228 -0.786788 98138.dat
0 STEP
1 179 -7.111380 -155.986700 -93.422550 0.909576 -0.405580 -0.090424 -0.405580 -0.819152 -0.405580 0.090424 0.405580 -0.909576 15395.dat
1 72 -0.622090 -142.880300 -99.911820 0.090424 -0.405580 0.909576 0.405580 -0.819152 -0.405580 0.909576 0.405580 0.090424 85861.dat
1 47 -0.622110 -142.880300 -99.911800 0.090424 -0.405580 0.909576 0.405580 -0.819152 -0.405580 0.909576 0.405580 0.090424 6908.dat
0 STEP
1 16 -45.345470 -24.000000 -164.821900 0.000000 0.000000 1.000000 0.000000 1.000000 0.000000 -1.000000 0.000000 0.000000 little table
0 STEP
1 212 55.904520 -64.000000 -160.750800 0.000000 0.000000 1.000000 0.000000 1.000000 0.000000 -1.000000 0.000000 0.000000 73200b-f1.dat
1 15 55.904520 -96.000000 -160.750800 0.000000 0.000000 1.000000 0.000000 1.000000 0.000000 -1.000000 0.000000 0.000000 973.dat
1 15 55.904520 -87.090660 -176.316100 0.000000 -0.707107 0.707107 -0.170671 0.696732 0.696732 -0.985328 -0.120682 -0.120683 3819.dat
1 15 55.904520 -87.092830 -145.176200 0.000000 0.000000 1.000000 0.169703 0.985495 0.000000 -0.985495 0.169703 0.000000 3818.dat
1 212 46.404520 -69.216940 -137.024400 -0.119998 0.696850 0.707107 0.048984 0.715542 -0.696850 -0.991565 -0.048984 -0.119998 3820.dat
1 212 35.398430 -81.673420 -182.328900 0.000000 0.000000 1.000000 0.000000 1.000000 0.000000 -1.000000 0.000000 0.000000 3820.dat
1 78 55.904520 -120.000000 -160.750800 0.000000 0.000000 1.000000 0.000000 1.000000 0.000000 -1.000000 0.000000 0.000000 3626b.dat
1 484 55.904520 -120.000000 -160.750800 0.000000 0.000000 1.000000 0.000000 1.000000 0.000000 -1.000000 0.000000 0.000000 bl_8383.dat
1 15 16.654530 -87.000000 -178.750800 0.000000 0.000000 -1.000000 1.000000 0.000000 0.000000 0.000000 -1.000000 0.000000 3069b.dat
1 47 104.654500 -24.000000 79.249180 1.000000 0.000000 0.000000 0.000000 1.000000 0.000000 0.000000 0.000000 1.000000 98138.dat
0 STEP
0 NOFILE
0 FILE Little Table
0 Little Table
0 Name: Little Table
0 Author: 
0 CustomBrick
0 FlexibleBrickControlPointUnitLength -1
0 FlexibleBrickLockedControlPoint 
0 NumOfBricks 8
1 72 -14.071060 -8.000000 0.000000 1.000000 0.000000 0.000000 0.000000 1.000000 0.000000 0.000000 0.000000 1.000000 85861.dat
1 72 0.071080 -8.000000 -14.142130 0.707107 0.000000 -0.707107 0.000000 1.000000 0.000000 0.707107 0.000000 0.707107 85861.dat
1 72 14.213210 -8.000000 0.000000 0.707107 0.000000 -0.707107 0.000000 1.000000 0.000000 0.707107 0.000000 0.707107 85861.dat
1 72 0.071080 -8.000000 14.142140 0.707107 0.000000 -0.707107 0.000000 1.000000 0.000000 0.707107 0.000000 0.707107 85861.dat
1 71 0.071080 -16.000000 0.000000 0.707107 0.000000 0.707107 0.000000 1.000000 0.000000 -0.707107 0.000000 0.707107 3131.dat
0 STEP
1 378 0.090840 -32.000000 0.019760 0.707107 0.000000 -0.707107 0.000000 1.000000 0.000000 0.707107 0.000000 0.707107 20952.dat
0 STEP
1 71 0.090840 -40.000000 0.019760 -0.707107 0.000000 0.707107 0.000000 1.000000 0.000000 -0.707107 0.000000 -0.707107 33909.dat
0 STEP
1 15 14.232980 -40.000000 0.019780 0.707106 0.000000 -0.707107 0.000000 1.000000 0.000000 0.707107 0.000000 0.707105 34172.dat
0 STEP
0 NOFILE
