0 40270 Bee
0 SetNumber: 40270
0 Name: Bee
1 0 0.000000 -8.000000 -21.538460 -1.000000 0.000000 0.000000 0.000000 1.000000 0.000000 0.000000 0.000000 -1.000000 3958.dat
0 STEP
1 0 -0.000010 0.000000 28.461530 -1.000000 0.000000 0.000000 0.000000 1.000000 0.000000 0.000000 0.000000 -1.000000 4477.dat
0 STEP
1 27 99.999980 -8.000000 -1.538450 1.000000 0.000000 0.000000 0.000000 1.000000 0.000000 0.000000 0.000000 1.000000 30565.dat
1 27 -99.999980 -8.000000 -1.538480 0.000000 0.000000 1.000000 0.000000 1.000000 0.000000 -1.000000 0.000000 0.000000 30565.dat
0 STEP
1 10 59.999990 0.000000 -21.538460 -1.000000 0.000000 0.000000 0.000000 1.000000 0.000000 0.000000 0.000000 -1.000000 4032a.dat
1 10 -59.999990 0.000000 -21.538470 -1.000000 0.000000 0.000000 0.000000 1.000000 0.000000 0.000000 0.000000 -1.000000 4032a.dat
1 70 120.000000 0.000000 28.461550 -1.000000 0.000000 0.000000 0.000000 1.000000 0.000000 0.000000 0.000000 -1.000000 3023b.dat
1 70 -120.000000 0.000000 28.461520 -1.000000 0.000000 0.000000 0.000000 1.000000 0.000000 0.000000 0.000000 -1.000000 3023b.dat
1 0 0.000000 0.000000 -71.538460 -1.000000 0.000000 0.000000 0.000000 1.000000 0.000000 0.000000 0.000000 -1.000000 3666.dat
0 STEP
1 0 -0.000010 -16.000000 18.461540 -1.000000 0.000000 0.000000 0.000000 1.000000 0.000000 0.000000 0.000000 -1.000000 87079.dat
1 0 0.000000 -16.000000 -61.538460 1.000000 0.000000 0.000000 0.000000 1.000000 0.000000 0.000000 0.000000 1.000000 87079pz4.dat
1 0 0.000000 -16.000000 -11.538460 -1.000000 0.000000 0.000000 0.000000 1.000000 0.000000 0.000000 0.000000 -1.000000 92593.dat
1 0 0.000000 -16.000000 -31.538460 -1.000000 0.000000 0.000000 0.000000 1.000000 0.000000 0.000000 0.000000 -1.000000 2431.dat
0 STEP
1 16 -109.797200 -8.000000 26.675570 0.707108 0.000000 0.707106 0.000000 1.000000 0.000000 -0.707106 0.000000 0.707108 flower
1 16 110.202800 -8.000000 26.675610 0.707107 0.000000 0.707107 0.000000 1.000000 0.000000 -0.707107 0.000000 0.707107 flower
0 STEP
1 10 -89.999980 -16.000000 -11.538470 1.000000 0.000000 0.000000 0.000000 1.000000 0.000000 0.000000 0.000000 1.000000 24866.dat
1 10 89.999980 -16.000000 -11.538450 1.000000 0.000000 0.000000 0.000000 1.000000 0.000000 0.000000 0.000000 1.000000 24866.dat
1 15 -89.999980 -24.000000 -11.538470 1.000000 0.000000 0.000000 0.000000 1.000000 0.000000 0.000000 0.000000 1.000000 24866.dat
1 15 89.999980 -24.000000 -11.538450 1.000000 0.000000 0.000000 0.000000 1.000000 0.000000 0.000000 0.000000 1.000000 24866.dat
0 STEP
1 191 -30.000010 -40.000000 -1.538470 0.000000 0.000000 1.000000 0.000000 1.000000 0.000000 -1.000000 0.000000 0.000000 3004.dat
1 191 29.999990 -40.000000 -1.538460 0.000000 0.000000 1.000000 0.000000 1.000000 0.000000 -1.000000 0.000000 0.000000 3004.dat
0 STEP
1 0 0.000000 -48.000000 -1.538470 1.000000 0.000000 0.000000 0.000000 1.000000 0.000000 0.000000 0.000000 1.000000 3020.dat
0 STEP
1 0 0.000000 -56.000000 -1.538470 1.000000 0.000000 0.000000 0.000000 1.000000 0.000000 0.000000 0.000000 1.000000 3031.dat
0 STEP
1 14 0.000000 -80.000000 28.461530 1.000000 0.000000 0.000000 0.000000 1.000000 0.000000 0.000000 0.000000 1.000000 3700.dat
1 191 -30.000000 -80.000000 28.461530 1.000000 0.000000 0.000000 0.000000 1.000000 0.000000 0.000000 0.000000 1.000000 3005.dat
1 191 30.000000 -80.000000 28.461530 1.000000 0.000000 0.000000 0.000000 1.000000 0.000000 0.000000 0.000000 1.000000 3005.dat
1 191 -30.000010 -64.000000 -1.538470 0.000000 0.000000 1.000000 0.000000 1.000000 0.000000 -1.000000 0.000000 0.000000 3023b.dat
1 191 29.999990 -64.000000 -1.538470 0.000000 0.000000 1.000000 0.000000 1.000000 0.000000 -1.000000 0.000000 0.000000 3023b.dat
1 15 0.000000 -80.000000 -1.538470 1.000000 0.000000 0.000000 0.000000 1.000000 0.000000 0.000000 0.000000 1.000000 3941.dat
0 STEP
1 71 -30.000010 -104.000000 -1.538470 0.000000 0.000000 1.000000 0.000000 1.000000 0.000000 -1.000000 0.000000 0.000000 22885.dat
1 71 29.999990 -104.000000 -1.538470 0.000000 0.000000 -1.000000 0.000000 1.000000 0.000000 1.000000 0.000000 0.000000 22885.dat
1 0 0.000000 -104.000000 28.461540 -1.000000 0.000000 0.000000 0.000000 1.000000 0.000000 0.000000 0.000000 -1.000000 30414.dat
1 15 0.000000 -104.000000 -1.538470 1.000000 0.000000 0.000000 0.000000 1.000000 0.000000 0.000000 0.000000 1.000000 3941.dat
0 STEP
1 191 0.000000 -80.000000 -31.538470 1.000000 0.000000 0.000000 0.000000 1.000000 0.000000 0.000000 0.000000 1.000000 3010.dat
1 0 0.000000 -104.000000 -31.538470 1.000000 0.000000 0.000000 0.000000 1.000000 0.000000 0.000000 0.000000 1.000000 3010.dat
0 STEP
1 191 0.000000 -112.000000 -1.538470 1.000000 0.000000 0.000000 0.000000 1.000000 0.000000 0.000000 0.000000 1.000000 3031.dat
0 STEP
1 191 48.000000 -84.000000 -1.538470 0.000000 -1.000000 0.000000 1.000000 0.000000 0.000000 0.000000 0.000000 1.000000 3022.dat
1 191 -48.000000 -84.000000 -1.538470 0.000000 1.000000 0.000000 0.000000 0.000000 -1.000000 -1.000000 0.000000 0.000000 3022.dat
0 STEP
1 0 -56.000000 -84.000000 -11.538470 0.000000 1.000000 0.000000 -1.000000 0.000000 0.000000 0.000000 0.000000 1.000000 11476.dat
1 191 -56.000000 -84.000000 8.461530 0.000000 1.000000 0.000000 -1.000000 0.000000 0.000000 0.000000 0.000000 1.000000 3069b.dat
1 0 56.000000 -74.000000 -1.538470 0.000000 -1.000000 0.000000 0.000000 0.000000 -1.000000 1.000000 0.000000 0.000000 11476.dat
1 191 56.000000 -94.000000 -1.538470 0.000000 -1.000000 0.000000 0.000000 0.000000 -1.000000 1.000000 0.000000 0.000000 3069b.dat
0 STEP
1 71 0.000000 -152.000000 28.461540 -1.000000 0.000000 0.000000 0.000000 1.000000 0.000000 0.000000 0.000000 -1.000000 22885.dat
1 71 -30.000010 -152.000000 18.461560 0.000000 0.000000 1.000000 0.000000 1.000000 0.000000 -1.000000 0.000000 0.000000 22885.dat
1 71 30.000000 -152.000000 18.461550 0.000000 0.000000 -1.000000 0.000000 1.000000 0.000000 1.000000 0.000000 0.000000 22885.dat
1 19 0.000000 -136.000000 -1.538470 1.000000 0.000000 0.000000 0.000000 1.000000 0.000000 0.000000 0.000000 1.000000 3003.dat
1 19 0.000000 -160.000000 -1.538470 1.000000 0.000000 0.000000 0.000000 1.000000 0.000000 0.000000 0.000000 1.000000 3003.dat
0 STEP
1 71 -30.000010 -152.000000 -21.538470 0.000000 0.000000 1.000000 0.000000 1.000000 0.000000 -1.000000 0.000000 0.000000 22885.dat
1 71 30.000000 -152.000000 -21.538470 0.000000 0.000000 -1.000000 0.000000 1.000000 0.000000 1.000000 0.000000 0.000000 22885.dat
1 71 0.000000 -152.000000 -31.538460 1.000000 0.000000 0.000000 0.000000 1.000000 0.000000 0.000000 0.000000 1.000000 22885.dat
0 STEP
1 71 -20.000010 -192.000000 28.461530 -1.000000 0.000000 0.000000 0.000000 1.000000 0.000000 0.000000 0.000000 -1.000000 22885.dat
1 71 20.000000 -192.000000 28.461530 -1.000000 0.000000 0.000000 0.000000 1.000000 0.000000 0.000000 0.000000 -1.000000 22885.dat
1 71 29.999990 -192.000000 -1.538470 0.000000 0.000000 -1.000000 0.000000 1.000000 0.000000 1.000000 0.000000 0.000000 22885.dat
1 71 -30.000020 -192.000000 -1.538470 0.000000 0.000000 1.000000 0.000000 1.000000 0.000000 -1.000000 0.000000 0.000000 22885.dat
1 10 0.000000 -168.000000 -1.538470 1.000000 0.000000 0.000000 0.000000 1.000000 0.000000 0.000000 0.000000 1.000000 4032a.dat
1 29 0.000000 -192.000000 -1.538470 1.000000 0.000000 0.000000 0.000000 1.000000 0.000000 0.000000 0.000000 1.000000 3003.dat
0 STEP
1 71 -20.000000 -192.000000 -31.538470 1.000000 0.000000 0.000000 0.000000 1.000000 0.000000 0.000000 0.000000 1.000000 22885.dat
1 71 20.000000 -192.000000 -31.538460 1.000000 0.000000 0.000000 0.000000 1.000000 0.000000 0.000000 0.000000 1.000000 22885.dat
0 STEP
1 0 0.000000 -200.000000 -1.538470 1.000000 0.000000 0.000000 0.000000 1.000000 0.000000 0.000000 0.000000 1.000000 3031.dat
1 191 0.000010 -152.000000 -49.538490 1.000000 0.000000 0.000000 0.000000 0.000000 -1.000000 0.000000 1.000000 0.000000 3031.dat
0 STEP
1 191 0.000010 -172.000000 -57.538480 1.000000 0.000000 0.000000 0.000000 0.000000 -1.000000 0.000000 1.000000 0.000000 87079.dat
1 191 0.000010 -142.000000 -57.538490 1.000000 0.000000 0.000000 0.000000 0.000000 -1.000000 0.000000 1.000000 0.000000 92593.dat
1 191 0.000010 -122.000000 -57.538490 1.000000 0.000000 0.000000 0.000000 0.000000 -1.000000 0.000000 1.000000 0.000000 3069b.dat
1 5 -30.000000 -122.000000 -57.538490 1.000000 0.000000 0.000000 0.000000 0.000000 -1.000000 0.000000 1.000000 0.000000 3070b.dat
1 5 30.000000 -122.000000 -57.538500 1.000000 0.000000 0.000000 0.000000 0.000000 -1.000000 0.000000 1.000000 0.000000 3070b.dat
0 STEP
1 0 -30.000000 -142.000000 -65.538500 1.000000 0.000000 0.000000 0.000000 0.000000 -1.000000 0.000000 1.000000 0.000000 98138pz0.dat
1 0 30.000010 -142.000000 -65.538490 1.000000 0.000000 0.000000 0.000000 0.000000 -1.000000 0.000000 1.000000 0.000000 98138pz0.dat
0 STEP
1 0 48.000000 -152.000000 -1.538460 0.000000 -1.000000 0.000000 0.000000 0.000000 -1.000000 1.000000 0.000000 0.000000 3020.dat
1 0 0.000000 -152.000000 46.461520 -1.000000 0.000000 0.000000 0.000000 0.000000 -1.000000 0.000000 -1.000000 0.000000 3020.dat
1 0 -48.000020 -152.000000 -1.538480 0.000000 1.000000 0.000000 0.000000 0.000000 -1.000000 -1.000000 0.000000 0.000000 3020.dat
0 STEP
1 0 -40.000010 -172.000000 -21.538470 0.000000 1.000000 0.000000 0.000000 0.000000 1.000000 1.000000 0.000000 0.000000 15068.dat
1 0 -40.000040 -172.000000 18.461520 0.000000 1.000000 0.000000 0.000000 0.000000 1.000000 1.000000 0.000000 0.000000 15068.dat
1 0 -40.000040 -132.000000 18.461530 0.000000 1.000000 0.000000 0.000000 0.000000 -1.000000 -1.000000 0.000000 0.000000 15068.dat
1 0 -40.000110 -132.000000 -21.538440 0.000000 1.000000 0.000000 0.000000 0.000000 -1.000000 -1.000000 0.000000 0.000000 15068.dat
1 0 -20.000080 -171.999600 38.461540 1.000000 0.000000 0.000000 0.000000 0.000000 1.000000 0.000000 -1.000000 0.000000 15068.dat
1 0 19.999980 -172.000000 38.461540 1.000000 0.000000 0.000000 0.000000 0.000000 1.000003 0.000000 -1.000002 0.000000 15068.dat
1 0 20.000020 -131.999800 38.461540 -1.000000 0.000000 0.000000 0.000000 0.000000 -1.000003 0.000000 -1.000002 0.000000 15068.dat
1 0 -19.999980 -131.999800 38.461600 -1.000000 0.000000 0.000000 0.000000 0.000000 -1.000003 0.000000 -1.000002 0.000000 15068.dat
1 0 40.000040 -171.999800 18.461660 0.000000 -0.999998 0.000000 0.000000 0.000000 0.999997 -1.000000 0.000000 0.000000 15068.dat
1 0 40.000000 -172.000000 -21.538450 0.000000 -1.000000 0.000000 0.000000 0.000000 1.000000 -1.000000 0.000000 0.000000 15068.dat
1 0 40.000000 -131.999900 -21.538480 0.000000 -1.000000 0.000000 0.000000 0.000000 -1.000000 1.000000 0.000000 0.000000 15068.dat
1 0 40.000060 -131.999900 18.461520 0.000000 -1.000000 0.000000 0.000000 0.000000 -1.000000 1.000000 0.000000 0.000000 15068.dat
0 STEP
1 71 0.000000 -70.000000 38.461540 0.000000 0.000000 -1.000000 0.000000 1.000000 0.000000 1.000000 0.000000 0.000000 4274.dat
1 0 -20.000010 -94.000000 46.461540 -1.000000 0.000000 0.000000 0.000000 0.000000 -1.000000 0.000000 -1.000000 0.000000 92280.dat
1 0 20.000000 -94.000010 46.461560 1.000000 0.000000 0.000000 0.000000 0.000000 1.000000 0.000000 -1.000000 0.000000 92280.dat
0 STEP
1 0 -0.000010 -94.000010 54.461560 -1.000000 0.000000 0.000000 0.000000 0.000000 -1.000000 0.000000 -1.000000 0.000000 3069b.dat
1 0 0.000000 -70.000000 62.461540 0.000000 0.000000 -1.000000 1.000000 0.000000 0.000000 0.000000 -1.000000 0.000000 59900.dat
0 STEP
1 15 58.034480 -94.010030 63.327510 -0.906308 -0.422619 0.000000 0.000000 0.000000 1.000000 -0.422619 0.906308 0.000000 60478.dat
1 15 -58.034480 -93.990000 63.327460 0.906308 0.422618 0.000000 0.000000 0.000000 -1.000000 -0.422618 0.906308 0.000000 60478.dat
0 STEP
1 15 -52.352360 -93.990000 51.850810 0.000000 0.422618 -0.906308 -1.000000 0.000000 0.000000 0.000000 0.906308 0.422618 30357.dat
1 15 52.352340 -94.010030 51.850860 0.906308 -0.422619 0.000000 0.000000 0.000000 -1.000000 0.422619 0.906308 0.000000 30357.dat
0 STEP
1 15 58.034460 -114.010000 63.327510 0.906308 -0.422619 0.000000 0.000000 0.000000 -1.000000 0.422619 0.906308 0.000000 3023b.dat
1 15 -58.034490 -113.990000 63.327460 0.906308 0.422618 0.000000 0.000000 0.000000 -1.000000 -0.422618 0.906308 0.000000 3023b.dat
0 STEP
1 47 54.653510 -104.010000 70.577980 0.906308 -0.422619 0.000000 0.000000 0.000000 -1.000000 0.422619 0.906308 0.000000 2654.dat
1 47 -54.653540 -103.990000 70.577930 0.906308 0.422618 0.000000 0.000000 0.000000 -1.000000 -0.422618 0.906308 0.000000 2654.dat
0 STEP
1 0 -30.000000 -224.000000 8.461530 1.000000 0.000000 0.000000 0.000000 1.000000 0.000000 0.000000 0.000000 1.000000 59900.dat
1 0 30.000000 -224.000000 8.461530 1.000000 0.000000 0.000000 0.000000 1.000000 0.000000 0.000000 0.000000 1.000000 59900.dat
1 0 -30.000000 -233.500000 8.461560 1.000000 0.000000 0.000000 0.000000 1.000000 0.000000 0.000000 0.000000 1.000000 32474.dat
1 0 30.000000 -233.500000 8.461550 1.000000 0.000000 0.000000 0.000000 1.000000 0.000000 0.000000 0.000000 1.000000 32474.dat
0 STEP
1 47 -54.000010 -79.170000 -39.538470 0.000000 0.000000 -1.000000 -1.000000 0.000000 0.000000 0.000000 1.000000 0.000000 25893a.dat
1 47 -54.000010 -79.170000 -47.538480 1.000000 0.000000 0.000000 0.000000 0.000000 -1.000000 0.000000 1.000000 0.000000 6141.dat
1 47 -54.000000 -79.170000 -55.538480 1.000000 0.000000 0.000000 0.000000 0.000000 -1.000000 0.000000 1.000000 0.000000 6141.dat
0 STEP
1 4 -54.000000 -79.170010 -63.538480 -0.707107 0.000000 0.707107 0.707107 0.000000 0.707107 0.000000 1.000000 0.000000 3176.dat
1 4 -54.000000 -79.170010 -71.538480 -0.707107 0.000000 -0.707107 -0.707107 0.000000 0.707107 0.000000 1.000000 0.000000 3176.dat
0 STEP
1 70 54.000000 -54.000030 9.351520 1.000000 0.000000 0.000000 0.000000 0.000000 1.000000 0.000000 -1.000000 0.000000 30374.dat
1 70 56.535710 -59.437960 -62.598720 0.906308 0.422618 0.000000 0.422620 -0.906312 0.000000 0.000000 0.000000 -1.000004 15712.dat
0 STEP
1 70 59.916660 -66.688510 -62.598720 0.906308 0.422618 0.000000 0.422620 -0.906312 0.000000 0.000000 0.000000 -1.000004 30367c.dat
1 14 70.059500 -88.439960 -62.598740 0.906308 0.422618 0.000000 0.422620 -0.906312 0.000000 0.000000 0.000000 -1.000004 4032a.dat
0 STEP
1 70 190.000000 8.000000 -50.000000 1.000000 0.000000 0.000000 0.000000 1.000000 0.000000 0.000000 0.000000 1.000000 3957b.dat
1 2 190.000000 -24.010000 -50.000000 1.000000 0.000000 0.000000 0.000000 1.000000 0.000000 0.000000 0.000000 1.000000 3062b.dat
1 2 190.000000 -49.500000 -50.000000 1.000000 0.000000 0.000000 0.000000 1.000000 0.000000 0.000000 0.000000 1.000000 3062b.dat
0 STEP
1 10 190.000000 -57.500000 -50.000000 0.000000 0.000000 1.000000 0.000000 1.000000 0.000000 -1.000000 0.000000 0.000000 32607.dat
1 2 190.000000 -84.000000 -50.000000 1.000000 0.000000 0.000000 0.000000 1.000000 0.000000 0.000000 0.000000 1.000000 3062b.dat
1 2 190.000000 -108.000000 -49.999990 -0.719339 0.000000 -0.694659 0.000000 1.000000 0.000000 0.694659 0.000000 -0.719339 4070.dat
0 STEP
1 14 183.053400 -97.999980 -57.193390 0.719339 -0.694659 0.000000 0.000000 0.000000 1.000000 -0.694659 -0.719339 0.000000 4740.dat
1 70 177.496100 -97.999980 -62.948100 0.719339 -0.694659 0.000000 0.000000 0.000000 1.000000 -0.694659 -0.719339 0.000000 6141.dat
0 STEP
1 70 -190.000000 0.000000 -50.000000 1.000000 0.000000 0.000000 0.000000 1.000000 0.000000 0.000000 0.000000 1.000000 6141.dat
1 10 -190.000000 -8.000000 -50.000000 1.000000 0.000000 0.000000 0.000000 1.000000 0.000000 0.000000 0.000000 1.000000 32607.dat
0 STEP
1 2 -190.000000 -32.000000 -50.000000 1.000000 0.000000 0.000000 0.000000 1.000000 0.000000 0.000000 0.000000 1.000000 3062b.dat
1 2 -190.000000 -56.000000 -50.000000 -0.573577 0.000000 0.819152 0.000000 1.000000 0.000000 -0.819152 0.000000 -0.573577 4070.dat
0 STEP
1 14 -181.808500 -46.000000 -55.735780 0.573576 0.819152 0.000000 0.000000 0.000000 1.000000 0.819152 -0.573577 0.000000 4740.dat
1 70 -175.255200 -46.000000 -60.324400 0.573576 0.819152 0.000000 0.000000 0.000000 1.000000 0.819152 -0.573577 0.000000 6141.dat
0 STEP
0 NOFILE
0 FILE Flower
0 Flower
0 Name: Flower
0 Author: 
0 CustomBrick
0 FlexibleBrickControlPointUnitLength -1
0 FlexibleBrickLockedControlPoint 
0 NumOfBricks 10
1 10 -1.406230 -8.000000 1.119460 1.000000 0.000000 0.000000 0.000000 1.000000 0.000000 0.000000 0.000000 1.000000 32607.dat
1 2 -1.406240 -32.000000 1.119460 1.000000 0.000000 0.000000 0.000000 1.000000 0.000000 0.000000 0.000000 1.000000 59900.dat
0 STEP
1 2 -1.406240 -36.192600 1.119460 0.707108 0.000000 -0.707106 0.000000 1.000000 0.000000 0.707106 0.000000 0.707108 bl_24855.dat
1 2 -1.406240 -47.942600 1.119460 0.939692 0.000000 0.342021 0.000000 1.000000 0.000000 -0.342021 0.000000 0.939692 bl_24855.dat
0 STEP
1 4 -19.291580 -61.174180 5.913230 0.619641 0.554204 -0.555790 -0.287094 0.819083 0.496669 0.730494 -0.148193 0.666646 24866.dat
1 4 -4.620280 -72.924180 19.355020 0.670556 0.099909 -0.735101 0.364025 0.819083 0.443384 0.646406 -0.564909 0.512871 24866.dat
1 4 14.917930 -69.411740 17.450660 0.592303 -0.386661 -0.706873 0.545715 0.837970 -0.001105 0.592766 -0.385097 0.707339 24866.dat
1 4 4.243070 -66.571380 -19.936600 0.729341 -0.143316 -0.668971 -0.283385 0.826701 -0.486065 0.622700 0.544083 0.562333 24866.dat
1 4 21.497700 -83.130550 -7.214360 0.722655 -0.512426 -0.463885 0.302734 0.837970 -0.454047 0.621387 0.187685 0.760692 24866.dat
1 4 -18.192830 -78.494980 -12.974780 0.521632 0.432539 -0.735398 -0.554971 0.826701 0.092589 0.648002 0.359828 0.671280 24866.dat
0 STEP
0 NOFILE
