0 FILE 
0 40878 Teenage Mutant Ninja Turtles
0 Name: 
0 Author: 
0 SetNumber: 40878
0 Name: Teenage Mutant Ninja Turtles
0 _submodels: Donatello, Leonardo, Raphael, Michelangelo
1 16 4.1261 0 9.9825 1 0 0 0 1 0 0 0 1 donatello
0 STEP
1 16 180 0 -10 1 0 0 0 1 0 0 0 1 leonardo
1 16 360 0 -10 1 0 0 0 1 0 0 0 1 raphael
1 16 540 0 20 1 0 0 0 1 0 0 0 1 michelangelo
0 STEP
0 NOFILE
0 FILE Donatello
0 Donatello
0 Name: Donatello
0 Author: 
0 CustomBrick
0 FlexibleBrickControlPointUnitLength -1
0 FlexibleBrickLockedControlPoint 
0 NumOfBricks 143
1 0 -4.1261 -8 -9.9825 1 0 0 0 1 0 0 0 1 3958.dat
0 STEP
1 0 -4.1261 -16 -39.9825 1 0 0 0 1 0 0 0 1 2431.dat
1 0 -4.1261 -16 10.0175 1 0 0 0 1 0 0 0 1 87079.dat
1 0 -4.1261 -16 -19.9825 1 0 0 0 1 0 0 0 1 41740.dat
0 STEP
1 27 -34.1261 -24 -9.9825 0 0 1 0 1 0 -1 0 0 3023b.dat
1 27 25.8739 -24 -9.9825 0 0 1 0 1 0 -1 0 0 3023b.dat
1 85 -34.126 -32 -9.9825 0 0 1 0 1 0 -1 0 0 3023b.dat
1 85 25.8739 -32 -9.9825 0 0 1 0 1 0 -1 0 0 3023b.dat
0 STEP
1 27 -4.126 -48 -9.9825 0.999998 0 0 0 1 0 0 0 0.999998 3020.dat
1 27 -34.1261 -40 -9.9825 0.000001 0 1 0 1 0 -1 0 0.000001 3023b.dat
1 27 25.874 -40 -9.9825 0 0 1 0 1 0 -1 0 0 3023b.dat
0 STEP
1 27 -34.126 -56 -9.9825 0 0 0.999998 0 1 0 -0.999998 0 0 3023b.dat
1 27 25.8739 -56 -9.9825 0 0 0.999998 0 1 0 -0.999998 0 0 3023b.dat
0 STEP
1 27 -4.126 -56 0.0175 -0.999998 0 0 0 1 0 0 0 -0.999998 28802.dat
1 27 -4.1255 -56 -19.9825 0.999998 0 0 0 1 0 0 0 0.999998 28802.dat
0 STEP
1 19 -4.126 -64 -9.9825 0.999998 0 0 0 1 0 0 0 0.999998 14769pb160.dat
1 0 -34.126 -96 -9.9825 0 0 0.999998 0 1 0 -0.999998 0 0 22885.dat
1 0 25.8739 -96 -9.9825 0 0 -0.999998 0 1 0 0.999998 0 0 22885.dat
0 STEP
1 4 -4.1255 -88 -9.9825 1 0 0 0 1 0 0 0 1 3941.dat
0 STEP
1 0 -4.1255 -96 -19.9825 1 0 0 0 1 0 0 0 1 93274.dat
1 0 -4.1255 -96 0.0175 -1 0 0 0 1 0 0 0 -1 93274.dat
0 STEP
1 27 -4.1255 -56 -41.9825 1 0 0 0 0 -1 0 1 0 3022.dat
1 27 -4.1255 -86 -41.9825 1 0 0 0 0 -1 0 1 0 3710.dat
1 27 -34.1255 -46 -41.9825 1 0 0 0 0 -1 0 1 0 3024.dat
1 27 25.8744 -46 -41.9824 1 0 0 0 0 -1 0 1 0 3024.dat
0 STEP
1 0 -34.1255 -66 -49.9825 1 0 0 0 0 -1 0 1 0 86996.dat
1 0 25.8745 -66 -49.9825 1 0 0 0 0 -1 0 1 0 86996.dat
1 191 15.8745 -86 -49.9825 1 0 0 0 0 -1 0 1 0 15573.dat
1 191 -24.1255 -86 -49.9825 1 0 0 0 0 -1 0 1 0 3069b.dat
1 191 -4.1255 -56 -49.9825 1 0 0 0 0 -1 0 1 0 3022.dat
1 191 -34.1255 -46 -49.9825 1 0 0 0 0 -1 0 1 0 3070b.dat
1 191 25.8744 -46 -49.9824 1 0 0 0 0 -1 0 1 0 3070b.dat
0 STEP
1 0 -4.1255 -66 -57.9825 1 0 0 0 0 -1 0 1 0 15573.dat
1 0 -4.1255 -66 -57.9825 1 0 0 0 0 -1 0 1 0 bl_98138pb470.dat
1 0 5.8745 -86 -57.9825 -1 0 0 0 0 1 0 1 0 5092.dat
1 0 -34.1255 -66 -57.9825 1 0 0 0 0 -1 0 1 0 3070b.dat
1 0 25.8745 -66 -57.9825 1 0 0 0 0 -1 0 1 0 3070b.dat
0 STEP
1 27 43.8739 -86 0.0175 0 -1 0 1 0 0 0 0 1 3024.dat
1 27 43.8739 -76 -19.9825 0 -1 0 -1 0 0 0 0 -1 3023b.dat
1 30 43.8739 -66 0.0175 0 -1 0 -1 0 0 0 0 -1 36840.dat
0 STEP
1 27 51.8739 -86 -9.9825 0 -1 0 0 0 1 -1 0 0 3069b.dat
1 27 51.8739 -66 -9.9825 0 -1 0 0 0 -1 1 0 0 11476.dat
0 STEP
1 85 45.8739 -66 22.0174 0 0 -1 1 0 0 0 -1 0 3070b.dat
1 85 59.8739 -66 0.0175 0 -1 0 1 0 0 0 0 1 25269.dat
0 STEP
1 27 -4.1255 -86 22.0175 1 0 0 0 0 1 0 -1 0 3710.dat
1 27 -4.1255 -56 22.0175 1 0 0 0 0 1 0 -1 0 3020.dat
0 STEP
1 0 -4.1255 -66 30.0175 1 0 0 0 0 1 0 -1 0 3710.dat
1 0 -4.1255 -66 38.0175 1 0 0 0 0 1 0 -1 0 3710.dat
0 STEP
1 27 -4.1255 -86 30.0175 1 0 0 0 0 1 0 -1 0 3710.dat
1 27 -4.1255 -46 30.0175 1 0 0 0 0 1 0 -1 0 3710.dat
0 STEP
1 70 -4.1255 -86 38.0175 1 0 0 0 0 1 0 -1 0 35480.dat
1 70 -4.1255 -46 38.0175 1 0 0 0 0 1 0 -1 0 35480.dat
1 70 25.8745 -86 38.0175 1 0 0 0 0 1 0 -1 0 25269.dat
1 70 -34.1255 -86 38.0175 0 0 1 -1 0 0 0 -1 0 25269.dat
1 70 -34.1255 -46 38.0175 -1 0 0 0 0 -1 0 -1 0 25269.dat
1 70 25.8745 -46 38.0175 0 0 -1 1 0 0 0 -1 0 25269.dat
0 STEP
1 70 5.8745 -76 46.0175 0 0 1 -1 0 0 0 -1 0 35480.dat
1 85 -14.1255 -66 46.0175 1 0 0 0 0 1 0 -1 0 3024.dat
1 0 -4.1255 -66 54.0175 1 0 0 0 0 1 0 -1 0 3069b.dat
1 70 -4.1255 -46 38.0175 -1 0 0 0 0 -1 0 -1 0 85984.dat
1 0 -34.1255 -66 38.0175 0 0 1 -1 0 0 0 -1 0 54200.dat
1 0 25.8745 -66 38.0175 0 0 -1 1 0 0 0 -1 0 54200.dat
1 70 -14.1255 -86 38.0175 1 0 0 0 0 1 0 -1 0 54200.dat
1 70 5.8745 -86 69.0175 -0.573577 0 0.819152 -0.819152 0 -0.573577 0 -1 0 48729b.dat
0 STEP
1 27 -52.126 -86 -9.9825 0 1 0 0 0 -1 -1 0 0 3023b.dat
1 27 -52.126 -66 -19.9825 0 1 0 -1 0 0 0 0 1 3024.dat
1 30 -52.126 -66 0.0174 0 1 0 1 0 0 0 0 -1 36840.dat
1 85 -54.126 -66 22.0174 0 0 -1 1 0 0 0 -1 0 3070b.dat
0 STEP
1 27 -60.126 -76 -19.9825 0 1 0 -1 0 0 0 0 1 11476.dat
1 27 -60.126 -66 0.0174 0 1 0 -1 0 0 0 0 1 3024.dat
1 27 -60.126 -86 0.0174 0 1 0 -1 0 0 0 0 1 3070b.dat
1 85 -68.126 -66 0.0174 0 1 0 0 0 -1 -1 0 0 25269.dat
0 STEP
1 27 -4.126 -104 -9.9825 1 0 0 0 1 0 0 0 1 3031.dat
0 STEP
1 19 -4.126 -128 -9.9825 1 0 0 0 1 0 0 0 1 3003.dat
1 71 -24.126 -144 20.0175 -1 0 0 0 1 0 0 0 -1 22885.dat
1 71 15.874 -144 20.0175 -1 0 0 0 1 0 0 0 -1 22885.dat
1 71 25.874 -144 -9.9825 0 0 -1 0 1 0 1 0 0 22885.dat
1 71 -34.126 -144 -9.9825 0 0 1 0 1 0 -1 0 0 22885.dat
0 STEP
1 71 -24.126 -144 -39.9826 1 0 0 0 1 0 0 0 1 22885.dat
1 71 15.874 -144 -39.9826 1 0 0 0 1 0 0 0 1 22885.dat
1 19 -4.126 -152 -9.9825 1 0 0 0 1 0 0 0 1 3003.dat
1 85 -4.126 -160 -9.9825 1 0 0 0 1 0 0 0 1 4032a.dat
1 29 -4.126 -184 -9.9825 1 0 0 0 1 0 0 0 1 3003.dat
0 STEP
1 71 -4.126 -184 20.0175 -1 0 0 0 1 0 0 0 -1 22885.dat
1 71 25.874 -184 10.0175 0 0 -1 0 1 0 1 0 0 22885.dat
1 71 -34.126 -184 10.0175 0 0 1 0 1 0 -1 0 0 22885.dat
0 STEP
1 71 -34.126 -184 -29.9826 0 0 1 0 1 0 -1 0 0 22885.dat
1 71 25.874 -184 -29.9826 0 0 -1 0 1 0 1 0 0 22885.dat
1 71 -4.126 -184 -39.9826 1 0 0 0 1 0 0 0 1 22885.dat
0 STEP
1 27 -4.126 -114 -57.9826 1 0 0 0 0 -1 0 1 0 3710.dat
1 85 -4.126 -134 -57.9826 1 0 0 0 0 -1 0 1 0 3710.dat
1 27 -4.126 -114 -65.9825 1 0 0 0 0 -1 0 1 0 3710.dat
1 27 -4.126 -164 -57.9826 1 0 0 0 0 -1 0 1 0 3020.dat
0 STEP
1 27 -4.126 -114 -73.9825 1 0 0 0 0 -1 0 1 0 3023b.dat
1 85 -4.126 -134 -65.9826 1 0 0 0 0 -1 0 1 0 41740.dat
1 27 -4.126 -164 -65.9825 1 0 0 0 0 -1 0 1 0 87079.dat
1 27 -4.126 -114 -65.9825 0 0 1 1 0 0 0 1 0 93273.dat
0 STEP
1 0 -34.126 -134 -73.9826 1 0 0 0 0 -1 0 1 0 98138pz0.dat
1 0 25.874 -134 -73.9825 1 0 0 0 0 -1 0 1 0 98138pz0.dat
0 STEP
1 27 43.874 -114 -19.9825 0 -1 0 0 0 1 -1 0 0 3623.dat
1 27 -52.126 -114 -19.9825 0 1 0 0 0 1 1 0 0 3623.dat
0 STEP
1 27 35.874 -114 -49.9826 0 -1 0 1 0 0 0 0 1 11477.dat
1 27 35.874 -114 10.0175 0 -1 0 -1 0 0 0 0 -1 11477.dat
1 27 51.874 -114 -19.9825 0 -1 0 1 0 0 0 0 1 3070b.dat
1 27 -60.126 -114 -19.9825 0 1 0 -1 0 0 0 0 1 3070b.dat
1 27 -44.126 -114 -49.9826 0 1 0 -1 0 0 0 0 1 11477.dat
1 27 -44.126 -114 10.0174 0 1 0 1 0 0 0 0 -1 11477.dat
0 STEP
1 85 -52.126 -134 -9.9825 0 1 0 0 0 -1 -1 0 0 2431.dat
1 85 43.874 -134 -9.9825 0 -1 0 0 0 1 -1 0 0 2431.dat
1 27 43.874 -164 -9.9825 0 -1 0 0 0 1 -1 0 0 87079.dat
1 27 -52.126 -164 -9.9825 0 1 0 0 0 1 1 0 0 87079.dat
0 STEP
1 27 -4.126 -114 38.0174 1 0 0 0 0 1 0 -1 0 3710.dat
1 85 -4.126 -134 38.0175 1 0 0 0 0 1 0 -1 0 3710.dat
1 27 -4.126 -164 38.0175 1 0 0 0 0 1 0 -1 0 3020.dat
0 STEP
1 27 15.874 -114 46.0175 1 0 0 0 0 1 0 -1 0 3023b.dat
1 27 -24.126 -114 46.0175 1 0 0 0 0 1 0 -1 0 3069b.dat
1 85 -4.126 -134 46.0175 1 0 0 0 0 1 0 -1 0 3023b.dat
1 27 -4.126 -174 46.0175 1 0 0 0 0 1 0 -1 0 2431.dat
1 27 -34.126 -154 46.0175 1 0 0 0 0 1 0 -1 0 3070b.dat
1 27 -4.126 -154 46.0175 1 0 0 0 0 1 0 -1 0 3023b.dat
1 85 35.874 -154 46.0175 1 0 0 0 0 1 0 -1 0 3023b.dat
0 STEP
1 85 35.874 -114 38.0174 0 0 -1 1 0 0 0 -1 0 11477.dat
1 85 5.874 -114 54.0175 -1 0 0 0 0 -1 0 -1 0 25269.dat
1 85 25.874 -134 46.0175 1 0 0 0 0 1 0 -1 0 3070b.dat
1 85 -34.126 -134 46.0175 1 0 0 0 0 1 0 -1 0 3070b.dat
0 STEP
1 85 -14.126 -134 54.0175 0 0 1 -1 0 0 0 -1 0 24246.dat
1 85 5.874 -134 54.0175 1 0 0 0 0 1 0 -1 0 25269.dat
1 85 -14.126 -154 54.0175 0 0 1 -1 0 0 0 -1 0 25269.dat
1 85 15.874 -154 54.0175 1 0 0 0 0 1 0 -1 0 3069b.dat
1 85 55.874 -154 38.0175 0 0 -1 1 0 0 0 -1 0 11477.dat
0 STEP
1 0 5.8745 -36 -57.9825 0 0 1 1 0 0 0 1 0 5092.dat
1 0 -14.1255 -46 -57.9825 1 0 0 0 0 -1 0 1 0 25269.dat
0 STEP
1 27 -4.126 -192 -9.9825 1 0 0 0 1 0 0 0 1 3020.dat
0 STEP
1 27 -24.126 -184 10.0175 -1 0 0 0 1 0 0 0 -1 15068.dat
1 27 15.874 -184 10.0175 -1 0 0 0 1 0 0 0 -1 15068.dat
1 27 15.874 -184 -29.9825 1 0 0 0 1 0 0 0 1 15068.dat
1 27 -24.126 -184 -29.9825 1 0 0 0 1 0 0 0 1 15068.dat
0 STEP
1 297 49.8739 -46 11.5175 0 0 1 -1 0 0 0 -1 0 66909.dat
1 308 49.8739 -46 19.5175 0 0 1 -1 0 0 0 -1 0 37762.dat
1 308 49.8739 -46 51.5175 0 0 1 -1 0 0 0 -1 0 37762.dat
1 308 49.8739 -46 -36.4825 0 0 -1 -1 0 0 0 1 0 37762.dat
1 308 49.8739 -46 -68.4825 0 0 -1 -1 0 0 0 1 0 37762.dat
0 STEP
1 19 -54.1261 -72 -55.9825 0 -1 0 0 0 1 -1 0 0 14769pb160.dat
0 STEP
0 NOFILE
0 FILE Leonardo
0 Leonardo
0 Name: Leonardo
0 Author: 
0 CustomBrick
0 FlexibleBrickControlPointUnitLength -1
0 FlexibleBrickLockedControlPoint 
0 NumOfBricks 145
1 0 0 -8 10 1 0 0 0 1 0 0 0 1 3958.dat
1 0 0 -16 -20 1 0 0 0 1 0 0 0 1 2431.dat
1 0 0 -16 0 1 0 0 0 1 0 0 0 1 41740.dat
1 0 0 -16 30 1 0 0 0 1 0 0 0 1 87079.dat
0 STEP
1 2 -30 -24 10 0 0 1 0 1 0 -1 0 0 3023b.dat
1 2 30 -24 10 0 0 1 0 1 0 -1 0 0 3023b.dat
0 STEP
1 1 -30 -32 10 0 0 1 0 1 0 -1 0 0 3023b.dat
1 1 30 -32 10 0 0 1 0 1 0 -1 0 0 3023b.dat
0 STEP
1 2 -30 -40 10 0 0 1 0 1 0 -1 0 0 3023b.dat
1 2 30 -40 10 0 0 1 0 1 0 -1 0 0 3023b.dat
0 STEP
1 2 0 -48 10 1 0 0 0 1 0 0 0 1 3020.dat
0 STEP
1 2 30 -56 10 0 0 1 0 1 0 -1 0 0 3023b.dat
1 2 -30 -56 10 0 0 1 0 1 0 -1 0 0 3023b.dat
1 2 0 -56 20 -1 0 0 0 1 0 0 0 -1 28802.dat
1 2 0 -56 0 1 0 0 0 1 0 0 0 1 28802.dat
0 STEP
1 19 0 -64 10 1 0 0 0 1 0 0 0 1 14769pb160.dat
1 0 -30 -96 10 0 0 1 0 1 0 -1 0 0 22885.dat
1 0 30 -96 10 0 0 -1 0 1 0 1 0 0 22885.dat
0 STEP
1 4 0 -88 10 1 0 0 0 1 0 0 0 1 3941.dat
0 STEP
1 2 0 -96 0 1 0 0 0 1 0 0 0 1 93274.dat
1 2 0 -96 20 -1 0 0 0 1 0 0 0 -1 93274.dat
0 STEP
1 2 0 -56 -22 1 0 0 0 0 -1 0 1 0 3022.dat
1 2 0 -86 -22 -1 0 0 0 0 1 0 1 0 3710.dat
1 2 -30 -46 -22 1 0 0 0 0 -1 0 1 0 3024.dat
1 2 30 -46 -22 1 0 0 0 0 -1 0 1 0 3024.dat
1 0 -30 -66 -30 1 0 0 0 0 -1 0 1 0 86996.dat
1 0 30 -66 -30 1 0 0 0 0 -1 0 1 0 86996.dat
0 STEP
1 191 0 -56 -30 1 0 0 0 0 -1 0 1 0 3022.dat
1 191 -20 -86 -30 1 0 0 0 0 -1 0 1 0 3069b.dat
1 191 20 -86 -30 1 0 0 0 0 -1 0 1 0 3069b.dat
1 191 -30 -46 -30 1 0 0 0 0 -1 0 1 0 3070b.dat
1 191 30 -46 -30 1 0 0 0 0 -1 0 1 0 3070b.dat
0 STEP
1 0 0 -66 -38 1 0 0 0 0 -1 0 1 0 15573.dat
1 0 -30 -66 -38 1 0 0 0 0 -1 0 1 0 3070b.dat
1 0 30 -66 -38 1 0 0 0 0 -1 0 1 0 3070b.dat
1 0 0 -66 -38 1 0 0 0 0 -1 0 1 0 bl_98138pb467.dat
1 0 -10 -46 -38 0 0 1 1 0 0 0 1 0 25269.dat
1 0 10 -46 -38 0 0 1 1 0 0 0 1 0 25269.dat
0 STEP
1 2 48 -76 0 0 -1 0 1 0 0 0 0 1 3023b.dat
1 2 48 -86 20 0 -1 0 1 0 0 0 0 1 3024.dat
1 1 48 -66 20 0 -1 0 -1 0 0 0 0 -1 36840.dat
1 1 50 -66 42 0 0 1 -1 0 0 0 -1 0 3070b.dat
0 STEP
1 2 56 -66 10 0 -1 0 0 0 -1 1 0 0 11476.dat
1 2 56 -86 10 0 -1 0 0 0 -1 1 0 0 3069b.dat
1 1 64 -66 20 0 -1 0 1 0 0 0 0 1 25269.dat
0 STEP
1 2 0 -86 42 1 0 0 0 0 1 0 -1 0 3710.dat
1 2 0 -56 42 1 0 0 0 0 1 0 -1 0 3020.dat
0 STEP
1 0 0 -66 50 1 0 0 0 0 1 0 -1 0 15573.dat
1 2 0 -86 50 1 0 0 0 0 1 0 -1 0 3710.dat
1 2 0 -46 50 1 0 0 0 0 1 0 -1 0 3710.dat
0 STEP
1 70 0 -86 58 1 0 0 0 0 1 0 -1 0 3023b.dat
1 70 0 -46 58 1 0 0 0 0 1 0 -1 0 3023b.dat
1 70 30 -86 58 1 0 0 0 0 1 0 -1 0 25269.dat
1 70 -30 -86 58 0 0 1 -1 0 0 0 -1 0 25269.dat
1 70 -30 -46 58 -1 0 0 0 0 -1 0 -1 0 25269.dat
1 70 30 -46 58 0 0 -1 1 0 0 0 -1 0 25269.dat
0 STEP
1 0 30 -66 58 1 0 0 0 0 1 0 -1 0 86996.dat
1 0 0 -66 66 1 0 0 0 0 1 0 -1 0 86996.dat
1 0 -30 -66 58 1 0 0 0 0 1 0 -1 0 86996.dat
0 STEP
1 70 0 -86 58 1 0 0 0 0 1 0 -1 0 85984.dat
1 70 0 -46 58 -1 0 0 0 0 -1 0 -1 0 85984.dat
1 0 30 -66 58 0 0 -1 1 0 0 0 -1 0 54200.dat
1 0 -30 -66 58 0 0 1 -1 0 0 0 -1 0 54200.dat
0 STEP
1 2 -48 -76 0 0 1 0 -1 0 0 0 0 1 3023b.dat
1 2 -48 -86 20 0 1 0 -1 0 0 0 0 1 3024.dat
1 1 -48 -66 20 0 1 0 1 0 0 0 0 -1 36840.dat
0 STEP
1 2 -56 -66 10 0 1 0 0 0 -1 -1 0 0 11476.dat
1 1 -50 -66 42 0 0 1 -1 0 0 0 -1 0 3070b.dat
1 2 -56 -86 10 0 1 0 0 0 -1 -1 0 0 3069b.dat
0 STEP
1 1 -64 -66 20 0 1 0 0 0 -1 -1 0 0 25269.dat
0 STEP
1 2 0 -104 10 1 0 0 0 1 0 0 0 1 3031.dat
0 STEP
1 19 0 -128 10 1 0 0 0 1 0 0 0 1 3003.dat
1 71 -20 -144 40 -1 0 0 0 1 0 0 0 -1 22885.dat
1 71 20 -144 40 -1 0 0 0 1 0 0 0 -1 22885.dat
1 71 -30 -144 10 0 0 1 0 1 0 -1 0 0 22885.dat
1 71 30 -144 10 0 0 -1 0 1 0 1 0 0 22885.dat
0 STEP
1 1 0 -136 10 1 0 0 0 1 0 0 0 1 4032a.dat
1 19 0 -160 10 1 0 0 0 1 0 0 0 1 3003.dat
1 71 -20 -144 -20 1 0 0 0 1 0 0 0 1 22885.dat
1 71 20 -144 -20 1 0 0 0 1 0 0 0 1 22885.dat
0 STEP
1 71 0 -184 40 -1 0 0 0 1 0 0 0 -1 22885.dat
1 71 -30 -184 30 0 0 1 0 1 0 -1 0 0 22885.dat
1 71 30 -184 30 0 0 -1 0 1 0 1 0 0 22885.dat
1 29 0 -184 10 1 0 0 0 1 0 0 0 1 3003.dat
0 STEP
1 71 -30 -184 -10 0 0 1 0 1 0 -1 0 0 22885.dat
1 71 30 -184 -10 0 0 -1 0 1 0 1 0 0 22885.dat
1 71 0 -184 -20 1 0 0 0 1 0 0 0 1 22885.dat
0 STEP
1 2 0 -114 -38 1 0 0 0 0 -1 0 1 0 3710.dat
1 1 0 -134 -38 1 0 0 0 0 -1 0 1 0 3710.dat
1 2 0 -164 -38 1 0 0 0 0 -1 0 1 0 3020.dat
0 STEP
1 2 0 -114 -46 1 0 0 0 0 -1 0 1 0 3710.dat
1 1 0 -134 -46 1 0 0 0 0 -1 0 1 0 41740.dat
1 2 0 -164 -46 1 0 0 0 0 -1 0 1 0 87079.dat
0 STEP
1 2 0 -114 -54 1 0 0 0 0 -1 0 1 0 3023b.dat
1 0 -30 -134 -54 1 0 0 0 0 -1 0 1 0 98138pz0.dat
1 0 30 -134 -54 1 0 0 0 0 -1 0 1 0 98138pz0.dat
1 2 0 -114 -46 0 0 1 1 0 0 0 1 0 93273.dat
0 STEP
1 2 48 -114 0 0 -1 0 0 0 -1 1 0 0 3623.dat
1 2 -48 -114 0 0 1 0 0 0 -1 -1 0 0 3623.dat
1 1 48 -134 10 0 -1 0 0 0 1 -1 0 0 2431.dat
1 1 -48 -134 10 0 1 0 0 0 1 1 0 0 2431.dat
1 2 -48 -164 10 0 1 0 0 0 -1 -1 0 0 87079.dat
1 2 48 -164 10 0 -1 0 0 0 -1 1 0 0 87079.dat
0 STEP
1 2 -40 -114 -30 0 1 0 -1 0 0 0 0 1 11477.dat
1 2 -40 -114 30 0 1 0 1 0 0 0 0 -1 11477.dat
1 2 40 -114 30 0 -1 0 -1 0 0 0 0 -1 11477.dat
1 2 40 -114 -30 0 -1 0 1 0 0 0 0 1 11477.dat
1 2 56 -114 0 0 -1 0 1 0 0 0 0 1 3070b.dat
1 2 -56 -114 0 0 1 0 -1 0 0 0 0 1 3070b.dat
0 STEP
1 2 -20 -114 58 1 0 0 0 0 1 0 -1 0 3023b.dat
1 1 30 -114 58 1 0 0 0 0 1 0 -1 0 3623.dat
1 2 0 -164 58 1 0 0 0 0 1 0 -1 0 3020.dat
1 1 0 -134 58 1 0 0 0 0 1 0 -1 0 3710.dat
0 STEP
1 2 -20 -114 66 1 0 0 0 0 1 0 -1 0 3069b.dat
1 1 60 -114 50 0 0 -1 1 0 0 0 -1 0 29119.dat
1 2 10 -114 66 1 0 0 0 0 1 0 -1 0 3024.dat
1 1 30 -114 58 0 0 -1 1 0 0 0 -1 0 54200.dat
1 1 10 -134 66 1 0 0 0 0 1 0 -1 0 3623.dat
1 1 -30 -134 66 1 0 0 0 0 1 0 -1 0 3070b.dat
1 2 0 -164 66 1 0 0 0 0 1 0 -1 0 87079.dat
0 STEP
1 1 40 -134 58 0 0 -1 1 0 0 0 -1 0 29120.dat
1 1 10 -134 74 1 0 0 0 0 1 0 -1 0 3070b.dat
1 1 -10 -134 74 0 0 1 -1 0 0 0 -1 0 24246.dat
1 1 10 -114 74 -1 0 0 0 0 -1 0 -1 0 25269.dat
0 STEP
1 19 0 -66 74 1 0 0 0 0 1 0 -1 0 78258.dat
1 0 0 -66 86 -0.707107 0 0.707106 -0.707106 0 -0.707107 0 -1 0 77850.dat
1 0 0 -66 94 -0.707106 0 -0.707107 0.707107 0 -0.707106 0 -1 0 77850.dat
0 STEP
1 0 14.1421 -80.1422 86 -0.707107 0 -0.707107 0.707107 0 -0.707107 0 -1 0 6141.dat
1 0 -14.1421 -51.8579 86 -0.707107 0 -0.707107 0.707107 0 -0.707107 0 -1 0 6141.dat
1 0 -14.1421 -80.1421 94 -0.707106 0 -0.707107 0.707107 0 -0.707106 0 -1 0 6141.dat
1 0 14.1421 -51.8579 94 -0.707106 0 -0.707107 0.707107 0 -0.707106 0 -1 0 6141.dat
0 STEP
1 0 0 -66 102 0.707107 0 -0.707106 0.707106 0 0.707107 0 -1 0 3070b.dat
1 0 -21.2132 -44.7868 102 -0.707106 0 -0.707107 0.707107 0 -0.707106 0 -1 0 5092.dat
1 0 21.2132 -44.7868 102 0.707107 0 -0.707107 0.707107 0 0.707107 0 -1 0 5091.dat
1 0 14.1421 -80.1422 102 0.707107 0 -0.707106 0.707106 0 0.707107 0 -1 0 36841.dat
1 0 -14.1421 -80.1421 102 0.707106 0 0.707107 -0.707107 0 0.707106 0 -1 0 36841.dat
1 71 29.6985 -95.6985 92 0.707107 -0.707106 0 0.707106 0.707107 0 0 0 1 85861.dat
1 71 -29.6985 -95.6985 92 0.707106 0.707107 0 -0.707107 0.707106 0 0 0 1 85861.dat
0 STEP
1 2 -0 -192 10 1 0 0 0 1 0 0 0 1 3020.dat
0 STEP
1 2 -20 -184 -10 1 0 0 0 1 0 0 0 1 15068.dat
1 2 20 -184 -10 1 0 0 0 1 0 0 0 1 15068.dat
1 2 -20 -184 30 -1 0 0 0 1 0 0 0 -1 15068.dat
1 2 20 -184 30 -1 0 0 0 1 0 0 0 -1 15068.dat
0 STEP
1 297 -53.9634 -46.1188 14.64 1 0 0 0 0 -1 0 1 0 21459.dat
1 297 54.0366 -46.1188 17.51 1 0 0 0 0 -1 0 1 0 21459.dat
0 STEP
0 NOFILE
0 FILE Raphael
0 Raphael
0 Name: Raphael
0 Author: 
0 CustomBrick
0 FlexibleBrickControlPointUnitLength -1
0 FlexibleBrickLockedControlPoint 
0 NumOfBricks 133
1 0 0 -8 10 1 0 0 0 1 0 0 0 1 3958.dat
1 0 0 -16 30 1 0 0 0 1 0 0 0 1 87079.dat
1 0 0 -16 0 1 0 0 0 1 0 0 0 1 41740.dat
1 0 0 -16 -20 1 0 0 0 1 0 0 0 1 41740.dat
0 STEP
1 10 -30 -24 10 0 0 1 0 1 0 -1 0 0 3023b.dat
1 10 30 -24 10 0 0 1 0 1 0 -1 0 0 3023b.dat
1 4 -30 -32 10 0 0 1 0 1 0 -1 0 0 3023b.dat
1 4 30 -32 10 0 0 1 0 1 0 -1 0 0 3023b.dat
1 10 -30 -40 10 0 0 1 0 1 0 -1 0 0 3023b.dat
1 10 30 -40 10 0 0 1 0 1 0 -1 0 0 3023b.dat
0 STEP
1 10 0 -48 10 1 0 0 0 1 0 0 0 1 3020.dat
1 10 -30 -56 10 0 0 1 0 1 0 -1 0 0 3023b.dat
1 10 30 -56 10 0 0 1 0 1 0 -1 0 0 3023b.dat
0 STEP
1 2 0 -56 20 -1 0 0 0 1 0 0 0 -1 28802.dat
1 2 0 -56 0 1 0 0 0 1 0 0 0 1 28802.dat
0 STEP
1 19 0 -64 10 1 0 0 0 1 0 0 0 1 14769pb160.dat
1 0 -30 -96 10 0 0 1 0 1 0 -1 0 0 22885.dat
1 0 30 -96 10 0 0 -1 0 1 0 1 0 0 22885.dat
0 STEP
1 4 0 -88 10 1 0 0 0 1 0 0 0 1 3941.dat
0 STEP
1 2 0 -96 0 1 0 0 0 1 0 0 0 1 93274.dat
1 2 0 -96 20 -1 0 0 0 1 0 0 0 -1 93274.dat
0 STEP
1 10 0 -56 -22 1 0 0 0 0 -1 0 1 0 3022.dat
1 10 0 -86 -22 1 0 0 0 0 -1 0 1 0 3710.dat
1 10 -30 -46 -22 1 0 0 0 0 -1 0 1 0 3024.dat
1 10 30 -46 -22 1 0 0 0 0 -1 0 1 0 3024.dat
1 0 -30 -66 -30 1 0 0 0 0 -1 0 1 0 86996.dat
1 0 30 -66 -30 1 0 0 0 0 -1 0 1 0 86996.dat
0 STEP
1 191 -20 -86 -30 1 0 0 0 0 -1 0 1 0 3069b.dat
1 191 20 -86 -30 1 0 0 0 0 -1 0 1 0 3069b.dat
1 191 20 -46 -30 1 0 0 0 0 -1 0 1 0 3069b.dat
1 191 -10 -66 -30 0 0 1 1 0 0 0 1 0 2420.dat
1 191 -30 -46 -30 1 0 0 0 0 -1 0 1 0 3070b.dat
0 STEP
1 0 0 -66 -38 1 0 0 0 0 -1 0 1 0 15573.dat
1 0 0 -66 -38 1 0 0 0 0 -1 0 1 0 bl_98138pb468.dat
0 STEP
1 0 -10 -46 -46 1 0 0 0 0 -1 0 1 0 25269.dat
1 191 -10 -46 -38 0 0 -1 -1 0 0 0 1 0 36840.dat
1 0 4 -46 -40 0 -1 0 0 0 1 -1 0 0 54200.dat
0 STEP
1 0 -30 -66 -38 1 0 0 0 0 -1 0 1 0 3070b.dat
1 0 30 -66 -38 1 0 0 0 0 -1 0 1 0 3070b.dat
0 STEP
1 10 48 -76 0 0 -1 0 1 0 0 0 0 1 3023b.dat
1 10 48 -86 20 0 -1 0 1 0 0 0 0 1 3024.dat
1 4 48 -66 20 0 -1 0 -1 0 0 0 0 -1 36840.dat
1 4 50 -66 42 0 0 -1 1 0 0 0 -1 0 3070b.dat
0 STEP
1 10 56 -86 10 0 -1 0 0 0 1 -1 0 0 3069b.dat
1 10 56 -66 10 0 -1 0 0 0 -1 1 0 0 11476.dat
1 4 64 -66 20 0 -1 0 1 0 0 0 0 1 25269.dat
0 STEP
1 10 0 -86 42 1 0 0 0 0 1 0 -1 0 3710.dat
1 10 0 -56 42 1 0 0 0 0 1 0 -1 0 3020.dat
0 STEP
1 0 0 -66 50 1 0 0 0 0 1 0 -1 0 3710.dat
1 0 0 -66 58 1 0 0 0 0 1 0 -1 0 3710.dat
1 10 0 -86 50 1 0 0 0 0 1 0 -1 0 3710.dat
1 10 0 -46 50 1 0 0 0 0 1 0 -1 0 3710.dat
0 STEP
1 4 0 -66 66 1 0 0 0 0 1 0 -1 0 3023b.dat
1 70 0 -86 58 1 0 0 0 0 1 0 -1 0 3023b.dat
1 70 0 -46 58 1 0 0 0 0 1 0 -1 0 3023b.dat
1 70 30 -86 58 1 0 0 0 0 1 0 -1 0 25269.dat
1 70 -30 -86 58 0 0 1 -1 0 0 0 -1 0 25269.dat
1 70 -30 -46 58 -1 0 0 0 0 -1 0 -1 0 25269.dat
1 70 30 -46 58 0 0 -1 1 0 0 0 -1 0 25269.dat
0 STEP
1 70 0 -86 58 1 0 0 0 0 1 0 -1 0 85984.dat
1 70 0 -46 58 -1 0 0 0 0 -1 0 -1 0 85984.dat
1 0 -30 -66 58 0 0 1 -1 0 0 0 -1 0 54200.dat
1 0 30 -66 58 0 0 -1 1 0 0 0 -1 0 54200.dat
1 0 10 -66 74 1 0 0 0 0 1 0 -1 0 15712.dat
1 0 -10 -66 74 1 0 0 0 0 1 0 -1 0 15712.dat
0 STEP
1 10 -48 -76 0 0 1 0 -1 0 0 0 0 1 3023b.dat
1 10 -48 -86 20 0 1 0 -1 0 0 0 0 1 3024.dat
1 4 -48 -66 20 0 1 0 1 0 0 0 0 -1 36840.dat
1 4 -50 -66 42 0 0 1 -1 0 0 0 -1 0 3070b.dat
0 STEP
1 10 -56 -86 10 0 1 0 0 0 -1 -1 0 0 3069b.dat
1 10 -56 -66 10 0 1 0 0 0 -1 -1 0 0 11476.dat
1 4 -64 -66 20 0 1 0 0 0 -1 -1 0 0 25269.dat
0 STEP
1 10 0 -104 10 1 0 0 0 1 0 0 0 1 3031.dat
0 STEP
1 71 -20 -144 40 -1 0 0 0 1 0 0 0 -1 22885.dat
1 71 20 -144 40 -1 0 0 0 1 0 0 0 -1 22885.dat
1 19 0 -128 10 1 0 0 0 1 0 0 0 1 3003.dat
1 71 -30 -144 10 0 0 1 0 1 0 -1 0 0 22885.dat
1 71 30 -144 10 0 0 -1 0 1 0 1 0 0 22885.dat
0 STEP
1 19 0 -152 10 1 0 0 0 1 0 0 0 1 3003.dat
1 71 -20 -144 -20 1 0 0 0 1 0 0 0 1 22885.dat
1 71 20 -144 -20 1 0 0 0 1 0 0 0 1 22885.dat
0 STEP
1 71 0 -184 40 -1 0 0 0 1 0 0 0 -1 22885.dat
1 71 30 -184 30 0 0 -1 0 1 0 1 0 0 22885.dat
1 71 -30 -184 30 0 0 1 0 1 0 -1 0 0 22885.dat
1 71 -30 -184 -10 0 0 1 0 1 0 -1 0 0 22885.dat
1 71 30 -184 -10 0 0 -1 0 1 0 1 0 0 22885.dat
0 STEP
1 4 0 -160 10 1 0 0 0 1 0 0 0 1 4032a.dat
1 29 0 -184 10 1 0 0 0 1 0 0 0 1 3003.dat
0 STEP
1 71 0 -184 -20 1 0 0 0 1 0 0 0 1 22885.dat
0 STEP
1 10 0 -114 -38 1 0 0 0 0 -1 0 1 0 3710.dat
1 4 0 -134 -38 1 0 0 0 0 -1 0 1 0 3710.dat
1 10 0 -164 -38 1 0 0 0 0 -1 0 1 0 3020.dat
0 STEP
1 10 0 -114 -46 1 0 0 0 0 -1 0 1 0 3710.dat
1 4 0 -134 -46 1 0 0 0 0 -1 0 1 0 41740.dat
1 10 0 -164 -46 1 0 0 0 0 -1 0 1 0 87079.dat
0 STEP
1 0 -30 -134 -54 1 0 0 0 0 -1 0 1 0 98138pz0.dat
1 0 30 -134 -54 1 0 0 0 0 -1 0 1 0 98138pz0.dat
1 10 0 -114 -54 1 0 0 0 0 -1 0 1 0 3023b.dat
0 STEP
1 10 0 -114 -46 0 0 1 1 0 0 0 1 0 93273.dat
0 STEP
1 10 48 -114 0 0 -1 0 0 0 1 -1 0 0 3623.dat
1 10 -48 -114 -0 0 1 0 0 0 -1 -1 0 0 3623.dat
1 4 48 -134 10 0 -1 0 0 0 1 -1 0 0 2431.dat
1 4 -48 -134 10 0 1 0 0 0 1 1 0 0 2431.dat
1 10 -48 -164 10 0 1 0 0 0 -1 -1 0 0 87079.dat
1 10 48 -164 10 0 -1 0 0 0 -1 1 0 0 87079.dat
0 STEP
1 10 40 -114 -30 0 -1 0 1 0 0 0 0 1 11477.dat
1 10 40 -114 30 0 -1 0 -1 0 0 0 0 -1 11477.dat
1 10 56 -114 0 0 -1 0 1 0 0 0 0 1 3070b.dat
1 10 -40 -114 -30 0 1 0 -1 0 0 0 0 1 11477.dat
1 10 -40 -114 30 0.000001 1 0 1 0 0 0 0 -1 11477.dat
1 10 -56 -114 0 0 1 0 -1 0 0 0 0 1 3070b.dat
0 STEP
1 10 -0 -114 58 1 0 0 0 0 1 0 -1 0 3710.dat
1 4 -0 -134 58 1 0 0 0 0 1 0 -1 0 3710.dat
1 10 0 -164 58 1 0 0 0 0 1 0 -1 0 3020.dat
0 STEP
1 10 -0 -114 66 1 0 0 0 0 1 0 -1 0 2431.dat
1 4 -30 -134 66 1 0 0 0 0 1 0 -1 0 3070b.dat
1 4 -0 -134 66 1 0 0 0 0 1 0 -1 0 3023b.dat
1 10 0 -174 66 1 0 0 0 0 1 0 -1 0 2431.dat
1 10 -20 -154 66 1 0 0 0 0 1 0 -1 0 3069b.dat
1 10 10 -154 66 1 0 0 0 0 1 0 -1 0 3024.dat
1 4 30 -134 66 0 0 1 -1 0 0 0 -1 0 2420.dat
0 STEP
1 4 40 -154 58 0 0 -1 1 0 0 0 -1 0 29120.dat
1 4 60 -134 58 0 0 -1 1 0 0 0 -1 0 29119.dat
1 4 20 -134 74 1 0 0 0 0 1 0 -1 0 3069b.dat
1 4 10 -154 74 0 0 1 -1 0 0 0 -1 0 25269.dat
1 4 -10 -134 74 0 0 1 -1 0 0 0 -1 0 24246.dat
0 STEP
1 10 -0 -192 10 1 0 0 0 1 0 0 0 1 3020.dat
1 10 -20 -184 30 -1 0 0 0 1 0 0 0 -1 15068.dat
1 10 20 -184 30 -1 0 0 0 1 0 0 0 -1 15068.dat
1 10 -20 -184 -10 1 0 0 0 1 0 0 0 1 15068.dat
1 10 20 -184 -10 1 0 0 0 1 0 0 0 1 15068.dat
1 297 -54 -46 19.78 0.34202 0 0.939693 0.939693 0 -0.342021 0 1 0 98139.dat
1 297 54 -46 19.17 0.309017 0 -0.951057 -0.951057 0 -0.309018 0 1 0 98139.dat
0 STEP
0 NOFILE
0 FILE Michelangelo
0 Michelangelo
0 Name: Michelangelo
0 Author: 
0 CustomBrick
0 FlexibleBrickControlPointUnitLength -1
0 FlexibleBrickLockedControlPoint 
0 NumOfBricks 143
1 0 0 -8 -20 1 0 0 0 1 0 0 0 1 3958.dat
1 0 0 -16 0 1 0 0 0 1 0 0 0 1 87079.dat
1 0 0 -16 -50 1 0 0 0 1 0 0 0 1 2431.dat
1 0 0 -16 -30 1 0 0 0 1 0 0 0 1 41740.dat
0 STEP
1 3 -30 -24 -20 0 0 1 0 1 0 -1 0 0 3023b.dat
1 3 30 -24 -20 0 0 1 0 1 0 -1 0 0 3023b.dat
1 25 -30 -32 -20 0 0 1 0 1 0 -1 0 0 3023b.dat
1 25 30 -32 -20 0 0 1 0 1 0 -1 0 0 3023b.dat
0 STEP
1 3 -30 -40 -20 0 0 1 0 1 0 -1 0 0 3023b.dat
1 3 30 -40 -20 0 0 1 0 1 0 -1 0 0 3023b.dat
0 STEP
1 3 0 -48 -20 1 0 0 0 1 0 0 0 1 3020.dat
1 3 -30 -56 -20 0 0 1 0 1 0 -1 0 0 3023b.dat
1 3 30 -56 -20 0 0 1 0 1 0 -1 0 0 3023b.dat
0 STEP
1 2 0 -56 -10 -1 0 0 0 1 0 0 0 -1 28802.dat
1 2 0 -56 -30 1 0 0 0 1 0 0 0 1 28802.dat
0 STEP
1 19 0 -64 -20 1 0 0 0 1 0 0 0 1 14769pb160.dat
1 0 30 -96 -20 0 0 -1 0 1 0 1 0 0 22885.dat
1 0 -30 -96 -20 0 0 1 0 1 0 -1 0 0 22885.dat
0 STEP
1 4 0 -88 -20 1 0 0 0 1 0 0 0 1 3941.dat
0 STEP
1 2 0 -96 -30 1 0 0 0 1 0 0 0 1 93274.dat
1 2 0 -96 -10 -1 0 0 0 1 0 0 0 -1 93274.dat
0 STEP
1 3 0 -56 -52 1 0 0 0 0 -1 0 1 0 3022.dat
1 3 0 -86 -52 1 0 0 0 0 -1 0 1 0 3710.dat
1 3 -30 -46 -52 1 0 0 0 0 -1 0 1 0 3024.dat
1 3 30 -46 -52 1 0 0 0 0 -1 0 1 0 3024.dat
1 0 -30 -66 -60 1 0 0 0 0 -1 0 1 0 86996.dat
1 0 30 -66 -60 1 0 0 0 0 -1 0 1 0 86996.dat
0 STEP
1 191 -20 -86 -60 1 0 0 0 0 -1 0 1 0 3069b.dat
1 191 20 -86 -60 1 0 0 0 0 -1 0 1 0 3069b.dat
1 191 0 -56 -60 1 0 0 0 0 -1 0 1 0 3022.dat
1 191 -30 -46 -60 1 0 0 0 0 -1 0 1 0 3070b.dat
1 191 30 -46 -60 1 0 0 0 0 -1 0 1 0 3070b.dat
0 STEP
1 0 0 -66 -68 1 0 0 0 0 -1 0 1 0 15573.dat
1 0 -30 -66 -68 1 0 0 0 0 -1 0 1 0 3070b.dat
1 0 30 -66 -68 1 0 0 0 0 -1 0 1 0 3070b.dat
0 STEP
1 0 10 -46 -68 0 0 1 1 0 0 0 1 0 25269.dat
1 0 -10 -46 -60 -1 0 0 0 0 1 0 1 0 54200.dat
1 0 0 -66 -68 1 0 0 0 0 -1 0 1 0 bl_98138pb469.dat
0 STEP
1 3 48 -86 -20 0 -1 0 0 0 1 -1 0 0 3023b.dat
1 3 48 -66 -30 0 -1 0 1 0 0 0 0 1 3024.dat
1 25 48 -66 -10 0 -1 0 -1 0 0 0 0 -1 36840.dat
0 STEP
1 25 50 -66 12 0 0 -1 1 0 0 0 -1 0 3070b.dat
1 3 56 -86 -10 0 -1 0 1 0 0 0 0 1 3070b.dat
1 3 56 -76 -30 0 -1 0 1 0 0 0 0 1 11476.dat
1 3 56 -66 -10 0 -1 0 1 0 0 0 0 1 3024.dat
0 STEP
1 25 64 -66 -10 0 -1 0 1 0 0 0 0 1 25269.dat
0 STEP
1 3 0 -86 12 1 0 0 0 0 1 0 -1 0 3710.dat
1 3 0 -56 12 1 0 0 0 0 1 0 -1 0 3020.dat
0 STEP
1 0 0 -66 20 1 0 0 0 0 1 0 -1 0 3710.dat
1 3 0 -46 20 1 0 0 0 0 1 0 -1 0 3710.dat
1 3 0 -86 20 1 0 0 0 0 1 0 -1 0 3710.dat
0 STEP
1 0 0 -66 28 1 0 0 0 0 1 0 -1 0 3710.dat
1 70 0 -46 28 1 0 0 0 0 1 0 -1 0 3023b.dat
1 70 0 -86 28 1 0 0 0 0 1 0 -1 0 3023b.dat
1 70 30 -86 28 1 0 0 0 0 1 0 -1 0 25269.dat
1 70 -30 -86 28 0 0 1 -1 0 0 0 -1 0 25269.dat
1 70 -30 -46 28 -1 0 0 0 0 -1 0 -1 0 25269.dat
1 70 30 -46 28 0 0 -1 1 0 0 0 -1 0 25269.dat
0 STEP
1 25 0 -66 36 1 0 0 0 0 1 0 -1 0 3023b.dat
1 70 0 -86 28 1 0 0 0 0 1 0 -1 0 85984.dat
1 70 0 -46 28 -1 0 0 0 0 -1 0 -1 0 85984.dat
1 0 -30 -66 28 0 0 1 -1 0 0 0 -1 0 54200.dat
1 0 30 -66 28 0 0 -1 1 0 0 0 -1 0 54200.dat
0 STEP
1 0 10 -66 44 -1 0 0 0 0 -1 0 -1 0 15712.dat
1 0 -10 -66 44 -1 0 0 0 0 -1 0 -1 0 15712.dat
0 STEP
1 3 -48 -86 -20 0 1 0 0 0 -1 -1 0 0 3023b.dat
1 3 -48 -66 -30 0 1 0 -1 0 0 0 0 1 3024.dat
1 25 -48 -66 -10 0 1 0 1 0 0 0 0 -1 36840.dat
0 STEP
1 25 -50 -66 12 0 0 -1 1 0 0 0 -1 0 3070b.dat
1 3 -56 -86 -10 0 1 0 -1 0 0 0 0 1 3070b.dat
1 3 -56 -66 -10 0 1 0 -1 0 0 0 0 1 3024.dat
1 3 -56 -76 -30 0 1 0 -1 0 0 0 0 1 11476.dat
0 STEP
1 25 -64 -66 -10 0 1 0 0 0 -1 -1 0 0 25269.dat
0 STEP
1 3 0 -104 -0 1 0 0 0 1 0 0 0 1 3020.dat
1 3 -0 -104 -40 1 0 0 0 1 0 0 0 1 3020.dat
0 STEP
1 71 -20 -144 10 -1 0 0 0 1 0 0 0 -1 22885.dat
1 71 20 -144 10 -1 0 0 0 1 0 0 0 -1 22885.dat
1 19 -0 -128 -20 1 0 0 0 1 0 0 0 1 3003.dat
0 STEP
1 19 -0 -152 -20 1 0 0 0 1 0 0 0 1 3003.dat
1 71 -30 -144 -20 0 0 1 0 1 0 -1 0 0 22885.dat
1 71 30 -144 -20 0 0 -1 0 1 0 1 0 0 22885.dat
1 71 -20 -144 -50 1 0 0 0 1 0 0 0 1 22885.dat
1 71 20 -144 -50 1 0 0 0 1 0 0 0 1 22885.dat
0 STEP
1 71 0 -184 10 -1 0 0 0 1 0 0 0 -1 22885.dat
1 71 -30 -184 -0 0 0 1 0 1 0 -1 0 0 22885.dat
1 71 30 -184 -0 0 0 -1 0 1 0 1 0 0 22885.dat
1 25 -0 -160 -20 1 0 0 0 1 0 0 0 1 4032a.dat
1 29 -0 -184 -20 1 0 0 0 1 0 0 0 1 3003.dat
0 STEP
1 71 -30 -184 -40 0 0 1 0 1 0 -1 0 0 22885.dat
1 71 30 -184 -40 0 0 -1 0 1 0 1 0 0 22885.dat
1 71 -0 -184 -50 1 0 0 0 1 0 0 0 1 22885.dat
0 STEP
1 3 0 -114 -68 1 0 0 0 0 -1 0 1 0 3710.dat
1 25 0 -134 -68 1 0 0 0 0 -1 0 1 0 3710.dat
1 3 -0 -164 -68 1 0 0 0 0 -1 0 1 0 3020.dat
0 STEP
1 3 -0 -164 -76 1 0 0 0 0 -1 0 1 0 87079.dat
1 25 0 -134 -76 1 0 0 0 0 -1 0 1 0 3069b.dat
1 25 -30 -134 -76 1 0 0 0 0 -1 0 1 0 3024.dat
1 25 30 -134 -76 1 0 0 0 0 -1 0 1 0 3024.dat
1 3 0 -114 -76 1 0 0 0 0 -1 0 1 0 3710.dat
0 STEP
1 3 0 -114 -84 1 0 0 0 0 -1 0 1 0 3023b.dat
1 0 -30 -134 -84 1 0 0 0 0 -1 0 1 0 98138pz0.dat
1 0 30 -134 -84 1 0 0 0 0 -1 0 1 0 98138pz0.dat
0 STEP
1 3 -0 -114 -76 0 0 1 1 0 0 0 1 0 93273.dat
0 STEP
1 3 48 -114 -30 0 -1 0 0 0 1 -1 0 0 3623.dat
1 3 -48 -114 -30 0 1 0 0 0 -1 -1 0 0 3623.dat
1 25 -48 -134 -20 0 1 0 0 0 -1 -1 0 0 2431.dat
1 25 48 -134 -20 0 -1 0 0 0 -1 1 0 0 2431.dat
1 3 48 -164 -20 0 -1 0 0 0 1 -1 0 0 87079.dat
1 3 -48 -164 -20 0 1 0 0 0 1 1 0 0 87079.dat
0 STEP
1 3 40 -114 -60 0 -1 0 1 0 0 0 0 1 11477.dat
1 3 40 -114 -0 0 -1 0 -1 0 0 0 0 -1 11477.dat
1 3 56 -114 -30 0 -1 0 1 0 0 0 0 1 3070b.dat
1 3 -40 -114 -60 0 1 0 -1 0 0 0 0 1 11477.dat
1 3 -40 -114 -0 0 1 0 1 0 0 0 0 -1 11477.dat
1 3 -56 -114 -30 0 1 0 -1 0 0 0 0 1 3070b.dat
0 STEP
1 3 -0 -192 -20 -1 0 0 0 1 0 0 0 -1 3020.dat
0 STEP
1 3 -20 -184 -40 1 0 0 0 1 0 0 0 1 15068.dat
1 3 20 -184 -40 1 0 0 0 1 0 0 0 1 15068.dat
1 3 -20 -184 -0 -1 0 0 0 1 0 0 0 -1 15068.dat
1 3 20 -184 -0 -1 0 0 0 1 0 0 0 -1 15068.dat
0 STEP
1 3 -0 -114 28 1 0 0 0 0 1 0 -1 0 3710.dat
1 25 -0 -134 28 1 0 0 0 0 1 0 -1 0 3710.dat
1 3 -20 -164 28 1 0 0 0 0 1 0 -1 0 3022.dat
1 25 20 -184 28 0 0 1 -1 0 0 0 -1 0 26601.dat
1 3 20 -154 28 1 0 0 0 0 1 0 -1 0 3023b.dat
0 STEP
1 3 -0 -114 36 1 0 0 0 0 1 0 -1 0 2431.dat
1 25 -0 -134 36 1 0 0 0 0 1 0 -1 0 3023b.dat
1 25 30 -134 36 1 0 0 0 0 1 0 -1 0 3070b.dat
1 25 -30 -134 36 1 0 0 0 0 1 0 -1 0 3070b.dat
1 3 -20 -164 36 1 0 0 0 0 1 0 -1 0 3068b.dat
0 STEP
1 25 40 -194 20 0 0 -1 1 0 0 0 -1 0 29120.dat
1 3 10 -164 36 0 0 1 -1 0 0 0 -1 0 3023b.dat
1 3 30 -174.0001 36 1 0 0 0 0 1 0 -1 0 3070b.dat
0 STEP
1 25 10 -184.0001 28 1 0 0 0 0 1 0 -1 0 29119.dat
1 25 40 -154 36 1 0 0 0 0 1 0 -1 0 3023b.dat
0 STEP
1 25 20 -154 44 1 0 0 0 0 1 0 -1 0 3069b.dat
1 25 60 -154 28 0 0 -1 1 0 0 0 -1 0 29119.dat
0 STEP
0 STEP
1 308 54 -59.5 -50 1 0 0 0 -1 0 0 0 -1 64567b.dat
1 297 54 -50 -50 1 0 0 0 1 0 0 0 1 6981-f1.dat copy 6
1 308 53.474 -22.9522 -77.5239 0 0 -1 1 0 0 0 -1 0 64567b.dat
1 308 -54 -59.5 -50 1 0 0 0 -1 0 0 0 -1 64567b.dat
1 297 -54 -50 -50 1 0 0 0 1 0 0 0 1 6981-f1.dat copy 4
1 308 -54.526 -22.9522 -77.5239 0 0 -1 1 0 0 0 -1 0 64567b.dat
0 STEP
0 NOFILE
0 FILE 6981-f1.dat Copy 6
0 Chain with Bar Ends
0 Name: 6981
0 Author: Philippe Hurbain [Philo]
0 FlexibleBrick: 6981-f1.dat
0 FlexibleBrickControlPointUnitLength -1
0 FlexibleBrickLockedControlPoint 
1 16 0 0 0 1 0 0 0 1 0 0 0 1 6981k01.dat
1 16 -0.263 20.0239 -1.012 0.967847 -0.037036 0.248798 0 0.989101 0.147239 -0.25154 -0.142505 0.957298 6981k02.dat
1 16 -0.526 27.0478 -15.0239 0 0 1 1 0 0 0 1 0 6981k01.dat
0 NOFILE
0 FILE 6981-f1.dat Copy 4
0 Chain with Bar Ends
0 Name: 6981
0 Author: Philippe Hurbain [Philo]
0 FlexibleBrick: 6981-f1.dat
0 FlexibleBrickControlPointUnitLength -1
0 FlexibleBrickLockedControlPoint 
1 16 0 0 0 1 0 0 0 1 0 0 0 1 6981k01.dat
1 16 -0.263 20.0239 -1.012 0.967847 -0.037036 0.248798 0 0.989101 0.147239 -0.25154 -0.142505 0.957298 6981k02.dat
1 16 -0.526 27.0478 -15.0239 0 0 1 1 0 0 0 1 0 6981k01.dat
0 NOFILE
