0 FILE 41609 Chewbacca
0 41609 Chewbacca
0 SetNumber: 41609
0 Name: Chewbacca
0 Theme: Brickheadz
0 ReleaseYear: 2018
0 NumOfBricks: 149
0 Labels: incomplete
0 Notes: Missing printed pieces on torso and back
0 _stepReady: true
1 0 2.315750 -8.000000 -5.263170 -1.000000 0.000000 0.000000 0.000000 1.000000 0.000000 0.000000 0.000000 -1.000000 3958.dat
1 0 2.315750 -16.000000 -25.263160 -1.000000 0.000000 0.000000 0.000000 1.000000 0.000000 0.000000 0.000000 -1.000000 87079.dat
1 0 2.315750 -16.000000 4.736830 -1.000000 0.000000 0.000000 0.000000 1.000000 0.000000 0.000000 0.000000 -1.000000 92593.dat
1 0 2.315750 -16.000000 24.736830 -1.000000 0.000000 0.000000 0.000000 1.000000 0.000000 0.000000 0.000000 -1.000000 2431.dat
0 STEP
1 84 32.315750 -24.000000 -5.263160 0.000000 0.000000 -1.000000 0.000000 1.000000 0.000000 1.000000 0.000000 0.000000 3023b.dat
1 84 -27.684240 -24.000000 -5.263170 0.000000 0.000000 -1.000000 0.000000 1.000000 0.000000 1.000000 0.000000 0.000000 3023b.dat
1 84 32.315760 -32.000000 -5.263160 0.000000 0.000000 -1.000000 0.000000 1.000000 0.000000 1.000000 0.000000 0.000000 3023b.dat
1 84 -27.684240 -32.000000 -5.263170 0.000000 0.000000 -1.000000 0.000000 1.000000 0.000000 1.000000 0.000000 0.000000 3023b.dat
0 STEP
1 70 32.315760 -40.000000 -5.263160 0.000000 0.000000 -1.000000 0.000000 1.000000 0.000000 1.000000 0.000000 0.000000 3023b.dat
1 70 -27.684250 -40.000000 -5.263170 0.000000 0.000000 -1.000000 0.000000 1.000000 0.000000 1.000000 0.000000 0.000000 3023b.dat
0 STEP
1 70 2.315760 -48.000000 -5.263160 -1.000000 0.000000 0.000000 0.000000 1.000000 0.000000 0.000000 0.000000 -1.000000 3020.dat
0 STEP
1 70 2.315760 -56.000000 -5.263160 0.000000 0.000000 -1.000000 0.000000 1.000000 0.000000 1.000000 0.000000 0.000000 3031.dat
0 STEP
1 70 32.315780 -64.000000 -25.263160 0.000000 0.000000 -1.000000 0.000000 1.000000 0.000000 1.000000 0.000000 0.000000 3023b.dat
1 70 32.315780 -64.000000 14.736840 0.000000 0.000000 -1.000000 0.000000 1.000000 0.000000 1.000000 0.000000 0.000000 3023b.dat
1 0 -27.684190 -64.000000 -5.263160 0.000000 0.000000 1.000000 0.000000 1.000000 0.000000 -1.000000 0.000000 0.000000 99781.dat
1 308 -49.684240 -54.000000 -5.263160 0.000000 1.000000 0.000000 0.000000 0.000000 1.000000 1.000000 0.000000 0.000000 3069b.dat
0 STEP
1 70 2.315820 -104.000000 24.736840 -1.000000 0.000000 0.000000 0.000000 1.000000 0.000000 0.000000 0.000000 -1.000000 3245c.dat
1 14 2.315820 -80.000000 -5.263160 0.000000 0.000000 -1.000000 0.000000 1.000000 0.000000 1.000000 0.000000 0.000000 3941.dat
1 14 2.315820 -104.000000 -5.263160 0.000000 0.000000 -1.000000 0.000000 1.000000 0.000000 1.000000 0.000000 0.000000 3941.dat
0 STEP
1 84 32.315780 -88.000000 24.736840 1.000000 0.000000 0.000000 0.000000 1.000000 0.000000 0.000000 0.000000 1.000000 3005.dat
1 84 32.315780 -88.000000 -35.263160 1.000000 0.000000 0.000000 0.000000 1.000000 0.000000 0.000000 0.000000 1.000000 3005.dat
1 308 32.315780 -96.000000 24.736840 1.000000 0.000000 0.000000 0.000000 1.000000 0.000000 0.000000 0.000000 1.000000 3024.dat
1 308 32.315780 -104.000000 24.736840 1.000000 0.000000 0.000000 0.000000 1.000000 0.000000 0.000000 0.000000 1.000000 3024.dat
1 308 32.315780 -96.000000 -35.263160 1.000000 0.000000 0.000000 0.000000 1.000000 0.000000 0.000000 0.000000 1.000000 3024.dat
1 308 32.315780 -104.000000 -35.263160 1.000000 0.000000 0.000000 0.000000 1.000000 0.000000 0.000000 0.000000 1.000000 3024.dat
1 71 32.315780 -104.000000 -5.263160 0.000000 0.000000 -1.000000 0.000000 1.000000 0.000000 1.000000 0.000000 0.000000 22885.dat
0 STEP
1 308 -27.684240 -64.000000 24.736840 1.000000 0.000000 0.000000 0.000000 1.000000 0.000000 0.000000 0.000000 1.000000 3024.dat
1 308 -27.684240 -72.000000 24.736840 1.000000 0.000000 0.000000 0.000000 1.000000 0.000000 0.000000 0.000000 1.000000 3024.dat
1 308 -27.684240 -64.000000 -35.263160 1.000000 0.000000 0.000000 0.000000 1.000000 0.000000 0.000000 0.000000 1.000000 3024.dat
1 308 -27.684240 -72.000000 -35.263160 1.000000 0.000000 0.000000 0.000000 1.000000 0.000000 0.000000 0.000000 1.000000 3024.dat
1 84 -27.684240 -96.000000 24.736840 1.000000 0.000000 0.000000 0.000000 1.000000 0.000000 0.000000 0.000000 1.000000 3005.dat
1 84 -27.684240 -96.000000 -35.263160 1.000000 0.000000 0.000000 0.000000 1.000000 0.000000 0.000000 0.000000 1.000000 3005.dat
1 71 -27.684190 -104.000000 -5.263160 0.000000 0.000000 1.000000 0.000000 1.000000 0.000000 -1.000000 0.000000 0.000000 22885.dat
1 308 -27.684240 -104.000000 24.736840 1.000000 0.000000 0.000000 0.000000 1.000000 0.000000 0.000000 0.000000 1.000000 3024.dat
1 308 -27.684240 -104.000000 -35.263160 1.000000 0.000000 0.000000 0.000000 1.000000 0.000000 0.000000 0.000000 1.000000 3024.dat
0 STEP
1 70 2.315760 -104.000000 -35.263160 1.000000 0.000000 0.000000 0.000000 1.000000 0.000000 0.000000 0.000000 1.000000 3245c.dat
0 STEP
1 308 -27.684200 -112.000000 14.736840 0.000000 0.000000 1.000000 0.000000 1.000000 0.000000 -1.000000 0.000000 0.000000 3023b.dat
1 308 32.315780 -112.000000 14.736840 0.000000 0.000000 1.000000 0.000000 1.000000 0.000000 -1.000000 0.000000 0.000000 3023b.dat
1 308 32.315780 -112.000000 -25.263160 0.000000 0.000000 1.000000 0.000000 1.000000 0.000000 -1.000000 0.000000 0.000000 3023b.dat
1 308 -27.684250 -112.000000 -25.263160 0.000000 0.000000 1.000000 0.000000 1.000000 0.000000 -1.000000 0.000000 0.000000 3023b.dat
1 70 2.315750 -112.000000 -5.263160 0.000000 0.000000 1.000000 0.000000 1.000000 0.000000 -1.000000 0.000000 0.000000 3020.dat
0 STEP
1 70 -45.684200 -84.000000 -5.263160 0.000000 1.000000 0.000000 -1.000000 0.000000 0.000000 0.000000 0.000000 1.000000 3022.dat
1 70 50.315780 -83.999980 -5.263160 0.000000 -1.000000 0.000000 -1.000000 0.000000 0.000000 0.000000 0.000000 -1.000000 3022.dat
0 STEP
1 84 -53.684200 -84.000000 -15.263160 0.000000 1.000000 0.000000 -1.000000 0.000000 0.000000 0.000000 0.000000 1.000000 11476.dat
1 84 58.315780 -74.000000 -5.263160 0.000000 -1.000000 0.000000 0.000000 0.000000 -1.000000 1.000000 0.000000 0.000000 11476.dat
1 70 50.315780 -93.999980 -15.263160 0.000000 -1.000000 0.000000 1.000000 0.000000 0.000000 0.000000 0.000000 1.000000 54200.dat
1 70 50.315780 -93.999980 4.736840 0.000000 -1.000000 0.000000 0.000000 0.000000 1.000000 -1.000000 0.000000 0.000000 54200.dat
1 70 -45.684200 -94.000000 4.736840 0.000000 1.000000 0.000000 0.000000 0.000000 1.000000 1.000000 0.000000 0.000000 54200.dat
1 70 -45.684190 -74.000000 4.736840 0.000000 1.000000 0.000000 1.000000 0.000000 0.000000 0.000000 0.000000 -1.000000 54200.dat
0 STEP
1 71 -17.684200 -152.000000 24.736850 -1.000000 0.000000 0.000000 0.000000 1.000000 0.000000 0.000000 0.000000 -1.000000 22885.dat
1 71 22.315750 -152.000000 24.736850 -1.000000 0.000000 0.000000 0.000000 1.000000 0.000000 0.000000 0.000000 -1.000000 22885.dat
1 27 2.315750 -136.000000 -5.263160 1.000000 0.000000 0.000000 0.000000 1.000000 0.000000 0.000000 0.000000 1.000000 3003.dat
1 27 2.315750 -160.000000 -5.263160 1.000000 0.000000 0.000000 0.000000 1.000000 0.000000 0.000000 0.000000 1.000000 3003.dat
0 STEP
1 71 -27.684260 -152.000000 -5.263160 0.000000 0.000000 1.000000 0.000000 1.000000 0.000000 -1.000000 0.000000 0.000000 22885.dat
1 71 32.315770 -152.000000 -5.263160 0.000000 0.000000 -1.000000 0.000000 1.000000 0.000000 1.000000 0.000000 0.000000 22885.dat
1 71 -17.684250 -152.000000 -35.263160 1.000000 0.000000 0.000000 0.000000 1.000000 0.000000 0.000000 0.000000 1.000000 22885.dat
1 71 22.315760 -152.000000 -35.263160 1.000000 0.000000 0.000000 0.000000 1.000000 0.000000 0.000000 0.000000 1.000000 22885.dat
0 STEP
1 71 2.315800 -192.000000 24.736840 -1.000000 0.000000 0.000000 0.000000 1.000000 0.000000 0.000000 0.000000 -1.000000 22885.dat
1 71 -27.684260 -192.000000 14.736840 0.000000 0.000000 1.000000 0.000000 1.000000 0.000000 -1.000000 0.000000 0.000000 22885.dat
1 71 32.315780 -192.000000 14.736850 0.000000 0.000000 -1.000000 0.000000 1.000000 0.000000 1.000000 0.000000 0.000000 22885.dat
1 322 2.315750 -168.000000 -5.263160 1.000000 0.000000 0.000000 0.000000 1.000000 0.000000 0.000000 0.000000 1.000000 4032a.dat
1 29 2.315750 -192.000000 -5.263160 1.000000 0.000000 0.000000 0.000000 1.000000 0.000000 0.000000 0.000000 1.000000 3003.dat
0 STEP
1 71 -27.684250 -192.000000 -25.263160 0.000000 0.000000 1.000000 0.000000 1.000000 0.000000 -1.000000 0.000000 0.000000 22885.dat
1 71 32.315760 -192.000000 -25.263150 0.000000 0.000000 -1.000000 0.000000 1.000000 0.000000 1.000000 0.000000 0.000000 22885.dat
1 71 2.315750 -192.000000 -35.263150 1.000000 0.000000 0.000000 0.000000 1.000000 0.000000 0.000000 0.000000 1.000000 22885.dat
0 STEP
1 15 2.315750 -208.000000 24.736850 -1.000000 0.000000 0.000000 0.000000 1.000000 0.000000 0.000000 0.000000 -1.000000 99206.dat
1 15 2.315750 -208.000000 -35.263150 1.000000 0.000000 0.000000 0.000000 1.000000 0.000000 0.000000 0.000000 1.000000 99206.dat
1 4 -27.684260 -200.000000 4.736840 0.000000 0.000000 1.000000 0.000000 1.000000 0.000000 -1.000000 0.000000 0.000000 3623.dat
1 4 32.315750 -200.000000 4.736850 0.000000 0.000000 1.000000 0.000000 1.000000 0.000000 -1.000000 0.000000 0.000000 3623.dat
0 STEP
1 70 -27.684260 -208.000000 4.736840 1.000000 0.000000 0.000000 0.000000 1.000000 0.000000 0.000000 0.000000 1.000000 2420.dat
1 70 32.315750 -208.000000 4.736850 0.000000 0.000000 -1.000000 0.000000 1.000000 0.000000 1.000000 0.000000 0.000000 2420.dat
1 1 2.315750 -208.000000 -15.263160 1.000000 0.000000 0.000000 0.000000 1.000000 0.000000 0.000000 0.000000 1.000000 3710.dat
0 STEP
1 70 -7.684260 -216.000000 4.736840 0.000000 0.000000 -1.000000 0.000000 1.000000 0.000000 1.000000 0.000000 0.000000 2420.dat
1 70 12.315750 -216.000000 4.736850 1.000000 0.000000 0.000000 0.000000 1.000000 0.000000 0.000000 0.000000 1.000000 2420.dat
0 STEP
1 70 2.315740 -224.000000 4.736840 1.000000 0.000000 0.000000 0.000000 1.000000 0.000000 0.000000 0.000000 1.000000 3023b.dat
1 70 2.315740 -216.000000 14.736840 -1.000000 0.000000 0.000000 0.000000 1.000000 0.000000 0.000000 0.000000 -1.000000 15068.dat
1 70 -27.684260 -208.000000 14.736840 -1.000000 0.000000 0.000000 0.000000 1.000000 0.000000 0.000000 0.000000 -1.000000 11477.dat
1 70 32.315750 -208.000000 14.736860 -1.000000 0.000000 0.000000 0.000000 1.000000 0.000000 0.000000 0.000000 -1.000000 11477.dat
0 STEP
1 70 -27.684250 -224.000000 -15.263160 1.000000 0.000000 0.000000 0.000000 1.000000 0.000000 0.000000 0.000000 1.000000 6091.dat
1 70 32.315760 -224.000000 -15.263150 1.000000 0.000000 0.000000 0.000000 1.000000 0.000000 0.000000 0.000000 1.000000 6091.dat
1 70 2.315750 -232.000000 -15.263160 1.000000 0.000000 0.000000 0.000000 1.000000 0.000000 0.000000 0.000000 1.000000 3004.dat
1 70 2.315750 -216.000000 -35.263160 1.000000 0.000000 0.000000 0.000000 1.000000 0.000000 0.000000 0.000000 1.000000 3023b.dat
0 STEP
1 70 -27.684250 -216.000000 -15.263160 0.000000 0.000000 1.000000 0.000000 1.000000 0.000000 -1.000000 0.000000 0.000000 54200.dat
1 70 32.315760 -216.000000 -15.263150 0.000000 0.000000 -1.000000 0.000000 1.000000 0.000000 1.000000 0.000000 0.000000 54200.dat
1 70 -7.684240 -216.000000 -35.263150 1.000000 0.000000 0.000000 0.000000 1.000000 0.000000 0.000000 0.000000 1.000000 54200.dat
1 70 12.315750 -216.000000 -35.263160 1.000000 0.000000 0.000000 0.000000 1.000000 0.000000 0.000000 0.000000 1.000000 54200.dat
0 STEP
1 0 2.315760 -122.000000 -61.263160 1.000000 0.000000 0.000000 0.000000 0.000000 -1.000000 0.000000 1.000000 0.000000 99206.dat
1 84 -7.684240 -104.000000 -55.263160 1.000000 0.000000 0.000000 0.000000 -1.000000 0.000000 0.000000 0.000000 -1.000000 3024.dat
0 STEP
1 84 12.315760 -112.000000 -55.263160 0.000000 0.000000 -1.000000 0.000000 -1.000000 0.000000 -1.000000 0.000000 0.000000 54200.dat
1 84 -7.684240 -104.000000 -55.263160 0.000000 0.000000 1.000000 0.000000 -1.000000 0.000000 1.000000 0.000000 0.000000 54200.dat
1 84 2.315760 -122.000000 -61.263160 1.000000 0.000000 0.000000 0.000000 0.000000 -1.000000 0.000000 1.000000 0.000000 85984.dat
0 STEP
1 25 2.315760 -142.000000 -61.263160 1.000000 0.000000 0.000000 0.000000 0.000000 -1.000000 0.000000 1.000000 0.000000 3023b.dat
1 25 2.315760 -162.000000 -53.263150 1.000000 0.000000 0.000000 0.000000 0.000000 -1.000000 0.000000 1.000000 0.000000 3023b.dat
1 70 2.315760 -202.000000 -53.263160 -1.000000 0.000000 0.000000 0.000000 0.000000 1.000000 0.000000 1.000000 0.000000 32028.dat
0 STEP
1 70 -27.684240 -132.000000 -53.263160 0.000000 0.000000 1.000000 1.000000 0.000000 0.000000 0.000000 1.000000 0.000000 3023b.dat
1 70 32.315760 -132.000000 -53.263150 0.000000 0.000000 1.000000 1.000000 0.000000 0.000000 0.000000 1.000000 0.000000 3023b.dat
1 84 -27.684240 -142.000000 -61.263160 1.000000 0.000000 0.000000 0.000000 0.000000 -1.000000 0.000000 1.000000 0.000000 3024.dat
1 84 32.315760 -142.000000 -61.263150 1.000000 0.000000 0.000000 0.000000 0.000000 -1.000000 0.000000 1.000000 0.000000 3024.dat
1 84 -27.684240 -122.000000 -61.263160 1.000000 0.000000 0.000000 0.000000 0.000000 -1.000000 0.000000 1.000000 0.000000 3070b.dat
1 84 32.315760 -122.000000 -61.263150 1.000000 0.000000 0.000000 0.000000 0.000000 -1.000000 0.000000 1.000000 0.000000 3070b.dat
0 STEP
1 0 -27.684240 -142.000000 -69.263170 1.000000 0.000000 0.000000 0.000000 0.000000 -1.000000 0.000000 1.000000 0.000000 98138pz0.dat
1 0 32.315760 -142.000000 -69.263140 1.000000 0.000000 0.000000 0.000000 0.000000 -1.000000 0.000000 1.000000 0.000000 98138pz0.dat
1 70 32.315760 -182.000000 -53.263160 0.000000 0.000000 1.000000 1.000000 0.000000 0.000000 0.000000 1.000000 0.000000 3623.dat
1 70 -27.684250 -182.000000 -53.263160 0.000000 0.000000 1.000000 1.000000 0.000000 0.000000 0.000000 1.000000 0.000000 3623.dat
1 70 2.315760 -162.000000 -61.263160 -1.000000 0.000000 0.000000 0.000000 0.000000 1.000000 0.000000 1.000000 0.000000 93604.dat
0 STEP
1 84 2.315750 -152.000000 -69.263170 1.000000 0.000000 0.000000 0.000000 0.000000 -1.000000 0.000000 1.000000 0.000000 3022.dat
1 84 2.315750 -142.000000 -77.263180 1.000000 0.000000 0.000000 0.000000 0.000000 -1.000000 0.000000 1.000000 0.000000 15573.dat
1 0 2.315750 -142.000000 -85.263180 -0.707107 0.000000 -0.707107 -0.707107 0.000000 0.707107 0.000000 1.000000 0.000000 25269.dat
0 STEP
1 70 -45.684260 -132.000000 -25.263160 0.000000 1.000000 0.000000 -1.000000 0.000000 0.000000 0.000000 0.000000 1.000000 3022.dat
1 70 -45.684260 -122.000000 14.736840 0.000000 1.000000 0.000000 0.000000 0.000000 -1.000000 -1.000000 0.000000 0.000000 3023b.dat
1 70 -37.684260 -112.000000 -35.263160 0.000000 1.000000 0.000000 0.000000 0.000000 -1.000000 -1.000000 0.000000 0.000000 11477.dat
1 308 -53.684260 -122.000000 -15.263160 0.000000 1.000000 0.000000 -1.000000 0.000000 0.000000 0.000000 0.000000 1.000000 3024.dat
1 70 -45.684260 -122.000000 -5.263160 0.000000 1.000000 0.000000 1.000000 0.000000 0.000000 0.000000 0.000000 -1.000000 11477.dat
1 70 -61.684260 -142.000000 4.736840 0.000000 1.000000 0.000000 1.000000 0.000000 0.000000 0.000000 0.000000 -1.000000 50950.dat
1 70 -45.684260 -142.000000 -35.263160 0.000000 1.000000 0.000000 -1.000000 0.000000 0.000000 0.000000 0.000000 1.000000 54200.dat
0 STEP
1 70 -45.684260 -162.000000 -5.263160 0.000000 1.000000 0.000000 0.000000 0.000000 1.000000 1.000000 0.000000 0.000000 93604.dat
1 70 -45.684260 -162.000000 4.736840 0.000000 1.000000 0.000000 1.000000 0.000000 0.000000 0.000000 0.000000 -1.000000 54200.dat
1 70 -45.684250 -162.000000 -15.263160 0.000000 1.000000 0.000000 0.000000 0.000000 1.000000 1.000000 0.000000 0.000000 54200.dat
0 STEP
1 70 50.315780 -132.000000 -25.263160 0.000000 -1.000000 0.000000 1.000000 0.000000 0.000000 0.000000 0.000000 1.000000 3022.dat
1 70 50.315760 -122.000000 14.736840 0.000000 -1.000000 0.000000 0.000000 0.000000 1.000000 -1.000000 0.000000 0.000000 3023b.dat
1 70 42.315780 -112.000000 -35.263160 0.000000 -1.000000 0.000000 0.000000 0.000000 -1.000000 1.000000 0.000000 0.000000 11477.dat
1 70 50.315780 -142.000000 -35.263160 0.000000 -1.000000 0.000000 1.000000 0.000000 0.000000 0.000000 0.000000 1.000000 54200.dat
1 308 58.315780 -122.000000 -15.263160 0.000000 -1.000000 0.000000 1.000000 0.000000 0.000000 0.000000 0.000000 1.000000 3024.dat
0 STEP
1 70 66.315780 -142.000000 4.736840 0.000000 -1.000000 0.000000 -1.000000 0.000000 0.000000 0.000000 0.000000 -1.000000 50950.dat
1 70 50.315770 -122.000000 -5.263160 0.000000 -1.000000 0.000000 -1.000000 0.000000 0.000000 0.000000 0.000000 -1.000000 11477.dat
0 STEP
1 70 50.315770 -162.000000 -5.263150 0.000000 -1.000000 0.000000 0.000000 0.000000 1.000000 -1.000000 0.000000 0.000000 93604.dat
1 70 50.315760 -162.000000 -15.263150 0.000000 -1.000000 0.000000 0.000000 0.000000 1.000000 -1.000000 0.000000 0.000000 54200.dat
1 70 50.315780 -162.000000 4.736860 0.000000 -1.000000 0.000000 -1.000000 0.000000 0.000000 0.000000 0.000000 -1.000000 54200.dat
0 STEP
1 70 32.315750 -132.000000 42.736850 0.000000 0.000000 1.000000 -1.000000 0.000000 0.000000 0.000000 -1.000000 0.000000 3023b.dat
1 70 -27.684200 -132.000000 42.736850 0.000000 0.000000 1.000000 -1.000000 0.000000 0.000000 0.000000 -1.000000 0.000000 3023b.dat
1 70 2.315750 -202.000000 42.736860 1.000000 0.000000 0.000000 0.000000 0.000000 1.000000 0.000000 -1.000000 0.000000 32028.dat
0 STEP
1 70 32.315750 -112.000000 34.736850 -1.000000 0.000000 0.000000 0.000000 0.000000 -1.000000 0.000000 -1.000000 0.000000 11477.dat
1 70 -27.684200 -112.000000 34.736860 -1.000000 0.000000 0.000000 0.000000 0.000000 -1.000000 0.000000 -1.000000 0.000000 11477.dat
1 70 32.315750 -142.000000 42.736850 1.000000 0.000000 0.000000 0.000000 0.000000 1.000000 0.000000 -1.000000 0.000000 54200.dat
1 70 -27.684200 -142.000000 42.736850 1.000000 0.000000 0.000000 0.000000 0.000000 1.000000 0.000000 -1.000000 0.000000 54200.dat
1 70 2.315810 -132.000000 42.736850 0.000000 0.000000 1.000000 -1.000000 0.000000 0.000000 0.000000 -1.000000 0.000000 3020.dat
1 70 2.315810 -132.000000 50.736850 1.000000 0.000000 0.000000 0.000000 0.000000 1.000000 0.000000 -1.000000 0.000000 3022.dat
1 70 2.315810 -112.000000 42.736840 -1.000000 0.000000 0.000000 0.000000 0.000000 -1.000000 0.000000 -1.000000 0.000000 15068.dat
0 STEP
1 70 2.315750 -162.000000 50.736860 1.000000 0.000000 0.000000 0.000000 0.000000 1.000000 0.000000 -1.000000 0.000000 93604.dat
1 70 32.315760 -182.000000 42.736850 0.000000 0.000000 1.000000 -1.000000 0.000000 0.000000 0.000000 -1.000000 0.000000 3623.dat
1 70 -27.684250 -182.000000 42.736860 0.000000 0.000000 1.000000 -1.000000 0.000000 0.000000 0.000000 -1.000000 0.000000 3623.dat
0 STEP
1 70 2.315750 -152.000000 58.736860 1.000000 0.000000 0.000000 0.000000 0.000000 1.000000 0.000000 -1.000000 0.000000 3022.dat
0 STEP
1 0 -51.684200 -84.360000 -35.263160 1.000000 0.000000 0.000000 0.000000 1.000000 0.000000 0.000000 0.000000 1.000000 60849.dat
1 0 -51.684200 -96.360010 -50.503160 1.000000 0.000000 0.000000 0.000000 0.000000 1.000000 0.000000 -1.000000 0.000000 4733.dat
0 STEP
1 72 -51.684220 -96.360000 -74.503160 0.000000 0.000000 -1.000000 1.000000 0.000000 0.000000 0.000000 -1.000000 0.000000 3062b.dat
1 0 -51.684220 -96.360000 -98.503160 0.000000 0.000000 -1.000000 1.000000 0.000000 0.000000 0.000000 -1.000000 0.000000 6141.dat
1 179 -51.684220 -96.360000 -106.503200 0.000000 0.000000 -1.000000 1.000000 0.000000 0.000000 0.000000 -1.000000 0.000000 6141.dat
0 STEP
1 0 -51.684200 -114.360000 -60.503160 1.000000 0.000000 0.000000 0.000000 1.000000 0.000000 0.000000 0.000000 1.000000 15712.dat
1 0 -51.684180 -120.360000 -82.003160 0.000000 0.000000 1.000000 1.000000 0.000000 0.000000 0.000000 1.000000 0.000000 64567b.dat
0 STEP
0 NOFILE
